<svg viewBox="0 0 964 912" xmlns="http://www.w3.org/2000/svg" fill-rule="evenodd" clip-rule="evenodd" stroke-linecap="round" stroke-linejoin="round" stroke-miterlimit="10"><path d="M555.1 154.37l47.9 19.2s32.4 8.7 67 38 48.1 77.7 62.1 149.2c13.9 71.5 45.2 353.8 45.2 353.8l-55.2 12.4s-79-299.2-78.7-310c.3-10.8-11.6 193-25.2 225 .3 26.5 3 37.4-2.9 37.2-5.9-.1-111.8-2.8-111.8-2.8l-23.7-.6s-105.9-2.6-111.8-2.8c-5.9-.2-2.7-10.9-1-37.3-11.9-32.7-13.8-236.8-14-226-.3 10.8-93.9 305.7-93.9 305.7l-54.6-15.1s45.2-280.5 62.6-351.2c17.4-70.7 33.3-118.4 69.3-146 36-27.6 113.9-49 113.9-49s53.9 67.4 104.8.3z" fill="#010100" fill-rule="nonzero" stroke="#010100" stroke-width="11.24"/><path d="M535.6 268.97l74.7 1.5s-14.4 74.5-38.9 74c-24.4-.4-35.8-75.5-35.8-75.5z" fill="#fff" fill-rule="nonzero" stroke="#fff" stroke-width="11.24"/><path d="M98.9 436.97c9.5 8.8 25.9 17.9 24.7 32.7-17.8 7-35.4-18.3-46.4-29.9-2.4-2.6-1.1-8.7-1.6-13.2 4.6.7 9.7.4 13.8 2.3 3.6 1.6 6.1 5.6 9.1 8.5l.4-.4zM218.631 49.726c-2.7 12.6-2.2 31.4-15.5 38-15.1-11.7-2.3-39.8 2-55.1 1-3.4 6.9-5.4 10.6-8.1 1.8 4.3 4.6 8.5 5.1 13 .4 3.9-1.7 8.1-2.6 12.2.1-.1.3 0 .4 0zM840.7 379.97c-11.4 6.1-25.4 18.5-39 12.6-.8-19.1 28.9-27.4 43.5-34 3.2-1.5 8.6 1.8 13 2.9-2.2 4.2-3.6 9-6.7 12.3-2.7 2.9-7.3 3.9-11 5.8 0 .2.1.3.2.4zM889.8 183.47c-11.9-5-30.4-8-34.5-22.2 14.3-12.7 39.5 5 53.8 12.2 3.2 1.6 4.1 7.8 6 11.9-4.6 1-9.2 2.9-13.7 2.6-3.9-.3-7.6-3.1-11.5-4.8 0 0 0 .2-.1.3zM49.2 247.27c-11.9-5-30.4-8-34.5-22.2 14.3-12.7 39.5 5 53.8 12.2 3.2 1.6 4.1 7.8 6 11.9-4.6 1-9.2 2.9-13.7 2.6-3.9-.3-7.6-3.1-11.5-4.8 0 0-.1.2-.1.3zM943.7 596.17c-12.2 4.3-27.9 14.5-40.5 6.7 2.1-19 32.7-22.8 48-27.1 3.4-1 8.2 3.1 12.4 4.8-2.8 3.8-4.9 8.3-8.4 11.1-3.1 2.4-7.8 2.8-11.7 4.1.1.1.2.2.2.4zM40.5 787.07c-12.2 4.3-27.9 14.5-40.5 6.7 2.1-19 32.7-22.8 48-27.1 3.4-1 8.2 3.1 12.4 4.8-2.8 3.8-4.9 8.3-8.4 11.1-3.1 2.4-7.8 2.8-11.7 4.1.1.1.1.2.2.4zM586.994 25.295c-2.4 12.7-1.4 31.4-14.5 38.3-15.4-11.4-3.3-39.7.6-55.2.9-3.4 6.8-5.6 10.4-8.4 1.9 4.3 4.8 8.4 5.4 12.9.5 3.9-1.5 8.1-2.3 12.2.1.2.3.2.4.2zM342.8 873.583c-2.4 12.7-1.4 31.4-14.5 38.3-15.4-11.4-3.3-39.7.6-55.2.9-3.4 6.8-5.6 10.4-8.4 1.9 4.3 4.8 8.4 5.4 12.9.5 3.9-1.5 8.1-2.3 12.2.1.1.2.1.4.2zM598.281 807.558c10.5 7.6 27.8 14.7 28.5 29.4-16.8 9.1-37.4-13.9-49.7-24-2.7-2.3-2.2-8.5-3.2-12.9 4.7.1 9.6-.7 13.9.6 3.8 1.2 6.7 4.8 10.1 7.3.2-.1.3-.2.4-.4zM876.125 779.909c10.5 7.6 27.8 14.7 28.5 29.4-16.8 9.1-37.4-13.9-49.7-24-2.7-2.3-2.2-8.5-3.2-12.9 4.7.1 9.6-.7 13.9.6 3.8 1.2 6.7 4.8 10.1 7.3.2-.1.3-.2.4-.4z" fill="#fff" fill-rule="nonzero"/></svg>