<?xml version="1.0" encoding="UTF-8"?>
<svg xmlns="http://www.w3.org/2000/svg" viewBox="0 0 1079.07 803.44">
  <defs>
    <style>
      .cls-1 {
        stroke-width: 2.95px;
      }

      .cls-1, .cls-2, .cls-3, .cls-4 {
        fill: #1d1d1b;
      }

      .cls-1, .cls-5, .cls-3, .cls-6, .cls-4 {
        stroke-miterlimit: 10;
      }

      .cls-1, .cls-3, .cls-4 {
        stroke: #1d1d1b;
      }

      .cls-5 {
        stroke-width: 9.31px;
      }

      .cls-5, .cls-6 {
        fill: none;
        stroke: #fff;
      }

      .cls-3 {
        stroke-width: 2.6px;
      }

      .cls-7 {
        mix-blend-mode: multiply;
      }

      .cls-8 {
        fill: #6e5f7c;
        opacity: .15;
      }

      .cls-6 {
        stroke-width: 8.25px;
      }

      .cls-4 {
        stroke-width: 3.59px;
      }

      .cls-9 {
        isolation: isolate;
      }
    </style>
  </defs>
  <g class="cls-9">
    <g id="Layer_2" data-name="Layer 2">
      <g id="Layer_1-2" data-name="Layer 1">
        <g>
          <path class="cls-3" d="M1035.48,492l41.82,9.47s-34.46,87.45-67.84,98.94l-27.77-32.67,53.79-75.74Z"/>
          <path class="cls-1" d="M578,129.74l21.01-38.82s144.4-42.12,188.86,91.09c0,0,123.39-3.29,145.19,154.36,0,0,140.65,20.2,106.09,162.51,0,0,4.93,17.14-51.6,75.01-14.04,14.37-33.77,21.71-53.79,20.07-49.77-4.06-140.74-24.59-159.48-119.18,0,0-109.7-67.45-94.89-160.16l-100.56-177.71"/>
          <path class="cls-1" d="M41.92,606.53l-39.68,25.9s69.34,77.33,108.34,76.39l16.2-44.53-84.86-57.77Z"/>
          <path class="cls-1" d="M380.55,151.59l-28.6-32.25s-146.67-7.99-159.38,128.56c0,0-118.07,24.27-103.8,179.04,0,0-129.28,50.44-64.8,178.1,0,0-.88,17.39,65.73,59.88,16.54,10.55,36.94,13.14,55.62,7.15,46.43-14.91,128.38-54.64,125.2-148.75,0,0,89.34-88.5,54.68-173.38l56.17-191.33"/>
          <g>
            <path class="cls-2" d="M327.76,240.43s-93.6,55.21-28.98,166.24c0,0-88.26,69.4,6.01,180.72,0,0-62.82,33.15-44.57,127.31,18.25,94.15,99.05,88.55,99.05,88.55,0,0,133.64,3.12,198.14-15.42L486.28,170.34l-150.07-49.35-8.45,119.44Z"/>
            <path class="cls-2" d="M649.52,203.37s103.7,32.48,66.02,155.29c0,0,101.73,47.52,35.24,177.35,0,0,68.71,18,72.35,113.84,3.33,87.85-63.58,106.02-74.75,108.44-1.26,.27-2.51,.55-3.76,.87-17.26,4.35-132.37,32.61-194.27,29.48L479.21,171.16l134.92-82.18,35.39,114.39Z"/>
          </g>
          <g class="cls-7">
            <path class="cls-8" d="M815.12,603.82c.75,5.57,1.27,11.44,1.5,17.65,3.33,87.85-63.58,106.02-74.75,108.44-1.27,.27-2.51,.55-3.76,.87-16.93,4.26-132.74,51.83-190.84-2.97-57.26,64.85-194.5,47.06-194.5,47.06,0,0-69.51,4.77-94.14-69.71,.44,3.11,.96,6.28,1.59,9.54,18.25,94.15,99.05,88.55,99.05,88.55,0,0,129.06,3.01,194.73-14.48,62.66,1.9,173.67-25.34,190.6-29.61,1.26-.32,2.5-.59,3.76-.87,11.18-2.42,78.09-20.59,74.75-108.44-.68-17.94-3.64-33.15-8.01-46.03Z"/>
          </g>
          <path class="cls-4" d="M295.36,142.5s-28.79-97.89,0-107.49c28.79-9.6,132.44-14.4,154.51,19.19,22.07,33.59,65.26,105.57,24.95,129.56-40.31,23.99-179.46-41.27-179.46-41.27Z"/>
          <path class="cls-4" d="M660.52,108.74s12.18-101.31-17.81-106c-29.98-4.7-132.99,7.74-149.2,44.52-16.2,36.78-46.87,114.92-3.15,131.9,43.72,16.98,170.15-70.43,170.15-70.43Z"/>
          <circle class="cls-6" cx="482.99" cy="169.89" r="27.11"/>
          <path class="cls-5" d="M327.76,240.43s160.83,86.06,321.76-37.07"/>
          <path class="cls-5" d="M287.61,405.09s205.1,64.56,445.77-51.62"/>
          <path class="cls-5" d="M304.79,587.39s205.32,64.81,445.99-51.38"/>
          <line class="cls-5" x1="482.99" y1="196.99" x2="554.01" y2="788.76"/>
        </g>
      </g>
    </g>
  </g>
</svg>