<?xml version="1.0" encoding="UTF-8"?>
<svg id="Layer_2" data-name="Layer 2" xmlns="http://www.w3.org/2000/svg" viewBox="0 0 1087.28 1154.2">
  <defs>
    <style>
      .cls-1 {
        fill: none;
        stroke: #010100;
        stroke-miterlimit: 10;
        stroke-width: 8.49px;
      }

      .cls-2 {
        fill: #010100;
      }

      .cls-3 {
        fill: #fff;
      }

      .cls-4 {
        fill: #6195c5;
      }
    </style>
  </defs>
  <g id="Layer_1-2" data-name="Layer 1">
    <g>
      <path class="cls-2" d="M284.46,1056.86c3.55,8.13,11.08,13.73,18.43,18.7,111.11,75.27,255.48,96.63,385.54,63.56,14.21-3.61,28.69-8.06,40-17.39,18.94-15.64,25.25-44.71,14.49-66.79-77.71,4.28-155.04-10.23-232.43-18.44-67.57-7.16-137.7-10.07-198.64-40.12-14.67-7.23-32.15-8.42-33.96,11.27-1.17,12.72,1.52,37.63,6.57,49.2Z"/>
      <path class="cls-2" d="M948.68,886.12c.74,5.22,4.52,9.48,9.58,10.94,14.39,4.15,35.34,1.98,51.37-.86,14.15-2.5,29.22-6.57,38.21-17.79,11.38-14.2,8.91-35.72-.68-51.19-1.08-1.75-2.28-3.48-3.94-4.7-2.42-1.77-5.52-2.24-8.49-2.66-8.49-1.19-16.98-2.38-25.47-3.57-10.73-1.51-21.6-3.01-32.36-1.77-17.61,2.03-36,14-35.89,33.52,.02,3.63,6.08,26.78,7.68,38.08Z"/>
      <path class="cls-2" d="M3.62,675.89c-2.21,6.35-4.44,13.03-3.32,19.66,.92,5.41,3.99,10.19,7.34,14.54,17.42,22.62,44.42,37.6,72.83,40.42,2.69,.27,5.6,.38,7.88-1.07,1.54-.98,2.59-2.55,3.56-4.1,9.29-14.77,15.83-31.27,19.2-48.39-17.08-13.98-35.3-26.58-54.41-37.63-9.33-5.39-26.48-15.02-37.87-10.52-10.31,4.07-11.91,17.6-15.2,27.09Z"/>
      <path class="cls-3" d="M370.52,193.86c-40.94,75.48-38.51,168.9-10.23,249.98,5.64,16.18,12.36,32.85,10.34,49.86-2.14,18.02-13.69,33.27-24.11,48.13-78.23,111.48-112.22,253.14-93.11,387.99,4,28.18,10.38,56.51,24.27,81.36,38.11,68.15,121.54,94.51,197.71,111.66,44.11,9.93,89.06,18.8,134.2,16.23,45.14-2.58,91.06-17.76,122.81-49.95,26.47-26.85,41-62.97,53.99-98.36,43.94-119.72,77.9-251.45,40.9-373.5-3.52-11.6-7.7-23.3-7.52-35.42,.35-22.69,15.57-41.96,28.21-60.82,35.81-53.46,55.22-117.75,54.98-182.09-.14-36.58-7.05-74.45-28.35-104.19-12.66-17.68-29.78-31.64-47.3-44.52-67.16-49.38-162.91-108.13-249.01-108.89-85.91-.75-165.46,34.49-207.79,112.54Z"/>
      <path class="cls-3" d="M235.56,249.32c-89.64,34.45-152.41,129.12-149.25,225.11-12.82-4.36-24.74,8.12-32.21,19.42-19.08,28.83-35.7,60.02-42.28,93.96-6.58,33.94-2.14,71.12,17.91,99.28,20.05,28.16,57.33,44.95,90.59,35.53,20.98-5.94,38.27-21.12,51.55-38.41,24.52-31.91,37.57-73.33,31.79-113.15,22.37,4.58,44.02-10.17,60.16-26.31,37.43-37.43,62.39-87.11,70.08-139.48,45.44,2.19,85.36-30.31,113.13-66.34,38.55-50.01,63.32-110.54,70.87-173.23,4.41-36.57,3.09-67.67-37.88-67.15-33.64,.43-66.77,6.86-98.09,19.18-62.32,24.53-116.41,71.34-146.38,131.59Z"/>
      <path class="cls-3" d="M985.03,378.34c73.4,61.93,101.66,171.95,67.2,261.59,13.54,.08,20.71,15.78,24.06,28.9,8.57,33.49,14.05,68.41,9.14,102.63-4.91,34.22-21.29,67.9-49.47,87.92-28.18,20.03-68.89,23.67-97.23,3.87-17.87-12.49-29.23-32.5-36.11-53.19-12.7-38.18-11.45-81.59,7.07-117.32-22.64-3.01-38.25-24.03-48.21-44.58-23.09-47.63-30.39-102.75-20.48-154.75-43.64-12.83-70.7-56.62-85.13-99.76-20.03-59.88-23.58-125.19-10.16-186.89,7.82-35.99,19.27-64.94,57.8-51.02,31.64,11.43,60.83,28.37,86.38,50.28,50.83,43.61,86.59,105.56,95.15,172.3Z"/>
      <path class="cls-2" d="M379.58,18.57c1.73-3.17,4.77-5.4,7.79-7.38,5.25-3.43,10.81-6.46,16.81-8.29,7.91-2.41,16.29-2.65,24.55-2.78,64.33-.98,128.75,4.07,192.14,15.04,21.15,3.66,43.96,9.01,57.44,25.72,10.71,13.28,13.35,32.11,8.49,48.46-4.86,16.35-16.62,30.17-31,39.35-7.89,5.04-16.85,8.85-26.21,9-10.37,.16-20.23-4.14-29.69-8.38-34.47-15.45-69.34-31.36-106.66-37.17-21.09-3.28-42.82-3.32-63.18-9.73-13.85-4.36-27.36-12.4-36.02-24.28-6.44-8.82-20.45-28.62-14.46-39.58Z"/>
      <path class="cls-3" d="M378.03,24.45c-3.06,11.85-.87,24.35,1.34,36.4,2.59,14.14,5.18,28.28,7.77,42.42,.43,2.33,.88,4.72,2.2,6.69,4.39,6.53,14.29,4.29,21.82,2.01,29.85-9.03,63.08-6.33,91.08,7.39,30.27,14.83,54.96,42.02,88.03,48.51-3.46-9.85-9.51-18.56-15.65-27.01-19.12-26.33-41.18-52.58-71.45-64.52-11.31-4.46-23.61-6.84-35.78-6.7-4.77,.05-9.78,1.88-14.43,1.43-5.27-.51-11.4-4.16-16.16-6.32-21.74-9.88-41.74-23.56-58.78-40.29Z"/>
      <path class="cls-2" d="M915.15,109.56c-.76-3.53-3.04-6.53-5.38-9.29-4.06-4.78-8.54-9.26-13.78-12.71-6.9-4.55-14.87-7.15-22.76-9.62-61.42-19.16-176.32-50.01-240.22-57.43-21.32-2.48,6.98,13.64-10.68,25.84-14.04,9.7-21.9,27.02-21.87,44.08,.03,17.06,7.4,33.65,18.59,46.52,6.14,7.06,13.66,13.26,22.59,16.05,9.9,3.09,20.57,1.76,30.85,.37,37.43-5.05,75.38-10.43,112.82-5.44,21.15,2.82,42.01,8.95,63.34,8.57,14.51-.26,29.75-4.15,41.42-13.08,8.67-6.63,27.72-21.66,25.08-33.86Z"/>
      <path class="cls-3" d="M914.97,115.65c-.42,12.24-6.07,23.6-11.59,34.53-6.49,12.83-12.98,25.66-19.46,38.49-1.07,2.11-2.18,4.28-4,5.79-6.06,5.02-14.92,.07-21.5-4.25-26.07-17.11-58.7-23.94-89.44-18.71-33.23,5.65-64.61,24.73-98.17,21.59,6.11-8.47,14.38-15.11,22.66-21.47,25.8-19.84,54.38-38.76,86.8-41.64,12.11-1.08,24.58,.12,36.21,3.7,4.56,1.4,8.85,4.57,13.43,5.45,5.2,1,12.11-.76,17.29-1.48,23.64-3.32,46.71-10.77,67.78-22Z"/>
      <path class="cls-3" d="M847.72,145.69c-29.31-25.4-66.31-40.23-103.64-50.74-43.25-12.17-87.78-19.1-132.18-26.01-38.59-6-77.44-12.02-116.48-10.89-11.77,.34-23.73,1.38-34.65,5.79-9.08,3.67-8.95,12.78-1.62,18.48,3.96,3.08,9.22,4.44,14.53,4.56,14.99,5.74,29.37,12.81,42.16,22.66,20.4,15.7,36.27,38.49,39.53,64.02,28.94-5.92,60.37,1.76,83.33,20.35,5.61-40.15-21.54-79.57-57.11-99.02-23.11-12.64-48.99-18.28-75.1-20.3,1.69-.82,3.41-1.58,5.18-2.23,10.14-3.69,21.23-3.52,32.01-2.99,48.64,2.38,96.75,11.07,144.43,21.01,19.32,4.03,38.69,8.29,57.12,15.37,18.44,7.08,35.61,16.83,52.57,27.04-22.45-6.43-45.73-9.79-69.07-7.15-40.28,4.55-80.33,30.77-90.32,70.06,28.28-8.53,60.28-3.75,84.84,12.68,12.68-22.4,35.99-37.5,60.81-44.31,17.53-4.81,35.6-5.61,53.67-4.82,6.71,.29,10.19-.28,11.46-1.37,.82-.26,1.57-.67,2.15-1.29,2.95-3.13-.35-8.09-3.6-10.91Z"/>
      <polygon class="cls-4" points="743.04 420.32 732.24 401.96 710.99 400.45 725.11 384.5 719.98 363.82 739.51 372.33 757.59 361.05 755.54 382.26 771.85 395.97 751.05 400.58 743.04 420.32"/>
      <polygon class="cls-4" points="499.08 277.14 488.1 262.04 469.43 262.53 480.4 247.42 474.16 229.82 491.92 235.58 506.73 224.21 506.74 242.88 522.13 253.45 504.38 259.24 499.08 277.14"/>
      <polygon class="cls-4" points="550.97 459.85 533.48 453.17 518.06 463.8 519 445.09 504.13 433.71 522.21 428.83 528.44 411.17 538.67 426.86 557.39 427.33 545.63 441.9 550.97 459.85"/>
      <polygon class="cls-4" points="337.8 693.9 326.19 682.41 310.14 685.46 317.49 670.87 309.63 656.55 325.77 659.02 336.96 647.12 339.6 663.24 354.38 670.21 339.86 677.7 337.8 693.9"/>
      <polygon class="cls-4" points="745.86 884.74 727.02 877.61 710.47 889.1 711.42 868.98 695.39 856.79 714.82 851.48 721.45 832.46 732.51 849.3 752.65 849.73 740.05 865.45 745.86 884.74"/>
      <polygon class="cls-4" points="742.34 648.72 721.18 644.13 705.39 658.96 703.22 637.41 684.23 626.98 704.06 618.25 708.11 596.97 722.54 613.13 744.02 610.41 733.11 629.12 742.34 648.72"/>
      <polygon class="cls-4" points="1001.07 534.88 987.47 529.02 974.93 536.9 976.3 522.15 964.93 512.66 979.38 509.41 984.89 495.66 992.45 508.4 1007.22 509.39 997.45 520.52 1001.07 534.88"/>
      <polygon class="cls-4" points="892.23 283.05 880.97 273.08 866.36 276.71 872.37 262.91 864.41 250.14 879.38 251.59 889.07 240.07 892.32 254.76 906.27 260.41 893.3 268.04 892.23 283.05"/>
      <polygon class="cls-4" points="289.71 234.44 277.73 226.79 264.63 232.31 268.21 218.55 258.91 207.8 273.1 206.96 280.45 194.78 285.64 208.02 299.49 211.25 288.5 220.28 289.71 234.44"/>
      <polygon class="cls-4" points="181.88 465.26 172.33 454.33 157.91 456.01 165.35 443.55 159.31 430.36 173.45 433.58 184.13 423.75 185.44 438.21 198.08 445.33 184.74 451.03 181.88 465.26"/>
      <polygon class="cls-4" points="364.28 978.68 343.65 965.73 321.29 975.37 327.23 951.75 311.15 933.46 335.45 931.82 347.87 910.87 356.94 933.47 380.71 938.82 362.01 954.43 364.28 978.68"/>
      <polygon class="cls-4" points="482.81 797.56 462.18 784.61 439.82 794.25 445.77 770.63 429.68 752.34 453.98 750.7 466.4 729.75 475.48 752.35 499.24 757.7 480.55 773.31 482.81 797.56"/>
      <polygon class="cls-4" points="657.61 1055.93 642.94 1038.06 619.9 1040.02 632.36 1020.54 623.38 999.23 645.76 1005.06 663.25 989.94 664.61 1013.02 684.4 1024.98 662.87 1033.42 657.61 1055.93"/>
      <path class="cls-2" d="M496.42,531.5c43.81,10.04,87.63,20.07,131.44,30.1,34.23,7.84,68.54,15.69,103.45,19.5,31.1,3.39,64.74,2.94,90.79-14.38,1.05,12.11,3.64,24.08,7.7,35.53-59.51,13.49-121.5,10.78-182.16,4.15-32.22-3.52-64.41-8.14-95.77-16.34-43.8-11.45-85.45-29.74-128-45.2-24.75-8.99-49.84-17.04-75.2-24.13-3.89-1.09,5-34.3,12.51-35.55,4.59-.76,13.57,6.8,17.54,8.84,7.43,3.82,15.05,7.24,22.79,10.37,30.57,12.35,62.84,19.75,94.9,27.1Z"/>
      <path class="cls-1" d="M632.75,219.6s-27.44,338.15-63.16,514.43c-35.72,176.28-94.2,388.81-94.2,388.81"/>
      <path class="cls-4" d="M569.38,551.34c-11.85,8.29-17.5,24.14-14.59,38.31,.63,3.06,1.64,6.11,3.49,8.64,1.5,2.06,3.5,3.71,5.58,5.2,8.37,5.98,18.36,9.66,28.61,10.52,3.51,.3,7.1,.26,10.49-.7,11.73-3.31,17.75-16.31,20.11-28.27,2.87-14.49,.35-29.72-14.99-35.26-12.79-4.62-26.87-6.71-38.71,1.57Z"/>
    </g>
  </g>
</svg>