<svg id="prefix__Layer_1" data-name="Layer 1" xmlns="http://www.w3.org/2000/svg" width="523.71" height="704.79" viewBox="0 0 523.71 704.79">
    <defs>
        <style>
            .prefix__cls-1{fill:#010100}.prefix__cls-2,.prefix__cls-7{fill:#4e98cb}.prefix__cls-2{stroke:#000;stroke-width:1.94px}.prefix__cls-10,.prefix__cls-2,.prefix__cls-3,.prefix__cls-9{stroke-miterlimit:10}.prefix__cls-3,.prefix__cls-5{fill:#fff}.prefix__cls-3{stroke:#010100;stroke-width:1.94px}.prefix__cls-10,.prefix__cls-11,.prefix__cls-6,.prefix__cls-9{fill:none}.prefix__cls-6{stroke:#fff;stroke-width:8.22px}.prefix__cls-11,.prefix__cls-6{stroke-linecap:round;stroke-linejoin:round}.prefix__cls-8{fill:#070707}.prefix__cls-10,.prefix__cls-9{stroke:#070707}.prefix__cls-9{stroke-width:1.61px}.prefix__cls-10{stroke-width:1.84px}.prefix__cls-11{stroke:#050505;stroke-width:1.54px}
        </style>
    </defs>
    <path class="prefix__cls-1" d="M1311.79 848.56c1.09 3.08 2.41 22.28.65 25.18s-38 19.38-49.5 16.21c-13.15-3.64-13.18-9.89 0-17.94s18.36-11.58 20.1-14 4.4-10.28 4.4-10.28" transform="translate(-958.22 -191.27)"/>
    <path class="prefix__cls-1" d="M1311.7 868c-3 3.83-8 7.33-16.08 8.73s-17.24 8.13-25.23 6.89-5.68-3.52-11.94-4.06c-5.5-.48-5 1.24-5 1.24-1.5 3.86-1.12 7.58 6.71 9.75 4.63 1.28 13.23.19 22.42-2.86 13.58-4.51 30.13-11.08 31.18-12.81.61-1 1.55-6.5.91-9.28-1.46-3.55-2.78 2.19-2.97 2.4zM1422.87 853.51c-1.09 3.09-2.41 22.28-.65 25.18s38 19.38 49.5 16.21c13.15-3.64 13.18-9.88 0-17.94s-18.36-11.57-20.1-14-4.4-10.28-4.4-10.28" transform="translate(-958.22 -191.27)"/>
    <path class="prefix__cls-1" d="M1423 873c3 3.83 8 7.33 16.08 8.74s17.24 8.12 25.23 6.88 5.68-3.52 11.94-4.06c5.5-.48 5 1.24 5 1.24 1.49 3.86 1.11 7.58-6.72 9.75-4.63 1.28-13.23.19-22.42-2.86-13.58-4.51-30.13-11.08-31.18-12.81-.61-1-1.55-6.5-.91-9.28 1.43-3.6 2.75 2.14 2.98 2.4z" transform="translate(-958.22 -191.27)"/>
    <g>
        <path class="prefix__cls-2" d="M1111.5 296.72s-8.37-6.38-10.87-9.09-7.39-10.08-7.42-3.26 7 11 2.87 14-17.17-3.91-22.35-4.07c-10.6-.32-5.45 10 3.56 16.81s25.76 11.22 35 .61-.79-15-.79-15z" transform="translate(-958.22 -191.27)"/>
        <path class="prefix__cls-3" d="M1323.12 300s-95.57 35.51-121.58 27-75.63-33.44-85.5-29.31-16.38 22.91-3.67 31.87 40.87 35.21 90 43.06 122.34-18 132.79-32.23-12.04-40.39-12.04-40.39z" transform="translate(-958.22 -191.27)"/>
        <path d="M1394.66 330.8l-1.24-10.63s-16.94-10.63-32.62-6.4-18.61 13-13.07 19.61 5.65 9.2 20 9.6 26.93-12.18 26.93-12.18z" transform="translate(-958.22 -191.27)" fill="#cd4949"/>
        <path class="prefix__cls-1" d="M1270.7 432.45s-15.48 28-13.71 69.34c5.12 119.56 23.2 348.45 28.73 352.36 7.45 5.26 24.83 7.9 28.42-.34 9.71-22.29 16.07-267.3 13.11-304.64 2.53 11.72 85.74 297.49 91.67 304.64s25.23 4.76 31.77 0c3.82-2.8-55.6-340.67-60.19-363.69-2-10.06-6.25-37.23-8-40.14-.29-.54-108.15-20.59-111.8-17.53z" transform="translate(-958.22 -191.27)"/>
        <path class="prefix__cls-5" d="M1418.43 578.34c2.77-22.69.38-219.7-6.85-242.7-5.85-18.64-14.67-33.23-38.39-39.09-25.71-6.35-55.94.08-68.41 12.63-13.3 13.39-17.12 24.06-23.29 44.5C1277 368.63 1241.93 499 1242 568.36c0 48.28 174 30.28 176.43 9.98z" transform="translate(-958.22 -191.27)"/>
        <path class="prefix__cls-3" d="M1385.32 342.82s40.53 93.55 33.46 120-29.37 77.3-24.72 86.93 23.74 15.14 32 2 33-42.68 38.21-92.15-24.49-121.21-39.24-130.89-39.71 14.11-39.71 14.11z" transform="translate(-958.22 -191.27)"/>
        <path class="prefix__cls-6" d="M63.35 188.46l69.36-43.42 74.68 47.27"/>
        <path class="prefix__cls-6" d="M1090.54 335.72l.48-12.25a7.18 7.18 0 00-4.24-6.07c-2.73-1.77-7.57-4.76-7.06-11.35a12.63 12.63 0 0115.71-11.34" transform="translate(-958.22 -191.27)"/>
        <path class="prefix__cls-1" d="M1092.29 350.53c-13 71 1.81 150.32-2.69 223a4.91 4.91 0 004.36 5.18 406.15 406.15 0 0070.69 1.73 4.91 4.91 0 004.59-4.34c.4-3.49.7-7 .91-10.51a4.84 4.84 0 018.91-2.33l.13.2c1.11 1.7 2.42 3.45 4.35 4.11s4.09 0 6.06-.58l27.55-8.64a7.41 7.41 0 003.37-1.74 7.31 7.31 0 001.46-3.76 128.34 128.34 0 00-2.59-56.19c-3.42-12.49-8.75-24.48-11-37.24-2.62-14.84-1-30.29-4.63-44.92-5.07-20.38-19.75-36.88-34.85-51.49-9.48-9.17-19.46-18.06-31.08-24.31a72.88 72.88 0 00-23.55-8 16.93 16.93 0 00-16.8 7.77l-1.25 2a28.29 28.29 0 00-3.94 10.06z" transform="translate(-958.22 -191.27)"/>
        <path d="M1180.37 562.07a.82.82 0 01-.7-.37c-10-14.48-17.16-32.47-21.26-53.45-3.5-17.89-4.59-35.9-5.14-57.44a.86.86 0 01.84-.88.85.85 0 01.88.84c.55 21.45 1.62 39.38 5.1 57.14 4.06 20.76 11.12 38.53 21 52.82a.85.85 0 01-.22 1.19.81.81 0 01-.5.15z" transform="translate(-958.22 -191.27)"/>
        <path class="prefix__cls-5" d="M1125 497.85a80.26 80.26 0 0021 48.6 55 55 0 008.47-6.16c-11.11-12.15-15.88-28.66-20-44.59-3.12.78-6.2 1.56-9.47 2.15zM1223.06 543.92q-23.16 7.44-45.78 16.43a22.52 22.52 0 002.87 5.08 7.44 7.44 0 003 2.61 8.18 8.18 0 004.94-.09c3.22-.78 6.37-1.85 9.51-2.92l20.62-7a7.18 7.18 0 002.81-1.45c1.2-1.17 1.43-3 1.59-4.64a61.7 61.7 0 00.44-8.02zM1170.14 563.87a663.67 663.67 0 01-80.65-.52 70.92 70.92 0 00-.81 14 2 2 0 00.34 1.27 2.07 2.07 0 001.26.54c25.59 4.52 51.81 3.26 77.77 2a2.2 2.2 0 001.59-.52 2.18 2.18 0 00.36-1.49c0-5.08 0-10.1.14-15.28z" transform="translate(-958.22 -191.27)"/>
        <path d="M1153.79 541.05a.83.83 0 01-.65-.3c-10.87-12.72-15.39-29.66-19.39-44.6a.87.87 0 01.61-1 .86.86 0 011.05.61c3.95 14.76 8.42 31.5 19 43.93a.86.86 0 01-.09 1.21.91.91 0 01-.53.15zM1138.11 565.61c-16.2 0-32.42-.58-48.5-1.74a.85.85 0 01-.79-.92.86.86 0 01.91-.79 676.8 676.8 0 0079.68 1 .86.86 0 11.08 1.72c-10.42.48-20.9.73-31.38.73z" transform="translate(-958.22 -191.27)"/>
        <path class="prefix__cls-5" d="M1172.52 533.92a.84.84 0 01-.81-.56 238.34 238.34 0 01-13.85-68.36.86.86 0 011.71-.09 236.63 236.63 0 0013.75 67.89.86.86 0 01-.51 1.1.77.77 0 01-.29.02z" transform="translate(-958.22 -191.27)"/>
        <path class="prefix__cls-1" d="M1068.46 330.63a18 18 0 0120.16 13.57c.07.28.13.57.19.86 15.09 73.82-1.53 157.31 4.07 233.11a407.32 407.32 0 01-79.45 2 196.47 196.47 0 01-1.41-38 66.62 66.62 0 01-9 21.31c-1.11 1.7-2.42 3.45-4.35 4.11s-4.09 0-6.07-.58l-27.6-8.65a7.41 7.41 0 01-3.37-1.74 7.22 7.22 0 01-1.46-3.76 128.34 128.34 0 012.58-56.19c3.43-12.49 8.76-24.48 11-37.24 2.61-14.84 1-30.29 4.63-44.92 5.07-20.38 19.75-36.88 34.85-51.49 9.48-9.17 19.46-18.06 31.08-24.31a72.71 72.71 0 0124.15-8.08z" transform="translate(-958.22 -191.27)"/>
        <path d="M1001.79 562.07a.82.82 0 00.7-.37c10-14.48 17.16-32.47 21.26-53.45 3.5-17.89 4.59-35.9 5.14-57.44a.87.87 0 00-.84-.88.85.85 0 00-.88.84c-.55 21.45-1.62 39.38-5.1 57.14-4.07 20.76-11.13 38.53-21 52.82a.85.85 0 00.22 1.19.81.81 0 00.5.15z" transform="translate(-958.22 -191.27)"/>
        <path class="prefix__cls-5" d="M1057.2 497.85a80.32 80.32 0 01-21 48.6 55 55 0 01-8.47-6.16c11.11-12.15 15.87-28.66 20-44.59 3.08.78 6.16 1.56 9.47 2.15zM959.09 543.92q23.16 7.44 45.79 16.43a22.52 22.52 0 01-2.87 5.08 7.44 7.44 0 01-3 2.61 8.18 8.18 0 01-4.94-.09c-3.22-.78-6.37-1.85-9.51-2.92L964 558a7.18 7.18 0 01-2.81-1.45c-1.2-1.17-1.43-3-1.59-4.64a63.55 63.55 0 01-.51-7.99zM1012 563.87a663.67 663.67 0 0080.65-.52 70.92 70.92 0 01.81 14 2 2 0 01-.34 1.27 2.07 2.07 0 01-1.26.54c-25.59 4.52-51.81 3.26-77.77 2a2.2 2.2 0 01-1.59-.52 2.18 2.18 0 01-.36-1.49c.04-5.08.07-10.1-.14-15.28z" transform="translate(-958.22 -191.27)"/>
        <path d="M1028.37 541.05a.85.85 0 00.65-.3c10.87-12.72 15.39-29.66 19.39-44.6a.87.87 0 00-.61-1 .86.86 0 00-1 .61c-4 14.76-8.42 31.5-19 43.93a.86.86 0 00.09 1.21.89.89 0 00.48.15zM1044.05 565.61c16.2 0 32.42-.58 48.5-1.74a.85.85 0 00.79-.92.86.86 0 00-.92-.79 676.6 676.6 0 01-79.67 1 .86.86 0 00-.08 1.72c10.42.48 20.9.73 31.38.73z" transform="translate(-958.22 -191.27)"/>
        <path class="prefix__cls-5" d="M1009.64 533.92a.85.85 0 00.81-.56A238.34 238.34 0 001024.3 465a.86.86 0 00-1.71-.09 236.63 236.63 0 01-13.75 67.89.85.85 0 00.51 1.1.77.77 0 00.29.02zM1095.29 561.11h-.06a.86.86 0 01-.8-.91c1.78-28.45.49-57.51-.76-85.61-1.56-35-3.17-71.28 1.18-106.67a.86.86 0 011.7.21c-4.33 35.25-2.72 71.41-1.16 106.39 1.25 28.14 2.54 57.24.75 85.79a.85.85 0 01-.85.8zM1086.87 561.11h.06a.86.86 0 00.8-.91c-1.78-28.45-.49-57.51.76-85.61 1.56-35 3.17-71.28-1.18-106.67a.86.86 0 00-1.7.21c4.33 35.25 2.72 71.41 1.16 106.39-1.25 28.14-2.54 57.24-.75 85.79a.85.85 0 00.85.8z" transform="translate(-958.22 -191.27)"/>
        <g>
            <path class="prefix__cls-2" d="M1391.1 550.58s-6.12 9-8.78 11.7-10 8.17-3 7.83 9.38-7.23 12.66-3.13-1.51 17.31-1.38 22.67c.25 10.94 10.63 5.06 17.13-4.59s10.15-27.17-1.29-36.09-15.34 1.61-15.34 1.61z" transform="translate(-958.22 -191.27)"/>
            <path class="prefix__cls-2" d="M1392.79 577.74c-1 6.22-5 12.6-5 14.78.25 11 10.64 5.06 17.14-4.59" transform="translate(-958.22 -191.27)"/>
        </g>
        <path class="prefix__cls-7" d="M1314.52 249.48a105.94 105.94 0 006.77 31.84 28.49 28.49 0 005 9.14c5.8 6.42 15.94 7.21 24.07 4.26a24.55 24.55 0 0011-7.53c6.09-7.71 5.46-18.58 4.54-28.36L1364 238a334.33 334.33 0 00-49.48 11.48z" transform="translate(-958.22 -191.27)"/>
        <path class="prefix__cls-5" d="M1318.84 317.51s-9.16-28.21-7.79-36c4.31-24.35 21.11 12.23 34.09 12.77 13.53.55 13.36-19.47 26.33-23.84 18.42-6.2 24.71 38.84 18 42.6s-46.35 14.48-57.7 14.67-12.93-10.2-12.93-10.2z" transform="translate(-958.22 -191.27)"/>
        <path class="prefix__cls-8" d="M1304.08 251.48a161.52 161.52 0 01-16.9 58c-6.84 13.4-15.54 25.81-22 39.4-17.28 36.25-17.55 78.32-12.41 118.3 24 .34 48.06 1 72.6 2.41 7.47-41.95-2.23-85.1 1-127.58 1.23-16 4.28-32.22 1-47.93-3.15-15.19-10.63-35.95-7.87-54.92-3.98.99-11.12 11.95-15.42 12.32zM1362 239.78c6.79 33.52-6.17 69.44 4.37 102 3.22 9.94 8.56 19.21 10.53 29.47 3.34 17.36-3.31 34.9-5.25 52.46a99.19 99.19 0 003.82 40.12 437.15 437.15 0 0080.62-9.27q-.75-18.45-1.69-36.91c-1.39-27.05-3.5-55.38-17.89-78.34-6.68-10.66-15.73-19.65-22.92-30-14-20.05-20.52-44.42-33.59-65.07-2.89-4.56-7.41-9.46-12.66-8.26-1.91.45-3.56 1.7-5.34 3.8z" transform="translate(-958.22 -191.27)"/>
        <g>
            <path class="prefix__cls-5" d="M1388 464.05a.58.58 0 01-.5-.3c-7.34-13.51-6.29-30.1-4.3-44.54.26-1.83.53-3.68.79-5.52 1.89-13 3.85-26.4.76-39.13-1.4-5.8-3.85-11.39-6.22-16.79-1.21-2.76-2.46-5.61-3.56-8.46-8.43-21.82-9.12-45.92-9.73-67.18a.56.56 0 01.55-.58.59.59 0 01.58.54c.61 21.18 1.3 45.18 9.66 66.82 1.09 2.82 2.33 5.66 3.54 8.4 2.39 5.45 4.86 11.09 6.28 17 3.14 12.95 1.17 26.48-.74 39.56-.26 1.85-.53 3.68-.78 5.51-2 14.26-3 30.62 4.17 43.85a.57.57 0 01-.23.77.68.68 0 01-.27.05zM1409.24 462.19a.57.57 0 01-.53-.37c-4.4-11.62-2.18-24.3 0-36.57.44-2.52.88-5 1.26-7.51 3-19.58 1.4-36.42-4.72-50.06a125.59 125.59 0 00-9.41-16.33c-1.82-2.82-3.71-5.74-5.43-8.69a116.84 116.84 0 01-13.76-36.21.57.57 0 01.45-.66.54.54 0 01.66.44 115.54 115.54 0 0013.63 35.86c1.71 2.93 3.59 5.83 5.4 8.65a126.42 126.42 0 019.5 16.48c6.21 13.84 7.83 30.89 4.8 50.69-.38 2.49-.82 5-1.26 7.53-2.12 12.12-4.31 24.65 0 36a.57.57 0 01-.33.73.45.45 0 01-.26.02z" transform="translate(-958.22 -191.27)"/>
            <path class="prefix__cls-5" d="M1427.8 459.85a.58.58 0 01-.55-.42c-3.09-11.88-1.09-24.27.84-36.25a170.19 170.19 0 002.38-19.47 76.59 76.59 0 00-9-40 146.75 146.75 0 00-9.66-14.79c-1.54-2.16-3.14-4.4-4.65-6.64a161 161 0 01-24.16-57.79.57.57 0 01.44-.67.55.55 0 01.67.44 159.86 159.86 0 0024 57.42c1.51 2.23 3.1 4.47 4.64 6.63a144.48 144.48 0 019.73 14.9 77.71 77.71 0 019.1 40.55 173.63 173.63 0 01-2.39 19.6c-1.92 11.86-3.9 24.13-.86 35.78a.56.56 0 01-.41.69.32.32 0 01-.12.02z" transform="translate(-958.22 -191.27)"/>
            <path class="prefix__cls-5" d="M1448.2 456.29a.56.56 0 01-.54-.59c.77-18.85 1.32-37.31-.55-55.84-2.06-20.56-7-38.54-14.74-53.43-4.5-8.68-10.21-16.89-15.74-24.82-6.88-9.88-14-20.09-18.84-31.33a.58.58 0 01.3-.75.57.57 0 01.74.3c4.8 11.14 11.88 21.3 18.73 31.13 5.54 8 11.28 16.2 15.81 25 7.79 15 12.79 33.13 14.87 53.84 1.87 18.6 1.33 37.1.55 56a.58.58 0 01-.59.49zM1265.73 467.76a.58.58 0 01-.56-.43c-2-8.37-2.5-17.09-3-25.51-1.29-22.06-2.62-44.86 3.77-66.57 4.23-14.37 11.76-27.63 19-40.45 6.46-11.37 13.14-23.12 17.48-35.59a127.6 127.6 0 006.66-43.37.56.56 0 01.56-.57.57.57 0 01.57.56 128.93 128.93 0 01-6.72 43.76c-4.38 12.56-11.08 24.36-17.56 35.77-7.26 12.77-14.76 26-19 40.21-6.33 21.52-5 44.22-3.72 66.18.49 8.38 1 17 3 25.32a.57.57 0 01-.42.68zM1285.1 468.31a.56.56 0 01-.54-.4c-9-29.18-1-60.66 5.8-81.79 2.43-7.58 5.16-15.23 7.8-22.62 6.51-18.27 13.25-37.17 16.11-56.61 2.65-17.9 2-36.51 1.16-52.54a.58.58 0 01.54-.6.54.54 0 01.59.54c.83 16.09 1.49 34.76-1.16 52.77-2.89 19.55-9.64 38.5-16.18 56.82-2.63 7.38-5.35 15-7.78 22.58-6.74 21-14.68 52.24-5.79 81.12a.57.57 0 01-.38.71.47.47 0 01-.17.02z" transform="translate(-958.22 -191.27)"/>
            <path class="prefix__cls-5" d="M1257.62 467.65a.57.57 0 01-.56-.51c-3.44-30.1-5.65-69.24 8-105 4.46-11.71 10.58-22.9 16.49-33.71 2.22-4.05 4.51-8.24 6.68-12.4 7.23-13.84 14.82-30.4 16.28-48.34a.58.58 0 01.61-.52.58.58 0 01.52.61c-1.48 18.14-9.12 34.83-16.4 48.77-2.18 4.17-4.47 8.37-6.69 12.42-5.9 10.78-12 21.93-16.43 33.57-13.53 35.54-11.33 74.5-7.91 104.48a.55.55 0 01-.5.62z" transform="translate(-958.22 -191.27)"/>
            <path class="prefix__cls-5" d="M1274 467.67a.58.58 0 01-.56-.47c-5.17-33.67-3.2-64.8 5.88-92.53 3.53-10.76 8.25-21.32 12.82-31.52 7-15.64 14.25-31.81 17.2-48.89a.56.56 0 111.11.19c-3 17.22-10.24 33.46-17.27 49.16-4.56 10.18-9.28 20.71-12.78 31.42-9 27.55-11 58.5-5.84 92a.57.57 0 01-.47.65zM1297 468.4a.59.59 0 01-.55-.43 152.19 152.19 0 01.16-73.71c2.07-8.22 4.88-16.38 7.59-24.26 4-11.54 8.06-23.47 9.91-35.68a.57.57 0 111.12.17c-1.86 12.32-6 24.29-10 35.87-2.71 7.87-5.5 16-7.57 24.18a151.13 151.13 0 00-.15 73.15.57.57 0 01-.41.69zM1320.2 469.67a.57.57 0 01-.55-.43 205.86 205.86 0 01-6.28-44.71c-.91-31.12 5.28-62.06 11.26-92a.57.57 0 011.11.22c-6 29.86-12.14 60.73-11.24 91.73a204.27 204.27 0 006.25 44.46.57.57 0 01-.41.69z" transform="translate(-958.22 -191.27)"/>
            <path class="prefix__cls-5" d="M1311 469.64a.58.58 0 01-.55-.42 183 183 0 01-3.79-78.66c1.47-8.57 3.59-17.14 5.64-25.43 1.55-6.27 3.15-12.75 4.46-19.17a238.38 238.38 0 003.59-71.51.57.57 0 111.13-.11 239.59 239.59 0 01-3.61 71.84c-1.32 6.45-2.92 12.94-4.47 19.22-2 8.27-4.16 16.82-5.62 25.35a181.64 181.64 0 003.76 78.17.57.57 0 01-.4.7zM1397.77 462.68a.56.56 0 01-.52-.35c-4.89-12-3.23-25.21-1.62-38 .42-3.32.85-6.75 1.16-10.08 1.22-13.4.25-25.63-2.88-36.35a154.11 154.11 0 00-7.78-19.65c-1.61-3.59-3.28-7.29-4.76-11-13.31-33.42-13-71.33-12.71-104.78a.57.57 0 01.57-.56.56.56 0 01.57.57c-.29 33.34-.61 71.14 12.63 104.35 1.46 3.69 3.13 7.38 4.73 10.95a155.25 155.25 0 017.83 19.8c3.18 10.86 4.16 23.23 2.92 36.77-.3 3.35-.74 6.8-1.15 10.12-1.59 12.67-3.24 25.76 1.54 37.45a.56.56 0 01-.53.78z" transform="translate(-958.22 -191.27)"/>
            <path class="prefix__cls-5" d="M1420 461.1a.56.56 0 01-.54-.4c-3.67-12.42-1.81-25.53 0-38.2a176.64 176.64 0 002.09-20.5 84.45 84.45 0 00-6.54-34.45c-3.77-9-9.15-17.32-14.34-25.4a213.41 213.41 0 01-11.99-20.15c-12.39-24.84-14.63-53.49-15.86-80.69a.56.56 0 01.54-.59.53.53 0 01.59.54c1.23 27.08 3.45 55.59 15.74 80.24a212.8 212.8 0 0011.87 20c5.22 8.12 10.62 16.51 14.43 25.57a85.7 85.7 0 016.63 34.92 176 176 0 01-2.1 20.63c-1.78 12.55-3.62 25.54 0 37.71a.57.57 0 01-.38.71z" transform="translate(-958.22 -191.27)"/>
            <path class="prefix__cls-5" d="M1442 456.57a.57.57 0 01-.56-.53c-.62-9.32-.52-18.92-.42-28.2.21-20.41.43-41.51-7-60.61-4.51-11.55-11.71-22-18.68-32.1-3.72-5.39-7.56-11-11-16.67-14.79-24.74-22.18-53.15-28-77.83a.57.57 0 011.1-.26c5.75 24.6 13.12 52.91 27.82 77.51 3.39 5.67 7.22 11.23 10.93 16.61 7 10.15 14.25 20.65 18.8 32.33 7.53 19.31 7.31 40.52 7.1 61-.1 9.26-.2 18.83.42 28.12a.57.57 0 01-.53.6z" transform="translate(-958.22 -191.27)"/>
        </g>
        <path class="prefix__cls-9" d="M1346.18 295.16a.94.94 0 01-.68 1.58c-2.59 0-6.62-.46-5.22-3.07s4.22-.25 5.9 1.49z" transform="translate(-958.22 -191.27)"/>
        <path class="prefix__cls-9" d="M1346.92 296.35a.92.92 0 01-1.66-.39c-.43-2.56-.7-6.6 2.11-5.67 4.63 1.53-.92 6.71-.45 6.06z" transform="translate(-958.22 -191.27)"/>
        <path class="prefix__cls-10" d="M1345.91 297s-.66 12.42-.67 18.46-.62 15-.62 15l-22-4.2M1365.2 324.25l-20.58 6.28s-6.46 103.74-6.69 130.57-2.93 137.78-2.93 137.78" transform="translate(-958.22 -191.27)"/>
        <path class="prefix__cls-11" d="M1345.69 261s5 1.79 10-2.77M1333.5 261.59s-4 3.53-10.33 1.21" transform="translate(-958.22 -191.27)"/>
        <path d="M368.92 64s8.8-6.7 12 3.82c1 3.19-.27 12.36.1 13.89s-.33 2.59 6.63-1.81" stroke-width="1.77" stroke="#050505" stroke-linecap="round" stroke-linejoin="round" fill="none"/>
        <path d="M399.69 61.58s-9.94-1.26-12.53.54" stroke-width="1.82" stroke="#050505" stroke-linecap="round" stroke-linejoin="round" fill="none"/>
        <path class="prefix__cls-11" d="M1340.4 283.13s7.09 3.53 8.9-4" transform="translate(-958.22 -191.27)"/>
        <g>
            <path class="prefix__cls-5" d="M1304.82 239.07c-1.31-5.08.58-10.44 3.06-15s5.6-8.93 7.08-14c1.7-5.82 1.2-12.54 6.71-16.61a11.08 11.08 0 018.73-2c6.9 1.39 9.66 8.32 14.32 12.9 4 3.9 9.35 6.08 13.33 10a16.64 16.64 0 015.26 11.32l4-.88a4.41 4.41 0 015.05 2.82 57.69 57.69 0 013.13 12.52 3.43 3.43 0 01-2.17 3.58c-5 2-10.5 2.62-15.85 3.42a220.85 220.85 0 00-28.08 6.09c-8.26 2.35-16.43 5.2-24.93 6.42a1.21 1.21 0 01-.92-.12 1.27 1.27 0 01-.39-.75 121 121 0 01-2.88-15.6 3 3 0 011.94-3.15c.93-.31 1.79-.64 2.61-.96z" transform="translate(-958.22 -191.27)"/>
            <path class="prefix__cls-7" d="M1340.32 249.66a.5.5 0 01-.48-.37c-1.48-5.69-2.82-11.49-4-17.22a.48.48 0 11.95-.19c1.15 5.71 2.48 11.49 4 17.17a.48.48 0 01-.35.59zM1348.62 248.09a.48.48 0 01-.47-.37c-1.43-5.68-2.7-11.49-3.77-17.25a.49.49 0 01.39-.57.48.48 0 01.57.39c1.07 5.74 2.34 11.53 3.76 17.19a.49.49 0 01-.36.59zM1357.08 247a.48.48 0 01-.48-.37c-1.36-5.81-2.67-11.73-3.89-17.58a.49.49 0 01.38-.58.48.48 0 01.58.38 740.98 740.98 0 003.88 17.55.49.49 0 01-.36.59zM1365.08 245.5a.5.5 0 01-.48-.37c-1.37-5.7-2.56-11.5-3.52-17.25a.5.5 0 01.41-.57.49.49 0 01.56.4c1 5.73 2.13 11.51 3.5 17.19a.48.48 0 01-.36.59zM1372.42 243.44a.49.49 0 01-.48-.4l-2.94-16.16a.49.49 0 011-.18l2.92 16.16a.49.49 0 01-.39.57zM1308 259.13a.49.49 0 01-.46-.33 87.59 87.59 0 01-4.16-16.74.47.47 0 01.41-.55.49.49 0 01.55.41 86.65 86.65 0 004.12 16.56.49.49 0 01-.29.62.51.51 0 01-.17.03zM1315 257.85a.47.47 0 01-.46-.33 139.16 139.16 0 01-4.72-17.79.48.48 0 01.39-.57.49.49 0 01.57.38 138.33 138.33 0 004.68 17.66.48.48 0 01-.3.62zM1322.83 254.16a.49.49 0 01-.46-.34c-1.77-5.54-3.32-11.23-4.61-16.89a.49.49 0 111-.22c1.28 5.64 2.83 11.3 4.59 16.81a.48.48 0 01-.32.61.4.4 0 01-.2.03zM1332.29 252.09a.51.51 0 01-.47-.34 158.73 158.73 0 01-4.58-17.45.47.47 0 01.38-.57.49.49 0 01.58.38 157.31 157.31 0 004.55 17.34.47.47 0 01-.31.61.4.4 0 01-.15.03z" transform="translate(-958.22 -191.27)"/>
            <path stroke="#4e98cb" stroke-width="1.39" fill="none" stroke-miterlimit="10" d="M344.04 48.07l65.1-15.23"/>
        </g>
        <path class="prefix__cls-2" d="M1105.33 316.61c9.22-10.61 6.17-19.89 6.17-19.89s-8.37-6.38-10.87-9.09-6.81-10.06-7.42-3.26c-.73 8.08 9 9.89 4.91 12.85-1.51 1.08-8.16 4.09-9 1.86" transform="translate(-958.22 -191.27)"/>
    </g>
</svg>
