<svg viewBox="0 0 903 922" xmlns="http://www.w3.org/2000/svg" fill-rule="evenodd" clip-rule="evenodd" stroke-miterlimit="10"><path d="M127.8 644.119c-1.002 27.611 20.473 53.976 47.723 58.584l12.985 2.2c27.26 4.612 63.803 30.95 83.143 50.69l50.424 51.474c19.343 19.744 38.039 13.468 41.552-13.944l.134-.991c3.508-27.411 30.256-52.496 57.504-47.902l225.89 38.176c27.258 4.597 57.035-12.975 66.182-39.052L842.589 377.68c9.148-26.078-5.082-53.678-31.636-61.346L208.607 142.565c-26.556-7.657-49.102 8.673-50.095 36.29L127.8 644.119z" fill-rule="nonzero"/><path d="M143.1 44.385c-5.001-8.381-20.543-4.284-17.146 6.072 3.875 11.817 10.695 22.887 16.318 33.962 5.438 10.714 9.997 24.123 19.919 31.456 2.308 1.706 5.438-.321 5.648-2.905.933-11.493-5.768-23.11-9.983-33.516-4.661-11.503-8.395-24.409-14.756-35.069" fill="#fff" fill-rule="nonzero"/><path d="M143.1 44.385c-5.001-8.381-20.543-4.284-17.146 6.072 3.875 11.817 10.695 22.887 16.318 33.962 5.438 10.714 9.997 24.123 19.919 31.456 2.308 1.706 5.438-.321 5.648-2.905.933-11.493-5.768-23.11-9.983-33.516-4.661-11.503-8.395-24.409-14.756-35.069z" fill="none" stroke="#fff" stroke-width=".89"/><path d="M127.8 46.808c-.12.812-.049 1.763.314 2.871 2.791 8.513 7.24 16.806 11.54 24.825 1.55 2.89 3.152 5.879 4.647 8.823 1.142 2.249 2.264 4.655 3.35 6.981 4.175 8.954 8.493 18.212 15.908 23.692.115.086.468.346 1.071.072.557-.254.969-.826 1.038-1.367.695-8.579-3.211-17.389-6.988-25.908-1.01-2.279-1.965-4.431-2.841-6.593-1.388-3.424-2.714-7.027-3.997-10.512-3.061-8.315-6.227-16.913-10.606-24.252-2.129-3.568-6.814-4.144-10.114-2.641-1.024.467-2.974 1.653-3.322 4.009m42.26 66.621c-.296 2.006-1.672 3.821-3.588 4.693-1.869.85-3.947.647-5.558-.543-8.324-6.153-12.885-15.932-17.297-25.39-1.119-2.4-2.175-4.665-3.283-6.848-1.472-2.9-3.063-5.866-4.601-8.734-4.392-8.189-8.933-16.656-11.847-25.541-1.709-5.211.407-10.046 5.392-12.316 5.081-2.314 12.373-1.298 15.778 4.41 4.593 7.694 7.831 16.489 10.962 24.994 1.27 3.452 2.585 7.022 3.945 10.379.849 2.096 1.789 4.215 2.784 6.46 3.817 8.608 8.143 18.366 7.355 28.072-.01.122-.024.243-.042.364" fill="#fff" fill-rule="nonzero"/><path d="M127.8 46.808c-.12.812-.049 1.763.314 2.871 2.791 8.513 7.24 16.806 11.54 24.825 1.55 2.89 3.152 5.879 4.647 8.823 1.142 2.249 2.264 4.655 3.35 6.981 4.175 8.954 8.493 18.212 15.908 23.692.115.086.468.346 1.071.072.557-.254.969-.826 1.038-1.367.695-8.579-3.211-17.389-6.988-25.908-1.01-2.279-1.965-4.431-2.841-6.593-1.388-3.424-2.714-7.027-3.997-10.512-3.061-8.315-6.227-16.913-10.606-24.252-2.129-3.568-6.814-4.144-10.114-2.641-1.024.467-2.974 1.653-3.322 4.009zm42.26 66.621c-.296 2.006-1.672 3.821-3.588 4.693-1.869.85-3.947.647-5.558-.543-8.324-6.153-12.885-15.932-17.297-25.39-1.119-2.4-2.175-4.665-3.283-6.848-1.472-2.9-3.063-5.866-4.601-8.734-4.392-8.189-8.933-16.656-11.847-25.541-1.709-5.211.407-10.046 5.392-12.316 5.081-2.314 12.373-1.298 15.778 4.41 4.593 7.694 7.831 16.489 10.962 24.994 1.27 3.452 2.585 7.022 3.945 10.379.849 2.096 1.789 4.215 2.784 6.46 3.817 8.608 8.143 18.366 7.355 28.072-.01.122-.024.243-.042.364z" fill="none" stroke="#fff" stroke-width=".89"/><path d="M264.1 10.857c-3.526 5.915-4.436 13.172-6.104 19.816-1.917 7.64-3.982 15.241-5.842 22.897-3.432 14.114-6.95 28.396-8.657 42.836-.849 7.191 9.855 8.703 12.087 2.229 4.549-13.182 7.967-26.759 12.098-40.082 2.068-6.675 4.244-13.317 6.468-19.942 2.442-7.281 6.538-14.545 7.235-22.206.851-9.359-12.509-13.557-17.285-5.548" fill="#fff" fill-rule="nonzero"/><path d="M264.1 10.857c-3.526 5.915-4.436 13.172-6.104 19.816-1.917 7.64-3.982 15.241-5.842 22.897-3.432 14.114-6.95 28.396-8.657 42.836-.849 7.191 9.855 8.703 12.087 2.229 4.549-13.182 7.967-26.759 12.098-40.082 2.068-6.675 4.244-13.317 6.468-19.942 2.442-7.281 6.538-14.545 7.235-22.206.851-9.359-12.509-13.557-17.285-5.548z" fill="none" stroke="#fff" stroke-width=".89"/><path d="M246.4 91.423a182.512 182.512 0 00-.701 5.259c-.321 2.721 1.81 3.51 2.742 3.723 1.924.44 4.271-.272 5.033-2.482 2.769-8.023 5.163-16.36 7.479-24.422 1.469-5.12 2.991-10.413 4.596-15.592 1.859-5.996 3.918-12.35 6.485-19.992.798-2.382 1.774-4.773 2.717-7.084 1.95-4.78 3.962-9.72 4.411-14.615.347-3.832-2.445-6.139-4.942-6.951-2.543-.826-6.221-.603-8.216 2.743-2.515 4.216-3.651 9.393-4.75 14.398-.348 1.587-.708 3.229-1.108 4.82-.803 3.201-1.632 6.396-2.462 9.59-1.13 4.353-2.299 8.854-3.377 13.291l-.26 1.068c-2.88 11.849-5.846 24.049-7.647 36.246m36.997-73.169c-.731 4.957-2.657 9.679-4.526 14.259-.959 2.351-1.865 4.572-2.619 6.819-2.555 7.61-4.605 13.931-6.453 19.894-1.592 5.135-3.105 10.406-4.57 15.504-2.331 8.116-4.742 16.509-7.549 24.645-1.617 4.689-6.371 6.25-10.23 5.367-4.184-.956-6.662-4.405-6.17-8.583 1.684-14.21 5.119-28.354 8.444-42.033l.26-1.068c1.086-4.471 2.259-8.989 3.394-13.358a1204.82 1204.82 0 002.453-9.555c.382-1.527.736-3.136 1.078-4.69 1.175-5.353 2.388-10.887 5.272-15.723 3.124-5.239 8.989-6.134 13.414-4.696 5.258 1.708 8.473 6.365 7.997 11.585a28.634 28.634 0 01-.195 1.633" fill="#fff" fill-rule="nonzero"/><path d="M246.4 91.423a182.512 182.512 0 00-.701 5.259c-.321 2.721 1.81 3.51 2.742 3.723 1.924.44 4.271-.272 5.033-2.482 2.769-8.023 5.163-16.36 7.479-24.422 1.469-5.12 2.991-10.413 4.596-15.592 1.859-5.996 3.918-12.35 6.485-19.992.798-2.382 1.774-4.773 2.717-7.084 1.95-4.78 3.962-9.72 4.411-14.615.347-3.832-2.445-6.139-4.942-6.951-2.543-.826-6.221-.603-8.216 2.743-2.515 4.216-3.651 9.393-4.75 14.398-.348 1.587-.708 3.229-1.108 4.82-.803 3.201-1.632 6.396-2.462 9.59-1.13 4.353-2.299 8.854-3.377 13.291l-.26 1.068c-2.88 11.849-5.846 24.049-7.647 36.246zm36.997-73.169c-.731 4.957-2.657 9.679-4.526 14.259-.959 2.351-1.865 4.572-2.619 6.819-2.555 7.61-4.605 13.931-6.453 19.894-1.592 5.135-3.105 10.406-4.57 15.504-2.331 8.116-4.742 16.509-7.549 24.645-1.617 4.689-6.371 6.25-10.23 5.367-4.184-.956-6.662-4.405-6.17-8.583 1.684-14.21 5.119-28.354 8.444-42.033l.26-1.068c1.086-4.471 2.259-8.989 3.394-13.358a1204.82 1204.82 0 002.453-9.555c.382-1.527.736-3.136 1.078-4.69 1.175-5.353 2.388-10.887 5.272-15.723 3.124-5.239 8.989-6.134 13.414-4.696 5.258 1.708 8.473 6.365 7.997 11.585a28.634 28.634 0 01-.195 1.633z" fill="none" stroke="#fff" stroke-width=".89"/><path d="M92.012 173.366c-24.344-8.512-49.354-16.02-74.077-23.345-10.774-3.195-16.088 13.848-5.295 16.495 25.141 6.169 50.615 12.323 76.022 17.28 6.768 1.32 10.19-8.038 3.35-10.43" fill="#fff" fill-rule="nonzero"/><path d="M92.012 173.366c-24.344-8.512-49.354-16.02-74.077-23.345-10.774-3.195-16.088 13.848-5.295 16.495 25.141 6.169 50.615 12.323 76.022 17.28 6.768 1.32 10.19-8.038 3.35-10.43z" fill="none" stroke="#fff" stroke-width=".89"/><path d="M9 157.991c-.138.935-.101 1.875.137 2.742.509 1.858 1.892 3.113 4.001 3.631 25.641 6.291 50.743 12.344 75.92 17.257 2.36.46 3.891-1.016 4.314-2.581.213-.772.422-2.674-2.126-3.565-24.087-8.423-48.735-15.834-73.975-23.314-2.934-.87-4.909.279-6.048 1.394-1.198 1.173-1.981 2.796-2.223 4.436m88.859 21.293a7.828 7.828 0 01-.192.919c-.951 3.513-4.59 6.734-9.461 5.784-25.273-4.931-50.432-10.998-76.128-17.302-3.717-.912-6.286-3.319-7.232-6.778-1.075-3.933.235-8.564 3.264-11.531 2.776-2.718 6.576-3.622 10.425-2.48 25.293 7.495 49.999 14.923 74.18 23.379 3.648 1.276 5.664 4.488 5.144 8.009" fill="#fff" fill-rule="nonzero"/><path d="M9 157.991c-.138.935-.101 1.875.137 2.742.509 1.858 1.892 3.113 4.001 3.631 25.641 6.291 50.743 12.344 75.92 17.257 2.36.46 3.891-1.016 4.314-2.581.213-.772.422-2.674-2.126-3.565-24.087-8.423-48.735-15.834-73.975-23.314-2.934-.87-4.909.279-6.048 1.394-1.198 1.173-1.981 2.796-2.223 4.436zm88.859 21.293a7.828 7.828 0 01-.192.919c-.951 3.513-4.59 6.734-9.461 5.784-25.273-4.931-50.432-10.998-76.128-17.302-3.717-.912-6.286-3.319-7.232-6.778-1.075-3.933.235-8.564 3.264-11.531 2.776-2.718 6.576-3.622 10.425-2.48 25.293 7.495 49.999 14.923 74.18 23.379 3.648 1.276 5.664 4.488 5.144 8.009z" fill="none" stroke="#fff" stroke-width=".89"/><path d="M814.4 828.661c7.919 5.704 20.553-4.232 13.32-12.385-8.252-9.304-18.909-16.753-28.469-24.682-9.248-7.67-18.76-18.163-30.779-20.95-2.797-.648-4.863 2.455-4.029 4.91 3.712 10.918 14.478 18.915 22.48 26.789 8.848 8.704 17.403 19.064 27.477 26.318" fill="#fff" fill-rule="nonzero"/><path d="M814.4 828.661c7.919 5.704 20.553-4.232 13.32-12.385-8.252-9.304-18.909-16.753-28.469-24.682-9.248-7.67-18.76-18.163-30.779-20.95-2.797-.648-4.863 2.455-4.029 4.91 3.712 10.918 14.478 18.915 22.48 26.789 8.848 8.704 17.403 19.064 27.477 26.318z" fill="none" stroke="#fff" stroke-width=".89"/><path d="M827.5 820.246c-.212-.792-.654-1.637-1.429-2.509-5.944-6.703-13.321-12.546-20.454-18.196-2.571-2.036-5.228-4.142-7.77-6.25-1.941-1.609-3.927-3.372-5.848-5.076-7.391-6.556-15.031-13.337-24.014-15.419-.138-.032-.566-.131-1.01.361-.411.453-.561 1.142-.41 1.666 2.771 8.149 9.857 14.681 16.708 20.998 1.832 1.69 3.564 3.286 5.227 4.922 2.634 2.589 5.282 5.369 7.845 8.058 6.112 6.413 12.434 13.045 19.37 18.04 3.371 2.427 7.899 1.095 10.33-1.596.755-.836 2.072-2.698 1.455-4.999m-65.253-44.342c-.525-1.958.017-4.171 1.428-5.732 1.377-1.523 3.365-2.162 5.315-1.71 10.084 2.338 18.156 9.499 25.962 16.425 1.981 1.757 3.851 3.417 5.735 4.979 2.502 2.077 5.142 4.166 7.693 6.187 7.284 5.77 14.815 11.735 21.02 18.731 3.64 4.102 3.619 9.379-.053 13.443-3.743 4.144-10.839 6.109-16.232 2.225-7.271-5.237-13.738-12.021-19.991-18.581-2.538-2.663-5.162-5.417-7.745-7.957-1.611-1.585-3.317-3.157-5.121-4.821-6.924-6.383-14.771-13.618-17.904-22.838a4.424 4.424 0 01-.107-.351" fill="#fff" fill-rule="nonzero"/><path d="M827.5 820.246c-.212-.792-.654-1.637-1.429-2.509-5.944-6.703-13.321-12.546-20.454-18.196-2.571-2.036-5.228-4.142-7.77-6.25-1.941-1.609-3.927-3.372-5.848-5.076-7.391-6.556-15.031-13.337-24.014-15.419-.138-.032-.566-.131-1.01.361-.411.453-.561 1.142-.41 1.666 2.771 8.149 9.857 14.681 16.708 20.998 1.832 1.69 3.564 3.286 5.227 4.922 2.634 2.589 5.282 5.369 7.845 8.058 6.112 6.413 12.434 13.045 19.37 18.04 3.371 2.427 7.899 1.095 10.33-1.596.755-.836 2.072-2.698 1.455-4.999zm-65.253-44.342c-.525-1.958.017-4.171 1.428-5.732 1.377-1.523 3.365-2.162 5.315-1.71 10.084 2.338 18.156 9.499 25.962 16.425 1.981 1.757 3.851 3.417 5.735 4.979 2.502 2.077 5.142 4.166 7.693 6.187 7.284 5.77 14.815 11.735 21.02 18.731 3.64 4.102 3.619 9.379-.053 13.443-3.743 4.144-10.839 6.109-16.232 2.225-7.271-5.237-13.738-12.021-19.991-18.581-2.538-2.663-5.162-5.417-7.745-7.957-1.611-1.585-3.317-3.157-5.121-4.821-6.924-6.383-14.771-13.618-17.904-22.838a4.424 4.424 0 01-.107-.351z" fill="none" stroke="#fff" stroke-width=".89"/><path d="M716.6 907.423c.886-6.829-1.164-13.85-2.273-20.609-1.277-7.774-2.403-15.569-3.738-23.333-2.46-14.315-4.906-28.821-9.079-42.749-2.077-6.936-12.501-4.07-11.977 2.758 1.064 13.903 3.323 27.721 4.826 41.588.755 6.948 1.397 13.907 1.989 20.87.652 7.652-.219 15.946 2.185 23.252 2.938 8.927 16.866 7.471 18.067-1.777" fill="#fff" fill-rule="nonzero"/><path d="M716.6 907.423c.886-6.829-1.164-13.85-2.273-20.609-1.277-7.774-2.403-15.569-3.738-23.333-2.46-14.315-4.906-28.821-9.079-42.749-2.077-6.936-12.501-4.07-11.977 2.758 1.064 13.903 3.323 27.721 4.826 41.588.755 6.948 1.397 13.907 1.989 20.87.652 7.652-.219 15.946 2.185 23.252 2.938 8.927 16.866 7.471 18.067-1.777z" fill="none" stroke="#fff" stroke-width=".89"/><path d="M700.9 826.492a179.786 179.786 0 00-1.446-5.104c-.787-2.625-3.057-2.502-3.996-2.327-1.941.361-3.812 1.946-3.632 4.277.647 8.464 1.762 17.065 2.842 25.383.684 5.282 1.392 10.745 1.977 16.135.677 6.241 1.312 12.89 1.994 20.923.214 2.503.269 5.084.322 7.58.11 5.161.227 10.494 1.759 15.164 1.204 3.655 4.684 4.662 7.297 4.415 2.662-.253 5.949-1.919 6.45-5.782.632-4.869-.382-10.07-1.363-15.1-.311-1.595-.633-3.244-.898-4.863-.535-3.257-1.043-6.518-1.551-9.779-.693-4.443-1.41-9.038-2.184-13.538l-.185-1.084c-2.066-12.017-4.192-24.392-7.386-36.3m-4.875 81.846c-1.299-4.84-1.407-9.938-1.513-14.884-.053-2.538-.105-4.936-.305-7.297-.681-7.999-1.312-14.615-1.986-20.82-.579-5.346-1.285-10.784-1.967-16.044-1.085-8.375-2.208-17.034-2.865-25.615-.379-4.946 3.363-8.268 7.255-8.991 4.219-.784 7.864 1.395 9.072 5.425 4.101 13.709 6.571 28.053 8.955 41.927l.185 1.083c.78 4.535 1.499 9.146 2.194 13.607.506 3.249 1.014 6.497 1.546 9.743.255 1.554.571 3.17.875 4.732 1.049 5.379 2.134 10.94 1.409 16.524-.785 6.049-5.81 9.2-10.443 9.639-5.504.522-10.304-2.473-11.942-7.453a29.325 29.325 0 01-.47-1.576" fill="#fff" fill-rule="nonzero"/><path d="M700.9 826.492a179.786 179.786 0 00-1.446-5.104c-.787-2.625-3.057-2.502-3.996-2.327-1.941.361-3.812 1.946-3.632 4.277.647 8.464 1.762 17.065 2.842 25.383.684 5.282 1.392 10.745 1.977 16.135.677 6.241 1.312 12.89 1.994 20.923.214 2.503.269 5.084.322 7.58.11 5.161.227 10.494 1.759 15.164 1.204 3.655 4.684 4.662 7.297 4.415 2.662-.253 5.949-1.919 6.45-5.782.632-4.869-.382-10.07-1.363-15.1-.311-1.595-.633-3.244-.898-4.863-.535-3.257-1.043-6.518-1.551-9.779-.693-4.443-1.41-9.038-2.184-13.538l-.185-1.084c-2.066-12.017-4.192-24.392-7.386-36.3zm-4.875 81.846c-1.299-4.84-1.407-9.938-1.513-14.884-.053-2.538-.105-4.936-.305-7.297-.681-7.999-1.312-14.615-1.986-20.82-.579-5.346-1.285-10.784-1.967-16.044-1.085-8.375-2.208-17.034-2.865-25.615-.379-4.946 3.363-8.268 7.255-8.991 4.219-.784 7.864 1.395 9.072 5.425 4.101 13.709 6.571 28.053 8.955 41.927l.185 1.083c.78 4.535 1.499 9.146 2.194 13.607.506 3.249 1.014 6.497 1.546 9.743.255 1.554.571 3.17.875 4.732 1.049 5.379 2.134 10.94 1.409 16.524-.785 6.049-5.81 9.2-10.443 9.639-5.504.522-10.304-2.473-11.942-7.453a29.325 29.325 0 01-.47-1.576z" fill="none" stroke="#fff" stroke-width=".89"/><path d="M809.983 689.903c25.722-1.86 51.654-4.911 77.254-8.013 11.155-1.349 9.26-19.1-1.694-17.241-25.524 4.33-51.346 8.806-76.63 14.353-6.736 1.478-6.158 11.424 1.07 10.9" fill="#fff" fill-rule="nonzero"/><path d="M809.983 689.903c25.722-1.86 51.654-4.911 77.254-8.013 11.155-1.349 9.26-19.1-1.694-17.241-25.524 4.33-51.346 8.806-76.63 14.353-6.736 1.478-6.158 11.424 1.07 10.9z" fill="none" stroke="#fff" stroke-width=".89"/><path d="M892.3 670.976c-.245-.914-.653-1.761-1.216-2.461-1.205-1.504-2.972-2.106-5.114-1.743-26.03 4.416-51.47 8.836-76.525 14.333-2.349.516-3.167 2.478-2.934 4.082.111.793.675 2.622 3.368 2.427 25.45-1.842 51.014-4.836 77.148-8.002 3.038-.367 4.393-2.206 4.996-3.683.632-1.551.707-3.352.277-4.953m-90.004 15.77a7.908 7.908 0 01-.188-.919c-.524-3.602 1.536-8.004 6.383-9.068 25.152-5.518 50.649-9.947 76.734-14.373 3.774-.64 7.088.548 9.331 3.346 2.55 3.181 3.186 7.952 1.587 11.878-1.468 3.597-4.596 5.937-8.581 6.419-26.19 3.173-51.813 6.174-77.363 8.023-3.854.278-6.981-1.868-7.903-5.306" fill="#fff" fill-rule="nonzero"/><path d="M892.3 670.976c-.245-.914-.653-1.761-1.216-2.461-1.205-1.504-2.972-2.106-5.114-1.743-26.03 4.416-51.47 8.836-76.525 14.333-2.349.516-3.167 2.478-2.934 4.082.111.793.675 2.622 3.368 2.427 25.45-1.842 51.014-4.836 77.148-8.002 3.038-.367 4.393-2.206 4.996-3.683.632-1.551.707-3.352.277-4.953zm-90.004 15.77a7.908 7.908 0 01-.188-.919c-.524-3.602 1.536-8.004 6.383-9.068 25.152-5.518 50.649-9.947 76.734-14.373 3.774-.64 7.088.548 9.331 3.346 2.55 3.181 3.186 7.952 1.587 11.878-1.468 3.597-4.596 5.937-8.581 6.419-26.19 3.173-51.813 6.174-77.363 8.023-3.854.278-6.981-1.868-7.903-5.306z" fill="none" stroke="#fff" stroke-width=".89"/><path d="M272.5 311.706c.454-5.434-.458-10.572-2.734-15.413-2.544-5.575-6.253-9.004-11.125-10.286l-4.07 48.744c5.067-.398 9.318-3.133 12.751-8.21 2.994-4.4 4.72-9.346 5.178-14.835m39.372 3.287c-1.929 23.096-13.339 39.161-34.229 48.197-16.301 7.12-37.031 9.631-62.191 7.53-2.934-.245-4.279-1.835-4.034-4.769l9.841-117.868c.24-2.879 1.825-4.198 4.755-3.953 25.172 2.101 45.193 7.988 60.063 17.655 19.12 12.431 27.719 30.168 25.795 53.208M361 264.349l-11.3 106.829c-.281 2.712-1.728 3.986-4.341 3.823l-26.614-1.729c-1.141-.095-2.056-.61-2.744-1.542-.689-.934-.984-1.97-.89-3.111l10.404-107.89c.249-2.988 1.702-4.344 4.361-4.067l27.511 2.789c2.712.281 3.916 1.914 3.613 4.898M422.1 324.206c.454-5.433-.458-10.571-2.734-15.413-2.545-5.575-6.254-9.004-11.125-10.286l-4.07 48.745c5.067-.399 9.318-3.134 12.751-8.211 2.993-4.4 4.72-9.346 5.178-14.835m39.372 3.287c-1.929 23.096-13.339 39.161-34.23 48.197-16.3 7.12-37.031 9.631-62.19 7.53-2.934-.245-4.279-1.834-4.034-4.769l9.841-117.867c.24-2.88 1.825-4.199 4.755-3.954 25.172 2.101 45.193 7.988 60.063 17.655 19.119 12.432 27.718 30.168 25.795 53.208M425.5 417.077c-.051.894-12.622 23.613-37.714 68.159l-1.223 29.9c-.103 2.734-1.573 4.048-4.414 3.94l-30.855-1.118c-2.789-.106-4.103-1.577-3.941-4.415l1.731-30.504c-17.922-47.409-26.859-71.508-26.814-72.296.161-2.837 1.63-4.15 4.414-3.94l30.951 2.231c2.097.171 3.383 1.22 3.853 3.144l9.568 37.63 15.35-36.374c.735-1.803 2.073-2.65 4.019-2.54l31.135 1.768c2.785.158 4.098 1.63 3.94 4.415M487 472.325c.328-5.78-.902-11.069-3.687-15.867-3.225-5.403-7.571-8.258-13.035-8.569-5.465-.31-10.081 2.065-13.847 7.123-3.255 4.401-5.047 9.493-5.375 15.272-.326 5.729.881 10.963 3.616 15.705 3.17 5.452 7.487 8.333 12.953 8.643 5.465.31 10.105-2.036 13.922-7.038 3.308-4.451 5.128-9.541 5.453-15.269m34.967 1.114c-.877 15.449-6.233 28.537-16.067 39.26-10.566 11.524-23.363 16.861-38.391 16.008-17.551-.996-31.036-7.218-40.455-18.665-9.175-11.117-13.261-25.504-12.259-43.16.981-17.288 6.925-31.448 17.831-42.48 11.353-11.481 25.569-16.737 42.647-15.767 15.292.868 27.338 8.273 36.143 22.216 7.935 12.523 11.452 26.719 10.551 42.588M626.5 429.486l-4.774 59.036c-2.614 32.115-19.24 47.304-49.874 45.565-30.479-1.73-44.831-18.202-43.06-49.416-.016.264.924-13.496 2.817-41.277l1.025-13.859c.02-1.316.184-3.257.487-5.824.492-3.082 3.785-4.451 9.881-4.104 3.153.178 8.853.977 17.103 2.394 2.244.392 4.517.757 6.818 1.098 2.849.848 4.186 2.373 4.01 4.577l-4.297 52.026a61.14 61.14 0 01-.204 2.203 36.854 36.854 0 00-.204 2.202c-.284 4.993-.117 8.534.503 10.625 1.052 3.751 3.549 5.737 7.491 5.961 4.203.238 7.08-1.681 8.629-5.757.751-2.066 1.335-5.881 1.757-11.446l3.938-55.447c.201-2.624 1.566-3.917 4.096-3.879l29.918.907c1.208.069 2.196.534 2.965 1.394.768.862 1.092 1.869.975 3.021M279.6 538.826c-.162.805-.477 1.438-.941 1.903l-33.251 33.208c10.139 31.427 15.116 47.609 14.926 48.547-.458 2.28-1.791 3.243-3.999 2.893l-28.008-4.308c-1.619-.279-2.619-1.201-3.001-2.765l-7.812-31.562-4.905 23.006c-.477 2.136-1.801 3.056-3.973 2.758l-26.548-3.595c-2.279-.458-3.204-1.875-2.771-4.253l16.664-84.949c.476-2.368 1.921-3.31 4.335-2.825l27.043 5.299c.981.198 1.762.715 2.338 1.552.575.837.741 1.741.5 2.715l-5.823 27.565 22.072-24.437c.966-1.106 2.138-1.499 3.514-1.176l27.069 6.211c2.18.484 3.038 1.89 2.571 4.213M365.7 553.327l-18.529 87.978c-.441 2.193-1.766 3.113-3.973 2.764l-22.848-3.618c-1.537-.216-2.493-1.129-2.866-2.738l-11.59-48.155-8.827 41.817c-.44 1.957-1.822 2.818-4.146 2.584-10.638-1.21-16.582-1.94-17.833-2.192-5.319-1.069-7.712-2.922-7.182-5.559l17.861-88.822c.612-3.038 4.305-3.877 11.079-2.515 2.095.421 7.688 1.895 16.781 4.42 1.407.378 2.275 1.249 2.603 2.617l11.362 47.62 8.477-42.153c.595-2.958 4.162-3.779 10.702-2.465 2.403.484 7.772 1.866 16.107 4.147 2.376.618 3.316 2.041 2.822 4.27M424 614.735c.988-4.916.581-9.601-1.219-14.055-2.105-5.027-5.481-8.007-10.129-8.942-4.648-.935-8.896.537-12.744 4.412-3.329 3.376-5.488 7.522-6.476 12.438-.981 4.871-.587 9.507 1.178 13.907 2.051 5.063 5.4 8.061 10.048 8.996 4.648.934 8.914-.51 12.798-4.332 3.382-3.411 5.565-7.552 6.544-12.424m29.845 5.234c-2.642 13.14-8.836 23.705-18.579 31.696-10.47 8.588-22.095 11.598-34.876 9.028-14.927-3.002-25.728-9.986-32.403-20.954-6.507-10.654-8.25-23.489-5.23-38.505 2.957-14.703 9.786-26.116 20.486-34.241 11.139-8.454 23.971-11.221 38.496-8.3 13.005 2.615 22.427 10.438 28.271 23.47 5.27 11.708 6.549 24.31 3.835 37.806M568.1 594.227L543.227 681.5c-.539 1.984-1.89 2.805-4.053 2.463l-26.427-4.198c-1.851-.279-2.881-1.277-3.094-2.994l-4.871-35.434-17.746 30.677c-.933 1.626-2.239 2.223-3.918 1.793l-24.923-6.128c-1.993-.494-2.887-1.721-2.678-3.678l9.321-91.097c.486-2.413 1.911-3.382 4.282-2.906l21.383 4.301c2.236.449 3.217 1.809 2.947 4.079l-5.652 43.711 14.517-32.652c.815-1.741 2.162-2.424 4.039-2.047l17.832 3.586c1.966.395 2.966 1.55 3 3.463l.459 35.523 12.047-42.912c.645-2.287 2.139-3.127 4.481-2.516l21.357 5.48c2.171.53 3.055 1.8 2.651 3.811l-.081.402zM662.1 725.37c-.144 4.8-3.063 8.625-8.753 11.472-4.815 2.381-9.869 3.492-15.16 3.333-5.479-.164-10.518-1.609-15.116-4.334-5.509-3.245-8.186-7.391-8.034-12.438.139-4.676 3.084-8.408 8.835-11.192 4.816-2.443 9.778-3.587 14.887-3.433 5.292.158 10.33 1.634 15.112 4.425 5.63 3.312 8.374 7.366 8.229 12.167m41.067-84.605c-.224 7.509-3.157 14.965-8.794 22.373-2.755 3.675-7.077 8.257-12.963 13.748-6.458 6.028-10.897 10.453-13.321 13.275-2.746 3.306-5.077 7.209-6.997 11.709-.995 2.373-2.597 3.526-4.809 3.46l-35.32-1.06c-3.135-.094-4.652-1.833-4.551-5.218.249-8.247 4.035-16.418 11.362-24.515 3.25-3.597 10.018-9.523 20.306-17.777 7.258-5.819 10.929-10.081 11.01-12.79.083-2.769-2.152-4.223-6.707-4.36-4.924-.148-10.109 1.267-15.557 4.246-4.646 2.879-9.289 5.759-13.934 8.637a5.978 5.978 0 01-3.259.826c-1.416-.042-2.598-.693-3.545-1.954l-20.16-27.123c-.593-.817-.869-1.843-.832-3.074.028-.923.362-1.837 1.004-2.742 5.397-7.537 13.338-13.705 23.821-18.504 10.111-4.686 19.932-6.886 29.464-6.6 16.418.492 29.257 4.296 38.524 11.411 10.648 8.143 15.735 20.153 15.258 36.032" fill="#fff" fill-rule="nonzero"/></svg>