<svg viewBox="0 0 623 1808" xmlns="http://www.w3.org/2000/svg" fill-rule="evenodd" clip-rule="evenodd" stroke-linejoin="round" stroke-miterlimit="2"><path d="M57.299 1807.23h508.199c63.421-47.69 57.173-117.03 57.173-117.03V937.878c0-52.543-47.645-224.503-95.289-293.764-47.643-69.263-88.933-198.232-104.815-291.377-15.88-93.145-22.233-265.105-22.233-288.987h-177.87c0 23.882-6.352 195.842-22.234 288.987-15.882 93.145-57.171 222.114-104.815 291.377C47.771 713.375.128 885.335.128 937.878V1690.2s-6.249 69.34 57.171 117.03z" fill="#fff" fill-rule="nonzero"/><path d="M311.4 1807.23h254.098c63.421-47.69 57.173-117.03 57.173-117.03V937.878c0-52.543-47.645-224.503-95.289-293.764-47.641-69.263-88.933-198.232-104.815-291.377-15.88-93.145-22.233-265.105-22.233-288.987H311.4v1743.48z" fill="#fff" fill-rule="nonzero"/><path d="M373.9 134.762H248.881c-25.677 0-46.493-20.815-46.493-46.493V46.494C202.388 20.817 223.204 0 248.882 0H373.9c25.678 0 46.494 20.817 46.494 46.494v41.774c0 25.678-20.816 46.494-46.494 46.494M182.9 823.76c.694-8.313-.701-16.175-4.184-23.582-3.893-8.53-9.568-13.776-17.021-15.737l-6.227 74.58c7.752-.61 14.256-4.795 19.51-12.563 4.58-6.733 7.221-14.3 7.922-22.698m60.239 5.029c-2.95 35.338-20.408 59.917-52.372 73.743-24.939 10.894-56.657 14.735-95.151 11.521-4.49-.375-6.547-2.808-6.173-7.297L104.5 726.417c.368-4.406 2.793-6.424 7.275-6.05 38.513 3.216 69.146 12.222 91.898 27.013 29.253 19.021 42.41 46.157 39.466 81.409M318.3 751.297l-17.288 163.45c-.431 4.15-2.645 6.099-6.642 5.85l-40.719-2.646c-1.747-.146-3.147-.933-4.201-2.36-1.053-1.429-1.505-3.015-1.36-4.76l15.917-165.072c.382-4.572 2.606-6.648 6.674-6.225l42.091 4.269c4.149.431 5.991 2.929 5.528 7.494M411.8 842.87c.694-8.313-.701-16.174-4.185-23.582-3.892-8.53-9.567-13.775-17.02-15.737l-6.227 74.58c7.752-.61 14.256-4.795 19.509-12.563 4.581-6.733 7.222-14.299 7.923-22.698m60.239 5.029c-2.95 35.338-20.408 59.918-52.372 73.742-24.94 10.895-56.657 14.736-95.152 11.522-4.489-.375-6.547-2.807-6.172-7.297L333.4 745.527c.367-4.406 2.793-6.424 7.275-6.05 38.513 3.216 69.146 12.222 91.897 27.013 29.254 19.021 42.411 46.157 39.467 81.409M243.6 1004.996c-.078 1.367-19.312 36.128-57.703 104.283l-1.87 45.748c-.158 4.185-2.408 6.195-6.754 6.03l-47.21-1.712c-4.268-.162-6.276-2.413-6.03-6.754l2.649-46.673c-27.42-72.535-41.096-109.408-41.027-110.613.247-4.342 2.496-6.351 6.755-6.03l47.354 3.413c3.21.264 5.176 1.869 5.898 4.812l14.637 57.575 23.487-55.653c1.123-2.758 3.172-4.055 6.148-3.886l47.637 2.704c4.26.242 6.27 2.495 6.029 6.756M337.7 1089.47c.502-8.844-1.38-16.936-5.64-24.276-4.935-8.266-11.584-12.636-19.944-13.111-8.363-.474-15.425 3.159-21.187 10.897-4.981 6.735-7.721 14.525-8.223 23.368-.498 8.764 1.347 16.773 5.532 24.028 4.85 8.342 11.455 12.749 19.818 13.224 8.361.474 15.461-3.115 21.3-10.769 5.063-6.809 7.846-14.597 8.344-23.361m53.501 1.705c-1.342 23.638-9.537 43.662-24.583 60.067-16.166 17.634-35.746 25.798-58.739 24.494-26.854-1.525-47.487-11.043-61.898-28.558-14.037-17.01-20.289-39.021-18.756-66.035 1.501-26.452 10.596-48.116 27.283-64.996 17.37-17.566 39.121-25.607 65.251-24.123 23.396 1.328 41.828 12.657 55.298 33.991 12.14 19.16 17.522 40.881 16.144 65.16M551.1 1023.905l-7.305 90.326c-3.998 49.137-29.435 72.375-76.307 69.715-46.633-2.646-68.593-27.85-65.882-75.607-.024.404 1.414-20.649 4.31-63.154l1.567-21.205c.032-2.012.283-4.983.747-8.911.752-4.716 5.79-6.81 15.117-6.28 4.824.274 13.546 1.495 26.168 3.663 3.434.6 6.911 1.16 10.432 1.682 4.36 1.296 6.405 3.629 6.135 7.001l-6.575 79.601c-.032.564-.137 1.686-.312 3.371a59.665 59.665 0 00-.313 3.369c-.433 7.639-.178 13.058.772 16.256 1.609 5.738 5.429 8.778 11.46 9.12 6.431.366 10.832-2.57 13.203-8.808 1.147-3.16 2.042-8.998 2.688-17.512l6.026-84.835c.307-4.015 2.396-5.993 6.265-5.936l45.776 1.39c1.848.105 3.36.816 4.537 2.132 1.175 1.318 1.672 2.858 1.491 4.622M168.8 1216.203c-.248 1.231-.729 2.201-1.44 2.913l-50.874 50.809c15.513 48.083 23.127 72.841 22.838 74.277-.701 3.487-2.741 4.961-6.119 4.425l-42.854-6.59c-2.475-.428-4.005-1.838-4.591-4.231l-11.952-48.29-7.506 35.2c-.729 3.267-2.754 4.675-6.077 4.219l-40.619-5.5c-3.487-.701-4.903-2.87-4.241-6.508l25.497-129.973c.729-3.623 2.939-5.064 6.631-4.321l41.376 8.106c1.503.303 2.697 1.094 3.578 2.374.88 1.281 1.134 2.665.765 4.155l-8.908 42.175 33.77-37.388c1.478-1.694 3.271-2.294 5.377-1.8l41.415 9.502c3.336.742 4.649 2.892 3.934 6.446M300.6 1238.341l-28.351 134.607c-.674 3.357-2.701 4.764-6.079 4.229l-34.956-5.534c-2.352-.331-3.814-1.728-4.385-4.19l-17.733-73.676-13.506 63.98c-.675 2.993-2.788 4.311-6.344 3.952-16.276-1.85-25.372-2.968-27.285-3.352-8.137-1.637-11.799-4.472-10.989-8.506l27.329-135.901c.936-4.648 6.585-5.931 16.951-3.846 3.204.644 11.762 2.898 25.673 6.762 2.154.578 3.482 1.912 3.985 4.003l17.383 72.86 12.97-64.494c.91-4.527 6.368-5.783 16.375-3.771 3.675.739 11.89 2.855 24.644 6.345 3.634.944 5.073 3.122 4.318 6.532M389.7 1332.336c1.512-7.521.889-14.689-1.865-21.504-3.221-7.691-8.386-12.252-15.497-13.682-7.113-1.429-13.612.822-19.499 6.751-5.094 5.165-8.398 11.509-9.91 19.03-1.499 7.453-.898 14.546 1.803 21.279 3.139 7.746 8.263 12.333 15.375 13.763 7.111 1.429 13.638-.78 19.58-6.627 5.175-5.22 8.514-11.557 10.013-19.01m45.663 8.009c-4.043 20.102-13.519 36.268-28.427 48.494-16.018 13.141-33.805 17.746-53.36 13.813-22.838-4.592-39.364-15.279-49.577-32.059-9.954-16.301-12.622-35.94-8.002-58.914 4.524-22.496 14.973-39.958 31.345-52.39 17.043-12.934 36.675-17.168 58.898-12.699 19.898 4.001 34.314 15.971 43.255 35.91 8.064 17.914 10.02 37.195 5.868 57.845M610.4 1300.828l-38.057 133.529c-.824 3.036-2.89 4.292-6.2 3.77l-40.433-6.424c-2.832-.428-4.41-1.953-4.735-4.58l-7.452-54.216-27.153 46.937c-1.426 2.488-3.424 3.401-5.994 2.742l-38.133-9.375c-3.049-.756-4.416-2.633-4.097-5.627l14.263-139.38c.742-3.692 2.924-5.175 6.55-4.445l32.717 6.579c3.419.687 4.922 2.768 4.508 6.242l-8.647 66.878 22.212-49.958c1.247-2.665 3.307-3.71 6.179-3.133l27.283 5.486c3.007.606 4.539 2.373 4.589 5.299l.704 54.352 18.431-65.656c.987-3.5 3.274-4.786 6.857-3.851l32.676 8.385c3.322.812 4.674 2.754 4.056 5.832l-.124.614z" fill-rule="nonzero"/><path d="M329 1675.088c-.221 7.345-4.687 13.196-13.393 17.552-7.368 3.643-15.099 5.344-23.195 5.1-8.383-.252-16.092-2.462-23.128-6.631-8.428-4.964-12.525-11.308-12.293-19.03.214-7.155 4.72-12.864 13.519-17.125 7.368-3.736 14.96-5.487 22.777-5.253 8.098.243 15.805 2.501 23.122 6.772 8.613 5.066 12.811 11.269 12.591 18.615m62.833-129.447c-.344 11.489-4.831 22.897-13.454 34.231-4.217 5.623-10.829 12.634-19.835 21.034-9.881 9.225-16.673 15.994-20.381 20.311-4.201 5.059-7.768 11.032-10.705 17.917-1.523 3.629-3.976 5.394-7.359 5.293l-54.04-1.622c-4.798-.144-7.118-2.805-6.961-7.984.378-12.618 6.172-25.12 17.382-37.507 4.973-5.505 15.329-14.572 31.069-27.201 11.104-8.902 16.722-15.424 16.846-19.569.127-4.236-3.294-6.461-10.262-6.67-7.534-.225-15.467 1.94-23.804 6.497-7.107 4.404-14.213 8.811-21.318 13.214a9.154 9.154 0 01-4.988 1.264c-2.166-.065-3.974-1.06-5.422-2.99l-30.846-41.499c-.906-1.251-1.329-2.819-1.273-4.703.043-1.413.554-2.81 1.537-4.195 8.256-11.532 20.406-20.97 36.447-28.311 15.469-7.169 30.495-10.537 45.079-10.099 25.119.754 44.765 6.573 58.941 17.46 16.293 12.459 24.077 30.834 23.347 55.129" fill="#c9e265" fill-rule="nonzero"/></svg>