<svg id="Layer_1" data-name="Layer 1" xmlns="http://www.w3.org/2000/svg" xmlns:xlink="http://www.w3.org/1999/xlink" viewBox="0 0 1000 1000"><defs><style>.cls-1,.cls-3,.cls-5{fill:none;}.cls-2{clip-path:url(#clip-path);}.cls-3,.cls-5{stroke:#fff;}.cls-3,.cls-5,.cls-6{stroke-linecap:round;stroke-linejoin:round;}.cls-3{stroke-width:4.59px;stroke-dasharray:27.54;}.cls-4{fill:#fff;}.cls-5{stroke-width:5.97px;}.cls-6{fill:#010100;stroke:#010100;stroke-width:4.64px;}</style><clipPath id="clip-path"><circle class="cls-1" cx="-520" cy="500" r="449.2"/></clipPath></defs><g class="cls-2"><path class="cls-3" d="M-634.18-182.12S-1000.67,232.8-752.07,438-198,182.49-198,182.49s67.47-84.55,196.9-10.76c147.45,84.07,52,452.47-281.2,446.8s-345.32,445.69-345.32,445.69"/></g><circle class="cls-1" cx="500" cy="500" r="449.2"/><path class="cls-3" d="M387.89,1127.14S924.17,989.73,833.77,680.29s-602-99.83-602-99.83S128.51,612.54,62.88,478.79C-11.89,326.41,274,75.22,546.5,267.09s536-174.77,536-174.77"/><path class="cls-4" d="M396.3,246s54.28-40.2,62.67-47.62,21.5-22.26,43.32-20,31.18,10.65,49.24,29.35,45,34.65,52.3,36.46l-8.14,23.21-93.4-47.63L403.52,267.4S393.15,249.81,396.3,246Z"/><path class="cls-5" d="M473.11,140.94s7.34-21.4,23.63-13.09,3.83,26.82,0,28.74-1.59,26.19-1.59,26.19"/><path class="cls-6" d="M297.77,841.56l9.4-359.95L282.1,504.83s-4.69,6.78-14.88-1.61S165.8,437.1,152.1,431.62s11-19.68,25.45-32.58,84.58-90.31,88.5-96.12,103.38-48.06,108.86-50,22.53-16.22,28-16.54c0,0,25.25,86.53,102.78,82.34s87.84-82.25,87.84-82.25,6.14-1,13.58,3.55A357.61,357.61,0,0,0,642,258.09c10.58,4.51,53.65,24.51,67.75,29s19.58,8.38,23.88,13.22,27.41,31.93,40.73,49.35,30.15,38.38,44.25,45.8,34.46,24.19,33.28,26.77S794.3,457.1,789.21,462.9s-53.65,45.16-57.56,42.58-30.55-28.39-30.55-28.39S699.8,590,699.8,601.16s3.13,199.55.52,208.15,1,30.53-6.27,35.69-67.35,11.62-100.24,10.33-61.09-15.49-76.75-12.48-13.06,7.74-39.16,6.88-43.34-5.59-78.32-1.72S300.9,841.13,297.77,841.56Z"/></svg>