<svg xmlns="http://www.w3.org/2000/svg" version="1.1" id="Layer_1" x="0" y="0" viewBox="0 0 462.397 900.549" xml:space="preserve" width="462.397" height="900.549"><style type="text/css" id="style1062">.st1{fill:#87ddcd;stroke:#010100;stroke-width:2.5831;stroke-miterlimit:10}.st2,.st3{fill:#010100}.st3{stroke:#87ddcd;stroke-width:5.5376;stroke-miterlimit:10}.st6{enable-background:new}.st12,.st13{stroke:#010100;stroke-width:2.2452;stroke-miterlimit:10}.st12{fill:#87ddcd;stroke-linejoin:round}.st13{fill:none;stroke-linecap:round}.st14{fill:#050505}</style><g id="g1314" transform="translate(-94.326 -107.03)"><path d="M250.9 515.19s128.98 13.32 125.51-8.08c-1.11-6.89-1.05-123.55-1.05-123.55s-130.41-13.66-128.33 1.17c5.68 40.45 3.87 130.46 3.87 130.46z" id="path1064" fill="#93633d"/><g id="g1074"><path class="st1" d="M329.47 635.56c.98 9.28 2.39 19.79 4.04 30.91 8.43 56.71 15.49 123.86 20.53 143.85 5.92 23.46 27.42 106.06 19.69 160.61-.71 4.99 31.1-18.49 31.1-18.49l-4.5-292.86-.35-19.09-.65-36.31s-57.09-22.81-69.12-5.61c-2.99 4.3-2.73 18.19-.74 36.99z" id="path1066"/><path class="st1" d="M254.07 966.71c-13.81-29.86 25.41-117.08 19.99-163.09-1.65-14.04 16.52-85.69 26.68-139.86.76-4.06 1.49-8.03 2.14-11.85 4.29-24.95 6.19-44.39 2.44-49.58-11.99-16.66-74.72.62-74.72.62l-1.06 35.86-.46 15.81-7.24 316.48c.01-.02 34.24-.04 32.23-4.39z" id="path1068"/><path class="st1" d="M249.9 784.12s-9.35 6.23-19.29 0" id="path1070"/><path class="st1" d="M396.53 786.93s-8.09 6.23-18.68 0" id="path1072"/></g><g id="g1078"><path class="st2" d="M244.63 274.15c53.75-2.15 133.89 0 134.49 0 98.36-.52 48.6 159.19 32.11 201.26-9.79 24.97-187.34 26.33-192.09 1.93-11.55-59.23-62.62-199.66 25.49-203.19z" id="path1076"/></g><g id="g1084"><path class="st2" d="M254.84 947.08c1.46 4.1 3.2 29.64.87 33.49-2.33 3.85-50.61 25.79-65.87 21.58-17.49-4.85-17.54-13.15-.02-23.87 17.5-10.72 24.43-15.4 26.74-18.65 2.31-3.25 5.86-13.67 5.86-13.67" id="path1080"/><path class="st2" d="M254.72 973c-3.96 5.09-10.63 9.74-21.39 11.63-10.76 1.87-22.94 10.82-33.57 9.16-10.63-1.65-7.56-4.67-15.89-5.4-7.32-.63-6.68 1.66-6.68 1.66-2 5.13-1.49 10.08 8.93 12.97 6.15 1.7 17.6.25 29.81-3.8 18.07-6 40.09-14.75 41.47-17.05.81-1.35 2.08-8.65 1.22-12.34-1.87-4.79-3.65 2.83-3.9 3.17z" id="path1082"/></g><g id="g1090"><path class="st2" d="M371.69 950.96c-1.46 4.1-3.2 29.64-.87 33.49 2.33 3.85 50.61 25.79 65.87 21.58 17.49-4.85 17.54-13.15.02-23.87-17.5-10.72-24.43-15.4-26.74-18.65-2.31-3.25-5.86-13.67-5.86-13.67" id="path1086"/><path class="st2" d="M371.8 976.86c3.96 5.09 10.63 9.74 21.4 11.63 10.76 1.87 22.94 10.82 33.57 9.16 10.63-1.65 7.56-4.67 15.89-5.4 7.32-.63 6.68 1.66 6.68 1.66 2 5.13 1.49 10.08-8.93 12.97-6.15 1.7-17.6.25-29.81-3.8-18.07-6-40.09-14.75-41.47-17.05-.81-1.35-2.08-8.65-1.22-12.34 1.88-4.78 3.64 2.86 3.89 3.17z" id="path1088"/></g><g id="g1098"><path class="st2" d="M372.02 445.79s-76.45 10.17-109.37.3c0 0-63.81 9.39-51.96 470.48 0 0 49.49 24.7 85.7 0l23.87-317.65 22.61 324.24s47.25 11.52 86.76-1.65c.01-.01.91-396.96-57.61-475.72z" id="path1092"/><path class="st3" d="M334.78 898.48c0 .52 56.08 5.73 101.67-5.34" id="path1094"/><path class="st3" d="M203.52 889.34c0 .52 55.43 26.98 99.21 8.32" id="path1096"/></g><path id="rect1100" fill="#fff" d="M115.95 311.9H536v258.5H115.95z"/><path d="M284.89 268.54c-.17.08 16.73 8.86 29.45 5.37 11.96-3.26 24.73 5.88 23.06-3.82-.87-5.09-9.98-22.95-9.87-52.86l-2.3.44-38.49 7.62s5.01 12.51 5.02 23.92c.04 9.6-4.66 18.3-6.87 19.33z" id="path1102" fill="#bbeac6"/><g class="st6" id="g1116"><path d="M235.28 361l-3.55 44.74c-.07 1.01-.64 1.54-1.72 1.59l-13.22.54c-.92.04-1.52-.34-1.79-1.15l-5.82-16.71-5.61 16.6c-.29.88-.87 1.3-1.72 1.25l-12.68-.54c-1.01-.05-1.57-.55-1.66-1.52l-4.36-45.08c0-1.22.6-1.83 1.79-1.83h10.79c1.13 0 1.74.56 1.83 1.69l1.52 21.74 3.85-17.25c.23-.92.81-1.39 1.76-1.39h9c.99 0 1.59.46 1.79 1.39l3.69 17.18 1.66-21.98c.09-1.17.73-1.72 1.93-1.66l10.89.57c1.1.05 1.66.58 1.66 1.59v.23z" id="path1104"/><path d="M272.58 404.14c0 1.2-.57 1.79-1.72 1.79h-30.94c-1.17 0-1.76-.6-1.76-1.79v-44.87c0-1.22.58-1.83 1.75-1.83h30.95c1.15 0 1.72.61 1.72 1.83v9c0 1.2-.58 1.79-1.73 1.79h-17.1v5.61h13.36c1.17 0 1.76.6 1.76 1.79v9.03c0 1.2-.58 1.79-1.75 1.79h-13.37v5.04h17.12c1.15 0 1.72.61 1.72 1.83v8.99z" id="path1106"/><path d="M334.94 404.14c0 1.2-.6 1.79-1.79 1.79h-30.33c-1.15 0-1.72-.6-1.72-1.79l-.37-43.49c0-1.17.59-1.78 1.77-1.83l12.23-.27c1.2-.02 1.8.58 1.8 1.79v32.97h16.64c1.2 0 1.79.61 1.79 1.83v9z" id="path1108"/><path d="M381.71 384.67c0 6.63-1.97 12.35-5.92 17.18-4.24 5.18-9.58 7.78-16.03 7.78-7.53 0-13.45-2.33-17.75-7-4.19-4.53-6.29-10.58-6.29-18.16 0-7.42 2.2-13.62 6.59-18.6 4.58-5.18 10.53-7.78 17.86-7.78 6.56 0 11.89 2.87 16 8.62 3.69 5.16 5.54 11.15 5.54 17.96zm-14.98.37c0-2.48-.65-4.71-1.96-6.7-1.51-2.23-3.44-3.35-5.78-3.35-2.34 0-4.26 1.13-5.75 3.38-1.29 1.96-1.93 4.18-1.93 6.66 0 2.46.64 4.67 1.93 6.63 1.49 2.25 3.4 3.38 5.75 3.38s4.27-1.12 5.78-3.35c1.3-1.97 1.96-4.19 1.96-6.65z" id="path1110"/><path d="M422.93 359.61c0 .02-.02.11-.07.27l-9.91 42.95c-.23.97-.82 1.45-1.79 1.45h-19.75c-.95 0-1.52-.48-1.72-1.45l-9.27-43.35v-.2c0-1.22.6-1.83 1.79-1.83l12.61.24c.97 0 1.54.51 1.72 1.52l4.56 27.36 5.61-27.36c.2-.97.76-1.45 1.66-1.45l12.68-.07c1.26-.03 1.88.61 1.88 1.92z" id="path1112"/><path d="M460.26 404.14c0 1.2-.57 1.79-1.72 1.79H427.6c-1.17 0-1.76-.6-1.76-1.79v-44.87c0-1.22.58-1.83 1.75-1.83h30.95c1.15 0 1.72.61 1.72 1.83v9c0 1.2-.58 1.79-1.73 1.79h-17.11v5.61h13.36c1.17 0 1.76.6 1.76 1.79v9.03c0 1.2-.58 1.79-1.75 1.79h-13.37v5.04h17.12c1.15 0 1.72.61 1.72 1.83z" id="path1114"/></g><g class="st6" id="g1130"><path d="M235.2 425.88c0 .47-.14.87-.41 1.18l-7.69 9c-.36.43-.8.64-1.32.64-.07 0-1.52-.82-4.35-2.47-2.83-1.65-5.46-2.47-7.87-2.47-1.38 0-2.07.35-2.07 1.05 0 .43.99 1.03 2.98 1.79 7.01 2.75 11.43 4.71 13.26 5.88 4.69 3.04 7.03 6.93 7.03 11.67 0 5.46-2.14 9.47-6.42 12.04-3.45 2.07-8.09 3.11-13.92 3.11-3.4 0-6.88-.78-10.44-2.33-3.76-1.67-6.62-3.78-8.58-6.32-.29-.36-.44-.75-.44-1.18 0-.47.15-.87.44-1.18l7.61-8.66c.36-.41.82-.61 1.39-.61.11 0 1.62.82 4.53 2.45 2.91 1.63 5.32 2.45 7.24 2.45 1.67 0 2.5-.43 2.5-1.29 0-.54-.99-1.15-2.98-1.83-1.8-.54-4.49-1.42-8.05-2.64-8.16-3.11-12.24-8.07-12.24-14.88 0-4.37 2.36-8.08 7.07-11.13 4.17-2.68 8.58-4.02 13.22-4.02 3.43 0 6.92.77 10.48 2.3 3.77 1.6 6.64 3.7 8.62 6.29.27.37.41.76.41 1.16z" id="path1118"/><path d="M273.58 462.47c0 1.2-.57 1.79-1.72 1.79h-30.94c-1.17 0-1.76-.6-1.76-1.79V417.6c0-1.22.58-1.83 1.75-1.83h30.95c1.15 0 1.72.61 1.72 1.83v9c0 1.2-.58 1.79-1.73 1.79h-17.1V434h13.36c1.17 0 1.76.6 1.76 1.79v9.03c0 1.2-.58 1.79-1.75 1.79h-13.37v5.04h17.12c1.15 0 1.72.61 1.72 1.83v8.99z" id="path1120"/><path d="M315.95 459.5c0 .45-.14.85-.41 1.18-1.55 1.85-4.02 3.3-7.41 4.36-2.86.86-5.76 1.29-8.69 1.29-7.53 0-13.63-2.22-18.29-6.66-4.73-4.53-7.1-10.55-7.1-18.06 0-9.2 3.17-16.25 9.5-21.17 5.75-4.44 13.36-6.66 22.83-6.66 1.44 0 2.3.51 2.57 1.52.14.81.34 2.02.61 3.62.88 4.4 1.32 7.07 1.32 8.01 0 1.94-.64 2.91-1.93 2.91-.32 0-.8-.02-1.45-.07-.65-.04-1.14-.07-1.45-.07-4.55 0-8.23.85-11.02 2.54-3.4 2.08-5.11 5.24-5.11 9.5 0 3.02.94 5.33 2.81 6.93 1.76 1.49 4.17 2.23 7.24 2.23 2.34 0 4.36-.36 6.05-1.08 1.78-.92 3.57-1.86 5.38-2.81.27-.14.5-.2.68-.2.97 0 1.54.49 1.73 1.45l2.16 11.02c-.02.04-.02.1-.02.22z" id="path1122"/><path d="M363.02 442.99c0 6.63-1.97 12.35-5.92 17.18-4.24 5.18-9.58 7.78-16.03 7.78-7.53 0-13.45-2.33-17.75-7-4.19-4.53-6.29-10.58-6.29-18.16 0-7.42 2.2-13.62 6.59-18.6 4.58-5.18 10.53-7.78 17.86-7.78 6.56 0 11.89 2.87 16 8.62 3.69 5.17 5.54 11.16 5.54 17.96zm-14.98.38c0-2.48-.65-4.71-1.96-6.7-1.51-2.23-3.44-3.35-5.78-3.35-2.34 0-4.26 1.13-5.75 3.38-1.29 1.96-1.93 4.18-1.93 6.66 0 2.46.64 4.67 1.93 6.63 1.49 2.25 3.4 3.38 5.75 3.38s4.27-1.12 5.78-3.35c1.31-1.98 1.96-4.2 1.96-6.65z" id="path1124"/><path d="M406.58 419.26l-.41 44.46c0 1.11-.55 1.68-1.66 1.73l-11.43.47c-.77.04-1.32-.3-1.66-1.05l-10.31-22.22-.2 21.13c-.02.99-.61 1.54-1.76 1.66-5.28.45-8.23.68-8.86.68-2.68 0-4.02-.67-4.02-2v-44.81c0-1.53 1.71-2.3 5.13-2.3 1.06 0 3.91.17 8.57.51.72.05 1.23.38 1.52 1.01l10.15 21.98v-21.26c0-1.49 1.65-2.24 4.95-2.24 1.21 0 3.95.15 8.21.44 1.21.08 1.8.68 1.78 1.81z" id="path1126"/><path d="M450.17 441.74c0 9.58-4.15 16.59-12.44 21.03-6.47 3.49-14.92 5.24-25.36 5.24-1.22 0-1.83-.61-1.83-1.83v-48.9c0-1.19.61-1.79 1.82-1.79 10.44 0 18.89 1.74 25.35 5.21 8.3 4.47 12.46 11.48 12.46 21.04zm-16.34 0c0-2.25-.55-4.34-1.66-6.26-1.24-2.21-2.89-3.49-4.94-3.86v20.22c2.07-.34 3.73-1.61 4.97-3.82 1.09-1.9 1.63-4 1.63-6.28z" id="path1128"/></g><g class="st6" id="g1140"><path d="M278.74 475.98l-.41 44.37c0 1.13-.58 1.71-1.72 1.76l-11.9.47c-1.2.04-1.8-.55-1.83-1.79v-13.73h-8.86l-.14 13.29c0 1.08-.55 1.67-1.66 1.76-6.45.5-9.62.74-9.5.74-2.86 0-4.29-.69-4.29-2.06v-44.87c0-1.22.61-1.83 1.82-1.83l12.39.07c1.17.02 1.74.63 1.72 1.82l-.2 18.37h8.72v-18.43c0-1.21.61-1.82 1.82-1.82l12.26.07c1.21 0 1.8.61 1.78 1.81z" id="path1132"/><path d="M325.17 523.25c0 1.24-.6 1.85-1.79 1.83l-12.61-.2c-1.17-.02-2.02-1.35-2.54-3.99-.2-1.83-.42-3.64-.64-5.44h-8.72c-.25 1.62-.5 3.25-.74 4.87-.5 2.34-1.3 3.52-2.4 3.52h-12.65c-.47 0-.9-.19-1.29-.56-.39-.37-.57-.79-.57-1.27 0-.11.01-.22.03-.34l10.42-45.21c.2-.97.8-1.45 1.79-1.45h19.75c.97 0 1.57.48 1.79 1.45l10.18 46.6c-.01.01-.01.08-.01.19zm-19.82-20.53l-1.79-9.94-2.1 9.94z" id="path1134"/><path d="M368.01 477.57l-.41 44.46c0 1.11-.55 1.68-1.66 1.73l-11.43.47c-.77.04-1.32-.3-1.66-1.05l-10.31-22.22-.2 21.13c-.02.99-.61 1.54-1.76 1.66-5.28.45-8.23.68-8.86.68-2.68 0-4.02-.67-4.02-2v-44.81c0-1.53 1.71-2.3 5.13-2.3 1.06 0 3.91.17 8.57.51.72.05 1.23.38 1.52 1.01l10.15 21.98v-21.26c0-1.49 1.65-2.24 4.95-2.24 1.21 0 3.95.15 8.21.44 1.21.08 1.81.68 1.78 1.81z" id="path1136"/><path d="M411.6 500.05c0 9.58-4.15 16.59-12.44 21.03-6.47 3.49-14.93 5.24-25.36 5.24-1.22 0-1.83-.61-1.83-1.83v-48.9c0-1.19.61-1.79 1.82-1.79 10.44 0 18.89 1.74 25.35 5.21 8.31 4.47 12.46 11.49 12.46 21.04zm-16.33 0c0-2.25-.55-4.34-1.66-6.26-1.24-2.21-2.89-3.49-4.94-3.86v20.22c2.07-.34 3.73-1.61 4.97-3.82 1.09-1.9 1.63-4 1.63-6.28z" id="path1138"/></g><path d="M277.07 274.07c0 17.31 32.98 15.59 33.31 15.59 0 0 36.37 2.65 36.37-14.67 0 0-12.78-6.92-13.02-12.96-.05-1.01.02-3.6.03-9.46.02-10.19.02-23.16.02-23.16v-2.34c-3.52 4.32-38.91 5.75-45.94 2.99-.35-.21-.65-.43-.82-.65v.19c-.06-.05-.14-.1-.17-.14 0 0 0 13.96.02 23.62-.04.03 2.29 19.15-9.8 20.99z" id="path1142" fill="#87ddcd" stroke="#010100" stroke-width="2.366" stroke-miterlimit="10"/><g id="g1148"><path class="st1" d="M259.79 170.46c1.77-2.19 4.63-2.58 7.05-1.79 1.47.49 2.85 1.22 4.15 2.12 1.57 1.08 2.6 3.06 2.77 5.26.4 5.29.59 10.61.54 15.94-.02 2.76-.38 4.58-2.99 5.07-1.05.21-2.11-.17-2.95-.97-4.7-4.32-8.76-8.79-10.06-15.89-.62-3.37-.49-7.3 1.49-9.74z" id="path1144"/><path class="st1" d="M349.92 170.8c1.31-.9 2.69-1.63 4.15-2.12 2.42-.81 5.28-.41 7.05 1.79 1.98 2.44 2.11 6.38 1.49 9.74-1.31 7.11-5.37 11.56-10.06 15.89-.84.78-1.9 1.16-2.95.97-2.61-.49-2.98-2.31-2.99-5.07-.03-5.32.14-10.63.54-15.94.18-2.22 1.2-4.2 2.77-5.26z" id="path1146"/></g><circle cx="266.92" cy="202.33" id="ellipse1150" r="10.09" fill="none" stroke="#fff" stroke-width="3.616" stroke-linecap="round" stroke-linejoin="round" stroke-miterlimit="10"/><circle cx="354.39" cy="202.25" id="ellipse1152" r="10.09" fill="none" stroke="#fff" stroke-width="3.616" stroke-linecap="round" stroke-linejoin="round" stroke-miterlimit="10"/><path class="st1" d="M266.93 178.53s-10.38-61.12 42.57-61.24c45.58-.11 40.98 33.63 44.15 60.83l-1.08 23.84c-5.07 23.9-21.72 41.46-41.54 41.46-19.9 0-36.61-17.71-41.6-41.77z" id="path1154"/><g id="g1160"><path class="st2" d="M317.89 220.75c.76.21 1.25.6 1.17.94-.36 1.78-1.63 4.45-10.81 3.11-10.3-1.51-12.49-8.75-11.32-9.04 1.16-.3 10.81 2.29 10.81 2.29z" id="path1156"/><path class="st2" d="M317.69 220.34c.78.05 1.42-.09 1.64-.41.65-.88 1.76-2.8.81-4.27-1.29-1.98-5.11-3.43-10.73-4.35-9.35-1.51-14.13.53-12.49 3.56 1.36 2.55 16.79 5.17 20.77 5.47z" id="path1158"/></g><g id="g1276"><g id="g1166"><path class="st2" d="M309.16 110.7c2.63 0 4.77 2.42 4.78 5.4v.1l-3.41 20.51c-.25 1.52-2.15 1.54-2.42.03l-3.74-20.53c0-.03-.02-.06-.02-.1.05-3.01 2.18-5.41 4.81-5.41z" id="path1162"/><path class="st2" d="M309.32 141.49c-2.38 0-4.34-1.7-4.78-4.12l-3.8-21.29c.05-5.01 3.82-9.05 8.43-9.05 4.61 0 8.4 4.04 8.43 9.03v.33l-.06.43-3.41 20.48c-.41 2.46-2.38 4.17-4.77 4.18-.01.01-.02.01-.04.01zm-1.3-25.6l1.19 6.56 1.08-6.51c-.11-1-.65-1.62-1.14-1.62-.48.02-1.03.67-1.13 1.57z" id="path1164"/></g><g id="g1172"><path class="st2" d="M293.96 118.63c-.55-2.6 1.06-5.2 3.63-5.78 2.57-.6 5.12 1.01 5.72 3.61 0 .03.02.06.02.08l.65 18.6c.05 1.38-1.81 1.82-2.36.57l-7.62-17c-.03-.01-.03-.05-.04-.08z" id="path1168"/><path class="st2" d="M302.7 140.1c-1.89 0-3.6-1.09-4.4-2.88l-7.89-17.81c-.97-4.51 1.89-9.05 6.35-10.09 2.17-.51 4.42-.14 6.32 1.05a8.383 8.383 0 013.77 5.29l.1.41.02.51.65 18.47c.08 2.38-1.47 4.4-3.77 4.94-.41.06-.79.11-1.15.11zm-5.21-22.47l2.41 5.37-.21-5.91c-.14-.33-.33-.49-.46-.57-.17-.11-.46-.22-.82-.14-.56.15-.94.68-.92 1.25z" id="path1170"/></g><g id="g1178"><path class="st2" d="M279.45 127.85c-.76-1.85.35-4.1 2.5-5.05 2.14-.93 4.51-.22 5.31 1.62.02.02.02.05.02.06l2.55 13.88c.19 1.03-1.35 1.71-1.96.89l-8.36-11.33a.134.134 0 01-.06-.07z" id="path1174"/><path class="st2" d="M288.62 143.27a4.59 4.59 0 01-3.71-1.85l-8.63-11.69-.21-.49c-1.52-3.72.41-8 4.4-9.76 2.01-.89 4.28-.95 6.23-.19 1.77.7 3.15 2.01 3.88 3.71l.17.41 2.63 14.32c.4 2.14-.78 4.25-2.84 5.15-.61.24-1.27.39-1.92.39zm-5.67-16.78l1.3 1.76-.41-2.22c-.11 0-.25.03-.43.11-.23.1-.37.24-.46.35z" id="path1176"/></g><g id="g1184"><path class="st2" d="M286.62 123.04c-.57-2.15.76-4.44 2.99-5.09 2.25-.65 4.55.55 5.16 2.71 0 .02.02.05.02.06l1.2 15.62c.1 1.16-1.52 1.63-2.06.62l-7.29-13.86c0-.02-.02-.03-.02-.06z" id="path1180"/><path class="st2" d="M294.86 141.17c-1.71 0-3.31-.92-4.13-2.5l-7.62-14.7c-1.08-4.04 1.39-8.3 5.51-9.5 2.06-.6 4.2-.36 6.04.65 1.79.98 3.07 2.6 3.64 4.55l.14.79 1.2 15.62c.17 2.25-1.24 4.28-3.44 4.91-.45.12-.91.18-1.34.18zm-4.72-19.24l1.28 2.46-.22-2.82c-.02-.02-.05-.03-.08-.06-.08-.05-.25-.11-.49-.03a.63.63 0 00-.49.45z" id="path1182"/></g><g id="g1190"><path class="st2" d="M273.92 132.7c-.93-1.47-.41-3.53 1.19-4.61 1.6-1.08 3.66-.78 4.63.68.02.02.02.03.03.05l4.45 11.45c.33.84-.81 1.63-1.46 1.01l-8.79-8.52a.38.38 0 00-.05-.06z" id="path1186"/><path class="st2" d="M283.31 145.13c-1.12 0-2.23-.43-3.09-1.25l-9.36-9.22c-1.98-3.12-.98-7.41 2.2-9.58 1.6-1.09 3.6-1.5 5.45-1.14 1.76.35 3.28 1.35 4.25 2.82l.3.44.13.4 4.42 11.34c.78 2 .05 4.23-1.76 5.42-.8.52-1.67.77-2.54.77zm1.97-6.47z" id="path1188"/></g><g id="g1196"><path class="st2" d="M270.75 139.92c-.9-.92-.59-2.79.74-4.2 1.31-1.41 3.14-1.84 4.07-.95l.03.03 4.61 8c.33.59-.6 1.62-1.2 1.31l-8.21-4.18c-.03.02-.04.01-.04-.01z" id="path1192"/><path class="st2" d="M279.21 147.83c-.65 0-1.28-.14-1.89-.44l-8.73-4.44-.44-.44c-2.31-2.33-2.03-6.38.67-9.25 1.47-1.57 3.39-2.5 5.29-2.57 1.47-.05 2.82.44 3.83 1.36l.44.36 4.96 8.6c.97 1.66.67 3.82-.78 5.32-.91.97-2.13 1.5-3.35 1.5zm-2.17-3.19z" id="path1194"/></g><g id="g1202"><path class="st2" d="M267.58 146.66c-1.03-.71-1.01-2.6.03-4.25 1.05-1.63 2.74-2.39 3.79-1.71.02 0 .02.02.03.03l5.77 6.91c.43.51-.33 1.7-.97 1.5l-8.63-2.47-.02-.01z" id="path1198"/><path class="st2" d="M276.37 152.82c-.38 0-.76-.05-1.12-.16l-9.05-2.6-.7-.41c-2.71-1.89-3.1-5.83-.95-9.2 1.17-1.82 2.91-3.1 4.77-3.5 1.46-.3 2.9-.05 4.09.71l.46.3 6.15 7.35c1.22 1.46 1.3 3.61.17 5.34-.92 1.38-2.34 2.17-3.82 2.17zm-1.96-2.85c0 .01 0 .01 0 0z" id="path1200"/></g><g id="g1208"><path class="st2" d="M266.52 154.32c-.81-.32-.92-2.06-.27-3.9.65-1.84 1.84-3.09 2.66-2.8.02 0 .02.02.02.02l4.69 4.45c.35.33-.13 1.65-.6 1.7l-6.48.54c-.01-.01-.02-.01-.02-.01z" id="path1204"/><path class="st2" d="M266.69 157.97h-.86l-.67-.27c-2.77-1.11-3.74-4.59-2.34-8.49 1.36-3.8 4.18-5.86 6.95-5.1l.92.19.81.79 4.61 4.39c1.24 1.17 1.58 2.98.93 4.8-.65 1.84-2.04 3.01-3.74 3.15z" id="path1206"/></g><g id="g1214"><path class="st2" d="M264.08 164.22c.29-1.93 1.08-3.42 1.76-3.33 0 0 .02 0 .02.02l4.26 3.23c.32.24.11 1.63-.27 1.77l-5.05 2.01h-.03c-.67-.1-.98-1.76-.69-3.7z" id="path1210"/><path class="st2" d="M265.22 171.8l-1.25-.3c-2.22-.49-4.25-2.77-3.49-7.81.78-5.2 3.66-6.67 5.83-6.38l1.11.25 4.88 3.69c1.22.92 1.77 2.49 1.54 4.28-.25 1.84-1.22 3.22-2.66 3.79l-4.91 1.95zm2.68-4.76s.01 0 0 0z" id="path1212"/></g><g id="g1220"><path class="st2" d="M266.5 160.28c-.68-.13-1.03-1.43-.81-2.93.22-1.5.95-2.63 1.63-2.53h.02l4.34 2.68c.32.19.16 1.28-.21 1.38l-4.96 1.39c.01.01-.01.01-.01.01z" id="path1216"/><path class="st2" d="M266.79 164.1l-1.08-.27c-2.68-.57-4.17-3.44-3.63-7.02.54-3.53 2.76-5.85 5.39-5.64h.7l1.08.55 4.34 2.68c1.39.86 2.11 2.52 1.85 4.32-.25 1.82-1.39 3.22-2.98 3.68l-4.78 1.35zm1.58-6.88c-.06.17-.11.33-.13.49-.03.17-.03.36 0 .57.32-.11.59-.27.78-.43-.16-.2-.36-.44-.65-.63z" id="path1218"/></g><g id="g1226"><path class="st2" d="M315.09 116.46c.6-2.6 3.15-4.21 5.72-3.61 2.57.6 4.18 3.18 3.63 5.78 0 .03-.02.06-.03.08l-7.62 17c-.55 1.25-2.41.81-2.36-.57l.65-18.6c-.01-.01.01-.05.01-.08z" id="path1222"/><path class="st2" d="M315.69 140.1c-.36 0-.74-.05-1.12-.13-2.31-.54-3.87-2.57-3.79-4.94l.76-19.37a8.409 8.409 0 013.77-5.29 8.315 8.315 0 016.32-1.05c4.47 1.05 7.32 5.58 6.35 10.09l-.08.41-7.79 17.41c-.81 1.77-2.53 2.87-4.42 2.87zm3.01-23.02l-.21 5.92 2.39-5.35c.02-.63-.36-1.14-.9-1.27-.36-.1-.65.03-.82.14-.13.08-.33.26-.46.56z" id="path1224"/></g><g id="g1232"><path class="st2" d="M332.36 123.26c0-.02.02-.05.02-.06.79-1.84 3.17-2.57 5.31-1.62 2.14.93 3.25 3.2 2.5 5.05-.02.02-.02.05-.03.06l-8.36 11.33c-.62.84-2.15.14-1.96-.89z" id="path1228"/><path class="st2" d="M330.99 142.03c-.65 0-1.31-.13-1.95-.41-2.06-.89-3.23-3.01-2.84-5.15l2.63-14.3.21-.48c.7-1.63 2.08-2.95 3.85-3.64 1.95-.76 4.23-.7 6.23.19 3.99 1.76 5.92 6.04 4.4 9.76l-.21.49-.36.48-8.28 11.22c-.86 1.19-2.24 1.84-3.68 1.84zm4.79-17.22l-.41 2.22 1.3-1.76c-.08-.11-.22-.24-.46-.35a.932.932 0 00-.43-.11z" id="path1230"/></g><g id="g1238"><path class="st2" d="M324.81 119.52c0-.02 0-.05.02-.06.62-2.15 2.91-3.36 5.16-2.71 2.25.65 3.58 2.91 2.99 5.09 0 .03-.02.05-.03.06l-7.29 13.86c-.54 1.01-2.15.54-2.06-.62z" id="path1234"/><path class="st2" d="M324.77 139.95c-.44 0-.9-.06-1.35-.19-2.2-.63-3.61-2.65-3.44-4.91l1.24-16.03.13-.46c.54-1.89 1.84-3.5 3.61-4.48a7.887 7.887 0 016.04-.65c4.12 1.19 6.59 5.47 5.5 9.52l-.29.76-7.32 13.92a4.6 4.6 0 01-4.12 2.52zm3.64-19.62l-.22 2.82 1.3-2.47c-.05-.16-.24-.36-.51-.44-.24-.06-.41 0-.49.03-.03.01-.06.03-.08.06z" id="path1236"/></g><g id="g1244"><path class="st2" d="M338.64 128.82c0-.02.02-.03.03-.05.97-1.46 3.03-1.76 4.63-.68s2.12 3.14 1.19 4.61c-.02.02-.02.03-.03.05l-8.79 8.52c-.65.63-1.79-.16-1.46-1.01z" id="path1240"/><path class="st2" d="M335.08 145.13c-.87 0-1.76-.25-2.53-.78-1.81-1.2-2.53-3.44-1.76-5.42l4.85-12.18c.98-1.47 2.49-2.47 4.25-2.82 1.84-.36 3.83.05 5.45 1.14 3.2 2.17 4.18 6.46 2.22 9.58l-.21.33-.32.33-8.82 8.55c-.9.85-2.01 1.27-3.13 1.27z" id="path1242"/></g><g id="g1250"><path class="st2" d="M344.05 133.59c0-.02.02-.02.03-.03.93-.89 2.76-.48 4.07.95 1.31 1.41 1.65 3.29.74 4.2l-.03.03-8.21 4.18c-.6.3-1.55-.71-1.2-1.31z" id="path1246"/><path class="st2" d="M340.4 146.59c-1.2 0-2.42-.52-3.36-1.49-1.43-1.5-1.74-3.66-.78-5.34l5.02-8.63.35-.3c1.03-.93 2.38-1.44 3.87-1.38 1.89.05 3.82.98 5.29 2.57 2.72 2.91 3.01 6.89.67 9.25l-.43.43-8.74 4.45c-.59.3-1.24.44-1.89.44zm2.19-3.18zm-3.6-3.76z" id="path1248"/></g><g id="g1256"><path class="st2" d="M346.96 140.73l.03-.03c1.05-.68 2.74.08 3.79 1.71 1.05 1.63 1.06 3.52.03 4.25-.02.02-.03.02-.03.02l-8.63 2.47c-.63.17-1.38-1-.97-1.5z" id="path1252"/><path class="st2" d="M342.02 152.82c-1.47 0-2.9-.79-3.8-2.15-1.12-1.73-1.06-3.88.17-5.35l6.18-7.41.51-.3c1.16-.73 2.57-.97 3.99-.67 1.85.4 3.58 1.66 4.77 3.5 2.15 3.36 1.76 7.32-.95 9.2l-.71.43-.52.14-8.51 2.44c-.37.12-.75.17-1.13.17z" id="path1254"/></g><g id="g1262"><path class="st2" d="M349.46 147.65l.02-.02c.81-.29 2 .97 2.66 2.8.65 1.84.54 3.56-.27 3.9h-.03l-6.48-.54c-.48-.03-.95-1.36-.6-1.7z" id="path1258"/><path class="st2" d="M351.84 157.97l-.3-.02-6.48-.54c-1.69-.14-3.09-1.31-3.74-3.15-.65-1.84-.3-3.63.93-4.8l5.4-5.16.92-.19c2.77-.78 5.61 1.28 6.99 5.1 1.39 3.9.43 7.4-2.34 8.49l-.65.25z" id="path1260"/></g><g id="g1268"><path class="st2" d="M352.54 160.91l.02-.02c.68-.1 1.46 1.39 1.76 3.33.29 1.93-.02 3.58-.7 3.71h-.03l-5.05-2.01c-.36-.14-.57-1.54-.27-1.77z" id="path1264"/><path class="st2" d="M353.25 171.72l-6.05-2.41c-1.44-.57-2.41-1.95-2.66-3.79-.24-1.79.32-3.36 1.54-4.29l4.86-3.69 1.14-.27c2.17-.29 5.05 1.2 5.83 6.38.78 5.13-1.36 7.41-3.63 7.83zm-2.76-4.68z" id="path1266"/></g><g id="g1274"><path class="st2" d="M346.71 157.49l4.34-2.68h.02c.68-.1 1.41 1.05 1.63 2.53.22 1.5-.14 2.8-.81 2.93h-.03l-4.96-1.39c-.37-.11-.53-1.18-.19-1.39z" id="path1270"/><path class="st2" d="M351.63 164.1l-.92-.36-4.78-1.35c-1.58-.44-2.72-1.85-2.98-3.68-.25-1.81.46-3.45 1.85-4.32l5.21-3.22h.87c2.66-.16 4.88 2.09 5.42 5.64.54 3.58-.93 6.43-3.6 7.02zm-3.02-3.5s.01-.02 0 0zm.76-2.75c.21.16.46.3.78.41.02-.21.02-.4 0-.57-.02-.16-.06-.32-.13-.49-.29.21-.49.45-.65.65z" id="path1272"/></g></g><path d="M279.27 165.22s24.63-12.15 27.69 4.55c.93 5.05-2.63 18.88-2.34 21.29.29 2.41 3.41 9.27 14.84 3.77" id="path1278" fill="none" stroke="#050505" stroke-width="2.723" stroke-linecap="round" stroke-linejoin="round" stroke-miterlimit="10"/><path d="M336.77 163.57s-12.23-2.68-19.28-1.41" id="path1280" fill="none" stroke="#050505" stroke-width="2.81" stroke-linecap="round" stroke-linejoin="round" stroke-miterlimit="10"/><path class="st12" d="M115.77 454.15c-2.28-.32-7.3-5.66-13.72-11.33 0 0-2.49-.95-3.37-5.72-.11-.62-.3-1.22-.57-1.79-.4-.82-.9-2.19-.78-3.45.1-.97-.13-1.93-.7-2.72-.25-.36-.52-.79-.74-1.3 0 0-1.66-2.39 1.46-5.01 1.12-.93 1.6-2.46 1.25-3.88-.08-.33-.17-.68-.32-1.06-.79-2.3 5.86-7.27 8.68-10.39.73-.81 1.93-.97 3.01-.89 3.29.24 10.87 1.43 19.26 7.1 0 0 2.9 2.85-.41 3.29 0 0 4.97.27 6.95 3.64 1.98 3.37-5.72 2.66-5.72 2.66s5.39.13 6.13 2.36c.74 2.23-.79 3.03-3.39 3.68-2.6.65.08.92-2.6 2.95-2.68 2.03-15.05 3.96-15.05 3.96s-.9 1.52-2.03 1.9" id="path1282"/><g id="g1294"><path class="st13" d="M130.08 417.18s-17.76-4.25-19.86-3.69c-2.11.55-7.26 3.88-7.26 3.88" id="path1284"/><path class="st13" d="M131.25 423.53s-16.54-3.23-18.52-2.87c-1.98.36-8.32 4.59-8.32 4.59" id="path1286"/><path class="st13" d="M131.25 429.15s-14.86-1.52-18.26-.73c-3.41.79-7.95 4.69-7.95 4.69" id="path1288"/><path class="st13" d="M112.56 439.02s-1.84 4.75-4.42 6.42" id="path1290"/><path class="st13" d="M113.16 438.15s-4.61 2.12-8.05 1.9" id="path1292"/></g><path class="st12" d="M535.28 417.7c2.28-.32 7.3-5.66 13.72-11.33 0 0 2.49-.95 3.37-5.72.11-.62.3-1.22.57-1.79.4-.82.9-2.19.78-3.45-.1-.97.13-1.93.7-2.72.25-.36.52-.79.74-1.3 0 0 1.66-2.39-1.46-5.01-1.12-.93-1.6-2.46-1.25-3.88.08-.33.17-.68.32-1.06.79-2.3-5.86-7.27-8.68-10.39-.73-.81-1.93-.97-3.01-.89-3.29.24-10.87 1.43-19.26 7.1 0 0-2.9 2.85.41 3.29 0 0-4.97.27-6.95 3.64-1.98 3.37 5.72 2.66 5.72 2.66s-5.39.13-6.13 2.36c-.74 2.23.79 3.03 3.39 3.68 2.6.65-.08.92 2.6 2.95 2.68 2.03 15.05 3.96 15.05 3.96s.9 1.52 2.03 1.9" id="path1296"/><g id="g1308"><path class="st13" d="M520.98 380.73s17.76-4.25 19.86-3.69c2.11.55 7.26 3.88 7.26 3.88" id="path1298"/><path class="st13" d="M519.8 387.08s16.54-3.23 18.52-2.87c1.96.36 8.32 4.59 8.32 4.59" id="path1300"/><path class="st13" d="M519.8 392.7s14.86-1.52 18.26-.73c3.42.79 7.95 4.69 7.95 4.69" id="path1302"/><path class="st13" d="M538.5 402.57s1.84 4.75 4.42 6.42" id="path1304"/><path class="st13" d="M537.9 401.7s4.61 2.12 8.05 1.9" id="path1306"/></g><circle class="st14" cx="289.19" cy="174.78" r="2.98" id="circle1310"/><circle class="st14" cx="327.16" cy="174.78" r="2.98" id="circle1312"/></g></svg>