<?xml version="1.0" encoding="UTF-8" standalone="no"?>
<svg
   xmlns:dc="http://purl.org/dc/elements/1.1/"
   xmlns:cc="http://creativecommons.org/ns#"
   xmlns:rdf="http://www.w3.org/1999/02/22-rdf-syntax-ns#"
   xmlns:svg="http://www.w3.org/2000/svg"
   xmlns="http://www.w3.org/2000/svg"
   version="1.1"
   id="Layer_1"
   x="0px"
   y="0px"
   viewBox="0 0 291.89612 568.48041"
   xml:space="preserve"
   width="291.89612"
   height="568.48041"><metadata
   id="metadata1712"><rdf:RDF><cc:Work
       rdf:about=""><dc:format>image/svg+xml</dc:format><dc:type
         rdf:resource="http://purl.org/dc/dcmitype/StillImage" /><dc:title></dc:title></cc:Work></rdf:RDF></metadata><defs
   id="defs1710" />
<style
   type="text/css"
   id="style833">
	.st0{fill-rule:evenodd;clip-rule:evenodd;fill:#FFFFFF;stroke:#666868;stroke-width:0.5669;stroke-miterlimit:10;}
	.st1{fill:#87DDCD;}
	.st2{fill:#FFFFFF;}
	.st3{fill:none;stroke:#FFFFFF;stroke-width:1.4749;stroke-linecap:round;stroke-linejoin:round;}
	.st4{fill:none;stroke:#FFFFFF;stroke-width:1.4749;stroke-linecap:round;stroke-linejoin:round;stroke-dasharray:8.8407,8.8407;}
	.st5{fill:#93633D;}
	.st6{fill:#87DDCD;stroke:#010100;stroke-width:1.1728;stroke-miterlimit:10;}
	.st7{fill:#010100;}
	.st8{fill:#010100;stroke:#87DDCD;stroke-width:2.5143;stroke-miterlimit:10;}
	.st9{fill:#BBEAC6;}
	.st10{fill:#87DDCD;stroke:#010100;stroke-width:1.0743;stroke-miterlimit:10;}
	.st11{fill:none;stroke:#050505;stroke-width:1.642;stroke-linecap:round;stroke-linejoin:round;stroke-miterlimit:10;}
	.st12{fill:none;stroke:#050505;stroke-width:1.0785;stroke-linecap:round;stroke-linejoin:round;stroke-miterlimit:10;}
	.st13{fill:none;stroke:#050505;stroke-width:1.2363;stroke-linecap:round;stroke-linejoin:round;stroke-miterlimit:10;}
	.st14{fill:none;stroke:#050505;stroke-width:1.2759;stroke-linecap:round;stroke-linejoin:round;stroke-miterlimit:10;}
	.st15{fill:#87DDCD;stroke:#010100;stroke-width:0.9383;stroke-linejoin:round;stroke-miterlimit:10;}
	.st16{fill:none;stroke:#010100;stroke-width:0.9383;stroke-linecap:round;stroke-miterlimit:10;}
	.st17{fill:none;stroke:#FFFFFF;stroke-width:2.4997;stroke-linecap:round;stroke-linejoin:round;}
	
		.st18{fill:none;stroke:#FFFFFF;stroke-width:2.4997;stroke-linecap:round;stroke-linejoin:round;stroke-dasharray:14.9696,14.9696;}
	.st19{fill:#87DDCD;stroke:#010100;stroke-width:1.6306;stroke-miterlimit:10;}
	.st20{fill:#010100;stroke:#87DDCD;stroke-width:3.4957;stroke-miterlimit:10;}
	.st21{font-family:'GrilledCheeseBTNToasted';}
	.st22{font-size:43.7186px;}
	.st23{fill:#87DDCD;stroke:#010100;stroke-width:1.4936;stroke-miterlimit:10;}
	.st24{fill:none;stroke:#FFFFFF;stroke-width:2.2829;stroke-linecap:round;stroke-linejoin:round;stroke-miterlimit:10;}
	.st25{fill:none;stroke:#050505;stroke-width:1.4995;stroke-linecap:round;stroke-linejoin:round;stroke-miterlimit:10;}
	.st26{fill:none;stroke:#050505;stroke-width:1.7189;stroke-linecap:round;stroke-linejoin:round;stroke-miterlimit:10;}
	.st27{fill:none;stroke:#050505;stroke-width:1.7739;stroke-linecap:round;stroke-linejoin:round;stroke-miterlimit:10;}
	.st28{fill:#87DDCD;stroke:#010100;stroke-width:1.4173;stroke-linejoin:round;stroke-miterlimit:10;}
	.st29{fill:none;stroke:#010100;stroke-width:1.4173;stroke-linecap:round;stroke-miterlimit:10;}
	.st30{fill:none;}
	.st31{fill:#1D1D1B;}
	.st32{font-family:'NunitoSans-Black';}
	.st33{font-size:24px;}
	.st34{font-family:'NunitoSans-SemiBold';}
	.st35{font-size:18px;}
	.st36{font-size:25px;}
	.st37{fill:none;stroke:#87DDCD;stroke-miterlimit:10;}
	.st38{fill:#010000;}
	.st39{fill:none;stroke:#000000;stroke-width:3.1874;stroke-linecap:round;stroke-linejoin:round;stroke-miterlimit:10;}
	.st40{fill:#FFFFFF;stroke:#FFFFFF;stroke-width:2.0233;stroke-linecap:round;stroke-linejoin:round;stroke-miterlimit:10;}
	.st41{font-size:54px;}
	.st42{font-size:17px;}
	.st43{font-size:75px;}
	.st44{font-size:19.9268px;}
	.st45{fill:#686867;}
	.st46{font-size:16px;}
	.st47{font-family:'NunitoSans-ExtraBold';}
	.st48{font-size:23px;}
	.st49{fill:none;stroke:#87DDCD;stroke-width:2.1543;stroke-miterlimit:10;}
	.st50{fill:#212120;}
	.st51{font-family:'NunitoSans-Bold';}
	.st52{font-size:14px;}
	.st53{fill:#010100;stroke:#010100;stroke-width:16.7437;stroke-linecap:round;stroke-linejoin:round;stroke-miterlimit:10;}
	.st54{fill:#010100;stroke:#010100;stroke-width:2.5771;stroke-linecap:round;stroke-linejoin:round;stroke-miterlimit:10;}
	.st55{fill:#010100;stroke:#010100;stroke-width:0.9092;stroke-linecap:round;stroke-linejoin:round;stroke-miterlimit:10;}
	
		.st56{fill:none;stroke:#FFFFFF;stroke-width:2.0817;stroke-linecap:round;stroke-linejoin:round;stroke-miterlimit:10;stroke-dasharray:12.4903;}
	.st57{font-size:34.5683px;}
	.st58{fill:#010100;stroke:#010100;stroke-width:2.4977;stroke-linecap:round;stroke-linejoin:round;stroke-miterlimit:10;}
	.st59{fill:#010100;stroke:#010100;stroke-width:0.8811;stroke-linecap:round;stroke-linejoin:round;stroke-miterlimit:10;}
	
		.st60{fill:none;stroke:#FFFFFF;stroke-width:2.0176;stroke-linecap:round;stroke-linejoin:round;stroke-miterlimit:10;stroke-dasharray:12.1055;}
	
		.st61{fill:none;stroke:#FFFFFF;stroke-width:5.6693;stroke-linecap:round;stroke-linejoin:round;stroke-miterlimit:10;stroke-dasharray:11.8623;}
	.st62{font-size:91.512px;}
	.st63{font-size:55px;}
	.st64{font-size:26.2794px;}
	.st65{font-size:17.7419px;}
	.st66{fill:none;stroke:#87DDCD;stroke-width:0.9709;stroke-miterlimit:10;}
	.st67{fill:#FFFFFF;stroke:#BFC1C1;stroke-width:0.2717;stroke-miterlimit:10;}
	.st68{fill:none;stroke:#BFC1C1;stroke-width:0.2717;stroke-miterlimit:10;}
	.st69{fill:none;stroke:#FFFFFF;stroke-width:1.9245;stroke-miterlimit:10;}
	.st70{fill:none;stroke:#BFC1C1;stroke-width:1.1339;stroke-miterlimit:10;}
	.st71{fill:#324C47;}
	.st72{fill:none;stroke:#BFC1C1;stroke-width:0.6616;stroke-miterlimit:10;}
	.st73{fill:#3F3F3F;}
	.st74{fill:#FFFFFF;stroke:#FFFFFF;stroke-width:0.418;stroke-linecap:round;stroke-linejoin:round;stroke-miterlimit:10;}
	.st75{fill-rule:evenodd;clip-rule:evenodd;fill:#87DDCD;}
	.st76{fill-rule:evenodd;clip-rule:evenodd;fill:#FFFFFF;}
	.st77{fill-rule:evenodd;clip-rule:evenodd;fill:none;stroke:#87DDCD;stroke-width:0.8858;stroke-miterlimit:10;}
	.st78{fill-rule:evenodd;clip-rule:evenodd;fill:#060707;}
</style>





<g
   id="g1165"
   transform="translate(-869.60194,-148.99)">
	<path
   class="st5"
   d="m 968.44,406.64 c 0,0 81.42,8.41 79.23,-5.1 -0.7,-4.35 -0.66,-77.99 -0.66,-77.99 0,0 -82.32,-8.62 -81.01,0.74 3.58,25.53 2.44,82.35 2.44,82.35 z"
   id="path945" />
	<g
   id="g955">
		<path
   class="st19"
   d="m 1018.04,482.63 c 0.62,5.86 1.51,12.49 2.55,19.51 5.32,35.8 9.78,78.19 12.96,90.81 3.74,14.81 17.31,66.95 12.43,101.39 -0.45,3.15 19.63,-11.67 19.63,-11.67 l -2.84,-184.87 -0.22,-12.05 -0.41,-22.92 c 0,0 -36.04,-14.4 -43.63,-3.54 -1.89,2.7 -1.73,11.47 -0.47,23.34 z"
   id="path947" />
		<path
   class="st19"
   d="m 970.44,691.67 c -8.72,-18.85 16.04,-73.91 12.62,-102.95 -1.04,-8.86 10.43,-54.09 16.84,-88.29 0.48,-2.56 0.94,-5.07 1.35,-7.48 2.71,-15.75 3.91,-28.02 1.54,-31.3 -7.57,-10.52 -47.17,0.39 -47.17,0.39 l -0.67,22.64 -0.29,9.98 -4.57,199.78 c 0.01,-0.01 21.62,-0.02 20.35,-2.77 z"
   id="path949" />
		<path
   class="st19"
   d="m 967.81,576.41 c 0,0 -5.9,3.93 -12.18,0"
   id="path951" />
		<path
   class="st19"
   d="m 1060.37,578.18 c 0,0 -5.11,3.93 -11.79,0"
   id="path953" />
	</g>
	<g
   id="g959">
		<path
   class="st7"
   d="m 964.48,254.48 c 33.93,-1.36 84.52,0 84.9,0 62.09,-0.33 30.68,100.49 20.27,127.05 -6.18,15.76 -118.26,16.62 -121.26,1.22 -7.29,-37.39 -39.53,-126.04 16.09,-128.27 z"
   id="path957" />
	</g>
	<g
   id="g965">
		<path
   class="st7"
   d="m 970.93,679.28 c 0.92,2.59 2.02,18.71 0.55,21.14 -1.47,2.43 -31.95,16.28 -41.58,13.62 -11.04,-3.06 -11.07,-8.3 -0.01,-15.07 11.05,-6.77 15.42,-9.72 16.88,-11.77 1.46,-2.05 3.7,-8.63 3.7,-8.63"
   id="path961" />
		<path
   class="st7"
   d="m 970.85,695.64 c -2.5,3.21 -6.71,6.15 -13.5,7.34 -6.79,1.18 -14.48,6.83 -21.19,5.78 -6.71,-1.04 -4.77,-2.95 -10.03,-3.41 -4.62,-0.4 -4.22,1.05 -4.22,1.05 -1.26,3.24 -0.94,6.36 5.64,8.19 3.88,1.07 11.11,0.16 18.82,-2.4 11.41,-3.79 25.31,-9.31 26.18,-10.76 0.51,-0.85 1.31,-5.46 0.77,-7.79 -1.19,-3.02 -2.31,1.79 -2.47,2 z"
   id="path963" />
	</g>
	<g
   id="g971">
		<path
   class="st7"
   d="m 1044.69,681.73 c -0.92,2.59 -2.02,18.71 -0.55,21.14 1.47,2.43 31.95,16.28 41.58,13.62 11.04,-3.06 11.07,-8.3 0.01,-15.07 -11.05,-6.77 -15.42,-9.72 -16.88,-11.77 -1.46,-2.05 -3.7,-8.63 -3.7,-8.63"
   id="path967" />
		<path
   class="st7"
   d="m 1044.76,698.08 c 2.5,3.21 6.71,6.15 13.51,7.34 6.79,1.18 14.48,6.83 21.19,5.78 6.71,-1.04 4.77,-2.95 10.03,-3.41 4.62,-0.4 4.22,1.05 4.22,1.05 1.26,3.24 0.94,6.36 -5.64,8.19 -3.88,1.07 -11.11,0.16 -18.82,-2.4 -11.41,-3.79 -25.31,-9.31 -26.18,-10.76 -0.51,-0.85 -1.31,-5.46 -0.77,-7.79 1.19,-3.02 2.3,1.8 2.46,2 z"
   id="path969" />
	</g>
	<g
   id="g979">
		<path
   class="st7"
   d="m 1044.9,362.83 c 0,0 -48.26,6.42 -69.04,0.19 0,0 -40.28,5.93 -32.8,297 0,0 31.24,15.59 54.1,0 l 15.07,-200.52 14.27,204.68 c 0,0 29.83,7.27 54.77,-1.04 0,-0.01 0.57,-250.59 -36.37,-300.31 z"
   id="path973" />
		<path
   class="st20"
   d="m 1021.39,648.6 c 0,0.33 35.4,3.62 64.18,-3.37"
   id="path975" />
		<path
   class="st20"
   d="m 938.53,642.83 c 0,0.33 34.99,17.03 62.63,5.25"
   id="path977" />
	</g>
	
		<rect
   x="883.23999"
   y="278.32001"
   transform="rotate(180,1015.8258,359.90795)"
   class="st2"
   width="265.16"
   height="163.17999"
   id="rect981" />
	<path
   class="st9"
   d="m 989.9,250.94 c -0.11,0.05 10.56,5.59 18.59,3.39 7.55,-2.06 15.61,3.71 14.56,-2.41 -0.55,-3.21 -6.3,-14.49 -6.23,-33.37 l -1.45,0.28 -24.3,4.81 c 0,0 3.16,7.9 3.17,15.1 0.02,6.06 -2.95,11.55 -4.34,12.2 z"
   id="path983" />
	<text
   transform="translate(918.0884,337.6748)"
   id="text991"
   style="line-height:0"
   x="288.35492"
   y="0"><tspan
     id="tspan1723"
     x="288.35492"
     y="0"
     style="line-height:360px;text-align:end;text-anchor:end" /></text>
	<path
   class="st23"
   d="m 984.96,254.43 c 0,10.93 20.82,9.84 21.03,9.84 0,0 22.96,1.67 22.96,-9.26 0,0 -8.07,-4.37 -8.22,-8.18 -0.03,-0.64 0.01,-2.27 0.02,-5.97 0.01,-6.43 0.01,-14.62 0.01,-14.62 0,0 0,0 0,0 0,-0.93 0,-1.48 0,-1.48 -2.22,2.73 -24.56,3.63 -29,1.89 -0.22,-0.13 -0.41,-0.27 -0.52,-0.41 0,0 0,0.05 0,0.12 -0.04,-0.03 -0.09,-0.06 -0.11,-0.09 0,0 0,8.81 0.01,14.91 -0.02,0.02 1.45,12.09 -6.18,13.25 z"
   id="path993" />
	<g
   id="g999">
		<path
   class="st19"
   d="m 974.05,189.03 c 1.12,-1.38 2.92,-1.63 4.45,-1.13 0.93,0.31 1.8,0.77 2.62,1.34 0.99,0.68 1.64,1.93 1.75,3.32 0.25,3.34 0.37,6.7 0.34,10.06 -0.01,1.74 -0.24,2.89 -1.89,3.2 -0.66,0.13 -1.33,-0.11 -1.86,-0.61 -2.97,-2.73 -5.53,-5.55 -6.35,-10.03 -0.39,-2.13 -0.31,-4.61 0.94,-6.15 z"
   id="path995" />
		<path
   class="st19"
   d="m 1030.95,189.24 c 0.83,-0.57 1.7,-1.03 2.62,-1.34 1.53,-0.51 3.33,-0.26 4.45,1.13 1.25,1.54 1.33,4.03 0.94,6.15 -0.83,4.49 -3.39,7.3 -6.35,10.03 -0.53,0.49 -1.2,0.73 -1.86,0.61 -1.65,-0.31 -1.88,-1.46 -1.89,-3.2 -0.02,-3.36 0.09,-6.71 0.34,-10.06 0.11,-1.4 0.76,-2.65 1.75,-3.32 z"
   id="path997" />
	</g>
	
		<circle
   transform="matrix(0.7071,-0.7071,0.7071,0.7071,138.7311,753.2015)"
   class="st24"
   cx="978.56"
   cy="209.14"
   id="ellipse1001"
   r="6.3699999" />
	
		<circle
   transform="matrix(0.2305,-0.9731,0.9731,0.2305,591.966,1166.8699)"
   class="st24"
   cx="1033.79"
   cy="209.14"
   id="ellipse1003"
   r="6.3699999" />
	<path
   class="st19"
   d="m 978.56,194.12 c 0,0 -6.55,-38.58 26.87,-38.66 28.77,-0.07 25.87,21.23 27.87,38.4 l -0.68,15.05 c -3.2,15.09 -13.71,26.17 -26.22,26.17 -12.56,0 -23.11,-11.18 -26.26,-26.37 z"
   id="path1005" />
	<g
   id="g1011">
		<path
   class="st7"
   d="m 1010.94,219.72 c 0.49,0.05 0.84,0.24 0.83,0.46 -0.04,1.15 -0.54,2.94 -6.4,3.08 -6.57,0.15 -6.57,-3.53 -5.87,-3.84 0.69,-0.31 4.84,-0.31 4.84,-0.31 z"
   id="path1007" />
		<path
   class="st7"
   d="m 1010.77,219.48 c 0.49,-0.05 0.87,-0.21 0.98,-0.43 0.31,-0.62 0.8,-1.93 0.05,-2.74 -1.01,-1.1 -3.54,-1.6 -7.14,-1.57 -5.98,0.05 -6.61,2.42 -5.27,4.13 1.12,1.44 8.87,0.85 11.38,0.61 z"
   id="path1009" />
	</g>
	<g
   id="g1127">
		<g
   id="g1017">
			<path
   class="st7"
   d="m 1005.22,151.3 v 0 c 1.66,0 3.01,1.53 3.02,3.41 0,0.02 0,0.04 0,0.06 l -2.15,12.95 c -0.16,0.96 -1.36,0.97 -1.53,0.02 l -2.36,-12.96 c 0,-0.02 -0.01,-0.04 -0.01,-0.06 0.02,-1.9 1.37,-3.42 3.03,-3.42 z"
   id="path1013" />
			<path
   class="st7"
   d="m 1005.32,170.74 c -1.5,0 -2.74,-1.07 -3.02,-2.6 l -2.4,-13.44 c 0.03,-3.16 2.41,-5.71 5.32,-5.71 2.91,0 5.3,2.55 5.32,5.7 v 0.21 l -0.04,0.27 -2.15,12.93 c -0.26,1.55 -1.5,2.63 -3.01,2.64 0,0 -0.01,0 -0.02,0 z m -0.82,-16.16 0.75,4.14 0.68,-4.11 c -0.07,-0.63 -0.41,-1.02 -0.72,-1.02 -0.3,0.01 -0.65,0.42 -0.71,0.99 z"
   id="path1015" />
		</g>
		<g
   id="g1023">
			<path
   class="st7"
   d="m 995.62,156.31 c -0.35,-1.64 0.67,-3.28 2.29,-3.65 1.62,-0.38 3.23,0.64 3.61,2.28 0,0.02 0.01,0.04 0.01,0.05 l 0.41,11.74 c 0.03,0.87 -1.14,1.15 -1.49,0.36 l -4.81,-10.73 c -0.01,-0.01 -0.01,-0.03 -0.02,-0.05 z"
   id="path1019" />
			<path
   class="st7"
   d="m 1001.14,169.86 c -1.19,0 -2.27,-0.69 -2.78,-1.82 l -4.98,-11.24 c -0.61,-2.85 1.19,-5.71 4.01,-6.37 1.37,-0.32 2.79,-0.09 3.99,0.66 1.21,0.75 2.06,1.94 2.38,3.34 l 0.06,0.26 0.01,0.32 0.41,11.66 c 0.05,1.5 -0.93,2.78 -2.38,3.12 -0.25,0.04 -0.49,0.07 -0.72,0.07 z m -3.29,-14.18 1.52,3.39 -0.13,-3.73 c -0.09,-0.21 -0.21,-0.31 -0.29,-0.36 -0.11,-0.07 -0.29,-0.14 -0.52,-0.09 -0.35,0.09 -0.59,0.43 -0.58,0.79 z"
   id="path1021" />
		</g>
		<g
   id="g1029">
			<path
   class="st7"
   d="m 986.46,162.13 c -0.48,-1.17 0.22,-2.59 1.58,-3.19 1.35,-0.59 2.85,-0.14 3.35,1.02 0.01,0.01 0.01,0.03 0.01,0.04 l 1.61,8.76 c 0.12,0.65 -0.85,1.08 -1.24,0.56 l -5.28,-7.15 c -0.01,-0.01 -0.02,-0.02 -0.03,-0.04 z"
   id="path1025" />
			<path
   class="st7"
   d="m 992.25,171.86 c -0.91,0 -1.78,-0.41 -2.34,-1.17 l -5.45,-7.38 -0.13,-0.31 c -0.96,-2.35 0.26,-5.05 2.78,-6.16 1.27,-0.56 2.7,-0.6 3.93,-0.12 1.12,0.44 1.99,1.27 2.45,2.34 l 0.11,0.26 1.66,9.04 c 0.25,1.35 -0.49,2.68 -1.79,3.25 -0.39,0.16 -0.81,0.25 -1.22,0.25 z m -3.58,-10.59 0.82,1.11 -0.26,-1.4 c -0.07,0 -0.16,0.02 -0.27,0.07 -0.14,0.06 -0.23,0.15 -0.29,0.22 z"
   id="path1027" />
		</g>
		<g
   id="g1035">
			<path
   class="st7"
   d="m 990.99,159.09 c -0.36,-1.36 0.48,-2.8 1.89,-3.21 1.42,-0.41 2.87,0.35 3.26,1.71 0,0.01 0.01,0.03 0.01,0.04 l 0.76,9.86 c 0.06,0.73 -0.96,1.03 -1.3,0.39 l -4.6,-8.75 c -0.01,-0.01 -0.02,-0.02 -0.02,-0.04 z"
   id="path1031" />
			<path
   class="st7"
   d="m 996.19,170.54 c -1.08,0 -2.09,-0.58 -2.61,-1.58 l -4.81,-9.28 c -0.68,-2.55 0.88,-5.24 3.48,-6 1.3,-0.38 2.65,-0.23 3.81,0.41 1.13,0.62 1.94,1.64 2.3,2.87 l 0.09,0.5 0.76,9.86 c 0.11,1.42 -0.78,2.7 -2.17,3.1 -0.29,0.08 -0.58,0.12 -0.85,0.12 z m -2.98,-12.15 0.81,1.55 -0.14,-1.78 c -0.01,-0.01 -0.03,-0.02 -0.05,-0.04 -0.05,-0.03 -0.16,-0.07 -0.31,-0.02 -0.17,0.04 -0.28,0.17 -0.31,0.29 z"
   id="path1033" />
		</g>
		<g
   id="g1041">
			<path
   class="st7"
   d="m 982.97,165.19 c -0.59,-0.93 -0.26,-2.23 0.75,-2.91 1.01,-0.68 2.31,-0.49 2.92,0.43 0.01,0.01 0.01,0.02 0.02,0.03 l 2.81,7.23 c 0.21,0.53 -0.51,1.03 -0.92,0.64 L 983,165.23 c -0.01,-0.02 -0.02,-0.03 -0.03,-0.04 z"
   id="path1037" />
			<path
   class="st7"
   d="m 988.9,173.04 c -0.71,0 -1.41,-0.27 -1.95,-0.79 l -5.91,-5.82 c -1.25,-1.97 -0.62,-4.68 1.39,-6.05 1.01,-0.69 2.27,-0.95 3.44,-0.72 1.11,0.22 2.07,0.85 2.68,1.78 l 0.19,0.28 0.08,0.25 2.79,7.16 c 0.49,1.26 0.03,2.67 -1.11,3.42 -0.5,0.33 -1.05,0.49 -1.6,0.49 z m 1.24,-4.09 v 0 c 0,0 0,0 0,0 z"
   id="path1039" />
		</g>
		<g
   id="g1047">
			<path
   class="st7"
   d="m 980.97,169.75 c -0.57,-0.58 -0.37,-1.76 0.47,-2.65 0.83,-0.89 1.98,-1.16 2.57,-0.6 0.01,0.01 0.01,0.01 0.02,0.02 l 2.91,5.05 c 0.21,0.37 -0.38,1.02 -0.76,0.83 L 981,169.76 c -0.02,0.01 -0.03,0 -0.03,-0.01 z"
   id="path1043" />
			<path
   class="st7"
   d="m 986.31,174.74 c -0.41,0 -0.81,-0.09 -1.19,-0.28 l -5.51,-2.8 -0.28,-0.28 c -1.46,-1.47 -1.28,-4.03 0.42,-5.84 0.93,-0.99 2.14,-1.58 3.34,-1.62 0.93,-0.03 1.78,0.28 2.42,0.86 l 0.28,0.23 3.13,5.43 c 0.61,1.05 0.42,2.41 -0.49,3.36 -0.58,0.61 -1.35,0.94 -2.12,0.94 z m -1.37,-2.01 c 0,0 0,0 0,0 z"
   id="path1045" />
		</g>
		<g
   id="g1053">
			<path
   class="st7"
   d="m 978.97,174 c -0.65,-0.45 -0.64,-1.64 0.02,-2.68 0.66,-1.03 1.73,-1.51 2.39,-1.08 0.01,0 0.01,0.01 0.02,0.02 l 3.64,4.36 c 0.27,0.32 -0.21,1.07 -0.61,0.95 l -5.45,-1.56 c 0,0 0,0 -0.01,-0.01 z"
   id="path1049" />
			<path
   class="st7"
   d="m 984.52,177.89 c -0.24,0 -0.48,-0.03 -0.71,-0.1 l -5.71,-1.64 -0.44,-0.26 c -1.71,-1.19 -1.96,-3.68 -0.6,-5.81 0.74,-1.15 1.84,-1.96 3.01,-2.21 0.92,-0.19 1.83,-0.03 2.58,0.45 l 0.29,0.19 3.88,4.64 c 0.77,0.92 0.82,2.28 0.11,3.37 -0.58,0.87 -1.48,1.37 -2.41,1.37 z m -1.24,-1.8 c 0,0.01 0,0.01 0,0 z"
   id="path1051" />
		</g>
		<g
   id="g1059">
			<path
   class="st7"
   d="m 978.3,178.84 c -0.51,-0.2 -0.58,-1.3 -0.17,-2.46 0.41,-1.16 1.16,-1.95 1.68,-1.77 0.01,0 0.01,0.01 0.01,0.01 l 2.96,2.81 c 0.22,0.21 -0.08,1.04 -0.38,1.07 l -4.09,0.34 c 0,0 -0.01,0 -0.01,0 z"
   id="path1055" />
			<path
   class="st7"
   d="m 978.41,181.14 h -0.54 l -0.42,-0.17 c 0,0 0,0 0,0 v 0 c -1.75,-0.7 -2.36,-2.9 -1.48,-5.36 0.86,-2.4 2.64,-3.7 4.39,-3.22 l 0.58,0.12 0.51,0.5 2.91,2.77 c 0.78,0.74 1,1.88 0.59,3.03 -0.41,1.16 -1.29,1.9 -2.36,1.99 z"
   id="path1057" />
		</g>
		<g
   id="g1065">
			<path
   class="st7"
   d="m 976.76,185.09 c 0.18,-1.22 0.68,-2.16 1.11,-2.1 0,0 0.01,0 0.01,0.01 l 2.69,2.04 c 0.2,0.15 0.07,1.03 -0.17,1.12 l -3.19,1.27 c -0.01,0 -0.01,0 -0.02,0 -0.42,-0.07 -0.61,-1.12 -0.43,-2.34 z"
   id="path1061" />
			<path
   class="st7"
   d="m 977.48,189.87 -0.79,-0.19 c -1.4,-0.31 -2.68,-1.75 -2.2,-4.93 0.49,-3.28 2.31,-4.21 3.68,-4.03 l 0.7,0.16 3.08,2.33 c 0.77,0.58 1.12,1.57 0.97,2.7 -0.16,1.16 -0.77,2.03 -1.68,2.39 l -3.1,1.23 z m 1.69,-3 c 0,0 0.01,0 0,0 z"
   id="path1063" />
		</g>
		<g
   id="g1071">
			<path
   class="st7"
   d="m 978.29,182.6 c -0.43,-0.08 -0.65,-0.9 -0.51,-1.85 0.14,-0.95 0.6,-1.66 1.03,-1.6 0,0 0.01,0 0.01,0 l 2.74,1.69 c 0.2,0.12 0.1,0.81 -0.13,0.87 l -3.13,0.88 c 0,0.01 -0.01,0.01 -0.01,0.01 z"
   id="path1067" />
			<path
   class="st7"
   d="m 978.47,185.01 -0.68,-0.17 c -1.69,-0.36 -2.63,-2.17 -2.29,-4.43 0.34,-2.23 1.74,-3.69 3.4,-3.56 h 0.44 l 0.68,0.35 2.74,1.69 c 0.88,0.54 1.33,1.59 1.17,2.73 -0.16,1.15 -0.88,2.03 -1.88,2.32 l -3.02,0.85 z m 1,-4.34 c -0.04,0.11 -0.07,0.21 -0.08,0.31 -0.02,0.11 -0.02,0.23 0,0.36 0.2,-0.07 0.37,-0.17 0.49,-0.27 -0.1,-0.13 -0.23,-0.28 -0.41,-0.4 z"
   id="path1069" />
		</g>
		<g
   id="g1077">
			<path
   class="st7"
   d="m 1008.96,154.94 c 0.38,-1.64 1.99,-2.66 3.61,-2.28 1.62,0.38 2.64,2.01 2.29,3.65 0,0.02 -0.01,0.04 -0.02,0.05 l -4.81,10.73 c -0.35,0.79 -1.52,0.51 -1.49,-0.36 l 0.41,-11.74 c 0,-0.01 0.01,-0.03 0.01,-0.05 z"
   id="path1073" />
			<path
   class="st7"
   d="m 1009.34,169.86 c -0.23,0 -0.47,-0.03 -0.71,-0.08 -1.46,-0.34 -2.44,-1.62 -2.39,-3.12 l 0.48,-12.23 c 0.32,-1.4 1.17,-2.58 2.38,-3.34 1.2,-0.75 2.62,-0.98 3.99,-0.66 2.82,0.66 4.62,3.52 4.01,6.37 l -0.05,0.26 -4.92,10.99 c -0.51,1.12 -1.6,1.81 -2.79,1.81 z m 1.9,-14.53 -0.13,3.74 1.51,-3.38 c 0.01,-0.4 -0.23,-0.72 -0.57,-0.8 -0.23,-0.06 -0.41,0.02 -0.52,0.09 -0.08,0.05 -0.21,0.16 -0.29,0.35 z"
   id="path1075" />
		</g>
		<g
   id="g1083">
			<path
   class="st7"
   d="m 1019.86,159.23 c 0,-0.01 0.01,-0.03 0.01,-0.04 0.5,-1.16 2,-1.62 3.35,-1.02 1.35,0.59 2.05,2.02 1.58,3.19 -0.01,0.01 -0.01,0.03 -0.02,0.04 l -5.28,7.15 c -0.39,0.53 -1.36,0.09 -1.24,-0.56 z"
   id="path1079" />
			<path
   class="st7"
   d="m 1019,171.08 c -0.41,0 -0.83,-0.08 -1.23,-0.26 -1.3,-0.56 -2.04,-1.9 -1.79,-3.25 l 1.66,-9.03 0.13,-0.3 c 0.44,-1.03 1.31,-1.86 2.43,-2.3 1.23,-0.48 2.67,-0.44 3.93,0.12 2.52,1.11 3.74,3.81 2.78,6.16 l -0.13,0.31 -0.23,0.3 -5.23,7.08 c -0.54,0.76 -1.41,1.17 -2.32,1.17 z m 3.02,-10.87 -0.26,1.4 0.82,-1.11 c -0.05,-0.07 -0.14,-0.15 -0.29,-0.22 -0.11,-0.06 -0.2,-0.07 -0.27,-0.07 z"
   id="path1081" />
		</g>
		<g
   id="g1089">
			<path
   class="st7"
   d="m 1015.1,156.87 c 0,-0.01 0,-0.03 0.01,-0.04 0.39,-1.36 1.84,-2.12 3.26,-1.71 1.42,0.41 2.26,1.84 1.89,3.21 0,0.02 -0.01,0.03 -0.02,0.04 l -4.6,8.75 c -0.34,0.64 -1.36,0.34 -1.3,-0.39 z"
   id="path1085" />
			<path
   class="st7"
   d="m 1015.07,169.77 c -0.28,0 -0.57,-0.04 -0.85,-0.12 -1.39,-0.4 -2.28,-1.67 -2.17,-3.1 l 0.78,-10.12 0.08,-0.29 c 0.34,-1.19 1.16,-2.21 2.28,-2.83 1.17,-0.64 2.52,-0.79 3.81,-0.41 2.6,0.75 4.16,3.45 3.47,6.01 l -0.18,0.48 -4.62,8.79 c -0.51,1 -1.52,1.59 -2.6,1.59 z m 2.3,-12.39 -0.14,1.78 0.82,-1.56 c -0.03,-0.1 -0.15,-0.23 -0.32,-0.28 -0.15,-0.04 -0.26,0 -0.31,0.02 -0.02,0.01 -0.04,0.02 -0.05,0.04 z"
   id="path1087" />
		</g>
		<g
   id="g1095">
			<path
   class="st7"
   d="m 1023.83,162.74 c 0,-0.01 0.01,-0.02 0.02,-0.03 0.61,-0.92 1.91,-1.11 2.92,-0.43 1.01,0.68 1.34,1.98 0.75,2.91 -0.01,0.01 -0.01,0.02 -0.02,0.03 l -5.55,5.38 c -0.41,0.4 -1.13,-0.1 -0.92,-0.64 z"
   id="path1091" />
			<path
   class="st7"
   d="m 1021.58,173.04 c -0.55,0 -1.11,-0.16 -1.6,-0.49 -1.14,-0.76 -1.6,-2.17 -1.11,-3.42 l 3.06,-7.69 c 0.62,-0.93 1.57,-1.56 2.68,-1.78 1.16,-0.23 2.42,0.03 3.44,0.72 2.02,1.37 2.64,4.08 1.4,6.05 l -0.13,0.21 -0.2,0.21 -5.57,5.4 c -0.56,0.52 -1.26,0.79 -1.97,0.79 z"
   id="path1093" />
		</g>
		<g
   id="g1101">
			<path
   class="st7"
   d="m 1027.24,165.75 c 0,-0.01 0.01,-0.01 0.02,-0.02 0.59,-0.56 1.74,-0.3 2.57,0.6 0.83,0.89 1.04,2.08 0.47,2.65 -0.01,0.01 -0.01,0.01 -0.02,0.02 l -5.18,2.64 c -0.38,0.19 -0.98,-0.45 -0.76,-0.83 z"
   id="path1097" />
			<path
   class="st7"
   d="m 1024.94,173.96 c -0.76,0 -1.53,-0.33 -2.12,-0.94 -0.9,-0.95 -1.1,-2.31 -0.49,-3.37 l 3.17,-5.45 0.22,-0.19 c 0.65,-0.59 1.5,-0.91 2.44,-0.87 1.19,0.03 2.41,0.62 3.34,1.62 1.72,1.84 1.9,4.35 0.42,5.84 l -0.27,0.27 -5.52,2.81 c -0.37,0.19 -0.78,0.28 -1.19,0.28 z m 1.38,-2.01 v 0 c 0,0 0,0 0,0 z m -2.27,-2.37 c 0,0 0,0 0,0 z"
   id="path1099" />
		</g>
		<g
   id="g1107">
			<path
   class="st7"
   d="m 1029.08,170.26 c 0.01,-0.01 0.01,-0.01 0.02,-0.02 0.66,-0.43 1.73,0.05 2.39,1.08 0.66,1.03 0.67,2.22 0.02,2.68 -0.01,0.01 -0.02,0.01 -0.02,0.01 l -5.45,1.56 c -0.4,0.11 -0.87,-0.63 -0.61,-0.95 z"
   id="path1103" />
			<path
   class="st7"
   d="m 1025.96,177.89 c -0.93,0 -1.83,-0.5 -2.4,-1.36 -0.71,-1.09 -0.67,-2.45 0.11,-3.38 l 3.9,-4.68 0.32,-0.19 c 0.73,-0.46 1.62,-0.61 2.52,-0.42 1.17,0.25 2.26,1.05 3.01,2.21 1.36,2.12 1.11,4.62 -0.6,5.81 l -0.45,0.27 -0.33,0.09 -5.37,1.54 c -0.23,0.08 -0.47,0.11 -0.71,0.11 z"
   id="path1105" />
		</g>
		<g
   id="g1113">
			<path
   class="st7"
   d="m 1030.66,174.63 c 0,0 0.01,-0.01 0.01,-0.01 0.51,-0.18 1.26,0.61 1.68,1.77 0.41,1.16 0.34,2.25 -0.17,2.46 -0.01,0 -0.01,0 -0.02,0 l -4.09,-0.34 c -0.3,-0.02 -0.6,-0.86 -0.38,-1.07 z"
   id="path1109" />
			<path
   class="st7"
   d="m 1032.16,181.14 -0.19,-0.01 -4.09,-0.34 c -1.07,-0.09 -1.95,-0.83 -2.36,-1.99 -0.41,-1.16 -0.19,-2.29 0.59,-3.03 l 3.41,-3.26 0.58,-0.12 c 1.75,-0.49 3.54,0.81 4.41,3.22 0.88,2.46 0.27,4.67 -1.48,5.36 l -0.41,0.16 z"
   id="path1111" />
		</g>
		<g
   id="g1119">
			<path
   class="st7"
   d="m 1032.6,183 c 0,0 0.01,-0.01 0.01,-0.01 0.43,-0.06 0.92,0.88 1.11,2.1 0.18,1.22 -0.01,2.26 -0.44,2.34 0,0 -0.01,0 -0.02,0 l -3.19,-1.27 c -0.23,-0.09 -0.36,-0.97 -0.17,-1.12 z"
   id="path1115" />
			<path
   class="st7"
   d="m 1033.05,189.82 -3.82,-1.52 c -0.91,-0.36 -1.52,-1.23 -1.68,-2.39 -0.15,-1.13 0.2,-2.12 0.97,-2.71 l 3.07,-2.33 0.72,-0.17 c 1.37,-0.18 3.19,0.76 3.68,4.03 0.49,3.24 -0.86,4.68 -2.29,4.94 z m -1.74,-2.95 v 0 c 0,0 0,0 0,0 z"
   id="path1117" />
		</g>
		<g
   id="g1125">
			<path
   class="st7"
   d="m 1028.92,180.84 2.74,-1.69 c 0,0 0.01,0 0.01,0 0.43,-0.06 0.89,0.66 1.03,1.6 0.14,0.95 -0.09,1.77 -0.51,1.85 0,0 -0.01,0 -0.02,0 l -3.13,-0.88 c -0.23,-0.07 -0.33,-0.75 -0.12,-0.88 z"
   id="path1121" />
			<path
   class="st7"
   d="m 1032.03,185.01 -0.58,-0.23 -3.02,-0.85 c -1,-0.28 -1.72,-1.17 -1.88,-2.32 -0.16,-1.14 0.29,-2.18 1.17,-2.73 v 0 l 3.29,-2.03 h 0.55 c 1.68,-0.1 3.08,1.32 3.42,3.56 0.34,2.26 -0.59,4.06 -2.27,4.43 z m -1.91,-2.21 c 0,0 0.01,-0.01 0,0 z m 0.48,-1.73 c 0.13,0.1 0.29,0.19 0.49,0.26 0.01,-0.13 0.01,-0.25 0,-0.36 -0.01,-0.1 -0.04,-0.2 -0.08,-0.31 -0.18,0.13 -0.31,0.28 -0.41,0.41 z"
   id="path1123" />
		</g>
	</g>
	<path
   class="st25"
   d="m 1009.92,191.13 c 0,0 4.62,2.29 10.01,-1.54"
   id="path1129" />
	<path
   class="st25"
   d="m 998.07,190.36 c 0,0 -4.22,2.97 -10.12,0"
   id="path1131" />
	<path
   class="st26"
   d="m 986.35,185.72 c 0,0 15.55,-7.67 17.48,2.87 0.59,3.19 -1.66,11.92 -1.48,13.44 0.18,1.52 2.15,5.85 9.37,2.38"
   id="path1133" />
	<path
   class="st27"
   d="m 1022.65,184.68 c 0,0 -9.47,-2.34 -12.17,-0.89"
   id="path1135" />
	<path
   class="st28"
   d="m 883.14,368.11 c -1.44,-0.2 -4.61,-3.57 -8.66,-7.15 0,0 -1.57,-0.6 -2.13,-3.61 -0.07,-0.39 -0.19,-0.77 -0.36,-1.13 -0.25,-0.52 -0.57,-1.38 -0.49,-2.18 0.06,-0.61 -0.08,-1.22 -0.44,-1.72 -0.16,-0.23 -0.33,-0.5 -0.47,-0.82 0,0 -1.05,-1.51 0.92,-3.16 0.71,-0.59 1.01,-1.55 0.79,-2.45 -0.05,-0.21 -0.11,-0.43 -0.2,-0.67 -0.5,-1.45 3.7,-4.59 5.48,-6.56 0.46,-0.51 1.22,-0.61 1.9,-0.56 2.08,0.15 6.86,0.9 12.16,4.48 0,0 1.83,1.8 -0.26,2.08 0,0 3.14,0.17 4.39,2.3 1.25,2.13 -3.61,1.68 -3.61,1.68 0,0 3.4,0.08 3.87,1.49 0.47,1.41 -0.5,1.91 -2.14,2.32 -1.64,0.41 0.05,0.58 -1.64,1.86 -1.69,1.28 -9.5,2.5 -9.5,2.5 0,0 -0.57,0.96 -1.28,1.2"
   id="path1137" />
	<g
   id="g1149">
		<path
   class="st29"
   d="m 892.17,344.77 c 0,0 -11.21,-2.68 -12.54,-2.33 -1.33,0.35 -4.58,2.45 -4.58,2.45"
   id="path1139" />
		<path
   class="st29"
   d="m 892.91,348.78 c 0,0 -10.44,-2.04 -11.69,-1.81 -1.25,0.23 -5.25,2.9 -5.25,2.9"
   id="path1141" />
		<path
   class="st29"
   d="m 892.91,352.33 c 0,0 -9.38,-0.96 -11.53,-0.46 -2.15,0.5 -5.02,2.96 -5.02,2.96"
   id="path1143" />
		<path
   class="st29"
   d="m 881.11,358.56 c 0,0 -1.16,3 -2.79,4.05"
   id="path1145" />
		<path
   class="st29"
   d="m 881.49,358.01 c 0,0 -2.91,1.34 -5.08,1.2"
   id="path1147" />
	</g>
	<path
   class="st28"
   d="m 1147.96,345.1 c 1.44,-0.2 4.61,-3.57 8.66,-7.15 0,0 1.57,-0.6 2.13,-3.61 0.07,-0.39 0.19,-0.77 0.36,-1.13 0.25,-0.52 0.57,-1.38 0.49,-2.18 -0.06,-0.61 0.08,-1.22 0.44,-1.72 0.16,-0.23 0.33,-0.5 0.47,-0.82 0,0 1.05,-1.51 -0.92,-3.16 -0.71,-0.59 -1.01,-1.55 -0.79,-2.45 0.05,-0.21 0.11,-0.43 0.2,-0.67 0.5,-1.45 -3.7,-4.59 -5.48,-6.56 -0.46,-0.51 -1.22,-0.61 -1.9,-0.56 -2.08,0.15 -6.86,0.9 -12.16,4.48 0,0 -1.83,1.8 0.26,2.08 0,0 -3.14,0.17 -4.39,2.3 -1.25,2.13 3.61,1.68 3.61,1.68 0,0 -3.4,0.08 -3.87,1.49 -0.47,1.41 0.5,1.91 2.14,2.32 1.64,0.41 -0.05,0.58 1.64,1.86 1.69,1.28 9.5,2.5 9.5,2.5 0,0 0.57,0.96 1.28,1.2"
   id="path1151" />
	<g
   id="g1163">
		<path
   class="st29"
   d="m 1138.93,321.76 c 0,0 11.21,-2.68 12.54,-2.33 1.33,0.35 4.58,2.45 4.58,2.45"
   id="path1153" />
		<path
   class="st29"
   d="m 1138.19,325.77 c 0,0 10.44,-2.04 11.69,-1.81 1.24,0.23 5.25,2.9 5.25,2.9"
   id="path1155" />
		<path
   class="st29"
   d="m 1138.19,329.32 c 0,0 9.38,-0.96 11.53,-0.46 2.16,0.5 5.02,2.96 5.02,2.96"
   id="path1157" />
		<path
   class="st29"
   d="m 1149.99,335.55 c 0,0 1.16,3 2.79,4.05"
   id="path1159" />
		<path
   class="st29"
   d="m 1149.61,335 c 0,0 2.91,1.34 5.08,1.2"
   id="path1161" />
	</g>
<text
   xml:space="preserve"
   style="font-style:normal;font-weight:normal;font-size:40px;line-height:0;font-family:sans-serif;fill:#000000;fill-opacity:1;stroke:none"
   x="1018.7634"
   y="331.92542"
   id="text1729"><tspan
     id="tspan1727"
     x="1018.7634"
     y="331.92542"
     style="font-style:normal;font-variant:normal;font-weight:normal;font-stretch:normal;line-height:1.05;font-family:'GrilledCheese BTN Toasted';-inkscape-font-specification:'GrilledCheese BTN Toasted';text-align:center;text-anchor:middle">WE LOVE </tspan><tspan
     x="1018.7634"
     y="373.92542"
     style="font-style:normal;font-variant:normal;font-weight:normal;font-stretch:normal;line-height:1.05;font-family:'GrilledCheese BTN Toasted';-inkscape-font-specification:'GrilledCheese BTN Toasted';text-align:center;text-anchor:middle"
     id="tspan1736">SECOND </tspan><tspan
     x="1018.7634"
     y="415.92542"
     style="font-style:normal;font-variant:normal;font-weight:normal;font-stretch:normal;line-height:1.05;font-family:'GrilledCheese BTN Toasted';-inkscape-font-specification:'GrilledCheese BTN Toasted';text-align:center;text-anchor:middle"
     id="tspan1731">HAND</tspan></text></g>
<rect
   x="-721.60193"
   y="406.47003"
   class="st30"
   width="555.81"
   height="152.74001"
   id="rect1167" />

<rect
   x="-721.60193"
   y="750.32001"
   class="st30"
   width="574.97998"
   height="504.89999"
   id="rect1175" />




















































































</svg>
