<svg version="1.1" id="Layer_1" xmlns="http://www.w3.org/2000/svg" x="0" y="0" viewBox="0 0 1080 1350" xml:space="preserve"><style>.st1{fill:#87ddcd;stroke:#010100;stroke-width:3.4094;stroke-miterlimit:10}.st2,.st3{fill:#010100}.st3{stroke:#87ddcd;stroke-width:7.3092;stroke-miterlimit:10}.st6{enable-background:new}.st10,.st13,.st14{stroke-miterlimit:10}.st10{fill:none;stroke:#050505;stroke-width:3.1353;stroke-linecap:round;stroke-linejoin:round}.st13,.st14{stroke:#010100;stroke-width:2.9634}.st13{fill:#87ddcd;stroke-linejoin:round}.st14{fill:none;stroke-linecap:round}</style><path d="M441.04 629.54s170.24 17.58 165.66-10.66c-1.46-9.1-1.38-163.07-1.38-163.07s-172.12-18.02-169.38 1.55c7.49 53.37 5.1 172.18 5.1 172.18z" fill="#93633d"/><path class="st1" d="M544.75 788.43c1.3 12.25 3.16 26.12 5.33 40.79 11.12 74.85 20.45 163.49 27.1 189.87 7.82 30.97 36.19 139.99 25.99 212-.94 6.59 41.04-24.4 41.04-24.4l-5.94-386.54-.46-25.2-.86-47.92s-75.36-30.11-91.23-7.4c-3.94 5.64-3.6 23.98-.97 48.8zM445.22 1225.51c-18.23-39.41 33.54-154.54 26.39-215.26-2.17-18.53 21.81-113.1 35.21-184.61 1-5.35 1.97-10.6 2.82-15.64 5.67-32.93 8.18-58.59 3.22-65.45-15.83-22-98.63.82-98.63.82l-1.4 47.34-.61 20.87-9.56 417.72c.04-.02 45.22-.04 42.56-5.79zM439.73 984.51s-12.34 8.22-25.47 0M633.26 988.21s-10.68 8.22-24.65 0"/><path class="st2" d="M432.76 311.39c70.94-2.84 176.72 0 177.52 0 129.82-.69 64.15 210.11 42.38 265.65-12.92 32.95-247.27 34.75-253.54 2.55-15.24-78.18-82.65-263.54 33.64-268.2zM446.25 1199.6c1.92 5.42 4.22 39.12 1.15 44.2-3.07 5.08-66.8 34.04-86.94 28.48-23.08-6.4-23.15-17.35-.02-31.51 23.1-14.16 32.24-20.32 35.29-24.61 3.05-4.29 7.74-18.04 7.74-18.04"/><path class="st2" d="M446.08 1233.81c-5.23 6.71-14.03 12.86-28.23 15.35-14.2 2.47-30.28 14.28-44.31 12.09-14.03-2.17-9.97-6.17-20.97-7.13-9.66-.84-8.82 2.2-8.82 2.2-2.63 6.77-1.97 13.3 11.79 17.12 8.11 2.24 23.23.33 39.35-5.02 23.86-7.92 52.92-19.47 54.74-22.5 1.07-1.78 2.74-11.42 1.61-16.29-2.48-6.32-4.82 3.74-5.16 4.18zM600.47 1204.72c-1.92 5.42-4.22 39.12-1.15 44.2 3.07 5.08 66.8 34.04 86.94 28.48 23.08-6.4 23.15-17.35.02-31.51-23.1-14.16-32.24-20.32-35.29-24.61-3.05-4.29-7.74-18.04-7.74-18.04"/><path class="st2" d="M600.62 1238.91c5.23 6.71 14.03 12.86 28.25 15.35 14.2 2.47 30.28 14.28 44.31 12.09 14.03-2.17 9.97-6.17 20.97-7.13 9.66-.84 8.82 2.2 8.82 2.2 2.63 6.77 1.97 13.3-11.79 17.12-8.11 2.24-23.23.33-39.35-5.02-23.86-7.92-52.92-19.47-54.74-22.5-1.07-1.78-2.74-11.42-1.61-16.29 2.49-6.32 4.81 3.76 5.14 4.18zM600.91 537.94s-100.91 13.42-144.36.4c0 0-84.22 12.4-68.58 621 0 0 65.32 32.6 113.12 0l31.51-419.27 29.84 427.97s62.37 15.2 114.52-2.17c0-.04 1.19-523.97-76.05-627.93z"/><path class="st3" d="M551.76 1135.45c0 .69 74.02 7.57 134.19-7.05M378.5 1123.39c0 .69 73.16 35.61 130.95 10.98"/><path fill="#fff" d="M262.92 361.23h554.42v341.19H262.92z"/><path d="M485.91 303.99c-.23.1 22.08 11.69 38.87 7.09 15.79-4.31 32.64 7.76 30.44-5.04-1.15-6.71-13.17-30.3-13.03-69.77l-3.03.59-50.81 10.06s6.61 16.52 6.63 31.57c.05 12.66-6.16 24.14-9.07 25.5z" fill="#bbeac6"/><g class="st6"><path d="M405.79 426.02l-4.69 59.05c-.09 1.34-.85 2.04-2.28 2.1l-17.45.71c-1.22.06-2.01-.45-2.37-1.52l-7.68-22.05-7.41 21.92c-.39 1.16-1.15 1.71-2.28 1.65l-16.74-.71c-1.34-.06-2.07-.73-2.19-2.01l-5.76-59.5c0-1.61.79-2.41 2.37-2.41h14.24c1.49 0 2.29.74 2.41 2.23l2.01 28.7 5.09-22.76c.3-1.22 1.07-1.83 2.32-1.83h11.87c1.31 0 2.1.61 2.37 1.83l4.87 22.67 2.19-29.01c.12-1.55.97-2.28 2.54-2.19l14.37.76c1.46.06 2.19.76 2.19 2.1v.27zM455.03 482.97c0 1.58-.76 2.37-2.28 2.37h-40.84c-1.55 0-2.32-.79-2.32-2.37v-59.23c0-1.61.77-2.41 2.32-2.41h40.85c1.51 0 2.27.8 2.27 2.41v11.87c0 1.58-.76 2.37-2.28 2.37h-22.58v7.41h17.63c1.55 0 2.32.79 2.32 2.37v11.92c0 1.58-.77 2.37-2.31 2.37h-17.64v6.65h22.59c1.51 0 2.27.8 2.27 2.41v11.86zM537.33 482.97c0 1.58-.79 2.37-2.37 2.37h-40.04c-1.52 0-2.28-.79-2.28-2.37l-.49-57.4c0-1.55.78-2.35 2.33-2.41l16.14-.36c1.58-.03 2.38.76 2.38 2.37v43.52h21.96c1.58 0 2.37.8 2.37 2.41v11.87zM599.06 457.26c0 8.75-2.6 16.31-7.81 22.67-5.6 6.84-12.65 10.27-21.16 10.27-9.94 0-17.75-3.08-23.43-9.24-5.54-5.98-8.3-13.97-8.3-23.97 0-9.79 2.9-17.97 8.7-24.55 6.04-6.84 13.89-10.27 23.57-10.27 8.66 0 15.7 3.79 21.11 11.38 4.88 6.83 7.32 14.73 7.32 23.71zm-19.77.5c0-3.27-.86-6.22-2.59-8.84-1.99-2.95-4.54-4.42-7.63-4.42-3.1 0-5.62 1.49-7.59 4.46-1.7 2.59-2.54 5.52-2.54 8.79 0 3.24.85 6.16 2.54 8.75 1.96 2.98 4.49 4.46 7.59 4.46 3.09 0 5.64-1.47 7.63-4.42 1.72-2.61 2.59-5.54 2.59-8.78zM653.47 424.19c0 .03-.03.15-.09.36l-13.08 56.69c-.3 1.28-1.09 1.92-2.37 1.92h-26.07c-1.25 0-2.01-.64-2.28-1.92l-12.23-57.22v-.27c0-1.61.79-2.41 2.37-2.41l16.65.31c1.28 0 2.04.67 2.28 2.01l6.03 36.11 7.41-36.11c.27-1.28 1-1.92 2.19-1.92l16.74-.09c1.63-.03 2.45.81 2.45 2.54zM702.75 482.97c0 1.58-.76 2.37-2.28 2.37h-40.84c-1.55 0-2.32-.79-2.32-2.37v-59.23c0-1.61.77-2.41 2.32-2.41h40.85c1.51 0 2.27.8 2.27 2.41v11.87c0 1.58-.76 2.37-2.29 2.37h-22.58v7.41h17.63c1.55 0 2.32.79 2.32 2.37v11.92c0 1.58-.77 2.37-2.31 2.37h-17.64v6.65h22.59c1.51 0 2.27.8 2.27 2.41v11.86z"/></g><g class="st6"><path d="M405.68 511.67c0 .62-.18 1.15-.54 1.56L395 525.1c-.48.57-1.06.85-1.74.85-.09 0-2.01-1.09-5.74-3.26-3.74-2.17-7.2-3.26-10.39-3.26-1.82 0-2.73.46-2.73 1.38 0 .57 1.31 1.35 3.93 2.37 9.25 3.63 15.09 6.22 17.5 7.77 6.19 4.02 9.28 9.15 9.28 15.4 0 7.2-2.82 12.5-8.47 15.89-4.55 2.74-10.67 4.11-18.37 4.11-4.49 0-9.08-1.03-13.78-3.08-4.96-2.2-8.74-4.98-11.33-8.35-.39-.48-.58-1-.58-1.56 0-.62.19-1.15.58-1.56l10.04-11.43c.48-.54 1.09-.8 1.83-.8.15 0 2.14 1.08 5.98 3.24 3.84 2.16 7.02 3.24 9.55 3.24 2.2 0 3.3-.56 3.3-1.7 0-.71-1.31-1.52-3.93-2.41-2.38-.71-5.92-1.87-10.62-3.48-10.77-4.11-16.16-10.65-16.16-19.64 0-5.77 3.11-10.67 9.33-14.68 5.5-3.54 11.32-5.31 17.45-5.31 4.52 0 9.13 1.01 13.84 3.04 4.97 2.11 8.76 4.88 11.38 8.3.35.45.53.96.53 1.5zM456.34 559.96c0 1.58-.76 2.37-2.28 2.37h-40.84c-1.55 0-2.32-.79-2.32-2.37v-59.23c0-1.61.77-2.41 2.32-2.41h40.85c1.51 0 2.27.8 2.27 2.41v11.87c0 1.58-.76 2.37-2.28 2.37h-22.58v7.41h17.63c1.55 0 2.32.79 2.32 2.37v11.92c0 1.58-.77 2.37-2.31 2.37h-17.64v6.65h22.59c1.51 0 2.27.8 2.27 2.41v11.86zM512.27 556.03c0 .6-.18 1.12-.54 1.56-2.05 2.44-5.31 4.36-9.77 5.76-3.78 1.13-7.6 1.7-11.47 1.7-9.94 0-17.99-2.93-24.15-8.79-6.25-5.98-9.37-13.93-9.37-23.83 0-12.14 4.18-21.45 12.54-27.94 7.59-5.86 17.63-8.79 30.13-8.79 1.9 0 3.04.67 3.39 2.01.18 1.07.45 2.66.8 4.78 1.16 5.8 1.74 9.33 1.74 10.58 0 2.56-.85 3.84-2.54 3.84-.42 0-1.06-.03-1.92-.09-.86-.06-1.5-.09-1.92-.09-6.01 0-10.86 1.12-14.55 3.35-4.49 2.74-6.74 6.92-6.74 12.54 0 3.99 1.23 7.04 3.7 9.15 2.32 1.96 5.5 2.95 9.55 2.95 3.09 0 5.76-.48 7.99-1.43 2.35-1.22 4.72-2.45 7.1-3.7.36-.18.65-.27.89-.27 1.28 0 2.04.64 2.28 1.92l2.86 14.55v.24zM574.4 534.25c0 8.75-2.61 16.31-7.81 22.67-5.59 6.84-12.65 10.27-21.16 10.27-9.94 0-17.75-3.08-23.43-9.24-5.53-5.98-8.3-13.97-8.3-23.97 0-9.79 2.9-17.97 8.7-24.55 6.04-6.84 13.9-10.27 23.57-10.27 8.66 0 15.7 3.79 21.11 11.38 4.88 6.82 7.32 14.72 7.32 23.71zm-19.77.49c0-3.27-.86-6.22-2.59-8.84-1.99-2.95-4.54-4.42-7.63-4.42-3.1 0-5.62 1.49-7.59 4.46-1.7 2.59-2.54 5.52-2.54 8.79 0 3.24.85 6.16 2.54 8.75 1.96 2.98 4.49 4.46 7.59 4.46 3.09 0 5.64-1.47 7.63-4.42 1.72-2.6 2.59-5.53 2.59-8.78zM631.89 502.92l-.54 58.69c0 1.46-.73 2.22-2.19 2.28l-15.09.63c-1.01.06-1.74-.4-2.19-1.38l-13.61-29.32-.27 27.9c-.03 1.31-.8 2.04-2.32 2.19-6.96.6-10.86.89-11.69.89-3.54 0-5.31-.88-5.31-2.63v-59.14c0-2.02 2.25-3.04 6.77-3.04 1.4 0 5.16.22 11.31.67.95.06 1.62.51 2 1.34l13.4 29.01v-28.07c0-1.97 2.18-2.95 6.53-2.95 1.6 0 5.21.19 10.84.58 1.6.07 2.39.86 2.36 2.35zM689.42 532.6c0 12.65-5.48 21.9-16.43 27.76-8.54 4.61-19.7 6.92-33.48 6.92-1.61 0-2.41-.8-2.41-2.41v-64.54c0-1.58.8-2.37 2.41-2.37 13.78 0 24.94 2.29 33.46 6.87 10.97 5.9 16.45 15.15 16.45 27.77zm-21.56 0c0-2.98-.73-5.73-2.19-8.26-1.64-2.92-3.81-4.61-6.52-5.09v26.69c2.74-.45 4.92-2.13 6.56-5.04 1.44-2.53 2.15-5.3 2.15-8.3z"/></g><g class="st6"><path d="M463.15 577.79l-.54 58.56c0 1.49-.76 2.26-2.28 2.32l-15.71.62c-1.58.06-2.38-.73-2.41-2.37V618.8h-11.69l-.18 17.54c0 1.43-.73 2.2-2.19 2.32-8.51.65-12.69.98-12.54.98-3.78 0-5.67-.91-5.67-2.72V577.7c0-1.61.8-2.41 2.4-2.41l16.36.09c1.54.03 2.3.83 2.27 2.41l-.27 24.24h11.52V577.7c0-1.6.8-2.41 2.4-2.41l16.18.09c1.6.02 2.38.83 2.35 2.41zM524.43 640.18c0 1.64-.79 2.44-2.37 2.41l-16.65-.27c-1.55-.03-2.66-1.79-3.35-5.27-.27-2.41-.55-4.81-.85-7.19h-11.52c-.33 2.14-.65 4.29-.98 6.43-.65 3.09-1.71 4.64-3.17 4.64h-16.69c-.62 0-1.19-.25-1.7-.74s-.76-1.05-.76-1.67c0-.15.01-.3.04-.45l13.75-59.68c.27-1.28 1.06-1.92 2.37-1.92h26.07c1.28 0 2.07.64 2.37 1.92l13.44 61.51v.28zm-26.15-27.09l-2.37-13.12-2.77 13.12h5.14zM580.99 579.89l-.54 58.69c0 1.46-.73 2.22-2.19 2.28l-15.09.63c-1.01.06-1.74-.4-2.19-1.38l-13.61-29.32-.27 27.9c-.03 1.31-.8 2.04-2.32 2.19-6.96.6-10.86.89-11.69.89-3.54 0-5.31-.88-5.31-2.63V580c0-2.02 2.26-3.04 6.77-3.04 1.39 0 5.16.22 11.31.67.95.06 1.62.51 2 1.34l13.4 29.01v-28.07c0-1.97 2.18-2.95 6.53-2.95 1.6 0 5.21.19 10.84.58 1.6.07 2.39.86 2.36 2.35zM638.52 609.56c0 12.65-5.48 21.9-16.43 27.76-8.54 4.61-19.7 6.92-33.48 6.92-1.61 0-2.41-.8-2.41-2.41v-64.54c0-1.58.8-2.37 2.41-2.37 13.78 0 24.94 2.29 33.46 6.87 10.97 5.9 16.45 15.16 16.45 27.77zm-21.56 0c0-2.98-.73-5.73-2.19-8.26-1.64-2.92-3.81-4.61-6.52-5.09v26.69c2.74-.45 4.92-2.13 6.56-5.04 1.44-2.52 2.15-5.29 2.15-8.3z"/></g><path d="M475.58 311.28c0 22.85 43.53 20.57 43.97 20.57 0 0 48.01 3.49 48.01-19.36 0 0-16.87-9.14-17.19-17.1-.06-1.34.02-4.75.04-12.48.02-13.44.02-30.57.02-30.57h0v-3.09c-4.64 5.71-51.35 7.59-60.64 3.95-.46-.27-.86-.56-1.09-.86v.25c-.08-.06-.19-.13-.23-.19 0 0 0 18.42.02 31.18-.03.04 3.05 25.28-12.91 27.7z" fill="#87ddcd" stroke="#010100" stroke-width="3.123" stroke-miterlimit="10"/><path class="st1" d="M452.77 174.54c2.34-2.89 6.11-3.41 9.3-2.36 1.94.65 3.76 1.61 5.48 2.8 2.07 1.42 3.43 4.04 3.66 6.94.52 6.98.77 14.01.71 21.03-.02 3.64-.5 6.04-3.95 6.69-1.38.27-2.78-.23-3.89-1.28-6.21-5.71-11.56-11.6-13.28-20.97-.81-4.45-.64-9.63 1.97-12.85zM571.75 174.98c1.74-1.19 3.55-2.15 5.48-2.8 3.2-1.07 6.96-.54 9.3 2.36 2.61 3.22 2.78 8.43 1.97 12.86-1.74 9.39-7.09 15.26-13.28 20.97-1.11 1.02-2.51 1.53-3.89 1.28-3.45-.65-3.93-3.05-3.95-6.69-.04-7.03.19-14.03.71-21.03.23-2.94 1.59-5.55 3.66-6.95z"/><circle cx="462.19" cy="216.6" fill="none" stroke="#fff" stroke-width="4.773" stroke-linecap="round" stroke-linejoin="round" stroke-miterlimit="10" r="13.32"/><circle cx="577.64" cy="216.49" fill="none" stroke="#fff" stroke-width="4.773" stroke-linecap="round" stroke-linejoin="round" stroke-miterlimit="10" r="13.32"/><path class="st1" d="M462.2 185.18s-13.7-80.67 56.18-80.83c60.16-.15 54.09 44.39 58.27 80.29l-1.42 31.47c-6.69 31.55-28.67 54.72-54.82 54.72-26.26 0-48.32-23.38-54.91-55.14l-3.3-30.51z"/><path class="st2" d="M529.91 238.71c1.02.1 1.76.5 1.74.96-.08 2.4-1.13 6.15-13.38 6.44-13.74.31-13.74-7.38-12.27-8.03 1.44-.65 10.12-.65 10.12-.65l13.79 1.28z"/><path class="st2" d="M529.55 238.21c1.02-.1 1.82-.44 2.05-.9.65-1.3 1.67-4.04.1-5.73-2.11-2.3-7.4-3.35-14.93-3.28-12.5.1-13.82 5.06-11.02 8.64 2.35 3 18.55 1.77 23.8 1.27z"/><g><path class="st2" d="M517.95 95.65c3.47 0 6.29 3.2 6.31 7.13v.13l-4.5 27.08c-.33 2.01-2.84 2.03-3.2.04l-4.93-27.1c0-.04-.02-.08-.02-.13.04-3.97 2.87-7.15 6.34-7.15z"/><path class="st2" d="M518.16 136.3c-3.14 0-5.73-2.24-6.31-5.44l-5.02-28.1c.06-6.61 5.04-11.94 11.12-11.94 6.08 0 11.08 5.33 11.12 11.92v.44l-.08.56-4.5 27.04c-.54 3.24-3.14 5.5-6.29 5.52h-.04zm-1.72-33.79l1.57 8.66 1.42-8.59c-.15-1.32-.86-2.13-1.51-2.13-.62.01-1.35.86-1.48 2.06z"/><path class="st2" d="M497.87 106.12c-.73-3.43 1.4-6.86 4.79-7.63 3.39-.79 6.75 1.34 7.55 4.77 0 .04.02.08.02.1l.86 24.55c.06 1.82-2.38 2.4-3.12.75l-10.06-22.44c-.02-.01-.02-.05-.04-.1z"/><path class="st2" d="M509.42 134.46c-2.49 0-4.75-1.44-5.81-3.81l-10.41-23.5c-1.28-5.96 2.49-11.94 8.38-13.32 2.86-.67 5.83-.19 8.34 1.38 2.53 1.57 4.31 4.06 4.98 6.98l.13.54.02.67.86 24.38c.1 3.14-1.94 5.81-4.98 6.52-.53.09-1.03.16-1.51.16zm-6.88-29.65l3.18 7.09-.27-7.8c-.19-.44-.44-.65-.61-.75a1.44 1.44 0 00-1.09-.19c-.73.18-1.23.89-1.21 1.65zM478.72 118.29c-1-2.45.46-5.42 3.3-6.67 2.82-1.23 5.96-.29 7 2.13.02.02.02.06.02.08l3.37 18.32c.25 1.36-1.78 2.26-2.59 1.17l-11.04-14.95c-.02-.01-.04-.04-.06-.08z"/><path class="st2" d="M490.83 138.64c-1.9 0-3.72-.86-4.89-2.45l-11.4-15.43-.27-.65c-2.01-4.91.54-10.56 5.81-12.88 2.66-1.17 5.65-1.25 8.22-.25 2.34.92 4.16 2.66 5.12 4.89l.23.54 3.47 18.9c.52 2.82-1.02 5.6-3.74 6.8-.82.34-1.7.53-2.55.53zm-7.49-22.15l1.71 2.32-.54-2.93c-.15 0-.33.04-.56.15-.29.13-.48.32-.61.46z"/><path class="st2" d="M488.19 111.94c-.75-2.84 1-5.85 3.95-6.71 2.97-.86 6 .73 6.82 3.58 0 .02.02.06.02.08l1.59 20.62c.13 1.53-2.01 2.15-2.72.82l-9.62-18.3c-.02-.03-.04-.05-.04-.09z"/><path class="st2" d="M499.07 135.88c-2.26 0-4.37-1.21-5.46-3.3l-10.06-19.4c-1.42-5.33 1.84-10.96 7.28-12.55 2.72-.79 5.54-.48 7.97.86a9.998 9.998 0 014.81 6l.19 1.05 1.59 20.62c.23 2.97-1.63 5.65-4.54 6.48-.61.15-1.22.24-1.78.24zm-6.24-25.41l1.69 3.24-.29-3.72c-.02-.02-.06-.04-.1-.08-.1-.06-.33-.15-.65-.04-.35.08-.58.35-.65.6zM471.42 124.69c-1.23-1.94-.54-4.66 1.57-6.08 2.11-1.42 4.83-1.02 6.11.9.02.02.02.04.04.06l5.88 15.12c.44 1.11-1.07 2.15-1.92 1.34l-11.6-11.25c-.03-.05-.06-.07-.08-.09z"/><path class="st2" d="M483.82 141.1c-1.48 0-2.95-.56-4.08-1.65l-12.36-12.17c-2.61-4.12-1.3-9.79 2.91-12.65 2.11-1.44 4.75-1.99 7.19-1.51 2.32.46 4.33 1.78 5.6 3.72l.4.59.17.52 5.83 14.97c1.02 2.63.06 5.58-2.32 7.15-1.04.7-2.19 1.03-3.34 1.03zm2.6-8.55z"/><path class="st2" d="M467.24 134.23c-1.19-1.21-.77-3.68.98-5.54 1.74-1.86 4.14-2.43 5.37-1.25l.04.04 6.08 10.56c.44.77-.79 2.13-1.59 1.74l-10.83-5.52c-.03.01-.05-.01-.05-.03z"/><path class="st2" d="M478.41 144.66c-.86 0-1.69-.19-2.49-.59l-11.52-5.85-.59-.59c-3.05-3.07-2.68-8.43.88-12.21 1.94-2.07 4.47-3.3 6.98-3.39 1.94-.06 3.72.59 5.06 1.8l.59.48 6.54 11.35c1.28 2.2.88 5.04-1.02 7.03-1.21 1.28-2.82 1.97-4.43 1.97zm-2.87-4.2z"/><path class="st2" d="M463.06 143.11c-1.36-.94-1.34-3.43.04-5.6 1.38-2.15 3.62-3.16 5-2.26.02 0 .02.02.04.04l7.61 9.12c.56.67-.44 2.24-1.28 1.99l-11.4-3.26c.01-.01.01-.01-.01-.03z"/><path class="st2" d="M474.66 151.25c-.5 0-1-.06-1.48-.21l-11.94-3.43-.92-.54c-3.58-2.49-4.1-7.69-1.25-12.15 1.55-2.4 3.85-4.1 6.29-4.62 1.92-.4 3.83-.06 5.39.94l.61.4 8.11 9.7c1.61 1.92 1.71 4.77.23 7.05-1.21 1.81-3.09 2.86-5.04 2.86zm-2.59-3.77c0 .02 0 .02 0 0z"/><path class="st2" d="M461.66 153.23c-1.07-.42-1.21-2.72-.36-5.14.86-2.43 2.43-4.08 3.51-3.7.02 0 .02.02.02.02l6.19 5.88c.46.44-.17 2.17-.79 2.24l-8.55.71c0-.01-.02-.01-.02-.01z"/><path class="st2" d="M461.89 158.04h-1.13l-.88-.36c-3.66-1.46-4.93-6.06-3.09-11.21 1.8-5.02 5.52-7.74 9.18-6.73l1.21.25 1.07 1.05 6.08 5.79c1.63 1.55 2.09 3.93 1.23 6.34-.86 2.43-2.7 3.97-4.93 4.16l-8.74.71zM458.44 166.3c.38-2.55 1.42-4.52 2.32-4.39 0 0 .02 0 .02.02l5.62 4.27c.42.31.15 2.15-.36 2.34l-6.67 2.66h-.04c-.87-.15-1.27-2.35-.89-4.9z"/><path class="st2" d="M459.94 176.29l-1.65-.4c-2.93-.65-5.6-3.66-4.6-10.31 1.02-6.86 4.83-8.8 7.69-8.43l1.46.33 6.44 4.87c1.61 1.21 2.34 3.28 2.03 5.65-.33 2.43-1.61 4.24-3.51 5l-6.48 2.57-1.38.72zm3.54-6.27s.02 0 0 0z"/><path class="st2" d="M461.64 161.09c-.9-.17-1.36-1.88-1.07-3.87.29-1.99 1.25-3.47 2.15-3.35h.02l5.73 3.53c.42.25.21 1.69-.27 1.82l-6.54 1.84c0 .03-.02.03-.02.03z"/><path class="st2" d="M462.01 166.13l-1.42-.36c-3.53-.75-5.5-4.54-4.79-9.26.71-4.66 3.64-7.72 7.11-7.44h.92l1.42.73 5.73 3.53c1.84 1.13 2.78 3.32 2.45 5.71-.33 2.4-1.84 4.24-3.93 4.85l-6.31 1.78-1.18.46zm2.1-9.07c-.08.23-.15.44-.17.65-.04.23-.04.48 0 .75.42-.15.77-.36 1.02-.56a3.57 3.57 0 00-.85-.84z"/><g><path class="st2" d="M525.77 103.26c.79-3.43 4.16-5.56 7.55-4.77 3.39.79 5.52 4.2 4.79 7.63 0 .04-.02.08-.04.1L528 128.66c-.73 1.65-3.18 1.07-3.12-.75l.86-24.55c.01-.02.03-.06.03-.1z"/><path class="st2" d="M526.56 134.46c-.48 0-.98-.06-1.48-.17-3.05-.71-5.1-3.39-5-6.52l1-25.57c.67-2.93 2.45-5.39 4.98-6.98 2.51-1.57 5.48-2.05 8.34-1.38 5.9 1.38 9.66 7.36 8.38 13.32l-.1.54-10.29 22.98c-1.06 2.33-3.34 3.78-5.83 3.78zm3.97-30.39l-.27 7.82 3.16-7.07c.02-.84-.48-1.51-1.19-1.67-.48-.13-.86.04-1.09.19-.17.11-.44.34-.61.73z"/></g><g><path class="st2" d="M548.56 112.23c0-.02.02-.06.02-.08 1.05-2.43 4.18-3.39 7-2.13 2.82 1.23 4.29 4.22 3.3 6.67-.02.02-.02.06-.04.08l-11.04 14.95c-.82 1.11-2.84.19-2.59-1.17l3.35-18.32z"/><path class="st2" d="M546.76 137.01c-.86 0-1.74-.17-2.57-.54-2.72-1.17-4.27-3.97-3.74-6.8l3.47-18.88.27-.63c.92-2.15 2.74-3.89 5.08-4.81 2.57-1 5.58-.92 8.22.25 5.27 2.32 7.82 7.97 5.81 12.88l-.27.65-.48.63-10.94 14.8c-1.13 1.59-2.95 2.45-4.85 2.45zm6.31-22.73l-.54 2.93 1.71-2.32c-.1-.15-.29-.31-.61-.46-.22-.13-.41-.15-.56-.15z"/></g><g><path class="st2" d="M538.6 107.29c0-.02 0-.06.02-.08.82-2.84 3.85-4.43 6.82-3.58 2.97.86 4.73 3.85 3.95 6.71 0 .04-.02.06-.04.08l-9.62 18.3c-.71 1.34-2.84.71-2.72-.82l1.59-20.61z"/><path class="st2" d="M538.54 134.27c-.59 0-1.19-.08-1.78-.25-2.91-.84-4.77-3.49-4.54-6.48l1.63-21.16.17-.61c.71-2.49 2.43-4.62 4.77-5.92a10.39 10.39 0 017.97-.86c5.44 1.57 8.7 7.21 7.26 12.57l-.38 1-9.66 18.38a6.092 6.092 0 01-5.44 3.33zm4.81-25.91l-.29 3.72 1.71-3.26c-.06-.21-.31-.48-.67-.59-.31-.08-.54 0-.65.04-.04.03-.08.05-.1.09z"/></g><g><path class="st2" d="M556.86 119.57c0-.02.02-.04.04-.06 1.28-1.92 3.99-2.32 6.11-.9 2.11 1.42 2.8 4.14 1.57 6.08-.02.02-.02.04-.04.06L552.93 136c-.86.84-2.36-.21-1.92-1.34l5.85-15.09z"/><path class="st2" d="M552.15 141.1a6.01 6.01 0 01-3.35-1.02c-2.38-1.59-3.35-4.54-2.32-7.15l6.4-16.08a8.72 8.72 0 015.6-3.72c2.43-.48 5.06.06 7.19 1.51 4.22 2.86 5.52 8.53 2.93 12.65l-.27.44-.42.44-11.65 11.29c-1.16 1.08-2.62 1.64-4.11 1.64z"/></g><g><path class="st2" d="M563.99 125.86c0-.02.02-.02.04-.04 1.23-1.17 3.64-.63 5.37 1.25 1.74 1.86 2.17 4.35.98 5.54l-.04.04-10.83 5.52c-.79.4-2.05-.94-1.59-1.74l6.07-10.57z"/><path class="st2" d="M559.18 143.03c-1.59 0-3.2-.69-4.43-1.97-1.88-1.99-2.3-4.83-1.02-7.05l6.63-11.4.46-.4c1.36-1.23 3.14-1.9 5.1-1.82 2.49.06 5.04 1.3 6.98 3.39 3.6 3.85 3.97 9.1.88 12.21l-.56.56-11.54 5.88c-.79.41-1.64.6-2.5.6zm2.88-4.2zm-4.74-4.96z"/></g><g><path class="st2" d="M567.84 135.29l.04-.04c1.38-.9 3.62.1 5 2.26s1.4 4.64.04 5.6c-.02.02-.04.02-.04.02l-11.4 3.26c-.84.23-1.82-1.32-1.28-1.99l7.64-9.11z"/><path class="st2" d="M561.31 151.25c-1.94 0-3.83-1.05-5.02-2.84-1.48-2.28-1.4-5.12.23-7.07l8.15-9.79.67-.4c1.53-.96 3.39-1.28 5.27-.88 2.45.52 4.73 2.2 6.29 4.62 2.84 4.43 2.32 9.66-1.25 12.15l-.94.56-.69.19-11.23 3.22c-.47.17-.98.24-1.48.24z"/></g><g><path class="st2" d="M571.14 144.43l.02-.02c1.07-.38 2.63 1.28 3.51 3.7.86 2.43.71 4.7-.36 5.14h-.04l-8.55-.71c-.63-.04-1.25-1.8-.79-2.24l6.21-5.87z"/><path class="st2" d="M574.28 158.04l-.4-.02-8.55-.71c-2.24-.19-4.08-1.74-4.93-4.16-.86-2.43-.4-4.79 1.23-6.34l7.13-6.82 1.21-.25c3.66-1.02 7.4 1.69 9.22 6.73 1.84 5.14.56 9.76-3.09 11.21l-.86.33-.96.03z"/></g><g><path class="st2" d="M575.2 161.93l.02-.02c.9-.13 1.92 1.84 2.32 4.39.38 2.55-.02 4.73-.92 4.89h-.04l-6.67-2.66c-.48-.19-.75-2.03-.36-2.34l5.65-4.26z"/><path class="st2" d="M576.14 176.19l-7.99-3.18c-1.9-.75-3.18-2.57-3.51-5-.31-2.36.42-4.43 2.03-5.67l6.42-4.87 1.51-.36c2.86-.38 6.67 1.59 7.69 8.43 1.02 6.77-1.8 9.79-4.79 10.33l-1.36.32zm-3.64-6.17z"/></g><g><path class="st2" d="M567.5 157.41l5.73-3.53h.02c.9-.13 1.86 1.38 2.15 3.35.29 1.99-.19 3.7-1.07 3.87h-.04l-6.54-1.84c-.48-.15-.69-1.57-.25-1.85z"/><path class="st2" d="M574 166.13l-1.21-.48-6.31-1.78c-2.09-.59-3.6-2.45-3.93-4.85-.33-2.38.61-4.56 2.45-5.71l6.88-4.24h1.15c3.51-.21 6.44 2.76 7.15 7.44.71 4.73-1.23 8.49-4.75 9.26l-1.43.36zm-3.99-4.62s.02-.02 0 0zm1-3.62c.27.21.61.4 1.02.54.02-.27.02-.52 0-.75-.02-.21-.08-.42-.17-.65-.37.28-.64.59-.85.86z"/></g></g><path class="st10" d="M527.77 178.93s9.66 4.79 20.93-3.22M503 177.32s-8.82 6.21-21.16 0"/><path d="M478.49 167.62s32.51-16.04 36.55 6c1.23 6.67-3.47 24.92-3.09 28.1s4.5 12.23 19.59 4.98" fill="none" stroke="#050505" stroke-width="3.594" stroke-linecap="round" stroke-linejoin="round" stroke-miterlimit="10"/><path d="M554.39 165.44s-19.8-4.89-25.45-1.86" fill="none" stroke="#050505" stroke-width="3.709" stroke-linecap="round" stroke-linejoin="round" stroke-miterlimit="10"/><path class="st13" d="M262.69 548.98c-3.01-.42-9.64-7.46-18.11-14.95 0 0-3.28-1.25-4.45-7.55a9.69 9.69 0 00-.75-2.36c-.52-1.09-1.19-2.89-1.02-4.56.13-1.28-.17-2.55-.92-3.6-.33-.48-.69-1.05-.98-1.71 0 0-2.2-3.16 1.92-6.61 1.48-1.23 2.11-3.24 1.65-5.12-.1-.44-.23-.9-.42-1.4-1.05-3.03 7.74-9.6 11.46-13.72.96-1.07 2.55-1.28 3.97-1.17 4.35.31 14.34 1.88 25.43 9.37 0 0 3.83 3.76-.54 4.35 0 0 6.57.36 9.18 4.81 2.61 4.45-7.55 3.51-7.55 3.51s7.11.17 8.09 3.12c.98 2.95-1.05 3.99-4.47 4.85-3.43.86.1 1.21-3.43 3.89s-19.86 5.23-19.86 5.23-1.19 2.01-2.68 2.51"/><g><path class="st14" d="M281.57 500.17s-23.44-5.6-26.22-4.87c-2.78.73-9.58 5.12-9.58 5.12M283.12 508.56s-21.83-4.27-24.44-3.78c-2.61.48-10.98 6.06-10.98 6.06M283.12 515.98s-19.61-2.01-24.11-.96-10.5 6.19-10.5 6.19M258.44 529.01s-2.43 6.27-5.83 8.47M259.24 527.86s-6.08 2.8-10.62 2.51"/></g><path class="st13" d="M816.4 500.86c3.01-.42 9.64-7.46 18.11-14.95 0 0 3.28-1.25 4.45-7.55.15-.82.4-1.61.75-2.36.52-1.09 1.19-2.89 1.02-4.56-.13-1.28.17-2.55.92-3.6.33-.48.69-1.05.98-1.71 0 0 2.2-3.16-1.92-6.61-1.48-1.23-2.11-3.24-1.65-5.12.1-.44.23-.9.42-1.4 1.05-3.03-7.74-9.6-11.46-13.72-.96-1.07-2.55-1.28-3.97-1.17-4.35.31-14.34 1.88-25.43 9.37 0 0-3.83 3.76.54 4.35 0 0-6.57.36-9.18 4.81-2.61 4.45 7.55 3.51 7.55 3.51s-7.11.17-8.09 3.12 1.05 3.99 4.47 4.85c3.43.86-.1 1.21 3.43 3.89 3.53 2.68 19.86 5.23 19.86 5.23s1.19 2.01 2.68 2.51"/><g><path class="st14" d="M797.52 452.06s23.44-5.6 26.22-4.87c2.78.73 9.58 5.12 9.58 5.12M795.97 460.45s21.83-4.27 24.44-3.78c2.59.48 10.98 6.06 10.98 6.06M795.97 467.87s19.61-2.01 24.11-.96c4.52 1.05 10.5 6.19 10.5 6.19M820.65 480.9s2.43 6.27 5.83 8.47M819.85 479.75s6.08 2.8 10.62 2.51"/></g></svg>