<svg viewBox="0 0 797 691" xmlns="http://www.w3.org/2000/svg" fill-rule="evenodd" clip-rule="evenodd" stroke-linejoin="round" stroke-miterlimit="2"><path d="M270.563 224.439l-13.742 30.505a19.465 19.465 0 00.421 16.872l17.923 35.015-9.767 21.681 32.223 14.517 9.759-21.664 38.114-9.793a19.475 19.475 0 0012.909-10.863l13.743-30.508a3.444 3.444 0 00-1.726-4.556l52.785-117.175a3.446 3.446 0 004.556-1.725l13.742-30.506a19.47 19.47 0 00-.421-16.871l-6.361-12.428-68.375-30.801-13.515 3.473a19.476 19.476 0 00-12.911 10.863l-13.743 30.508a3.444 3.444 0 001.726 4.556l-52.784 117.173a3.446 3.446 0 00-4.556 1.727" fill-rule="nonzero"/><path d="M786.638 136.851l8.957-32.237a19.477 19.477 0 00-2.975-16.612l-18.905-26.183a14.642 14.642 0 01-2.237-12.491l.561-2.022c2.165-7.792-2.396-15.863-10.188-18.028l-5.836-1.621c-7.791-2.165-15.862 2.397-18.027 10.188l-.557 2.006a14.643 14.643 0 01-8.356 9.544l-23.244 9.931a34.113 34.113 0 00-19.467 22.239l-7.076 25.46a3.446 3.446 0 002.399 4.241L647.283 235.09a3.447 3.447 0 00-4.243 2.398l-8.955 32.235a19.469 19.469 0 002.975 16.614l5.167 7.157a14.646 14.646 0 007.951 5.536l62.358 17.326c3.205.891 6.616.664 9.673-.643l8.11-3.465a19.47 19.47 0 0011.113-12.694l8.958-32.24a3.445 3.445 0 00-2.397-4.241l34.404-123.826a3.445 3.445 0 004.241-2.396M548.817 97.01V63.552a19.471 19.471 0 00-7.315-15.209L510.779 23.78V0h-35.342v23.761l-30.728 24.582A19.476 19.476 0 00437.4 63.55v33.46a3.445 3.445 0 003.446 3.445V228.97a3.445 3.445 0 00-3.446 3.445v33.457a19.48 19.48 0 007.313 15.211l10.906 8.719h74.99l10.897-8.719a19.473 19.473 0 007.311-15.207v-33.461a3.445 3.445 0 00-3.446-3.445V100.455a3.445 3.445 0 003.446-3.445" fill="#fff" fill-rule="nonzero"/><path d="M119.661 102.567l-14.156-30.315a19.474 19.474 0 00-13.063-10.686l-38.23-9.257-10.063-21.547-32.021 14.953 10.054 21.529L4.741 102.52a19.466 19.466 0 00-.188 16.87l14.158 30.318a3.44 3.44 0 004.578 1.664l54.378 116.445a3.444 3.444 0 00-1.664 4.579l14.156 30.315a19.47 19.47 0 0013.063 10.686l13.568 3.286 67.948-31.73 6.185-12.51a19.47 19.47 0 00.188-16.87l-14.158-30.32a3.442 3.442 0 00-4.578-1.662l-54.378-116.445a3.445 3.445 0 001.664-4.579" fill-rule="nonzero"/><path fill="#fff" d="M36.783 8.776L0 25.952l16.067 34.407 36.782-17.175z"/><path d="M656.397 161.626v-33.458c0-5.917-2.69-11.515-7.313-15.21l-30.723-24.562V64.614h-35.342v23.761l-30.728 24.583a19.472 19.472 0 00-7.309 15.207v33.461a3.444 3.444 0 003.445 3.444v128.516a3.444 3.444 0 00-3.445 3.445v33.455c0 5.92 2.692 11.516 7.313 15.211l10.906 8.718h74.991l10.896-8.718a19.467 19.467 0 007.309-15.206v-33.46a3.443 3.443 0 00-3.444-3.445V165.07a3.443 3.443 0 003.444-3.444" fill-rule="nonzero"/><path fill="#fff" d="M620.987 41.574h-40.594V79.55h40.594zM647.831 167.939h-94.282v122.437h94.282z"/><path d="M294.983 131.507V98.049c0-5.917-2.69-11.515-7.313-15.209l-30.724-24.563v-23.78h-35.342v23.76L190.877 82.84a19.47 19.47 0 00-7.309 15.207v33.46a3.443 3.443 0 003.444 3.444v128.516a3.444 3.444 0 00-3.444 3.445v33.457a19.477 19.477 0 007.313 15.211l10.906 8.719h74.99l10.897-8.719a19.474 19.474 0 007.309-15.207v-33.461a3.445 3.445 0 00-3.445-3.445V134.951a3.444 3.444 0 003.445-3.444" fill="#fff" fill-rule="nonzero"/><path d="M259.572 11.457h-40.593v37.974h40.593z"/><path fill="#c9e265" d="M283.657 144.9H196.35v94.282h87.307z"/><path d="M760.786 300.791l-3.042 46.722a30.206 30.206 0 00.141 5.462l10.196 87.022a111.095 111.095 0 01-1.736 36.318l-24.028 111.557a30.28 30.28 0 00-.611 4.375l-5.508 84.151c-.48 7.789-6.961 13.852-14.817 13.852H85.214c-7.789 0-14.269-6.063-14.82-13.852l-2.688-41.7-6.552-99.923a29.794 29.794 0 00-.192-1.955L44.09 404.468c-.2-1.52-.283-3.055-.249-4.59l2.126-96.413c.018-.882 0-1.766-.059-2.647-1.146-17.379 2.133-44.764 19.55-44.764l672.946-1.31c17.405 0 23.513 28.678 22.382 46.047" fill-rule="nonzero"/><path d="M774.638 276.731H31.983c-5.235 0-9.478-4.243-9.478-9.477 0-17.605 14.273-31.877 31.877-31.877h697.856c17.605 0 31.877 14.272 31.877 31.877 0 5.234-4.244 9.477-9.477 9.477" fill-rule="nonzero"/><path d="M340.692 417.175c.452.004.909.016 1.369.035 4.985.228 10.623 1.331 15.816 2.123 3.411.514 6.988 1.017 10.077 1.782h.009c1.596.358 3.454 1.349 6.124 1.759l-.007-.004c1.186.173 2.681.44 4.291.513 1.761.074 3.746-.046 5.648-1.081 1.558-.869 2.819-2.045 3.978-3.198 1.152-1.157 2.196-2.304 3.063-3.099 3.787-3.487 7.918-6.756 12.006-10.16 1.772-1.483 3.576-3.383 5.304-5.04 1.456-1.421 2.888-2.598 3.829-3.13 3.437 7.585 6.317 15.233 7.892 23.016-2.331.136-4.75.136-7.258.146-3.925.022-8.047.115-12.238 1.189-.96.246-1.627 1.015-1.837 1.921-.969.588-1.495 1.731-1.167 2.872a2.573 2.573 0 003.179 1.768l.165-.016c.248.004.832.157 1.551.535 1.085.554 2.423 1.532 3.727 2.537 1.323 1.008 2.573 2.027 3.896 2.771 6.113 3.365 12.271 8.56 18.851 12.397 3.076 1.785 7.976 4.577 12.405 7.733 2.214 1.575 4.3 3.239 5.95 4.863 1.654 1.619 2.842 3.213 3.342 4.448a2.57 2.57 0 003.359 1.392 2.547 2.547 0 001.346-1.319c.418-.156.811-.382 1.113-.757.755-.945 2.032-2.321 3.553-3.864 2.281-2.318 5.129-5.043 7.811-7.609 2.689-2.573 5.204-4.973 6.896-6.734 2.986-3.108 6.48-7.379 9.331-11.679 1.423-2.154 2.684-4.309 3.638-6.369.943-2.069 1.615-4.012 1.719-5.974a7.972 7.972 0 00-.007-.927c-.01-.136-.076-.245-.103-.373.077-.203.171-.395.197-.623a2.573 2.573 0 00-2.291-2.824 41.281 41.281 0 00-2.468-.183c-3.669-.169-6.926.11-9.97.375-3.05.27-5.883.523-8.808.385a31.333 31.333 0 01-3.224-.335c-.355-3.702-1.296-7.037-2.318-10.2-1.153-3.552-2.365-6.936-3.044-10.616-.712-3.817-1.263-7.331-2.132-10.876-.868-3.544-2.065-7.112-4.037-10.915-.38-.726-.901-2.025-1.458-3.52-.844-2.251-1.799-4.971-2.867-7.388-.536-1.212-1.1-2.352-1.742-3.367-.655-1.006-1.338-1.925-2.465-2.639l.008.004c-1.624-.974-3.355-1.203-5.15-1.301-2.473-.107-5.147.169-7.599.434-2.428.271-4.68.526-5.834.476-5.595-.198-10.728.494-15.684.256l-.559-.029c-2.01-.108-4.198-.583-6.7-.708-1.464-.069-3.043.007-4.694.421-1.188.294-1.925 1.385-1.895 2.56-11.849 10.748-22.991 22.488-34.03 33.96-4.693 4.878-7.198 6.928-9.98 9.107-2.792 2.183-5.896 4.505-11.279 9.532a2.569 2.569 0 00-.815 1.779c-.189.355-.322.737-.327 1.166a2.571 2.571 0 002.544 2.602M531.397 534.49c-6.611-16.493-14.655-32.884-22.438-49.039-3.291-6.839-4.455-10.216-5.634-13.891-1.18-3.687-2.372-7.713-5.53-15.237a2.536 2.536 0 00-1.366-1.365c-.24-.335-.534-.631-.932-.822a2.571 2.571 0 00-3.435 1.193c-2.271 4.704-6.227 9.682-9.57 14.387-2.003 2.82-4.052 5.782-6.162 8.16-.53.597-1.231 1.207-2.032 1.935-.799.725-1.701 1.584-2.501 2.728l.006-.005c-.635.905-1.484 2.033-2.229 3.356-.74 1.321-1.418 2.88-1.512 4.724a7.47 7.47 0 00.076 1.468c.287 1.861 1.012 3.587 1.762 5.236.754 1.64 1.556 3.193 2.057 4.427 2.175 5.285 3.964 10.757 5.917 16.257.844 2.363 2.129 4.993 3.192 7.443.531 1.221 1.006 2.392 1.338 3.396.184.552.309 1.035.393 1.453-9.931-.907-19.718-2.37-29.105-5.223.843-2.221 1.891-4.463 2.974-6.81 1.639-3.573 3.302-7.411 3.927-11.829a2.569 2.569 0 00-1.276-2.585c-.152-1.141-1.018-2.096-2.217-2.228a2.567 2.567 0 00-2.838 2.261l-.005-.001s-.253.434-.923.885c-.981.69-2.648 1.432-4.34 2.104-1.709.699-3.403 1.304-4.828 2.15-6.207 3.756-14.444 6.595-21.382 10.547-3.117 1.779-7.963 4.606-13.054 6.91-2.542 1.156-5.138 2.175-7.566 2.867-2.424.698-4.679 1.053-6.466.965a12.728 12.728 0 01-.763-.059 2.574 2.574 0 00-2.849 2.265c-.094.845.263 1.612.845 2.145-.025.491.041.991.31 1.444 1.455 2.45 3.735 7.477 5.956 12.576 2.237 5.124 4.45 10.361 6.019 13.621 2.165 4.489 5.459 10.146 9.037 15.099 1.79 2.477 3.644 4.775 5.504 6.668 1.872 1.89 3.699 3.41 5.739 4.278.18.076.368.079.551.108.174.21.355.41.596.561a2.572 2.572 0 003.542-.827c2.885-4.64 4.23-9.025 5.605-12.957 1.173-3.359 2.404-6.37 4.481-9.316 4.172 1.682 8.222 2.598 12.181 3.362 4.31.825 8.521 1.517 12.879 2.865 8.824 2.723 16.084 5.401 25.835 5.853l.024.001.083.004c1.481.062 4.221.497 7.144.954 2.943.456 6.112.933 8.849 1.059 1.051.048 2.042.044 2.981-.049.941-.104 1.837-.265 2.77-.75 1.664-.913 2.685-2.323 3.536-3.814 1.258-2.251 2.119-4.897 2.896-7.331.382-1.215.738-2.368 1.073-3.351.33-.985.655-1.809.907-2.283 2.695-5.214 4.131-10.417 6.619-14.838.751-1.358 1.8-2.735 2.825-4.364 1.015-1.626 2.008-3.557 2.355-5.944.19-1.284-.625-2.44-1.831-2.797M381.058 547.925c-1.646-3.047-3.397-6.195-4.588-9.139-.305-.744-.541-1.64-.838-2.684-.299-1.033-.666-2.22-1.338-3.442l.005.006c-.604-1.097-1.33-2.56-2.367-3.974-1.035-1.4-2.463-2.853-4.563-3.541-1.546-.493-3.136-.641-4.707-.715-1.859-.085-3.694-.048-5.155-.118l-.496-.023c-5.704-.395-11.405-1.216-17.2-1.9-1.072-.128-2.219-.199-3.398-.254-1.469-.067-2.986-.107-4.428-.173-1.386-.064-2.698-.153-3.794-.302a12.96 12.96 0 01-1.583-.303c5.214-8.501 10.856-16.628 17.571-23.78 1.62 1.739 3.164 3.673 4.789 5.683 2.482 3.05 5.18 6.244 8.866 8.759a2.57 2.57 0 002.879.002c1.092.371 2.33.019 2.985-.998a2.568 2.568 0 00-.764-3.542v-.004l-.027-.036c-.083-.091-.294-.582-.382-1.358-.1-.77-.108-1.779-.059-2.859.074-1.62.267-3.379.342-4.98.034-.718.045-1.403-.011-2.086-.623-7.241.483-15.878.015-23.852-.23-3.794-.649-9.855-.377-15.759.129-2.82.417-5.597.934-8.027.509-2.427 1.267-4.497 2.193-5.893a2.575 2.575 0 00-.742-3.56c-.717-.469-1.568-.49-2.313-.21-.426-.242-.905-.402-1.432-.364-2.661.205-7.668.057-12.845-.179-3.425-.158-6.954-.352-10.054-.494-2.252-.103-4.273-.177-5.897-.193-4.983-.047-11.514.4-17.538 1.412-3.014.51-5.894 1.154-8.419 1.982-2.522.84-4.692 1.804-6.375 3.248-.153.129-.237.298-.349.455-.258.059-.517.131-.756.28a2.57 2.57 0 00-.828 3.541c2.881 4.638 6.218 7.788 9.129 10.764 2.492 2.539 4.649 4.975 6.372 8.144-3.358 2.994-5.977 6.223-8.413 9.429-2.649 3.497-5.135 6.97-8.274 10.274-6.381 6.737-12.01 12.07-16.747 20.668-.469.866-1.372 2.209-2.424 3.717-1.588 2.274-3.53 4.952-5.134 7.49-.803 1.275-1.527 2.513-2.088 3.703-.549 1.203-.988 2.315-1.066 3.648l-.004.403c.081 1.893.892 3.432 1.85 4.858 1.463 2.121 3.456 4.066 5.291 5.838 1.826 1.743 3.535 3.372 4.177 4.272 3.479 4.729 7.508 8.318 10.367 12.508.886 1.275 1.656 2.828 2.663 4.47 1.006 1.626 2.302 3.372 4.284 4.744 1.068.737 2.471.518 3.322-.405 4.227.324 8.478.591 12.758.787 13.648.624 27.493.686 41.148.822 2.033.017 3.778.067 5.32.137 4.967.229 7.743.677 11.192 1.203 3.448.524 7.492 1.116 14.547 1.551a2.55 2.55 0 001.823-.618c.406-.066.806-.199 1.154-.472a2.571 2.571 0 00.454-3.609c-3.218-4.117-5.923-9.868-8.657-14.952" fill="#c9e265" fill-rule="nonzero"/></svg>