<svg id="Layer_1" data-name="Layer 1" xmlns="http://www.w3.org/2000/svg" xmlns:xlink="http://www.w3.org/1999/xlink" viewBox="0 0 1000 1000"><defs><style>.cls-1,.cls-3{fill:none;}.cls-2{clip-path:url(#clip-path);}.cls-3{stroke:#fff;stroke-linecap:round;stroke-linejoin:round;stroke-width:4.59px;stroke-dasharray:27.54;}.cls-4{fill:#fff;}</style><clipPath id="clip-path"><circle class="cls-1" cx="-520" cy="500" r="449.2"/></clipPath></defs><g class="cls-2"><path class="cls-3" d="M-693.68-19.59s-366.5,414.92-117.9,620.15S-257.47,345-257.47,345-190,260.47-60.6,334.26c147.45,84.07,52,452.47-281.2,446.8s-345.32,445.69-345.32,445.69"/></g><circle class="cls-1" cx="500" cy="500" r="449.2"/><path class="cls-3" d="M385.82-182.12S19.33,232.8,267.93,438,822,182.49,822,182.49s67.43-84.55,196.86-10.76c147.45,84.07,52,452.47-281.2,446.8s-345.32,445.69-345.32,445.69"/><path d="M759.68,619.35a345.25,345.25,0,0,0,26.9-65.49c6.86-23.61,8.43-50.08,11.39-74.38,2.25-18.45,6.57-33.42.85-51.78a2.73,2.73,0,0,0-2.85-2.6,2.67,2.67,0,0,0-.84.17c-17.12,2.61-33.36,9.1-50.46,11.89-8.55,1.39-35.35,1.21-40.34,8.64-3.75,5.59,2.07,25,2.37,31.85a256.12,256.12,0,0,1-1.11,35.79c-4.51,46.1-19.11,93.33-44.87,132.09-24.49,36.86-61.92,64.78-104,78.39-47.11,15.25-106.63-1.77-149-24.73-14.5-7.86-39.39-17.05-33.64-35.44.93-3,12.65-31.76,14.6-31.73-32.82-.52-66-1.1-97.74-9.63-19.65-5.29-38.47-13.58-58.39-17.75-25.66-5.37-8.77,26.55-4.74,35.8,2.75,6.31,5.51,12.64,8.82,18.71a236.71,236.71,0,0,0,14.58,22.49l31.65,45c7.67,10.9,14,30,23.85,38.16,7.13-8.69,12.88-19,19.08-28.45,2.92-4.46,11.21-22.89,16.61-23.65,4.18-.58,19.5,12.95,24.13,15.49,8.74,4.8,17.81,9,26.39,14a330.46,330.46,0,0,0,50.19,23.89c33.77,13,71.36,17.83,107,15.2A191.17,191.17,0,0,0,582,776.19c65.51-16.22,119.54-64.64,155.79-120C745.69,644.12,753,631.89,759.68,619.35Z"/><path d="M240.32,373.86a345.25,345.25,0,0,0-26.9,65.49C206.56,463,205,489.43,202,513.73c-2.25,18.45-6.57,33.42-.85,51.78a2.73,2.73,0,0,0,2.85,2.6,2.67,2.67,0,0,0,.84-.17c17.12-2.61,33.36-9.1,50.46-11.89,8.55-1.39,35.36-1.21,40.34-8.64,3.75-5.59-2.07-25-2.36-31.85a254.59,254.59,0,0,1,1.1-35.79c4.51-46.1,19.11-93.33,44.87-132.09,24.49-36.86,61.92-64.78,104-78.39,47.12-15.25,106.63,1.77,149,24.73,14.5,7.86,39.39,17.05,33.64,35.44-.93,3-12.65,31.76-14.6,31.73,32.82.52,66,1.1,97.74,9.63,19.65,5.29,38.47,13.58,58.39,17.75,25.66,5.37,8.77-26.55,4.74-35.8-2.75-6.31-5.51-12.64-8.82-18.71a235.45,235.45,0,0,0-14.58-22.49l-31.65-45c-7.67-10.92-14-30-23.85-38.17-7.13,8.69-12.88,19-19.08,28.45-2.92,4.46-11.21,22.89-16.61,23.65-4.18.58-19.5-12.95-24.13-15.49-8.74-4.8-17.81-8.95-26.39-14a330.46,330.46,0,0,0-50.19-23.89c-33.77-13-71.35-17.83-107-15.2A190.81,190.81,0,0,0,418,217c-65.51,16.22-119.53,64.64-155.79,120C254.31,349.09,247,361.32,240.32,373.86Z"/><path class="cls-4" d="M509.25,853.36h62.2c32.49-.61,41.84-45,25.31-68.47-19.3-27.45-13.11-73.41-13.71-87s14.45-114.25,19.07-199.25c6-110.73-33.63-179.91-44.09-201.11-17.8-36.09-17.27-116.59-17.27-133.86h-63c0,17.27.53,97.77-17.27,133.86-10.46,21.2-50.11,90.38-44.09,201.11,4.63,85,19.66,185.68,19.07,199.25s5.59,59.53-13.7,87c-16.54,23.52-7.18,67.86,25.3,68.47Z"/><path class="cls-4" d="M596.76,784.89c-19.3-27.45-13.11-73.41-13.71-87s14.44-114.25,19.07-199.25c6-110.73-33.63-179.91-44.08-201.11C540.23,261.46,540.76,181,540.76,163.69H509.25V853.36h62.2C603.94,852.74,613.29,808.41,596.76,784.89Z"/><path d="M536.76,165h-55a9.2,9.2,0,0,1-9.17-9.17h0a9.2,9.2,0,0,1,9.17-9.17h55a9.2,9.2,0,0,1,9.17,9.17h0A9.2,9.2,0,0,1,536.76,165Z"/><path d="M509.25,165h27.51a9.2,9.2,0,0,0,9.17-9.17h0a9.2,9.2,0,0,0-9.17-9.17H509.25Z"/><path d="M508.18,517.5H416.55a518.11,518.11,0,0,1,0-83.75c3.8-44.2,14.24-69.15,14.24-69.15H585.56s10.44,24.95,14.25,69.15a520.4,520.4,0,0,1,0,83.75Z"/><path d="M508.18,517.5h91.63a520.4,520.4,0,0,0,0-83.75c-3.81-44.2-14.25-69.15-14.25-69.15H508.18Z"/></svg>