<svg xmlns="http://www.w3.org/2000/svg" version="1.1" id="Layer_1" x="0" y="0" viewBox="0 0 299.03 241.92" xml:space="preserve" width="299.03" height="241.92"><style type="text/css" id="style833">.st1{fill:#87ddcd}.st2{fill:#fff}.st58,.st59,.st7{fill:#010100}.st58,.st59{stroke:#010100;stroke-width:2.4977;stroke-linecap:round;stroke-linejoin:round;stroke-miterlimit:10}.st59{stroke-width:.8811}</style><g id="g1583" transform="translate(-174.44 -3905.49)"><path class="st7" d="M422.63 3954.78c-.6 0-1.09-.49-1.09-1.09v-47.11c0-.6.49-1.09 1.09-1.09.6 0 1.09.49 1.09 1.09v47.11c0 .6-.49 1.09-1.09 1.09z" id="path1523"/><path class="st2" d="M461.46 3969.4v166.23a11.772 11.772 0 01-11.78 11.78H186.45c-6.22 0-11.34-4.63-11.95-10.57-.03-.3-.05-.6-.06-.9v-40.91c0-.32.01-.63.04-.94a12.06 12.06 0 019.14-4.15h161.43c7.5 0 13.7-5.44 14.72-12.52.1-.67.15-1.36.15-2.06v-37.91c0-1.61-.28-3.17-.8-4.61-1.93-5.37-7.15-9.21-13.28-9.21h-57.45c-12.4 0-23.25 8.61-29.13 19.76-1.7 3.22-2.99 6.66-3.78 10.16a6.07 6.07 0 01-3.67 1.23h-51.43c-5.51 0-9.98-4.38-9.98-9.78v-75.11c0-.9.08-1.79.23-2.65 2.98-4.08 7.85-6.74 13.35-6.74h244.37c5.32 0 10.03 2.56 12.92 6.49.13.76.19 1.58.19 2.41z" id="path1525"/><path class="st7" d="M461.46 3969.4v166.23a11.772 11.772 0 01-11.78 11.78H186.22c-6.1 0-11.12-4.63-11.72-10.57-.03-.3-.05-.6-.06-.9v-40.91c0-.32.01-.63.04-.94.48-6.07 5.55-10.84 11.74-10.84h158.31c4.77 0 9-2.29 11.67-5.83 1.84-2.44 2.92-5.47 2.92-8.75v-37.91c0-2.6-.72-5.04-1.97-7.12-2.41-4.02-6.81-6.7-11.84-6.7h-56.35c-14.51 0-26.85 12.26-31.34 26.46-.65 2.06-1.14 4.16-1.45 6.26a6 6 0 01-2.26 3.89 5.88 5.88 0 01-3.59 1.23h-50.44c-5.4 0-9.78-4.38-9.78-9.78v-75.11c0-.9.07-1.79.22-2.65 1.26-7.62 7.89-13.44 15.87-13.44h239.66c5.33 0 10.04 2.67 12.86 6.75 1.3 1.89 2.2 4.07 2.57 6.43.12.77.18 1.59.18 2.42z" id="path1527"/><path class="st58" id="rect1529" d="M226.65 4054.65h5.58v19.71h-5.58z"/><path class="st58" id="rect1531" d="M223.78 4067.89h3.67v2.89h-3.67z"/><path class="st59" id="rect1533" d="M237.15 3948.13h8.5v5.53h-8.5z"/><path class="st2" d="M432.53 3950.15h-18.81c-1.85 0-3.32-1.56-3.22-3.4l.31-5.28v-.05l.21-3.56.57-9.91.18-3.12.44-7.58.16-2.77a3.22 3.22 0 013.21-3.03h14.75c.52 0 1.02.12 1.45.35.98.5 1.68 1.49 1.76 2.65l.15 2.22.43 6.4.07 1.01.71 10.53.57 8.42.25 3.68c.15 1.86-1.33 3.44-3.19 3.44z" id="path1535"/><path class="st2" d="M470.09 4025.29h-8.63v-47.03h8.63c1.87 0 3.38 1.52 3.38 3.39v40.26c0 1.86-1.51 3.38-3.38 3.38z" id="path1537"/><path class="st2" id="rect1539" d="M208.85 4082.18h39.76v.94h-39.76z"/><g id="g1547"><path class="st2" d="M256.26 3967.69c0-1.17.95-2.13 2.13-2.13s2.13.95 2.13 2.13c0 1.17-.95 2.13-2.13 2.13s-2.13-.95-2.13-2.13z" id="path1541"/><path class="st2" d="M264.6 3967.69c0-1.17.95-2.13 2.13-2.13 1.17 0 2.13.95 2.13 2.13 0 1.17-.95 2.13-2.13 2.13-1.17 0-2.13-.95-2.13-2.13z" id="path1543"/><path class="st2" d="M272.95 3967.69c0-1.17.95-2.13 2.13-2.13 1.17 0 2.13.95 2.13 2.13 0 1.17-.95 2.13-2.13 2.13s-2.13-.95-2.13-2.13z" id="path1545"/></g><path class="st59" id="rect1549" d="M240.74 3942.66h1.38v7.44h-1.38z"/><g id="g1567"><g id="g1557"><path class="st1" d="M420.97 4089.08h-9.2c-2.25 0-4.09-1.84-4.09-4.09s1.84-4.09 4.09-4.09h9.2c2.25 0 4.09 1.84 4.09 4.09s-1.84 4.09-4.09 4.09z" id="path1551"/><g id="g1555"><path class="st1" d="M439.52 4089.34h-27.85a4.26 4.26 0 01-4.25-4.25v-.2a4.26 4.26 0 014.25-4.25h27.85a4.26 4.26 0 014.25 4.25v.2c.01 2.35-1.9 4.25-4.25 4.25zm-27.84-8.17c-2.05 0-3.72 1.67-3.72 3.72v.2c0 2.05 1.67 3.72 3.72 3.72h27.85c2.05 0 3.72-1.67 3.72-3.72v-.2c0-2.05-1.67-3.72-3.72-3.72z" id="path1553"/></g></g><g id="g1565"><path class="st1" d="M411.31 4075.32c-.62 0-1.13-.51-1.13-1.13v-3.72c0-.62.51-1.13 1.13-1.13.62 0 1.13.51 1.13 1.13v3.72c-.01.62-.51 1.13-1.13 1.13z" id="path1559"/><path class="st1" d="M426.31 4075.32c-.62 0-1.13-.51-1.13-1.13v-3.72c0-.62.51-1.13 1.13-1.13.62 0 1.13.51 1.13 1.13v3.72c0 .62-.51 1.13-1.13 1.13z" id="path1561"/><path class="st1" d="M441.31 4075.32c-.62 0-1.13-.51-1.13-1.13v-3.72c0-.62.51-1.13 1.13-1.13.62 0 1.13.51 1.13 1.13v3.72c0 .62-.51 1.13-1.13 1.13z" id="path1563"/></g></g><g id="g1573"><circle transform="rotate(-9.213 426.338 4028.332)" class="st1" cx="426.04" cy="4028.81" id="ellipse1569" r="21.6"/><path class="st2" d="M409.77 4029.15c0-8.99 7.29-16.27 16.27-16.27 8.99 0 16.27 7.29 16.27 16.27s-7.29 16.27-16.27 16.27c-8.99.01-16.27-7.28-16.27-16.27z" id="path1571"/></g><g id="g1579"><circle transform="rotate(-80.281 422.512 3984.133)" class="st1" cx="422.55" cy="3983.99" id="ellipse1575" r="13.2"/><path class="st2" d="M412.61 3984.2c0-5.49 4.45-9.94 9.94-9.94 5.49 0 9.94 4.45 9.94 9.94 0 5.49-4.45 9.94-9.94 9.94-5.49 0-9.94-4.45-9.94-9.94z" id="path1577"/></g></g></svg>