<svg viewBox="0 0 737 794" xmlns="http://www.w3.org/2000/svg" fill-rule="evenodd" clip-rule="evenodd" stroke-miterlimit="10"><path d="M143.696 757.459s4.2 1 17.8 1c69.8 0 126.3-56.5 126.3-126.3s-55.8-107.9-126.3-126.3c-67.5-17.7-126.3 56.5-126.3 126.3 0 34.8 24.6 71.1 24.6 71.1s21.9 43.6 83.9 54.2z" fill="#010100" fill-rule="nonzero"/><path d="M147.696 729.059s3.3.8 13.8.8c54.1 0 98-43.9 98-98s-43.3-83.7-98-98c-52.4-13.7-98 43.9-98 98 0 27 19.1 55.2 19.1 55.2s17 33.8 65.1 42z" fill="none" stroke="#fff" stroke-width="12.64"/><circle cx="-1289.1" cy="-2242.8" r="9" fill="#fff" transform="translate(1431.396 2846.459)"/><circle cx="-1241.5" cy="-2232.6" r="9" fill="#fff" transform="translate(1431.396 2846.459)"/><circle cx="-1298.2" cy="-2200.1" r="9" fill="#fff" transform="translate(1431.396 2846.459)"/><circle cx="-1250.5" cy="-2189.9" r="9" fill="#fff" transform="translate(1431.396 2846.459)"/><path d="M338.24 156.89c5.9-6 15-6.7 22.9-2.4 7.7 4.2 14.1 13.4 14 27.2-.1 6.4-1.6 13.9-5.2 22.4l-6.8-10.2c1.4-4.5 2-8.6 2-12.2.1-9.5-3.9-15.6-8.8-18.3-4.1-2.3-8.9-2-11.4 1.2-.3.3-.5.7-.7 1.1l-6-8.8zm19.4 68.3c-10.7 14.9-27 32-51 51.1l-6.2-7.9c24.6-19.6 40.7-36.7 50.7-51.2l-.9-1.2c-5.8-8.3-10.6-17.8-14.4-28.1-5.1-13.9-3.5-23.8 1.1-29.7.4-.5.8-1 1.2-1.4l5.9 8.8c-2 3.6-2.2 9.8 1.1 18.9 3.1 8.5 7 16.5 11.6 23.5 2.8-5.1 4.8-9.9 6.1-14.2l6.8 10.2c-1.7 4-3.8 8.2-6.5 12.6" fill-rule="nonzero"/><path d="M306.74 276.39c-20.4 16.7-63.8 39.4-113.7 40.9-33.8 1.1-70.6-7.6-105.1-34.3l6.2-8c32.3 25 66.8 33.1 98.5 32.1 47.3-1.5 88.6-22.9 107.8-38.7l6.4 2.1-.1 5.9z" fill-rule="nonzero"/><path d="M234.74 233.89c7.2-.2 18.8 7.6 28.6 20l265.7 336.7 61.4 100.6-83.6-83.1-139.9-177.3-78-116.2c2.6 2 4.6 2.8 5.8 1.9 4-3.2-9.2-20.6-22.9-37.9-11.4-14.5-22.1-29.6-28.6-32l-8.5-12.7zm6.4 37.5c-11.9-15.1-16.6-31.3-10.5-36.1 1.1-.9 2.5-1.3 4.2-1.4l8.5 12.7c-1.4-.5-2.5-.4-3.5.3-5.5 4.3 9.3 20.7 23 38 9.8 12.4 19.7 24.7 26.1 29.7l78 116.2-125.8-159.4z"/><path d="M358.24 216.19s136.5 62.9 161-83.8c5-21.6 18-75.6 85.5-72 67.5 3.6 51 128.3-19 216.4s-31.5 205.7 90.5 141.6" fill="none" stroke="#000" stroke-width="11.98"/></svg>