<svg xmlns="http://www.w3.org/2000/svg" viewBox="0 0 538.07 572.37"><defs><style>.cls-1,.cls-8{fill:#010101;}.cls-10,.cls-11,.cls-13,.cls-14,.cls-2,.cls-3,.cls-6,.cls-7,.cls-9{fill:#fff;}.cls-10,.cls-11,.cls-13,.cls-14,.cls-3,.cls-6,.cls-9{stroke:#fff;stroke-miterlimit:10;}.cls-3{stroke-width:1.42px;}.cls-4{fill:#ddc5df;}.cls-5{fill:#2b2c2b;}.cls-6{stroke-width:0.68px;}.cls-10,.cls-11,.cls-12,.cls-13,.cls-7,.cls-8{fill-rule:evenodd;}.cls-9{stroke-width:0.57px;}.cls-10{stroke-width:0.18px;}.cls-11{stroke-width:1.08px;}.cls-12{fill:#ef4461;}.cls-13{stroke-width:1.76px;}.cls-14{stroke-width:0.67px;}.cls-15{fill:#f49c25;}</style></defs><g id="Layer_2" data-name="Layer 2"><g id="Layer_1-2" data-name="Layer 1"><path class="cls-1" d="M319.79,72.08,326.28,74l14.81-49.37a53.19,53.19,0,0,0-28.7.43C316.34,30.06,326.81,46.37,319.79,72.08Z"/><path class="cls-1" d="M308.61,26.36l.06,0a53.34,53.34,0,0,0-31.76,32.88L316.22,71C323.48,44.29,310.68,28.67,308.61,26.36Z"/><path class="cls-1" d="M340.76,78.36,379.23,89.9a53.35,53.35,0,0,0-8.05-44.4C367,46.7,349,53.26,340.76,78.36Z"/><path class="cls-1" d="M342.88,25.15h0l.05,0Z"/><path class="cls-1" d="M378.73,91.69v0l0,.06Z"/><path class="cls-1" d="M315.15,74.58,275.84,62.79a53.38,53.38,0,0,0,8.38,44.86C287.14,106.89,306.49,100.92,315.15,74.58Z"/><path class="cls-1" d="M337.2,77.3c8.11-24.71,25.2-32.75,31.58-34.95a53.17,53.17,0,0,0-24.12-16.63L329.85,75.09Z"/><path class="cls-1" d="M336.12,80.86l-7.34-2.2L314,128a53.19,53.19,0,0,0,29.16-.58C339,122,329.27,105.86,336.12,80.86Z"/><path class="cls-1" d="M346.87,126.17h0a53.35,53.35,0,0,0,31.32-32.71L339.69,81.93C332.78,107.27,343.91,122.65,346.87,126.17Z"/><path class="cls-1" d="M318.72,75.64c-8.3,25.34-26,33.18-32,35.16A53.15,53.15,0,0,0,310.41,127l14.8-49.38Z"/><path class="cls-2" d="M341.1,24.61v0c.59.15,1.18.32,1.77.49Z"/><path class="cls-2" d="M343.14,127.46a29.93,29.93,0,0,0,3.7-1.28c-1.22.47-2.45.9-3.7,1.28Z"/><path class="cls-2" d="M312.39,25.08a35.19,35.19,0,0,0-3.72,1.26c1.22-.46,2.47-.88,3.72-1.26Z"/><path class="cls-2" d="M344.67,25.68l-1.76-.52c.59.17,1.17.36,1.75.56Z"/><path class="cls-2" d="M284.21,107.65a39.13,39.13,0,0,0,2.46,3.15h0q-1.29-1.53-2.46-3.15Z"/><path class="cls-2" d="M276.91,59.22h0l-1.07,3.57h0c.16-.6.32-1.2.5-1.8S276.71,59.81,276.91,59.22Z"/><path class="cls-2" d="M310.41,127v0l3.57,1.07v0c-.6-.16-1.2-.32-1.8-.5S311,127.16,310.41,127Z"/><path class="cls-2" d="M378.72,91.72c-.18.59-.37,1.17-.56,1.75h0Z"/><path class="cls-2" d="M379.26,89.91h0c-.16.59-.32,1.18-.49,1.76Z"/><path class="cls-2" d="M371.18,45.49a31.06,31.06,0,0,0-2.4-3.14h0q1.26,1.53,2.4,3.15Z"/><path class="cls-1" d="M452.28,77.94,452,78c-18.59,6.89-12.84,21-12.84,21,15.24,41.1,48.15,113.9,65.8,139.39h0l.24.32c.25.36.5.73.75,1.07,1.89,2.84,5.15,8.79,8.44,18.55,1.86,5.53,7.84,20.29,8.63,28.72-1.31,1-2,2-1.73,2.7.53,1.42,4.7,1.19,9.3-.51s7.92-4.25,7.39-5.68c-.28-.75-1.56-1-3.37-.9-4.87-6.93-9.94-21.94-12.13-27.33-3.86-9.54-5.27-16.19-5.68-19.57,0-.42-.09-.87-.13-1.3,0-.13,0-.3,0-.4h0c-3.23-30.84-25.73-107.5-41-148.6C475.69,85.48,470.87,71.05,452.28,77.94Z"/><path class="cls-3" d="M509.79,246.72a107.83,107.83,0,0,1,4.63,11.63c1.56,4.64,7.49,22.3,8.64,28.81l11.68-4.33c-3.3-5.62-10.41-23-12.23-27.48a108.3,108.3,0,0,1-4.09-11.94Z"/><path class="cls-2" d="M477.14,277.38a40.42,40.42,0,0,1-24.39,14.38L409,256.1a40.51,40.51,0,0,1,9.23-26.82c13.85-17,38.27-19.95,54.53-6.67S491,260.42,477.14,277.38Z"/><polygon class="cls-1" points="417.64 283.04 425.25 289.26 452.75 291.76 409.01 256.04 417.64 283.04"/><rect class="cls-1" x="392.98" y="294.74" width="34.86" height="9.82" transform="translate(-81.29 427.95) rotate(-50.76)"/><path class="cls-1" d="M399.75,174.4a45.85,45.85,0,0,1-2,32L336.6,224.78a45.8,45.8,0,0,1-19.31-25.66c-7.12-23.75,5.56-48.54,28.33-55.37S392.63,150.65,399.75,174.4Z"/><polygon class="cls-2" points="367.33 233.79 377.98 230.6 397.77 206.39 336.53 224.75 367.33 233.79"/><rect class="cls-2" x="372.76" y="231.36" width="11.12" height="39.47" transform="translate(-56.18 119.24) rotate(-16.69)"/><path class="cls-1" d="M454,451.94a13.83,13.83,0,1,1-8.28-17.72A13.83,13.83,0,0,1,454,451.94Z"/><path class="cls-4" d="M481.08,311.8s1.28,1,1.5.94h0c-.51-.3-1-.61-1.5-.94Z"/><path class="cls-4" d="M492.92,317a17.13,17.13,0,0,0,2.46.6c.91.1,2.43.22,2.43.22h0a35.64,35.64,0,0,1-4.89-.82Z"/><path class="cls-4" d="M469.68,299.74a3.64,3.64,0,0,0,.35.71,2.26,2.26,0,0,0,.4.51h0c-.26-.4-.51-.81-.75-1.22Z"/><path class="cls-2" d="M195.7,482.57c-3.47-4.11-15.63-21.33-5.39-51.48a45.66,45.66,0,0,0-4.94,53.06A31.27,31.27,0,0,0,195.7,482.57Z"/><path class="cls-2" d="M197.36,482a53.25,53.25,0,0,0,15.37-9.41c-18.7-24.36-5.24-53.48-5.06-53.88a45.76,45.76,0,0,0-15.51,10.39C181.62,460.12,195,479,197.36,482Z"/><path class="cls-2" d="M213.93,471.55a76.71,76.71,0,0,0,9.88-10.6c-11.06-24.73,0-45.1.24-45.52a45.47,45.47,0,0,0-14.4,2.54C209.47,418.36,195.93,448,213.93,471.55Z"/><path class="cls-2" d="M238.93,465.13a80.56,80.56,0,0,0-13.83-3.24c-2.34,3.24-18,23.76-38.81,23.76a46,46,0,0,0,13.2,13.41C200.3,498.9,235.8,491.27,238.93,465.13Z"/><path class="cls-2" d="M254.59,473.22c-5.24,29.38-33.3,33-34.41,33.23,1.5.15,3,.23,4.55.23a45.57,45.57,0,0,0,38.34-20.89A23.53,23.53,0,0,0,254.59,473.22Z"/><path class="cls-2" d="M253.13,472.11a50.7,50.7,0,0,0-12.67-6.45c-3.5,27.13-38.75,34.47-39.12,34.57a45.35,45.35,0,0,0,12.8,5.21C218,505.48,245.74,504.42,253.13,472.11Z"/><path class="cls-2" d="M221.68,426.81a52.43,52.43,0,0,0-.88,17.49c31.1-4.78,46.11,13.39,49.53,18.27,0-.51,0-1,0-1.52a45.36,45.36,0,0,0-4.94-20.66C264.56,439.39,246.48,422.28,221.68,426.81Z"/><path class="cls-2" d="M221,445.87a55,55,0,0,0,4.26,14.44c4.15.53,33.26,4.77,38.79,23.87a45.28,45.28,0,0,0,6.1-18.95C269.78,464.27,255.53,440.57,221,445.87Z"/><path class="cls-2" d="M263,436.17a45.57,45.57,0,0,0-37.32-20.74,45,45,0,0,0-3.58,9.69C242.46,421.64,256.14,431.44,263,436.17Z"/><path class="cls-4" d="M192.16,429.09A5.36,5.36,0,0,0,191,430.2c-.94,1-.66.89-.66.89h0c.6-.68,1.21-1.35,1.85-2Z"/><path class="cls-4" d="M270.36,462.61l0,0c0,.89-.08,1.78-.17,2.66h0s.08-.43.19-1.32A3.37,3.37,0,0,0,270.36,462.61Z"/><path class="cls-4" d="M265.43,440.39a25.21,25.21,0,0,0-2.44-4.22h0a44.06,44.06,0,0,1,2.44,4.22Z"/><path class="cls-1" d="M419.52,533.28c-1,.41-5.69,2.1-14.48,2.1h0c-9.1,0-13.69-1.81-14.46-2.15a16.74,16.74,0,0,0,.22,17.53c1.22-.48,5.84-2,14.24-2h.13c8.24,0,12.77,1.49,14.13,2a16.69,16.69,0,0,0,.22-17.44Z"/><path class="cls-1" d="M405,533.58c7.62,0,12-1.33,13.46-1.84a16.8,16.8,0,0,0-26.89,0c1.23.47,5.59,1.88,13.43,1.88Z"/><path class="cls-1" d="M405,550.51c-7.28,0-11.61,1.24-13.16,1.78a16.79,16.79,0,0,0,26.35,0c-1.61-.56-5.87-1.74-13.06-1.74Z"/><path class="cls-2" d="M405,535.38c8.79,0,13.47-1.69,14.48-2.1a16.43,16.43,0,0,0-1-1.54c-1.41.51-5.84,1.84-13.46,1.84h0c-7.84,0-12.2-1.41-13.43-1.88a17.78,17.78,0,0,0-1,1.53c.77.34,5.36,2.15,14.46,2.15Z"/><path class="cls-2" d="M405,548.71c-8.4,0-13,1.57-14.24,2a18.3,18.3,0,0,0,1.08,1.53c1.55-.54,5.88-1.77,13.16-1.78h.13c7.19,0,11.45,1.18,13.06,1.74a16.13,16.13,0,0,0,1.07-1.53c-1.36-.53-5.89-2-14.13-2Z"/><circle class="cls-2" cx="407.51" cy="120.41" r="15.33"/><path class="cls-1" d="M398.83,133c7.79.59,11-4,13.72-8.06,2.54-3.74,4.86-7.65,10.06-7.26a8.72,8.72,0,0,1,.23,2.13c-3.95-.2-6.15,2.76-8.56,6.31-2.61,3.84-5.53,8.14-11.4,8.88A11.47,11.47,0,0,1,398.83,133Z"/><path class="cls-1" d="M392.21,121.33a10.25,10.25,0,0,1,.51-5c2.7-2.84,7-3.42,10.91-3.94,5.79-.78,9.46-1.47,9.92-6.1a8.06,8.06,0,0,1,1.81.92c-.79,6.62-6.33,6.57-11.45,7.25C399.36,115.1,393.92,115.8,392.21,121.33Z"/><circle class="cls-2" cx="483.66" cy="522.35" r="45.63"/><polygon class="cls-1" points="487.12 539.54 499.91 525.42 489.87 510.03 471.52 511.1 467.77 529.79 487.12 539.54"/><path class="cls-1" d="M508.08,560.89l0-4.3-16.52-4.48L479.5,564.23l2.17,3.7a40.28,40.28,0,0,0,13.92-1.32A38.26,38.26,0,0,0,508.08,560.89Z"/><path class="cls-1" d="M528.51,513.8l-4-1.63-10.31,13.66L521,541.57l4.37-.68a41.59,41.59,0,0,0,3.84-13.37A38,38,0,0,0,528.51,513.8Z"/><path class="cls-1" d="M438.11,525.6l3.43-2.58L455,533.64l-2.55,16.93-4.27.46a40.33,40.33,0,0,1-7.21-12A38,38,0,0,1,438.11,525.6Z"/><path class="cls-1" d="M463.89,481.22l3.59,2.18-4.86,16.41L446,503.75l-2.06-3.92a41.9,41.9,0,0,1,8.47-11A37.16,37.16,0,0,1,463.89,481.22Z"/><path class="cls-1" d="M515.5,489.56l-.84,4.2-17.09,1-9.36-14.34,2.88-3.17a40.22,40.22,0,0,1,13.36,4.14A37.88,37.88,0,0,1,515.5,489.56Z"/><path class="cls-1" d="M491.13,325.12c2.21.71,21.72,14.3,21.72,14.3s25,16.34,23.34,22.39c-.06,1.83-2.62,8.11-8.44,7.7-26.17-3.33-59.7-16.15-66.64-19.58-16.8-4.62-8.65-14.11-8.94-16,1.16-3.53,6.13-19.86,7-21.41a5.74,5.74,0,0,1,7.62-2.75S462.5,325.56,491.13,325.12Z"/><path class="cls-2" d="M490.44,311.9c2-1.54,8.69.49,10.52,1.7s-6.48,9.51-5.65,10.23l28.52,23.49c-8,9.49-36.45-22.46-36.45-22.46S486.58,315,490.44,311.9Z"/><path class="cls-2" d="M469.21,334.9a4.51,4.51,0,1,1-2.84-5.71A4.51,4.51,0,0,1,469.21,334.9Z"/><path class="cls-5" d="M536.19,361.81c-3.07,6.2-8.32,6.4-8.32,6.4-7.79.13-76.36-24.06-76.9-24.83-1.15-1.61.64-8,1.4-9.86-3.15-.81-6,11.77-4.35,13.53a28.47,28.47,0,0,0,4.8,2.09l-.3.81a1.86,1.86,0,0,0,1.09,2.39l.87.32a1.85,1.85,0,0,0,2.39-1.1l.3-.8c1.58.58,3.33,1.2,5.21,1.86l-.33,1a1.86,1.86,0,0,0,1.21,2.34l.88.28a1.87,1.87,0,0,0,2.34-1.21l.28-.9c11.15,3.86,25.39,8.54,37.5,12.17l-.43,1.29A1.84,1.84,0,0,0,505,370l.88.3a1.85,1.85,0,0,0,2.35-1.17l.49-1.46c1.63.48,3.19.92,4.7,1.33l-.44,1.32a1.86,1.86,0,0,0,1.17,2.35l.88.29a1.85,1.85,0,0,0,2.35-1.17l.54-1.59c1.4.36,2.7.68,3.89.95l-.33,1.56a1.87,1.87,0,0,0,1.45,2.2l.91.19a1.85,1.85,0,0,0,2.19-1.44l.35-1.64a14.29,14.29,0,0,0,1.92.16C535.39,372.57,537.47,362.54,536.19,361.81Z"/><path class="cls-6" d="M536.19,361.81,452.3,333.52c-3.12-.6-5.88,11.78-4.28,13.53a28.47,28.47,0,0,0,4.8,2.09l-.3.81a1.86,1.86,0,0,0,1.09,2.39l.87.32a1.85,1.85,0,0,0,2.39-1.1l.3-.8c1.58.58,3.33,1.2,5.21,1.86l-.33,1a1.86,1.86,0,0,0,1.21,2.34l.88.28a1.87,1.87,0,0,0,2.34-1.21l.28-.9c11.15,3.86,25.39,8.54,37.5,12.17l-.43,1.29A1.84,1.84,0,0,0,505,370l.88.3a1.85,1.85,0,0,0,2.35-1.17l.49-1.46c1.63.48,3.19.92,4.7,1.33l-.44,1.32a1.86,1.86,0,0,0,1.17,2.35l.88.29a1.85,1.85,0,0,0,2.35-1.17l.54-1.59c1.4.36,2.7.68,3.89.95l-.33,1.56a1.87,1.87,0,0,0,1.45,2.2l.91.19a1.85,1.85,0,0,0,2.19-1.44l.35-1.64a14.29,14.29,0,0,0,1.92.16C535.39,372.57,537.47,362.54,536.19,361.81Zm-84.57-26c.19-.67.38-1.27.55-1.75A6.58,6.58,0,0,1,451.62,335.81Zm-1,6.47a6.53,6.53,0,0,0,.38,1.13l0,0A2.31,2.31,0,0,1,450.63,342.28Z"/><polygon class="cls-1" points="486.75 356.85 492.12 359.07 500.79 346.88 494.82 344.5 486.75 356.85"/><polygon class="cls-1" points="479.74 352.54 485.11 354.76 495.92 339.1 489.95 336.72 479.74 352.54"/><path class="cls-2" d="M466.24,400.21a33.92,33.92,0,0,0-8.43,13.32L313.23,273.1l-2.5,2.5L459.82,427.94c5.88,5.88,18.3,3,27.73-6.43s12.31-21.84,6.42-27.73S475.68,390.78,466.24,400.21Z"/><rect class="cls-1" x="322.92" y="263.32" width="12.11" height="55.51" transform="translate(-109.47 317.88) rotate(-45)"/><path class="cls-7" d="M223.6,12.16l1.24,3.23,2.11-.82.63.51-2.49,1,2.17,5.65,5.38-2.07.54.54-5.67,2.18L229.68,28l7.76-3,.45.58-8,3.06,2.18,5.64,9.38-3.61.37.6-9.5,3.66,2.17,5.65,10.35-4,.31.63-10.41,4L237,46.86l10.7-4.11c.09.22.17.43.26.64h0l-10.7,4.13,2.17,5.64,10.46-4c.07.22.13.45.2.67l-10.41,4,2.17,5.65,9.63-3.71c0,.23.09.46.13.7l-9.51,3.66,2.17,5.64,8.15-3.13c0,.24,0,.48,0,.72l-7.94,3.06,2.17,5.65,5.93-2.29c0,.25,0,.51,0,.76L246.9,72.7l2.17,5.64,2.87-1.1-.12.79-2.5,1,1.49,3.87-.3,1.15-1.84-4.76L243,81.42l2.17,5.64,5-1.92c-.08.29-.18.57-.26.85l-4.47,1.72,1.8,4.7c-.08.26-.16.52-.25.79l-.1.21L244.8,88l-5.65,2.18,2.18,5.64,5.43-2.09-.5.94-4.68,1.8,1.33,3.48c-.16.22-.32.44-.49.65l-1.5-3.88-5.64,2.17,2.59,6.72-.56.5-2.68-7L229,101.28l3.3,8.58-.61.37-3.34-8.7-5.65,2.17,3.55,9.22-.33.13-.32.12L222,104l-5.65,2.17,3.35,8.7-.7.13-3.3-8.58-5.64,2.18,2.68,7H212l-2.58-6.72L203.8,111l1.5,3.88-.81-.16-1.34-3.47L198.46,113c-.33-.12-.67-.24-1-.37l5.43-2.09-2.17-5.65-5.65,2.17,2.1,5.46-.88-.35-1.87-4.85L190,109.07l-.76-.45,5-1.93L192,101.05l-5.65,2.17L188.2,108l-1-.65-1.49-3.87-2.49,1-.63-.5,2.87-1.11-2.17-5.64-5.66,2.18-.53-.55L183,96.53l-2.17-5.65-8,3.06-.45-.57,8.15-3.14-2.18-5.65-9.5,3.66c-.13-.19-.25-.4-.37-.6l9.62-3.7L176,78.29l-10.41,4c-.1-.21-.2-.42-.31-.63l10.47-4L173.6,72l-10.7,4.12h0c-.09-.21-.17-.43-.25-.65l10.7-4.11-2.17-5.65-10.41,4-.19-.67,10.34-4-2.17-5.64-9.5,3.65c-.05-.23-.09-.46-.13-.7l9.38-3.61-2.17-5.64-8,3.06c0-.25,0-.49-.05-.73l7.76-3-2.17-5.65L158.24,49c0-.25,0-.5,0-.76l5.37-2.07-2.17-5.64-2.49,1c0-.27.08-.53.14-.8l2.1-.81L160,36.64l.3-1.15,1.59,4.13,5.65-2.17-2.17-5.65-4.48,1.72c.09-.29.18-.57.28-.85l4-1.52-1.63-4.21.42-.85,1.86,4.81,5.64-2.17-2.17-5.65-4.7,1.81c.18-.32.35-.64.53-.95L169,22.43l-1.09-2.83.49-.65,1.25,3.23L175.27,20l-2.33-6.07.55-.5,2.43,6.32,5.65-2.18-3.06-7.93.61-.37,3.1,8,5.65-2.17-3.3-8.57.32-.13.33-.12,3.3,8.57,5.64-2.17-3.1-8,.7-.13,3.05,7.92,5.64-2.17L198,4h.74l2.34,6.06,5.64-2.17-1.24-3.23.8.15,1.1,2.83,3.9-1.51,1,.35-4.7,1.81,2.18,5.65,5.64-2.18L213.62,7l.88.35,1.62,4.21L220.06,10l.79.45-4.48,1.72,2.17,5.65,5.65-2.18-1.59-4.12c.34.21.67.43,1,.65Zm-37.49,90.41,5.65-2.17-2.18-5.65-5.64,2.18Zm-2.42-6.29,5.64-2.18-2.17-5.64-5.64,2.17ZM181.27,90l5.64-2.17-2.17-5.65-5.64,2.18Zm-2.43-6.29,5.65-2.18-2.17-5.64L176.68,78Zm-2.42-6.3,5.64-2.17-2.16-5.65-5.65,2.17ZM174,71.09l5.64-2.17-2.17-5.64-5.64,2.17Zm-2.42-6.29,5.64-2.18L175.05,57l-5.65,2.17Zm-2.43-6.3,5.65-2.17-2.18-5.64L167,52.86Zm-2.42-6.29L172.37,50l-2.17-5.64-5.64,2.17Zm-2.42-6.3L170,43.74l-2.17-5.64-5.65,2.17Zm30.52,60.54,5.65-2.18-2.17-5.64-5.65,2.17Zm-2.42-6.3L198.05,98l-2.17-5.65-5.65,2.17ZM190,93.86l5.64-2.18L193.46,86l-5.65,2.18Zm-2.43-6.3,5.65-2.18L191,79.74l-5.64,2.17Zm-2.42-6.3,5.64-2.17-2.17-5.64L183,75.62ZM182.72,75l5.64-2.18-2.17-5.64-5.64,2.17Zm-2.43-6.3,5.65-2.17-2.17-5.64L178.12,63Zm-2.42-6.3,5.65-2.17-2.17-5.64-5.65,2.17Zm-2.42-6.29,5.64-2.17-2.17-5.65-5.64,2.17ZM173,49.78l5.64-2.17L176.5,42l-5.65,2.17Zm-2.43-6.29,5.65-2.17-2.17-5.65-5.65,2.17Zm-2.42-6.3L173.82,35l-2.17-5.64L166,31.55Zm35.37,73.13,5.65-2.17L207,102.5l-5.64,2.17Zm-2.42-6.3,5.64-2.17L204.6,96.2,199,98.38Zm-2.43-6.29,5.65-2.18-2.17-5.64-5.65,2.17Zm-2.42-6.3,5.65-2.17-2.18-5.65-5.64,2.18Zm-2.42-6.3L199.5,83l-2.17-5.64-5.64,2.17Zm-2.43-6.29,5.65-2.17L194.91,71l-5.65,2.18ZM189,72.54l5.65-2.17-2.17-5.64-5.65,2.17Zm-2.42-6.29,5.64-2.17-2.17-5.65-5.64,2.17ZM184.17,60l5.64-2.17-2.17-5.64L182,54.31Zm-2.42-6.29,5.64-2.18-2.18-5.64L179.57,48Zm-2.43-6.3L185,45.19l-2.18-5.65-5.64,2.18Zm-2.42-6.29,5.64-2.18-2.17-5.64-5.64,2.17Zm-2.42-6.3,5.64-2.17L178,27l-5.65,2.18Zm-2.43-6.3,5.65-2.17-2.18-5.64-5.64,2.17Zm37.8,79.42,5.64-2.17-2.17-5.64-5.65,2.17Zm-2.43-6.29,5.65-2.18-2.17-5.64L205.25,96ZM205,95.3l5.65-2.17-2.18-5.64-5.64,2.17ZM202.58,89l5.64-2.18-2.17-5.64-5.65,2.17Zm-2.42-6.3,5.64-2.17-2.18-5.64L198,77.07Zm-2.43-6.29,5.65-2.18L201.2,68.6l-5.64,2.17Zm-2.42-6.3L201,68l-2.17-5.65-5.65,2.18Zm-2.43-6.3,5.65-2.17L196.35,56l-5.64,2.17Zm-2.42-6.29,5.64-2.17-2.17-5.65-5.64,2.17ZM188,51.23l5.64-2.17-2.17-5.64-5.64,2.17Zm-2.43-6.29,5.65-2.18-2.17-5.64-5.64,2.17Zm-2.42-6.3,5.64-2.17-2.16-5.64L181,33Zm-2.42-6.29,5.64-2.18-2.17-5.64-5.64,2.18Zm-2.42-6.3L184,23.88l-2.17-5.64-5.65,2.17Zm37.79,79.42,5.65-2.17-2.18-5.64L214,99.83Zm-2.42-6.3L219.37,97l-2.18-5.64-5.64,2.17Zm-2.42-6.29,5.64-2.17-2.17-5.65-5.65,2.18Zm-2.43-6.3,5.65-2.17-2.17-5.64-5.65,2.17Zm-2.42-6.29,5.64-2.17-2.17-5.65-5.64,2.17ZM204,74l5.64-2.17-2.17-5.64-5.65,2.17ZM201.6,67.7l5.65-2.17-2.17-5.65-5.65,2.17Zm-2.42-6.3,5.64-2.17-2.17-5.64L197,55.76Zm-2.42-6.3,5.64-2.17-2.17-5.64-5.65,2.17Zm-2.43-6.29L200,46.64,197.81,41l-5.65,2.17Zm-2.42-6.3,5.64-2.17-2.17-5.64-5.64,2.17Zm-2.42-6.29,5.64-2.17L193,28.4l-5.64,2.18Zm-2.42-6.29,5.64-2.18-2.17-5.64-5.65,2.17Zm-2.42-6.3,5.64-2.17-2.18-5.65L182.47,18Zm37.79,79.42,5.64-2.17-2.17-5.65-5.65,2.17ZM220,96.75l5.64-2.17-2.17-5.64-5.65,2.17Zm-2.43-6.29,5.65-2.18-2.17-5.64-5.65,2.17Zm-2.42-6.3L220.81,82l-2.17-5.65L213,78.51Zm-2.42-6.29,5.64-2.18-2.17-5.64-5.65,2.17Zm-2.43-6.3L216,69.4l-2.18-5.65-5.64,2.18Zm-2.42-6.3,5.64-2.16-2.17-5.65-5.64,2.17ZM205.47,59l5.65-2.17L209,51.16l-5.65,2.18Zm-2.42-6.3,5.65-2.17-2.18-5.64L200.88,47Zm-2.42-6.29,5.64-2.17-2.17-5.65-5.64,2.17Zm-2.42-6.3,5.64-2.17-2.17-5.64L196,34.45Zm-2.43-6.29,5.65-2.18L199.26,26l-5.65,2.17Zm-2.42-6.3L199,25.33l-2.17-5.65-5.64,2.18Zm-2.42-6.29L196.58,19l-2.17-5.64-5.64,2.17Zm37.79,79.41,5.65-2.17-2.17-5.64L226.56,95Zm-2.42-6.29L232,92.16l-2.18-5.65-5.64,2.17ZM223.89,88l5.64-2.17-2.17-5.64-5.64,2.17Zm-2.43-6.29,5.65-2.18-2.17-5.64-5.65,2.17ZM219,75.44l5.65-2.17-2.18-5.64-5.64,2.17Zm-2.42-6.29L222.26,67l-2.17-5.65-5.64,2.17Zm-2.43-6.3,5.65-2.17L217.67,55,212,57.21Zm-2.42-6.3,5.65-2.17-2.18-5.64-5.64,2.17Zm-2.42-6.29L215,48.09l-2.17-5.65-5.64,2.18ZM206.93,44l5.64-2.17-2.17-5.64-5.64,2.17Zm-2.43-6.29,5.65-2.17L208,29.85,202.33,32Zm-2.42-6.29,5.64-2.18-2.17-5.65-5.64,2.18Zm-2.42-6.3,5.64-2.17-2.17-5.65-5.64,2.17Zm-2.43-6.3,5.65-2.17L200.71,11l-5.65,2.18ZM235,98.2,240.67,96l-2.17-5.64-5.64,2.17Zm-2.42-6.29,5.64-2.18-2.17-5.64-5.65,2.17Zm-2.43-6.3,5.65-2.17-2.17-5.64L228,80Zm-2.42-6.3,5.64-2.17-2.17-5.64-5.64,2.17ZM225.34,73,231,70.85l-2.17-5.65-5.65,2.18Zm-2.42-6.3,5.64-2.17-2.17-5.64-5.65,2.17Zm-2.43-6.29,5.65-2.17L224,52.61l-5.64,2.18Zm-2.42-6.3L223.71,52l-2.17-5.64-5.65,2.17Zm-2.43-6.29,5.65-2.17L219.12,40l-5.65,2.17Zm-2.42-6.3,5.65-2.17-2.18-5.65-5.64,2.18Zm-2.42-6.29,5.64-2.18-2.17-5.64-5.64,2.17ZM208.38,29,214,26.78l-2.17-5.65-5.64,2.18ZM206,22.65l5.64-2.17-2.16-5.64L203.78,17Zm-2.42-6.29,5.64-2.18L207,8.54l-5.64,2.17ZM238.9,89.48l5.64-2.17-2.16-5.64-5.65,2.17Zm-2.42-6.29L242.12,81,240,75.37l-5.64,2.17Zm-2.42-6.3,5.64-2.17-2.17-5.64-5.65,2.17Zm-2.43-6.29,5.65-2.17-2.17-5.65L229.46,65Zm-2.42-6.3,5.64-2.17-2.17-5.65L227,58.66ZM226.79,58l5.64-2.18-2.17-5.64-5.65,2.17Zm-2.43-6.3L230,49.54l-2.17-5.65-5.65,2.18Zm-2.42-6.29,5.64-2.18-2.17-5.64-5.64,2.17Zm-2.42-6.3L225.16,37,223,31.3l-5.65,2.17Zm-2.43-6.3,5.65-2.17L220.57,25l-5.65,2.17Zm-2.42-6.29,5.64-2.18-2.17-5.64-5.64,2.17Zm-2.42-6.3,5.64-2.17-2.17-5.65-5.64,2.18Zm30.53,60.53,5.64-2.17L246.25,73l-5.65,2.17Zm-2.43-6.29L246,72.3l-2.18-5.65-5.64,2.18Zm-2.42-6.3L243.57,66l-2.17-5.64-5.64,2.17Zm-2.42-6.29,5.64-2.17L239,54.06l-5.65,2.17Zm-2.43-6.3,5.65-2.17-2.18-5.65-5.64,2.18Zm-2.42-6.29,5.65-2.18-2.18-5.64-5.64,2.17ZM228.24,43l5.64-2.17-2.17-5.65-5.65,2.18Zm-2.43-6.3,5.65-2.17-2.18-5.64-5.64,2.17Zm-2.42-6.29L229,28.23l-2.18-5.65-5.64,2.18ZM221,24.1l5.65-2.17-2.17-5.64-5.65,2.17Z"/><path class="cls-7" d="M194.87,110.72s0,.06-.05.12c-13.24-6-25-18.39-31.38-34.94C152.26,46.85,162,16.07,185.15,7.14s51,7.41,62.21,36.46c6.38,16.58,5.95,33.71.11,47-.21,0-.33,0-.31,0-.22.7-.46,1.42-.69,2.17-4.49,9-11.58,16-20.82,19.59-9.65,3.72-20.11,3-29.83-1.09-.33-.18-.64-.36-.95-.55Zm44-.72a49.59,49.59,0,0,1-11.51,6.86,41.6,41.6,0,0,1-12.8,2.62c-2.18.11-5.56.1-2.05,3.23,8.54,7.61,19.55,21,26.68,31.57,3.29,5.31,5.7,4.13,5-1.73-1.55-12.57-2.74-29.57-2.08-40.89.21-3.7-1.58-2.88-3.22-1.66ZM183.42,2.65c25.16-9.69,55.39,8,67.53,39.57,6.76,17.57,6.48,35.73.55,50-5.33,17-10.23,50.29-.18,76.4l-7.21,2.77c-10.59-27.52-38.59-49.19-53.78-58a0,0,0,0,1,0,0c-12.89-7-24.13-19.69-30.46-36.14-12.14-31.54-1.59-64.95,23.56-74.63Z"/><path class="cls-7" d="M238.89,110a49.59,49.59,0,0,1-11.51,6.86,41.6,41.6,0,0,1-12.8,2.62c-2.18.11-5.56.1-2.05,3.23,8.54,7.61,19.55,21,26.68,31.57,3.29,5.31,5.7,4.13,5-1.73-1.55-12.57-2.74-29.57-2.08-40.89.21-3.7-1.58-2.88-3.22-1.66Zm17-44.45a62.43,62.43,0,0,1-4.41,26.7c-5.33,17-10.23,50.29-.18,76.4l-7.21,2.77c-10.59-27.52-38.59-49.19-53.78-58a0,0,0,0,1,0,0,63.4,63.4,0,0,1-18.51-15.51l3.92-1.5a56.76,56.76,0,0,0,19.09,14.43c.06-.06.08-.09.05-.12.31.19.62.37.95.55,9.72,4.14,20.18,4.81,29.83,1.09,9.24-3.55,16.33-10.58,20.82-19.59.23-.75.47-1.47.69-2.17,0,.06.1.06.31,0A56.64,56.64,0,0,0,252,67.05Z"/><path class="cls-8" d="M276.78,223.56l-.1-.24a2.4,2.4,0,0,0-2.07-1.23l-20.75-53.92c-.22-.59-.94-1.36-1.54-1.13l-2.21.85h0l-5.18,2-2.23.85a1.38,1.38,0,0,0-.73,1.54l20.91,54.32a2.41,2.41,0,0,0-.71,2.31l.26.68c-3.66,2.85-5.56,6.08-4.58,8.5,1.5,3.71,9.19,4.1,17.18.87s13.26-8.86,11.76-12.57C285.76,223.84,281.77,222.86,276.78,223.56Z"/><path class="cls-1" d="M142.45,493.5,97,476.86,102.56,507h0L82.86,560.79A8.61,8.61,0,0,0,88,571.84h0a8.62,8.62,0,0,0,11-5.12l19.73-53.83h0Z"/><path class="cls-1" d="M162.17,444,114,426.31l35.85-97.81h0A62.88,62.88,0,0,1,198,346.16h0Z"/><path class="cls-9" d="M142.2,498.46h0A66.74,66.74,0,0,1,94,480.8h0l52.55-143.36h0a66.18,66.18,0,0,1,48.18,17.66h0Z"/><path class="cls-9" d="M146.57,337.44h0L94,480.8a66.8,66.8,0,0,0,22.33,13.65l56.09-153A66.17,66.17,0,0,0,146.57,337.44Z"/><path class="cls-1" d="M126.51,478.14l-7.38-2.71,15.5-42.3a3.94,3.94,0,0,1,5.05-2.34h0a3.94,3.94,0,0,1,2.34,5Z"/><path class="cls-2" d="M303.39,433.43h0a24.83,24.83,0,0,0-13.71,32.32l36.14,89.41a2.85,2.85,0,0,0,3.72,1.57l8.35-3.37a1.86,1.86,0,0,0,1.06-2.29c-2.51-7.79-.48-15.46,4.87-17.63s12.14,1.95,15.75,9.29a1.86,1.86,0,0,0,2.35.92l8.35-3.38a2.85,2.85,0,0,0,1.58-3.72l-36.14-89.41A24.83,24.83,0,0,0,303.39,433.43Z"/><path class="cls-1" d="M340.05,523.71c-9.4,3.8-12.55,18-7,31.62l5-2a1.83,1.83,0,0,0,1-2.26c-2.52-7.79-.49-15.48,4.87-17.65s12.15,2,15.76,9.31a1.83,1.83,0,0,0,2.32.91l5-2C361.57,527.89,349.46,519.9,340.05,523.71Z"/><path class="cls-1" d="M288.73,450l42.82,105.93,1.76-.71-43.65-108A24.34,24.34,0,0,0,288.73,450Z"/><path class="cls-1" d="M294.63,439.43,338,546.75a18.17,18.17,0,0,1,.07-4.9L296.09,438C295.58,438.45,295.09,438.93,294.63,439.43Z"/><path class="cls-1" d="M303.39,433.43h0l-.87.38L343,533.86a6.84,6.84,0,0,1,.86-.42c.3-.12.6-.21.9-.3l-40.44-100Z"/><path class="cls-1" d="M311.81,431.63l42,103.87a18.64,18.64,0,0,1,3.46,3.47L313.86,431.65C313.18,431.62,312.5,431.61,311.81,431.63Z"/><path class="cls-1" d="M322.85,433.8l43.65,108,1.76-.71L325.44,435.15A24.45,24.45,0,0,0,322.85,433.8Z"/><rect class="cls-1" x="286.94" y="460.74" width="60.68" height="14.1" rx="3.29" transform="translate(-152.19 153) rotate(-22.01)"/><path class="cls-2" d="M364.81,370.63h0a24.82,24.82,0,0,0-19.43,29.24l19,94.54a2.87,2.87,0,0,0,3.37,2.24l8.83-1.78a1.85,1.85,0,0,0,1.46-2.06c-1-8.12,2.38-15.28,8-16.42s11.57,4.15,13.77,12a1.83,1.83,0,0,0,2.14,1.33l8.83-1.77a2.85,2.85,0,0,0,2.23-3.37l-19-94.54A24.84,24.84,0,0,0,364.81,370.63Z"/><path class="cls-1" d="M384.19,466.12c-9.94,2-15.65,15.34-12.75,29.79l5.34-1.08a1.83,1.83,0,0,0,1.44-2c-1-8.12,2.37-15.3,8-16.44s11.59,4.16,13.78,12.05a1.82,1.82,0,0,0,2.11,1.32l5.33-1.08C404.57,474.21,394.14,464.12,384.19,466.12Z"/><path class="cls-1" d="M347.35,384.2l22.54,112,1.87-.38-23-114.19A24.38,24.38,0,0,0,347.35,384.2Z"/><path class="cls-1" d="M355.09,374.91l22.84,113.48a19.1,19.1,0,0,1,1-4.8L356.8,373.76C356.21,374.12,355.64,374.51,355.09,374.91Z"/><path class="cls-1" d="M364.81,370.63h0l-.92.22,21.29,105.78a8.85,8.85,0,0,1,.92-.24,6.07,6.07,0,0,1,.94-.13L365.75,370.47Z"/><path class="cls-1" d="M373.42,370.42l22.1,109.83a18.47,18.47,0,0,1,2.75,4.05L375.43,370.82C374.77,370.66,374.1,370.52,373.42,370.42Z"/><path class="cls-1" d="M383.87,374.59l23,114.19,1.86-.38-22.54-112A23.35,23.35,0,0,0,383.87,374.59Z"/><rect class="cls-1" x="341.79" y="399.92" width="60.68" height="14.1" rx="3.29" transform="translate(-72.98 81.43) rotate(-11.38)"/><path class="cls-1" d="M346.18,339a4.83,4.83,0,0,0-1.3-6.08,144.67,144.67,0,0,0-19.57-13h0a47.21,47.21,0,0,0-.76,12.13,53.1,53.1,0,0,0,9.05,26.7h0A144.21,144.21,0,0,0,346.18,339Z"/><path class="cls-1" d="M239.92,350.11a47,47,0,0,0-5.68-10.83h0a114.58,114.58,0,0,0-12.08,20,4.8,4.8,0,0,0,1.21,5.68,114.22,114.22,0,0,0,19.16,13.31h0A53.1,53.1,0,0,0,239.92,350.11Z"/><path class="cls-1" d="M322.22,332.13a47.28,47.28,0,0,1,.9-13,2.6,2.6,0,0,1,.1-.25c-43.22-22.34-71.81-1.3-87.56,18.59a1.34,1.34,0,0,1,.25.23A46.85,46.85,0,0,1,242,349.2a55.48,55.48,0,0,1,2.7,29.78,1.11,1.11,0,0,1-.16.39c22.5,11.75,57.17,19.32,87.55-18.7a1.14,1.14,0,0,1-.24-.25A55.42,55.42,0,0,1,322.22,332.13Zm-23.14.39a1.17,1.17,0,0,1-.78-.18,1.13,1.13,0,0,1-.5-.73l-1.1-5.17h0l-3.51.74v0l1.1,5.16a1.2,1.2,0,0,1-.95,1.46,1.15,1.15,0,0,1-.78-.17,1.13,1.13,0,0,1-.5-.73l-1.12-5.24h0l-3.52.75s0,0,0,0l1.11,5.23a1.21,1.21,0,0,1-1,1.47,1.12,1.12,0,0,1-.78-.18,1.18,1.18,0,0,1-.5-.72l-1.13-5.32a0,0,0,0,0,0,0l-3.51.75s0,0,0,0l1.13,5.32a1.2,1.2,0,0,1-.8,1.42,1.14,1.14,0,0,1-.94-.14,1.16,1.16,0,0,1-.5-.73l-1.15-5.39h0l-3.51.75h0l1.15,5.4a1.2,1.2,0,0,1-.8,1.42,1.18,1.18,0,0,1-.94-.14,1.13,1.13,0,0,1-.5-.73l-1.17-5.47h0l-3.51.75s0,0,0,0l1.17,5.47a1.19,1.19,0,0,1-.8,1.41,1.15,1.15,0,0,1-1.44-.86l-1.18-5.54h0l-3.51.74s0,0,0,0l1.18,5.53a1.2,1.2,0,0,1-1,1.46,1.17,1.17,0,0,1-.78-.17,1.2,1.2,0,0,1-.5-.73L262,333.84h0l-4.8,1a1.11,1.11,0,0,1-.86-.16,1.15,1.15,0,0,1-.48-.64,1.2,1.2,0,0,1,.95-1.47l4.71-1h0l-1-4.68a1.17,1.17,0,0,1,.53-1.28,1.16,1.16,0,0,1,1.71.76l1,4.72h0l3.51-.75h0l-1-4.76a1.18,1.18,0,0,1,.53-1.28,1.15,1.15,0,0,1,1.71.76l1,4.8h0l3.51-.75h0l-1-4.84a1.17,1.17,0,0,1,.53-1.27,1.16,1.16,0,0,1,1.72.75l1,4.88h0l3.51-.74v0L277.8,323a1.18,1.18,0,0,1,.54-1.28,1.16,1.16,0,0,1,1.71.76l1.05,4.94h0l3.51-.75h0l-1.06-5a1.18,1.18,0,0,1,.53-1.28,1.16,1.16,0,0,1,1.71.76l1.07,5a0,0,0,0,0,0,0l3.52-.75s0,0,0,0l-1.07-5a1.17,1.17,0,0,1,.53-1.28,1.15,1.15,0,0,1,1.71.75l1.09,5.1h0l3.51-.75h0L295.12,319a1.15,1.15,0,1,1,2.25-.52l1.1,5.17h0l4.13-.87a1.19,1.19,0,0,1,1.43.82,1.16,1.16,0,0,1-.88,1.42L299,326h0l1.09,5.09A1.22,1.22,0,0,1,299.08,332.52Z"/><path class="cls-1" d="M267.76,535.67l-.14.35a.3.3,0,0,1-.29.2l-.11,0a.3.3,0,0,1-.17-.4l.19-.49-.49-.31-.23.59a.29.29,0,0,1-.17.17l-.12,0-.11,0h0a.33.33,0,0,1-.18-.17.31.31,0,0,1,0-.23l.27-.69a15.37,15.37,0,0,0-1.92-.91,16.87,16.87,0,0,0-2-.64l-.27.69a.32.32,0,0,1-.29.2l-.11,0a.31.31,0,0,1-.18-.4l.23-.6-.57-.1-.19.49a.3.3,0,0,1-.16.17.28.28,0,0,1-.13,0l-.11,0a.27.27,0,0,1-.17-.16.33.33,0,0,1,0-.24l.13-.35a15.41,15.41,0,0,0-10.86,27.75l.14-.36a.3.3,0,0,1,.16-.17.33.33,0,0,1,.24,0,.31.31,0,0,1,.17.17.33.33,0,0,1,0,.24l-.2.49.49.31.23-.6a.32.32,0,0,1,.41-.17.31.31,0,0,1,.17.4l-.27.69a16.93,16.93,0,0,0,1.92.91,15.18,15.18,0,0,0,2,.63l.27-.69a.31.31,0,0,1,.17-.17.31.31,0,0,1,.23,0,.35.35,0,0,1,.18.16.33.33,0,0,1,0,.24l-.23.59.57.11.19-.49a.31.31,0,1,1,.58.22l-.14.36a15.41,15.41,0,0,0,10.86-27.75Zm-2.93,2.54.55-1.42a.31.31,0,0,1,.4-.18.32.32,0,0,1,.18.4l-.56,1.43a.33.33,0,0,1-.16.17.27.27,0,0,1-.13,0,.23.23,0,0,1-.11,0,.3.3,0,0,1-.17-.16A.33.33,0,0,1,264.83,538.21Zm-1.12,2.85.56-1.43a.37.37,0,0,1,.16-.17.33.33,0,0,1,.24,0,.3.3,0,0,1,.17.4l-.55,1.42a.29.29,0,0,1-.17.17l-.12,0-.11,0h0a.29.29,0,0,1-.17-.17A.27.27,0,0,1,263.71,541.06Zm-1.11,2.84.55-1.42a.32.32,0,0,1,.4-.18.33.33,0,0,1,.18.41l-.56,1.42a.27.27,0,0,1-.16.17.28.28,0,0,1-.13,0l-.11,0a.31.31,0,0,1-.17-.17A.33.33,0,0,1,262.6,543.9Zm-.56,1.43a.31.31,0,1,1,.58.22l-.56,1.43a.35.35,0,0,1-.17.17l-.12,0a.2.2,0,0,1-.11,0,.3.3,0,0,1-.17-.16.29.29,0,0,1,0-.24Zm-2.83-4.39-.55,1.42a.29.29,0,0,1-.17.17l-.12,0-.12,0a.32.32,0,0,1-.17-.41l.56-1.42a.27.27,0,0,1,.16-.17.33.33,0,0,1,.24,0A.31.31,0,0,1,259.21,540.94Zm0-1.65.56-1.42a.35.35,0,0,1,.16-.18.33.33,0,0,1,.24,0,.31.31,0,0,1,.18.4l-.56,1.42a.31.31,0,0,1-.29.2l-.11,0A.31.31,0,0,1,259.19,539.29Zm-1.1,4.26a.27.27,0,0,1,0,.23l-.56,1.43a.3.3,0,0,1-.29.19.22.22,0,0,1-.11,0,.31.31,0,0,1-.18-.4l.56-1.42a.3.3,0,0,1,.16-.17.29.29,0,0,1,.24,0A.29.29,0,0,1,258.09,543.55ZM257,546.39a.33.33,0,0,1,0,.24l-.55,1.42a.29.29,0,0,1-.17.17l-.12,0-.11,0a.31.31,0,0,1-.18-.4l.56-1.43a.3.3,0,0,1,.4-.17A.3.3,0,0,1,257,546.39Zm0,11.74.56-1.42a.29.29,0,0,1,.17-.17.36.36,0,0,1,.23,0,.31.31,0,0,1,.17.17.29.29,0,0,1,0,.24l-.56,1.42a.31.31,0,0,1-.29.2.23.23,0,0,1-.11,0A.31.31,0,0,1,257,558.13Zm1.12-2.61a.31.31,0,0,1,0-.23l.56-1.43a.31.31,0,1,1,.57.23l-.55,1.42a.29.29,0,0,1-.17.17.27.27,0,0,1-.12,0l-.12,0A.35.35,0,0,1,258.14,555.52Zm1.12-2.84a.29.29,0,0,1,0-.24l.56-1.42a.3.3,0,0,1,.16-.17.3.3,0,0,1,.41.16.27.27,0,0,1,0,.23l-.56,1.43a.31.31,0,0,1-.29.19.22.22,0,0,1-.11,0A.3.3,0,0,1,259.26,552.68Zm1.11-3.08.55-1.43a.31.31,0,0,1,.17-.17.33.33,0,0,1,.24,0,.31.31,0,0,1,.17.4l-.56,1.42a.27.27,0,0,1-.16.17l-.12,0-.12,0h0A.31.31,0,0,1,260.37,549.6Zm.49-14.58a.29.29,0,0,1,.17-.17.33.33,0,0,1,.24,0,.35.35,0,0,1,.17.17.33.33,0,0,1,0,.24l-.56,1.42a.3.3,0,0,1-.29.2l-.11,0h0a.3.3,0,0,1-.17-.4Zm-1.66,1,.56-1.42a.31.31,0,1,1,.58.22l-.56,1.43a.35.35,0,0,1-.17.17l-.12,0a.2.2,0,0,1-.11,0,.3.3,0,0,1-.17-.16A.29.29,0,0,1,259.2,536Zm-1.11,2.85.55-1.43a.31.31,0,0,1,.58.23l-.56,1.42a.27.27,0,0,1-.16.17l-.12,0-.12,0a.29.29,0,0,1-.17-.17A.31.31,0,0,1,258.09,538.86ZM257,541.7l.56-1.42a.3.3,0,0,1,.16-.17.29.29,0,0,1,.24,0,.31.31,0,0,1,.18.4l-.56,1.43a.37.37,0,0,1-.16.17.3.3,0,0,1-.13,0,.2.2,0,0,1-.11,0,.3.3,0,0,1-.17-.16A.29.29,0,0,1,257,541.7Zm-1.11,2.85.55-1.43a.33.33,0,0,1,.41-.17.31.31,0,0,1,.17.4l-.56,1.42a.27.27,0,0,1-.16.17l-.12,0-.12,0a.35.35,0,0,1-.17-.17A.31.31,0,0,1,255.86,544.55Zm-1.12,2.84.56-1.42a.31.31,0,0,1,.4-.18.33.33,0,0,1,.18.41l-.56,1.42a.3.3,0,0,1-.16.17.31.31,0,0,1-.13,0,.23.23,0,0,1-.11,0,.27.27,0,0,1-.17-.16A.29.29,0,0,1,254.74,547.39Zm-1.11,2.85.56-1.42a.27.27,0,0,1,.16-.17.29.29,0,0,1,.24,0,.3.3,0,0,1,.17.4l-.55,1.43a.35.35,0,0,1-.17.17l-.12,0a.25.25,0,0,1-.12,0h0A.31.31,0,0,1,253.63,550.24Zm-1.12,2.85.56-1.43a.31.31,0,0,1,.17-.17.31.31,0,0,1,.23,0,.3.3,0,0,1,.17.16.29.29,0,0,1,0,.24l-.56,1.42a.31.31,0,0,1-.29.2l-.11,0A.32.32,0,0,1,252.51,553.09Zm-1.11,2.84.56-1.42a.3.3,0,0,1,.16-.17.3.3,0,0,1,.41.16.31.31,0,0,1,0,.23l-.55,1.43a.31.31,0,0,1-.29.19.2.2,0,0,1-.11,0h0A.31.31,0,0,1,251.4,555.93Zm-.54,3.07a.29.29,0,0,1-.29.2l-.11,0a.3.3,0,0,1-.17-.4l.55-1.43a.35.35,0,0,1,.17-.17.31.31,0,0,1,.23,0,.35.35,0,0,1,.18.16.33.33,0,0,1,0,.24Zm1.67-1-.56,1.43a.35.35,0,0,1-.17.17l-.12,0a.2.2,0,0,1-.11,0,.3.3,0,0,1-.17-.16.29.29,0,0,1,0-.24l.56-1.42a.31.31,0,1,1,.58.22Zm1.11-2.84-.56,1.42a.27.27,0,0,1-.16.17l-.12,0-.12,0a.29.29,0,0,1-.17-.17.33.33,0,0,1,0-.24l.55-1.42a.31.31,0,0,1,.58.23Zm1.12-2.85-.56,1.42a.29.29,0,0,1-.17.17l-.12,0-.11,0h0a.3.3,0,0,1-.17-.16.29.29,0,0,1,0-.24l.56-1.42a.31.31,0,0,1,.58.22Zm.55-1.42a.3.3,0,0,1-.16.17.28.28,0,0,1-.13,0l-.11,0a.27.27,0,0,1-.17-.16.33.33,0,0,1,0-.24l.55-1.42a.32.32,0,0,1,.4-.18.33.33,0,0,1,.18.41Zm1.18,10.31a.31.31,0,0,1-.29.19.2.2,0,0,1-.11,0,.35.35,0,0,1-.18-.16.33.33,0,0,1,0-.24l.56-1.42a.31.31,0,0,1,.4-.18.29.29,0,0,1,.17.17.31.31,0,0,1,0,.23Zm1.66-1-.56,1.43a.31.31,0,0,1-.29.2l-.11,0h0a.27.27,0,0,1-.17-.16.33.33,0,0,1,0-.24l.55-1.42a.31.31,0,1,1,.58.22Zm1.11-2.84-.55,1.42a.29.29,0,0,1-.17.17l-.12,0-.11,0a.29.29,0,0,1-.17-.17.27.27,0,0,1,0-.23l.56-1.43a.31.31,0,0,1,.4-.17A.3.3,0,0,1,259.26,557.37Zm1.12-2.85-.56,1.43a.3.3,0,0,1-.29.19.23.23,0,0,1-.11,0h0a.3.3,0,0,1-.17-.16.29.29,0,0,1,0-.24l.55-1.42a.31.31,0,0,1,.4-.18.29.29,0,0,1,.17.17A.27.27,0,0,1,260.38,554.52Zm1.11-2.84-.55,1.42a.32.32,0,0,1-.29.2l-.12,0h0a.35.35,0,0,1-.17-.17.33.33,0,0,1,0-.24l.56-1.42a.31.31,0,0,1,.57,0A.33.33,0,0,1,261.49,551.68Zm1.12-2.85-.56,1.42a.3.3,0,0,1-.29.2l-.11,0h0a.3.3,0,0,1-.17-.16.33.33,0,0,1,0-.24l.56-1.42a.31.31,0,0,1,.4-.18.3.3,0,0,1,.17.16A.29.29,0,0,1,262.61,548.83Zm1.11-2.84-.56,1.42a.3.3,0,0,1-.28.2l-.12,0a.31.31,0,0,1-.17-.4l.56-1.42a.31.31,0,0,1,.4-.18.35.35,0,0,1,.17.17A.33.33,0,0,1,263.72,546Zm1.12-2.85-.56,1.42a.32.32,0,0,1-.29.2l-.11,0h0a.29.29,0,0,1-.17-.17.27.27,0,0,1,0-.23l.56-1.43a.31.31,0,0,1,.4-.17.3.3,0,0,1,.17.16A.33.33,0,0,1,264.84,543.14Zm1.11-2.85-.56,1.43a.3.3,0,0,1-.29.19.23.23,0,0,1-.11,0,.3.3,0,0,1-.17-.4l.55-1.42a.33.33,0,0,1,.41-.18.35.35,0,0,1,.17.17A.31.31,0,0,1,266,540.29Zm1.12-2.84-.56,1.42a.32.32,0,0,1-.29.2l-.11,0a.33.33,0,0,1-.18-.41l.56-1.42a.3.3,0,0,1,.16-.17.33.33,0,0,1,.24,0,.27.27,0,0,1,.17.16A.33.33,0,0,1,267.07,537.45Z"/><path class="cls-2" d="M252.57,563.7h0a.88.88,0,0,1-.5-1.14L263.64,533a.88.88,0,0,1,1.14-.5h0a.88.88,0,0,1,.5,1.14L253.71,563.2A.87.87,0,0,1,252.57,563.7Z"/><path class="cls-8" d="M520.44,66.56a3.45,3.45,0,0,1-1.57,2.33s-5.37,3.69-14.39.44A160.68,160.68,0,0,1,488,62.93s-13.87-6.13-25.12-7.41c0,0-15-2.43-22.8-6,0,0-9.17-4-10.58-5.28a1.61,1.61,0,0,1-.43-1.67s.49-1.3.05-1.34c0,0-.24-.28-.78.85,0,0-.65,1.35-1.7.73A12.39,12.39,0,0,1,422.22,39s-.32-.36.27-1.71c0,0,.23-.48-.11-.55,0,0-.23-.16-.6.58,0,0-.5,1.24-1.19.88a9.25,9.25,0,0,1-3.35-4,2,2,0,0,1-.15-1.66s.4-.87.12-1c0,0-.24-.12-.54.48,0,0-.52.75-.9.31a9.06,9.06,0,0,1-2.67-4.65,1.51,1.51,0,0,1,.18-1.07s.08-.54-.14-.25c0,0-.42,1-.57.73a12,12,0,0,1-1.32-7.42s.09-1.29.53-1.5c0,0,.56,11.24,17.79,21.14,0,0,13.92,8.39,29.73,8.74,0,0,16.76,1,27.54,5.53,0,0,10.38,4.18,13.4,6.44,0,0,12.5,7.29,19.51,1.61a1.5,1.5,0,0,1,.75,1.57Z"/><path class="cls-7" d="M521.21,56.56s.49,2.14-1.46,5.07c-7,5.68-19.51-1.61-19.51-1.61-3-2.26-13.4-6.44-13.4-6.44-10.78-4.5-27.54-5.53-27.54-5.53-15.81-.35-29.73-8.74-29.73-8.74-17.23-9.9-17.79-21.14-17.79-21.14s.87-4.61,2.79-4.27c0,0-1.13,2.85.64,7.09,0,0,3.5,8.14,15.4,13.94,0,0,16.17,10,30,9.07,0,0,13.59-1.52,25.56,3.69,0,0,11.87,5,20.83,9.63,0,0,10.79,4.22,14.25-.76Z"/><path class="cls-8" d="M523.86,41.44a78.22,78.22,0,0,1-2.65,15.12c-3.46,5-14.25.76-14.25.76-9-4.62-20.83-9.63-20.83-9.63-12-5.21-25.56-3.69-25.56-3.69-13.79.88-30-9.07-30-9.07-11.9-5.8-15.4-13.94-15.4-13.94-1.77-4.24-.64-7.09-.64-7.09s2.22-1.81,3.66-1.41l3.48,1A108.56,108.56,0,0,1,437.44,17s5.57.06,8.86.19c0,0-3.84,1.89,2.86,7.74l-.31-1.76,3.86-1.09.39,1.41,4.18-1-.2-1,4.15-.94.33,1.34,3.13-.71L464.42,20l3.9-.94.31,1.29,3.12-.8-.21-1,3.74-.88.31,1.17,5.71-1.28-.23-1,4.25-1,.81,3.08,1.3-.43a2.26,2.26,0,0,1,2.52,1s5.45,7.92,8.34,10.76c0,0,5.92,6.51,11,8.57,0,0,4.72,2,7,1.4a24.52,24.52,0,0,0,10.93-4.68h0a32.52,32.52,0,0,1-2,4.12,6.08,6.08,0,0,1-1.29,2Z"/><path class="cls-10" d="M422.05,13.57A108.76,108.76,0,0,1,437.44,17s4.1.05,7.34.14a4.81,4.81,0,0,1-.27,1.8c-1.37,3.87-7.47,5.24-13.62,3.06-4.85-1.72-8.28-5.14-8.84-8.41Z"/><path class="cls-11" d="M523.68,43.55a75.85,75.85,0,0,1-2.47,13c-3.46,5-14.25.76-14.25.76l-1.41-.72h0c2.79-8.13,7.94-13.52,18.13-13.05Z"/><path class="cls-7" d="M527.32,32.16s1,.1-.14,3.13h0A24.52,24.52,0,0,1,516.25,40c-2.24.57-7-1.4-7-1.4-5.08-2.06-11-8.57-11-8.57C495.4,27.16,490,19.24,490,19.24a2.26,2.26,0,0,0-2.52-1l-1.3.43-.81-3.08-4.25,1,.23,1-5.71,1.28-.31-1.17-3.74.88.21,1-3.12.8L468.32,19l-3.9.94.27,1.16-3.13.71-.33-1.34-4.15.94.2,1-4.18,1-.39-1.41-3.86,1.09.31,1.76c-6.7-5.85-2.86-7.74-2.86-7.74.92,0,1.65.07,2,.12l20.34-2.62s4.88-1.58,6.5-1.34c0,0,4.7-4.18,7.14-3.66l7.53-2.83s1.3-3.19,3.45-1.83c0,0,2.63-.26,1.56,2.76,0,0-.95,6.52-.67,7.39,0,0,2.22,1.63.13,4.2a23.93,23.93,0,0,0,7.73,11.89s8.54,6.76,13.59,4.23c0,0,7.65-7.71,9.57-6.44,0,0,3,.74,2.11,3.12Z"/><path class="cls-8" d="M455.22,16.72a1.36,1.36,0,0,0-1.56-.55s-2.71,1.55-.56,8.21c0,0,.66-5.62,2.12-7.66Z"/><path class="cls-8" d="M463.82,15.21a1.35,1.35,0,0,0-1.56-.56s-2.71,1.55-.56,8.21c0,0,.67-5.62,2.12-7.65Z"/><path class="cls-8" d="M470.85,13.92a1.37,1.37,0,0,0-1.57-.55s-2.71,1.55-.56,8.21c0,0,.67-5.62,2.13-7.66Z"/><path class="cls-8" d="M477.63,11.63a1.37,1.37,0,0,0-1.57-.56s-2.71,1.55-.56,8.22c0,0,.67-5.63,2.13-7.66Z"/><path class="cls-8" d="M483.45,9.32a1.37,1.37,0,0,0-1.57-.55s-2.71,1.55-.56,8.21c0,0,.67-5.62,2.13-7.66Z"/><path class="cls-7" d="M28.59,422.72a1.76,1.76,0,0,1-1.38,2.07l-13,2.61a1.76,1.76,0,1,1-.69-3.45l13-2.61a1.77,1.77,0,0,1,2.08,1.38Z"/><path class="cls-8" d="M54.55,475l-.78-3.46c-4.11-3.38-6.89-7.15-7.63-10.14l0-.06-.06-.24L10.5,468.24l0,.24v.07c.46,2.95-.56,7.31-2.88,11.87l.6,3.73c0,.18.05.36.09.55l10.26,51L22.9,557a8,8,0,0,0,6.38,6.27,7.75,7.75,0,0,0,1.87.11,66.13,66.13,0,0,0,11.68-.54q2.55-.33,5.16-.85a70,70,0,0,0,16.07-5.23,8.13,8.13,0,0,0,1.67-.83,8,8,0,0,0,3.47-8.25l-3.79-18.79-.5-2.52-10.26-51c0-.14-.06-.27-.1-.4Z"/><path class="cls-8" d="M46,437.48a6,6,0,0,0-7.13-4.67L6.92,439.24a6,6,0,0,0-4.77,7.06l1.16,7.2,44.31-8.92.57,2.83L3.8,456.34l-.17-.83,1,6.44,44.85-9Z"/><polygon class="cls-12" points="3.23 453.51 3.63 455.51 3.31 453.5 3.23 453.51"/><polygon class="cls-13" points="28.29 432.2 28.26 432.2 26.71 424.49 14.4 426.96 15.96 434.75 6.31 439.57 17.63 437.29 28 435.21 39.31 432.93 28.29 432.2"/><polygon class="cls-13" points="48.33 448.12 47.47 443.86 3.17 452.78 3.69 455.8 3.94 457.05 48.33 448.12"/><path class="cls-13" d="M46.07,460.47a5,5,0,0,1,.49-2.55l0,0a14.47,14.47,0,0,1,3-4.63l-.26-1.15-44.85,9,.26,1.53a14,14,0,0,1,4,2.83l0,0a5,5,0,0,1,1.44,2.16,5.72,5.72,0,0,1,.4,1.38l35.56-7.16a6.14,6.14,0,0,1-.15-1.43Z"/><path class="cls-1" d="M96,47.73,81.88,53.28,71.73,27.48A7.58,7.58,0,0,1,76,17.65h0a7.57,7.57,0,0,1,9.82,4.28Z"/><rect class="cls-14" x="82.36" y="64.34" width="39.42" height="30.36" transform="translate(-11.6 141.34) rotate(-66.46)"/><path class="cls-14" d="M113.73,90.76l-5.62,12.9-22-9.57,5.62-12.9A12,12,0,0,1,107.53,75h0A12,12,0,0,1,113.73,90.76Z"/><path class="cls-14" d="M30.81,24h0a5.49,5.49,0,0,0,2.84,7.23l25.9,11.28a2,2,0,0,1,1,2.62h0a2,2,0,0,1-2.62,1L23.38,31.09a5.66,5.66,0,0,0-7.21,2.27,5.49,5.49,0,0,0,2.61,7.71L53.57,56.23a2,2,0,0,1,1,2.62h0a2,2,0,0,1-2.62,1L23.34,47.4a5.65,5.65,0,0,0-7.21,2.26,5.49,5.49,0,0,0,2.6,7.71L47.6,70a2,2,0,0,1,1,2.62h0a2,2,0,0,1-2.62,1L22.76,63.47a5.65,5.65,0,0,0-7.21,2.26,5.49,5.49,0,0,0,2.6,7.71l25.3,11,11.66,5.08,21,9.14a7.39,7.39,0,0,0,9.73-3.82l16.41-37.69a7.38,7.38,0,0,0-3.82-9.72l-21-9.14L65.76,33.23,38,21.16A5.49,5.49,0,0,0,30.81,24Z"/><rect class="cls-1" x="50.82" y="59.51" width="34.03" height="10.2" rx="5.1" transform="translate(-18.49 101) rotate(-66.46)"/><path class="cls-1" d="M90.69,61.57,81.17,83.42a5.09,5.09,0,0,1-6.71,2.63h0a5.09,5.09,0,0,1-2.64-6.71l9.52-21.85a5.09,5.09,0,0,1,6.71-2.63h0A5.1,5.1,0,0,1,90.69,61.57Z"/><path class="cls-15" d="M104.37,58,87.86,95.89a1.13,1.13,0,0,1-1.49.58h0A1.13,1.13,0,0,1,85.79,95L102.3,57.07a1.13,1.13,0,0,1,1.49-.58h0A1.12,1.12,0,0,1,104.37,58Z"/><rect class="cls-15" x="27.17" y="72.77" width="10.98" height="2.01" transform="translate(-48.02 74.26) rotate(-66.46)"/><rect class="cls-15" x="44.2" y="31.15" width="10.98" height="2.01" transform="translate(0.37 64.88) rotate(-66.46)"/><rect class="cls-15" x="30.4" y="57.81" width="10.98" height="2.01" transform="matrix(0.4, -0.92, 0.92, 0.4, -32.36, 68.23)"/><rect class="cls-15" x="34.52" y="43.32" width="10.98" height="2.01" transform="translate(-16.61 63.3) rotate(-66.46)"/></g></g></svg>