<svg xmlns="http://www.w3.org/2000/svg" viewBox="0 0 583.31 515.5"><defs><style>.cls-1{fill:#fff;}.cls-2{fill:#010101;}</style></defs><g id="Layer_2" data-name="Layer 2"><g id="Layer_1-2" data-name="Layer 1"><path class="cls-1" d="M64.62,329.72V302.07H37.32L36,300.68V234.75a3.39,3.39,0,0,0-3.39-3.39H3.38a3.39,3.39,0,0,0-3.12,4.69l20.37,48.58L.26,333.23a3.39,3.39,0,0,0,3.12,4.69H64.62a3.38,3.38,0,0,0,2.4-5.76Z"/><path class="cls-1" d="M562.68,284.63l20.37-48.58a3.38,3.38,0,0,0-3.12-4.69H550.75a3.38,3.38,0,0,0-3.38,3.39v65.93L546,302.07h-27.3v27.65l-2.4,2.44a3.38,3.38,0,0,0,2.4,5.76h61.24a3.39,3.39,0,0,0,3.12-4.69Z"/><path class="cls-2" d="M502.59,116.93,307.61,4.36a32.72,32.72,0,0,0-32.63,0L80,116.93a32.71,32.71,0,0,0-16.31,28.25V370.32A32.71,32.71,0,0,0,80,398.57L275,511.14a32.71,32.71,0,0,0,32.63,0l195-112.57a32.71,32.71,0,0,0,16.31-28.25V145.18A32.71,32.71,0,0,0,502.59,116.93Z"/><path class="cls-1" d="M541.74,207.86H41.58a9,9,0,0,0-9,9v99.49a9,9,0,0,0,9,9H541.74a9,9,0,0,0,9-9V216.87A9,9,0,0,0,541.74,207.86Z"/><path class="cls-1" d="M139.73,157.05a1.17,1.17,0,0,1-.65,1.75l-5.46,2.65,10.27,20.69a1.15,1.15,0,0,1-.56,1.7l-7.7,3.95a1.12,1.12,0,0,1-1.7-.61l-10.16-21-6.3,3.06a1.13,1.13,0,0,1-1.71-.61L113,163a1.11,1.11,0,0,1,.58-1.69l21.62-10.49a1.16,1.16,0,0,1,1.76.56Z"/><path class="cls-1" d="M175.47,152.82a18.54,18.54,0,0,1,.44,12.84,14.06,14.06,0,0,1-8.61,9.19q-7.47,2.85-13.5-.13-5.87-2.91-8.74-10.4a19.15,19.15,0,0,1-.35-13.95,16,16,0,0,1,9.82-9.65q6.5-2.49,12.74,1.65A21.21,21.21,0,0,1,175.47,152.82Zm-9.79,4a8.49,8.49,0,0,0-3-3.92,4.8,4.8,0,0,0-4.67-.75,4.74,4.74,0,0,0-2.94,3.69,8.38,8.38,0,0,0,.42,4.88,8.29,8.29,0,0,0,2.95,3.89,4.73,4.73,0,0,0,4.65.78,4.81,4.81,0,0,0,3-3.67A8.42,8.42,0,0,0,165.68,156.85Z"/><path class="cls-1" d="M210.9,154.87a1.28,1.28,0,0,1-.08,1,10.67,10.67,0,0,1-4.36,4.32,22.53,22.53,0,0,1-5.75,2.53q-7.68,2.12-13.65-1.11T179,150.7q-2.59-9.4,2.52-16.22,4.6-6.15,14.29-8.82c1-.28,1.67-.09,2,.55s.73,1.53,1.33,2.74a37.52,37.52,0,0,1,2.17,4.83c.37,1.32.11,2.1-.77,2.34-.21.06-.54.14-1,.22l-1,.22a14.48,14.48,0,0,0-7.1,3.92,7.63,7.63,0,0,0-1.59,7.63q1.69,6.18,6.88,4.75a9.83,9.83,0,0,0,1.8-.69l-.83-2.63-2.16.8c-1.55.42-2.47.11-2.76-1-.08-.29-.21-.72-.38-1.29s-.3-1-.37-1.26c-.5-1.8-.33-2.84.52-3.14l12.12-4.26a1.13,1.13,0,0,1,1.64.84Z"/><path class="cls-1" d="M239,151.92a1.1,1.1,0,0,1-1,1.47l-21.52,4a1.11,1.11,0,0,1-1.45-1l-5.74-31.21a1.11,1.11,0,0,1,1-1.49l21.52-4c.8-.15,1.28.2,1.43,1l1.15,6.25a1.1,1.1,0,0,1-1,1.47l-11.89,2.19.72,3.9,9.28-1.71a1.11,1.11,0,0,1,1.45,1l1.16,6.27a1.11,1.11,0,0,1-1,1.47l-9.29,1.71.64,3.51,11.91-2.19c.79-.15,1.27.2,1.42,1Z"/><path class="cls-1" d="M266.14,126.05a1.17,1.17,0,0,1-1.21,1.42l-6,.62L261.44,151a1.14,1.14,0,0,1-1.1,1.41l-8.6,1.07a1.12,1.12,0,0,1-1.39-1.16L248,129.19l-7,.71a1.13,1.13,0,0,1-1.4-1.15l-.65-6.33a1.13,1.13,0,0,1,1.14-1.39L264,118.6c.89-.09,1.38.29,1.46,1.13Z"/><path class="cls-1" d="M299.36,116.43l.21,31.37a1.12,1.12,0,0,1-1.2,1.27l-8.41.46c-.84.05-1.28-.37-1.31-1.24l-.15-9.71-6.27.1.06,9.4a1.13,1.13,0,0,1-1.16,1.26l-6.7.63q-3,0-3.06-1.41l-.51-31.72a1.14,1.14,0,0,1,1.27-1.31l8.76-.09a1.1,1.1,0,0,1,1.23,1.27l.07,13,6.16-.1-.2-13a1.14,1.14,0,0,1,1.26-1.31l8.67-.09A1.14,1.14,0,0,1,299.36,116.43Z"/><path class="cls-1" d="M328.3,150a1.1,1.1,0,0,1-1.3,1.18l-21.82-1.52a1.12,1.12,0,0,1-1.16-1.35l2.21-31.65q.09-1.29,1.32-1.2L329.38,117c.81.06,1.19.52,1.13,1.38l-.44,6.34a1.1,1.1,0,0,1-1.31,1.18L316.69,125l-.27,4,9.42.66A1.1,1.1,0,0,1,327,131l-.44,6.36a1.11,1.11,0,0,1-1.33,1.18l-9.42-.65-.25,3.55,12.07.84a1.11,1.11,0,0,1,1.13,1.37Z"/><path class="cls-1" d="M359.56,155.94a1.13,1.13,0,0,1-1.4,1.07l-9.11-1a1.24,1.24,0,0,1-1-.71l-4.09-7.73c-.07.41-.14,1-.22,1.84s-.15,1.44-.21,1.85q-.47,3-1.86,2.91l-2.4-.14a44.49,44.49,0,0,1-4.91-.3c-1.79-.28-2.63-.89-2.49-1.84l4.86-32.3a1.24,1.24,0,0,1,1.11-1.06q1.83-.36,7.71.55,10,1.55,13.55,7.16a12.3,12.3,0,0,1,1.81,8.77,13.18,13.18,0,0,1-6.88,9.87l5.4,10.25A1.34,1.34,0,0,1,359.56,155.94Zm-9.79-21.24c.31-2-.67-3.42-3-4.18l-1.27,7.59Q349.29,137.75,349.77,134.7Z"/><path class="cls-1" d="M413,139.27c-.23.78-.74,2.23-1.52,4.34a1.18,1.18,0,0,1-1.63.84l-11.41-3.57-1.18,3.79,9,2.79c.89.29,1.06,1.38.49,3.27-.08.29-.61,1.76-1.56,4.4a1.16,1.16,0,0,1-1.59.85l-9.13-2.83-3.2,10.69a1.11,1.11,0,0,1-1.57.85l-8.14-2.48a1.11,1.11,0,0,1-.83-1.57l9.34-30.32a1.11,1.11,0,0,1,1.54-.89l20.94,6.49C413.48,136.19,413.63,137.3,413,139.27Z"/><path class="cls-1" d="M440.91,166a18.53,18.53,0,0,1-8.35,9.76,14,14,0,0,1-12.56,1q-7.42-2.94-9.86-9.22-2.37-6.11.58-13.57a19.13,19.13,0,0,1,9.17-10.52,16.06,16.06,0,0,1,13.76-.48q6.47,2.56,8.28,9.83A21.21,21.21,0,0,1,440.91,166Zm-10-3.64a8.32,8.32,0,0,0,.45-4.91,4.79,4.79,0,0,0-2.93-3.71,4.73,4.73,0,0,0-4.66.73,8.5,8.5,0,0,0-3,3.88,8.4,8.4,0,0,0-.45,4.86,4.72,4.72,0,0,0,2.9,3.72,4.79,4.79,0,0,0,4.67-.7A8.34,8.34,0,0,0,431,162.32Z"/><path class="cls-1" d="M463.53,194.33a1.12,1.12,0,0,1-1.66.57l-8.34-3.8a1.27,1.27,0,0,1-.75-1l-1.47-8.63c-.19.37-.45.93-.78,1.69s-.59,1.31-.78,1.68c-.91,1.78-1.8,2.5-2.67,2.18l-2.24-.88a45.71,45.71,0,0,1-4.57-1.83c-1.61-.82-2.21-1.67-1.79-2.52l14.74-29.15a1.24,1.24,0,0,1,1.39-.66q1.84.22,7.15,2.93,9,4.59,10.62,11.05a12.33,12.33,0,0,1-1,8.9,13.16,13.16,0,0,1-9.63,7.21l1.92,11.43A1.39,1.39,0,0,1,463.53,194.33Zm-2.64-23.24q1.41-2.75-1.49-4.9L455.8,173C458.26,173.56,460,172.92,460.89,171.09Z"/><path class="cls-1" d="M293.56,44.81l2.19,6a2.4,2.4,0,0,0,1.44,1.43l6,2.19a2.41,2.41,0,0,1,0,4.53l-6,2.19a2.39,2.39,0,0,0-1.44,1.44l-2.19,6a2.41,2.41,0,0,1-4.53,0l-2.19-6a2.39,2.39,0,0,0-1.44-1.44l-6-2.19a2.41,2.41,0,0,1,0-4.53l6-2.19a2.4,2.4,0,0,0,1.44-1.43l2.19-6A2.41,2.41,0,0,1,293.56,44.81Z"/><path class="cls-2" d="M175.2,239.94a3,3,0,0,1-.68,2l-12.84,15a2.76,2.76,0,0,1-2.2,1.07q-.18,0-7.27-4.12t-13.15-4.12c-2.3,0-3.45.58-3.45,1.75,0,.72,1.66,1.71,5,3q17.56,6.9,22.14,9.83,11.75,7.62,11.75,19.49,0,13.67-10.73,20.1-8.62,5.19-23.24,5.2a43.29,43.29,0,0,1-17.44-3.9q-9.42-4.19-14.33-10.56a3.07,3.07,0,0,1-.74-2,2.77,2.77,0,0,1,.74-2l12.7-14.46a3,3,0,0,1,2.32-1q.28,0,7.57,4.1t12.08,4.09c2.79,0,4.18-.71,4.18-2.15,0-.9-1.65-1.92-5-3q-4.52-1.35-13.44-4.4Q108.73,266,108.73,249q0-10.95,11.8-18.58a40.18,40.18,0,0,1,22.08-6.72,44.08,44.08,0,0,1,17.51,3.84q9.44,4,14.4,10.5A3.17,3.17,0,0,1,175.2,239.94Z"/><path class="cls-2" d="M248.93,254.8q0,14.56-11,23.66-10,8.25-25.08,9.15V288c0,1.09.06,2.72.17,4.88s.17,3.78.17,4.83q0,7.45-3.33,8c-1.21.12-3,.3-5.37.57q-10,1.23-12.37,1.24-6.56,0-6.61-3.33l-.33-80.71c0-2,1-3,3.05-3a198.77,198.77,0,0,1,26.6,1.53q16.83,2.25,24.73,8.92Q248.93,238.7,248.93,254.8Zm-24.29,1.92q0-9.66-11.24-10.4l-.22,19.77Q224.64,264.46,224.64,256.72Z"/><path class="cls-2" d="M332.26,268.52q0,16.61-9.89,28.69-10.61,13-26.77,13-18.86,0-29.65-11.69-10.5-11.36-10.5-30.33,0-18.59,11-31.06,11.46-13,29.82-13,16.44,0,26.72,14.4Q332.26,251.46,332.26,268.52Zm-25,.62A19.81,19.81,0,0,0,304,258q-3.78-5.59-9.66-5.59T284.7,258a20.74,20.74,0,0,0,0,22.2q3.74,5.66,9.6,5.65t9.66-5.59A19.75,19.75,0,0,0,307.24,269.14Z"/><path class="cls-2" d="M408.7,304.16a2.66,2.66,0,0,1-2.88,3l-21.64,1a2.92,2.92,0,0,1-2.65-1.3l-12.37-16.55c0,1,.06,2.44.17,4.38s.17,3.41.17,4.38q0,7.07-3.28,7.46l-5.64.56A108.25,108.25,0,0,1,349,308.11q-6.44,0-6.5-3.38l-.33-77.16a2.9,2.9,0,0,1,2.2-2.88q4.13-1.51,18.18-1.52,23.83,0,34.23,11.8a29.08,29.08,0,0,1,7.4,19.83q0,15.65-12.48,25.52l16.32,22A3.26,3.26,0,0,1,408.7,304.16Zm-30.56-46q0-7.29-8.41-8.7l-.23,18.19Q378.14,265.41,378.14,258.13Z"/><path class="cls-2" d="M472.88,247.12c0,2-1.06,3-3.16,3H455.37l.51,54.55a2.71,2.71,0,0,1-2.94,3l-20.44.45q-3,.06-3-3.05v-55H413c-2,0-3-1-3-3v-15c0-2,1-3,3-3h56.76c2.1,0,3.16,1,3.16,3Z"/><path class="cls-1" d="M289,443.63l-32.83,23a4,4,0,0,1-6.06-4.4l11.75-38.34a4,4,0,0,0-1.4-4.33l-32.05-24.11a4,4,0,0,1,2.32-7.12l40.09-.67a4,4,0,0,0,3.68-2.67l13-37.93a4,4,0,0,1,7.49,0l13,37.93a4,4,0,0,0,3.68,2.67l40.1.67a4,4,0,0,1,2.31,7.12l-32.05,24.11a4,4,0,0,0-1.4,4.33l11.75,38.34a4,4,0,0,1-6.06,4.4l-32.83-23A4,4,0,0,0,289,443.63Z"/></g></g></svg>