<svg xmlns="http://www.w3.org/2000/svg" viewBox="0 0 646.4 620.37"><defs><style>.cls-1,.cls-3,.cls-5{fill:#fff;}.cls-2{fill:#010101;}.cls-3,.cls-5{stroke:#fff;stroke-miterlimit:10;}.cls-3{stroke-width:0.6px;}.cls-4{fill:#2b2c2b;}.cls-5{stroke-width:1.55px;}</style></defs><g id="Layer_2" data-name="Layer 2"><g id="Layer_1-2" data-name="Layer 1"><path class="cls-1" d="M612.83,194.38,542.24,79.63a35.26,35.26,0,0,0-13-12.3l-47-25.84a37.34,37.34,0,0,0-6.63-2.83L371.35,6.55a36.41,36.41,0,0,0-7.17-1.42l-52.67-5A34.87,34.87,0,0,0,293.82,3.1L171.56,58.34a2.11,2.11,0,0,0-1,2.86l37.56,71a2,2,0,0,0,2.8.87l59.92-31.7L202,324.81,436.47,397l68.8-223.36,33,60.31a2,2,0,0,0,2.8.86l71-37.56A2.11,2.11,0,0,0,612.83,194.38Z"/><path class="cls-1" d="M542.22,79.72a35.29,35.29,0,0,0-13-12.3l-47-25.84a37.34,37.34,0,0,0-6.63-2.83L423.44,22.69,319.22,361l117.22,36.11,68.83-223.45,33,60.31a2,2,0,0,0,2.8.86l71-37.56a2.1,2.1,0,0,0,.8-2.91Z"/><path class="cls-2" d="M423.35,22.67,478.9,39.78,405.62,90.46a3.91,3.91,0,0,1-5.86-1.8l-32-83.11Z"/><rect class="cls-2" x="526.51" y="196.01" width="84.63" height="10.76" transform="translate(-28.15 289.35) rotate(-27.88)"/><polygon class="cls-2" points="218.69 129.04 228.13 124.05 188.6 49.18 179.14 54.26 218.69 129.04"/><circle class="cls-2" cx="452.89" cy="159.13" r="27.17" transform="translate(104.85 489.72) rotate(-62.89)"/><rect class="cls-2" x="123.25" y="210.42" width="233.81" height="7.83" transform="translate(-35.38 380.74) rotate(-72.88)"/><rect class="cls-2" x="350.12" y="280.31" width="233.81" height="7.83" transform="translate(57.9 646.87) rotate(-72.88)"/><path class="cls-2" d="M182.08,426l61.6,117.13a5.39,5.39,0,0,0,6.67,2.55l95.23-37.32a5.41,5.41,0,0,0,3-7.14L251.23,283,36.33,367.44,111,594.17a5.42,5.42,0,0,0,7,3.22l95.23-37.31a5.32,5.32,0,0,0,3.16-6.41Z"/><polygon class="cls-1" points="240.49 287.44 232.94 290.4 334.88 512.31 342.53 509.32 240.49 287.44"/><polygon class="cls-1" points="44.76 364.14 52.4 361.14 128.26 593.28 120.71 596.24 44.76 364.14"/><circle class="cls-1" cx="151.38" cy="520.88" r="25"/><path class="cls-2" d="M257.6,294.9,39.47,380.37c-2,.79-5.12-2.2-6.85-6.6l-2.7-6.9c-1.72-4.4-1.48-8.7.54-9.49l218.22-85.51c2-.79,5.11,2.2,6.84,6.6l2.7,6.9C259.86,289.81,259.62,294.1,257.6,294.9Z"/><path class="cls-2" d="M247.17,272.68,138.68,315.2,147.61,338,256.1,295.48c2.9-1.13,3.25-7.24.77-13.56S250.07,271.55,247.17,272.68Z"/><rect class="cls-2" x="36.55" y="354.92" width="6.13" height="24.48" transform="translate(-131.22 39.76) rotate(-21.4)"/><rect class="cls-2" x="45.33" y="351.48" width="6.13" height="24.48" transform="translate(-129.36 42.73) rotate(-21.4)"/><rect class="cls-2" x="54.03" y="348.07" width="6.13" height="24.48" transform="translate(-127.52 45.66) rotate(-21.4)"/><rect class="cls-2" x="62.81" y="344.63" width="6.13" height="24.48" transform="translate(-125.66 48.63) rotate(-21.4)"/><rect class="cls-2" x="71.6" y="341.19" width="6.13" height="24.48" transform="translate(-123.79 51.6) rotate(-21.4)"/><rect class="cls-2" x="80.29" y="337.78" width="6.13" height="24.48" transform="translate(-121.95 54.54) rotate(-21.4)"/><rect class="cls-2" x="89.08" y="334.34" width="6.13" height="24.48" transform="translate(-120.09 57.51) rotate(-21.4)"/><rect class="cls-2" x="97.78" y="330.93" width="6.13" height="24.48" transform="translate(-118.25 60.44) rotate(-21.4)"/><rect class="cls-2" x="106.56" y="327.48" width="6.13" height="24.48" transform="translate(-116.39 63.41) rotate(-21.4)"/><rect class="cls-2" x="115.26" y="324.08" width="6.13" height="24.48" transform="translate(-114.54 66.35) rotate(-21.4)"/><rect class="cls-2" x="124.04" y="320.63" width="6.13" height="24.48" transform="translate(-112.68 69.32) rotate(-21.4)"/><rect class="cls-2" x="132.74" y="317.23" width="6.13" height="24.48" transform="translate(-110.84 72.26) rotate(-21.4)"/><rect class="cls-2" x="141.53" y="313.78" width="6.13" height="24.48" transform="translate(-108.98 75.22) rotate(-21.4)"/><rect class="cls-2" x="150.22" y="310.38" width="6.13" height="24.48" transform="translate(-107.14 78.16) rotate(-21.4)"/><rect class="cls-2" x="159.01" y="306.93" width="6.13" height="24.48" transform="translate(-105.27 81.13) rotate(-21.4)"/><rect class="cls-2" x="167.71" y="303.53" width="6.13" height="24.48" transform="translate(-103.43 84.07) rotate(-21.4)"/><rect class="cls-2" x="176.49" y="300.08" width="6.13" height="24.48" transform="translate(-101.57 87.03) rotate(-21.4)"/><rect class="cls-2" x="185.19" y="296.68" width="6.13" height="24.48" transform="translate(-99.73 89.97) rotate(-21.4)"/><rect class="cls-2" x="193.97" y="293.23" width="6.13" height="24.48" transform="translate(-97.87 92.94) rotate(-21.4)"/><rect class="cls-2" x="202.67" y="289.83" width="6.13" height="24.48" transform="translate(-96.02 95.88) rotate(-21.4)"/><rect class="cls-2" x="211.45" y="286.38" width="6.13" height="24.48" transform="translate(-94.16 98.85) rotate(-21.4)"/><rect class="cls-2" x="220.15" y="282.98" width="6.13" height="24.48" transform="translate(-92.32 101.78) rotate(-21.4)"/><rect class="cls-2" x="228.94" y="279.53" width="6.13" height="24.48" transform="translate(-90.46 104.75) rotate(-21.4)"/><rect class="cls-2" x="237.72" y="276.09" width="6.13" height="24.48" transform="translate(-88.6 107.72) rotate(-21.4)"/><rect class="cls-2" x="237.72" y="276.09" width="6.13" height="24.48" transform="translate(-88.6 107.72) rotate(-21.4)"/><rect class="cls-2" x="246.42" y="272.68" width="6.13" height="24.48" transform="translate(-86.75 110.66) rotate(-21.4)"/><rect class="cls-3" x="10.84" y="62.14" width="33.36" height="48.5" transform="translate(-42.18 28.4) rotate(-32.57)"/><rect class="cls-2" x="4.99" y="74.76" width="33.36" height="4.92" transform="translate(-38.16 23.81) rotate(-32.57)"/><rect class="cls-2" x="10.86" y="83.96" width="33.36" height="4.92" transform="translate(-42.19 28.42) rotate(-32.57)"/><rect class="cls-2" x="16.78" y="93.22" width="33.36" height="4.92" transform="translate(-46.25 33.06) rotate(-32.57)"/><path class="cls-3" d="M125.43,187.41a20.62,20.62,0,0,0-5.09-5.41,58.68,58.68,0,0,1-15.12-16.24L63.14,99.89A6.32,6.32,0,0,0,54.44,98L26.91,115.55A6.33,6.33,0,0,0,25,124.26l47.58,74.48a32.65,32.65,0,0,1,4.37,24.84l-10.57,48,.1,0a22.5,22.5,0,0,0,44,9.68h0L128,201.73l-.08-.13A18.33,18.33,0,0,0,125.43,187.41Z"/><path class="cls-2" d="M67.11,268.72h0l-.64,2.87.11,0a22.5,22.5,0,0,0,43.94,9.69h0l1.53-6.9C101.59,261.74,82.26,259,67.11,268.72Z"/><rect class="cls-3" x="83.7" y="43.37" width="33.36" height="48.5" transform="translate(-20.62 64.67) rotate(-32.57)"/><rect class="cls-2" x="77.84" y="55.99" width="33.36" height="4.92" transform="translate(-16.6 60.07) rotate(-32.57)"/><rect class="cls-2" x="83.72" y="65.19" width="33.36" height="4.92" transform="translate(-20.63 64.68) rotate(-32.57)"/><rect class="cls-2" x="89.63" y="74.45" width="33.36" height="4.92" transform="translate(-24.69 69.32) rotate(-32.57)"/><path class="cls-3" d="M198.29,168.65a20.5,20.5,0,0,0-5.1-5.41A58.88,58.88,0,0,1,178.07,147L136,81.12a6.32,6.32,0,0,0-8.7-1.92L99.76,96.78a6.34,6.34,0,0,0-1.92,8.71L145.42,180a32.64,32.64,0,0,1,4.38,24.84l-10.58,48,.11,0a22.5,22.5,0,0,0,43.94,9.69h0L200.86,183l-.08-.13A18.29,18.29,0,0,0,198.29,168.65Z"/><path class="cls-2" d="M140,250h0l-.63,2.87.11,0a22.5,22.5,0,0,0,43.94,9.69h0l1.52-6.9C174.45,243,155.12,240.27,140,250Z"/><path class="cls-2" d="M439.42,512.3c4.36-2.91,56-18.22,56-18.22s64.25-21.14,72.59-9.65c3.16,2.69,10.66,16.09,1.71,25.83-42.89,41.58-113,82.8-128.86,90.24-31.91,23.19-37.2-4.65-40.95-6.8-4.6-7-26.47-38.92-27.94-42.7-5-12.22,5.91-17.37,5.91-17.37S399.71,563.59,439.42,512.3Z"/><path class="cls-1" d="M415,494.83c.09-5.69,13.14-14.69,17.86-16.21s7.68,24.9,10.13,24.45l81.89-17.25c5.44,27.6-91.28,32.75-91.28,32.75S415.09,506.07,415,494.83Z"/><path class="cls-1" d="M425.72,564.91a10.22,10.22,0,1,1-14.13-3A10.22,10.22,0,0,1,425.72,564.91Z"/><path class="cls-4" d="M568,484.43c6.64,14.18-.43,23.76-.43,23.76-10.78,14-150.51,101.11-152.65,101-4.46-.25-13.18-12.4-15.46-16.42-5.88,4.42,12.4,27.2,17.8,26.83.8-.06,4.61-2.1,10.47-5.54l1,1.67a4.2,4.2,0,0,0,5.78,1.44l1.8-1.08a4.21,4.21,0,0,0,1.44-5.78l-1-1.66c3.26-2,6.83-4.19,10.65-6.57l1.36,2a4.22,4.22,0,0,0,5.84,1.16l1.75-1.17a4.19,4.19,0,0,0,1.16-5.83l-1.19-1.79c22.58-14.26,51-32.85,74.54-49.16l1.68,2.61a4.2,4.2,0,0,0,5.82,1.24l1.77-1.14a4.21,4.21,0,0,0,1.25-5.82l-1.89-2.92c3.15-2.22,6.13-4.36,9-6.43l1.7,2.63a4.2,4.2,0,0,0,5.82,1.25l1.77-1.14a4.21,4.21,0,0,0,1.25-5.82L557,528.59q3.93-3,7.18-5.56l2.31,2.79a4.22,4.22,0,0,0,5.93.56L574,525a4.22,4.22,0,0,0,.56-5.93l-2.43-2.93a31.27,31.27,0,0,0,3-3.18C585.93,501,571.13,483.2,568,484.43Z"/><path class="cls-5" d="M568,484.43,399.37,592.88c-5.47,4.67,12.54,27.07,17.9,26.71.8-.06,4.61-2.1,10.47-5.54l1,1.67a4.2,4.2,0,0,0,5.78,1.44l1.8-1.08a4.21,4.21,0,0,0,1.44-5.78l-1-1.66c3.26-2,6.83-4.19,10.65-6.57l1.36,2a4.22,4.22,0,0,0,5.84,1.16l1.75-1.17a4.19,4.19,0,0,0,1.16-5.83l-1.19-1.79c22.58-14.26,51-32.85,74.54-49.16l1.68,2.61a4.2,4.2,0,0,0,5.82,1.24l1.77-1.14a4.21,4.21,0,0,0,1.25-5.82l-1.89-2.92c3.15-2.22,6.13-4.36,9-6.43l1.7,2.63a4.2,4.2,0,0,0,5.82,1.25l1.77-1.14a4.21,4.21,0,0,0,1.25-5.82L557,528.59q3.93-3,7.18-5.56l2.31,2.79a4.22,4.22,0,0,0,5.93.56L574,525a4.22,4.22,0,0,0,.56-5.93l-2.43-2.93a31.27,31.27,0,0,0,3-3.18C585.93,501,571.13,483.2,568,484.43ZM402.48,597.33c-.93-1.29-1.72-2.48-2.33-3.44A14.73,14.73,0,0,1,402.48,597.33Zm10,10.89a15.39,15.39,0,0,0,2.55.93l-.13,0A5.44,5.44,0,0,1,412.51,608.22Z"/><polygon class="cls-2" points="489.35 564.9 500.88 558.55 491.57 525.96 478.92 533.16 489.35 564.9"/><polygon class="cls-2" points="471.82 571.21 483.35 564.86 470.91 523.6 458.26 530.79 471.82 571.21"/><path class="cls-2" d="M574.76,354.72C579,357.81,611.21,401,611.21,401s42,53,34.14,64.78c-1.43,3.89-11.41,15.56-23.64,10.53C567.86,450.42,505,398.9,492.49,386.56c-32.79-21.93-8.5-36.52-7.77-40.79,5-6.74,27.37-38.28,30.41-41,9.75-8.88,18.34-.46,18.34-.46S512.9,335.19,574.76,354.72Z"/><path class="cls-1" d="M582.72,325.81c5.37-1.89,18.33,7.25,21.39,11.16s-20.72,15.8-19.45,18l44.49,70.87c-24,14.64-62.28-74.33-62.28-74.33S572.19,329.74,582.72,325.81Z"/><path class="cls-1" d="M520.65,360.05a10.22,10.22,0,1,1-2-14.31A10.22,10.22,0,0,1,520.65,360.05Z"/><path class="cls-4" d="M645.35,465.76c-11,11.13-22.44,7.81-22.44,7.81C606.06,468.28,476,367.28,475.38,365.23c-1.31-4.28,7.09-16.66,10.07-20.19-6.18-4-21.24,21-19,26,.33.74,3.57,3.61,8.82,7.92L474,380.45a4.21,4.21,0,0,0,.64,5.92l1.64,1.32a4.21,4.21,0,0,0,5.92-.65l1.22-1.51c3,2.37,6.29,5,9.85,7.73l-1.44,2a4.22,4.22,0,0,0,.93,5.89l1.7,1.23a4.21,4.21,0,0,0,5.88-.92l1.26-1.74c21.19,16.26,48.45,36.51,71.89,53l-1.86,2.47a4.2,4.2,0,0,0,.84,5.89l1.68,1.27a4.2,4.2,0,0,0,5.89-.84l2.09-2.78c3.17,2.19,6.21,4.25,9.15,6.22l-1.89,2.51a4.21,4.21,0,0,0,.84,5.89l1.68,1.27a4.22,4.22,0,0,0,5.9-.84l2.28-3c2.75,1.77,5.33,3.39,7.69,4.82L606,478.63a4.2,4.2,0,0,0,1.52,5.75l1.82,1.06a4.21,4.21,0,0,0,5.76-1.52l1.91-3.29a32.17,32.17,0,0,0,4,1.72C636,488.31,647.58,468.26,645.35,465.76Z"/><path class="cls-5" d="M645.35,465.76,485.3,345c-6.27-3.52-21.07,21.12-18.88,26,.33.74,3.57,3.61,8.82,7.92L474,380.45a4.21,4.21,0,0,0,.64,5.92l1.64,1.32a4.21,4.21,0,0,0,5.92-.65l1.22-1.51c3,2.37,6.29,5,9.85,7.73l-1.44,2a4.22,4.22,0,0,0,.93,5.89l1.7,1.23a4.21,4.21,0,0,0,5.88-.92l1.26-1.74c21.19,16.26,48.45,36.51,71.89,53l-1.86,2.47a4.2,4.2,0,0,0,.84,5.89l1.68,1.27a4.2,4.2,0,0,0,5.89-.84l2.09-2.78c3.17,2.19,6.21,4.25,9.15,6.22l-1.89,2.51a4.21,4.21,0,0,0,.84,5.89l1.68,1.27a4.22,4.22,0,0,0,5.9-.84l2.28-3c2.75,1.77,5.33,3.39,7.69,4.82L606,478.63a4.2,4.2,0,0,0,1.52,5.75l1.82,1.06a4.21,4.21,0,0,0,5.76-1.52l1.91-3.29a32.17,32.17,0,0,0,4,1.72C636,488.31,647.58,468.26,645.35,465.76ZM482.19,349.44c.9-1.31,1.74-2.47,2.44-3.37A14.87,14.87,0,0,1,482.19,349.44Zm-6.74,13.18a15.35,15.35,0,0,0,0,2.71l-.08-.1A5.43,5.43,0,0,1,475.45,362.62Z"/><polygon class="cls-2" points="542.66 419.76 552.6 428.38 579.96 408.38 568.83 398.99 542.66 419.76"/><polygon class="cls-2" points="530.68 405.49 540.62 414.11 575.04 388.18 563.92 378.79 530.68 405.49"/></g></g></svg>