<svg id="Layer_1" data-name="Layer 1" xmlns="http://www.w3.org/2000/svg" width="352.78mm" height="352.78mm" viewBox="0 0 1000 1000">
  <defs>
    <style>
      .cls-1 {
        fill: none;
        stroke: #fff;
        stroke-linecap: round;
        stroke-linejoin: round;
        stroke-width: 4.59px;
        stroke-dasharray: 27.54;
      }

      .cls-2 {
        fill: #fff;
      }

      .cls-3 {
        fill: #010101;
      }
    </style>
  </defs>
  <path class="cls-1" d="M-222,696.83s378.21,404.27,606.14,176.3S182.42,297.24,182.42,297.24s-77.73-75.19,8-197c97.7-138.79,455.36-8.76,418.05,322.39s410.86,386.11,410.86,386.11"/>
  <g id="Layer_2" data-name="Layer 2">
    <g id="Layer_1-2" data-name="Layer 1-2">
      <path class="cls-2" d="M144.77,612.6V569.34H102.06L100,567.17V464a5.3,5.3,0,0,0-5.3-5.3H49A5.3,5.3,0,0,0,43.67,464a5.39,5.39,0,0,0,.4,2l31.87,76-31.87,76A5.3,5.3,0,0,0,49,625.43h95.81a5.29,5.29,0,0,0,3.76-9Z"/>
      <path class="cls-2" d="M924,542.06l31.87-76a5.29,5.29,0,0,0-2.82-6.93,5.37,5.37,0,0,0-2.06-.41H905.38a5.29,5.29,0,0,0-5.29,5.29h0V567.17l-2.15,2.17H855.23V612.6l-3.76,3.82a5.29,5.29,0,0,0,3.76,9h95.82a5.31,5.31,0,0,0,4.88-7.33Z"/>
      <path class="cls-3" d="M830,279.67,525,103.54a51.21,51.21,0,0,0-51.06,0L168.84,279.67a51.18,51.18,0,0,0-25.52,44.2V676.13a51.19,51.19,0,0,0,25.52,44.2L473.93,896.46a51.21,51.21,0,0,0,51.06,0l305.1-176.13a51.19,51.19,0,0,0,25.52-44.2V323.87A51.19,51.19,0,0,0,830,279.67Z"/>
      <path class="cls-2" d="M891.28,421.94H108.72A14.08,14.08,0,0,0,94.64,436V591.68a14.09,14.09,0,0,0,14.08,14.09H891.28a14.08,14.08,0,0,0,14.08-14.09V436a14.08,14.08,0,0,0-14.07-14.1Z"/>
      <path class="cls-2" d="M262.29,342.44a1.84,1.84,0,0,1-.56,2.53,1.92,1.92,0,0,1-.46.21l-8.54,4.15L268.8,381.7a1.8,1.8,0,0,1-.88,2.66l-12.05,6.18a1.75,1.75,0,0,1-2.43-.47,2,2,0,0,1-.23-.49l-15.89-32.85-9.86,4.79A1.77,1.77,0,0,1,225,361a1.56,1.56,0,0,1-.22-.47l-4.32-8.81a1.72,1.72,0,0,1,.44-2.41,1.58,1.58,0,0,1,.47-.23L255.2,332.7a1.81,1.81,0,0,1,2.53.44,2.22,2.22,0,0,1,.23.43Z"/>
      <path class="cls-2" d="M318.21,335.82a29,29,0,0,1,.69,20.09,22,22,0,0,1-13.47,14.38q-11.7,4.47-21.13-.2-9.18-4.56-13.67-16.27a30,30,0,0,1-.55-21.83,25,25,0,0,1,15.37-15.1q10.17-3.88,19.93,2.58A33.22,33.22,0,0,1,318.21,335.82Zm-15.32,6.26A13.3,13.3,0,0,0,298.2,336a7.51,7.51,0,0,0-7.31-1.17,7.41,7.41,0,0,0-4.6,5.77,13.8,13.8,0,0,0,5.27,13.72,7.41,7.41,0,0,0,7.28,1.22,7.51,7.51,0,0,0,4.69-5.74,13.14,13.14,0,0,0-.64-7.62Z"/>
      <path class="cls-2" d="M373.64,339a2,2,0,0,1-.12,1.57,16.81,16.81,0,0,1-6.82,6.76,35.25,35.25,0,0,1-9,3.95q-12,3.33-21.36-1.73t-12.61-17.07q-4.05-14.72,3.94-25.38,7.2-9.63,22.36-13.8c1.57-.44,2.62-.14,3.13.86s1.14,2.39,2.08,4.29a58.09,58.09,0,0,1,3.4,7.55c.58,2.07.17,3.29-1.21,3.67-.33.09-.84.21-1.56.34l-1.57.34a22.68,22.68,0,0,0-11.1,6.14,11.92,11.92,0,0,0-2.49,11.94q2.64,9.66,10.76,7.43a15.77,15.77,0,0,0,2.82-1.08l-1.3-4.12-3.38,1.25c-2.42.66-3.86.18-4.32-1.56-.12-.45-.33-1.13-.59-2s-.47-1.56-.58-2c-.78-2.82-.52-4.44.81-4.91l19-6.67a1.77,1.77,0,0,1,2.38.75,1.9,1.9,0,0,1,.18.57Z"/>
      <path class="cls-2" d="M417.61,334.42a1.73,1.73,0,0,1-1,2.2,1.91,1.91,0,0,1-.53.1L382.37,343a1.72,1.72,0,0,1-2.18-1.11,1.8,1.8,0,0,1-.09-.45l-9-48.83a1.74,1.74,0,0,1,1-2.23,1.61,1.61,0,0,1,.53-.1L406.36,284a1.72,1.72,0,0,1,2.24,1.56l1.8,9.78a1.72,1.72,0,0,1-1,2.2,1.5,1.5,0,0,1-.52.1l-18.6,3.43,1.12,6.1,14.52-2.67a1.73,1.73,0,0,1,2.19,1.11,1.78,1.78,0,0,1,.08.45l1.82,9.81a1.74,1.74,0,0,1-1.08,2.21,2,2,0,0,1-.49.09l-14.53,2.68,1,5.49,18.63-3.43a1.72,1.72,0,0,1,2.23,1.57Z"/>
      <path class="cls-2" d="M460.07,293.94a1.82,1.82,0,0,1-1.39,2.18,1.69,1.69,0,0,1-.5,0l-9.39,1L452.72,333a1.79,1.79,0,0,1-1.31,2.15,1.92,1.92,0,0,1-.41.05l-13.46,1.68a1.75,1.75,0,0,1-2.12-1.28,1.4,1.4,0,0,1-.05-.54l-3.68-36.19L420.74,300a1.76,1.76,0,0,1-2.14-1.29,1.73,1.73,0,0,1-.05-.51l-1-9.9a1.77,1.77,0,0,1,1.31-2.13,1.91,1.91,0,0,1,.47,0l37.41-3.81c1.4-.14,2.16.46,2.29,1.77Z"/>
      <path class="cls-2" d="M512.05,278.89l.33,49.08a1.76,1.76,0,0,1-1.5,2,2.41,2.41,0,0,1-.38,0l-13.16.72c-1.31.08-2-.58-2-1.94l-.23-15.2-9.81.16.09,14.71a1.77,1.77,0,0,1-1.55,2h-.26l-10.49,1c-3.13,0-4.72-.74-4.79-2.21l-.79-49.63a1.78,1.78,0,0,1,1.48-2,1.68,1.68,0,0,1,.5,0l13.71-.14a1.72,1.72,0,0,1,1.93,1.48,1.74,1.74,0,0,1,0,.51l.11,20.34,9.64-.16-.31-20.34a1.79,1.79,0,0,1,1.48-2,1.61,1.61,0,0,1,.49,0l13.57-.14a1.79,1.79,0,0,1,2,1.54A2.32,2.32,0,0,1,512.05,278.89Z"/>
      <path class="cls-2" d="M557.33,331.41a1.72,1.72,0,0,1-1.56,1.87,1.55,1.55,0,0,1-.48,0l-34.14-2.38a1.75,1.75,0,0,1-1.85-1.65,2.38,2.38,0,0,1,0-.46l3.46-49.52c.09-1.35.78-2,2.06-1.88L559,279.78q1.9.14,1.77,2.16l-.69,9.92a1.72,1.72,0,0,1-1.56,1.87,1.61,1.61,0,0,1-.49,0l-18.89-1.41-.42,6.26,14.74,1a1.71,1.71,0,0,1,1.85,1.58,1.45,1.45,0,0,1,0,.51l-.68,10a1.74,1.74,0,0,1-1.59,1.87,1.41,1.41,0,0,1-.5,0l-14.73-1-.4,5.56,18.89,1.31a1.73,1.73,0,0,1,1.81,1.66,1.63,1.63,0,0,1,0,.49Z"/>
      <path class="cls-2" d="M606.24,340.71a1.78,1.78,0,0,1-1.81,1.72,1.58,1.58,0,0,1-.38-.05l-14.26-1.56a2,2,0,0,1-1.56-1.12l-6.4-12.09c-.11.64-.22,1.56-.34,2.88s-.24,2.25-.33,2.89q-.74,4.69-2.91,4.56l-3.76-.22a70.36,70.36,0,0,1-7.68-.47c-2.8-.44-4.12-1.39-3.9-2.88l7.61-50.54a1.93,1.93,0,0,1,1.73-1.66q2.87-.56,12.07.86,15.64,2.43,21.2,11.21A19.27,19.27,0,0,1,608.35,308a20.61,20.61,0,0,1-10.76,15.44l8.44,16A2.14,2.14,0,0,1,606.24,340.71Zm-15.32-33.24c.49-3.13-1-5.35-4.69-6.54l-2,11.88C588.19,312.43,590.42,310.66,590.92,307.47Z"/>
      <path class="cls-2" d="M689.85,314.62c-.36,1.22-1.16,3.49-2.38,6.79a1.85,1.85,0,0,1-2.18,1.44,2.29,2.29,0,0,1-.37-.12l-17.85-5.59-1.85,5.93,14.08,4.37c1.4.45,1.66,2.16.77,5.11-.12.46-1,2.76-2.44,6.89a1.82,1.82,0,0,1-2.12,1.44,2.26,2.26,0,0,1-.37-.11l-14.28-4.43-5,16.73a1.72,1.72,0,0,1-2,1.47,1.78,1.78,0,0,1-.5-.14l-12.73-3.88a1.73,1.73,0,0,1-1.44-2,1.59,1.59,0,0,1,.14-.47L654,300.62a1.75,1.75,0,0,1,1.93-1.52,1.55,1.55,0,0,1,.48.13l32.77,10.15C690.6,309.8,690.84,311.54,689.85,314.62Z"/>
      <path class="cls-2" d="M733.52,356.45a29,29,0,0,1-13.07,15.27,21.93,21.93,0,0,1-19.65,1.56q-11.61-4.61-15.42-14.42-3.72-9.57.9-21.24a30,30,0,0,1,14.35-16.46,25.14,25.14,0,0,1,21.53-.75q10.13,4,13,15.38A33.19,33.19,0,0,1,733.52,356.45Zm-15.65-5.7a13,13,0,0,0,.71-7.68,7.5,7.5,0,0,0-4.59-5.81,7.39,7.39,0,0,0-7.29,1.15,13.73,13.73,0,0,0-5.4,13.67,7.4,7.4,0,0,0,4.54,5.82,7.5,7.5,0,0,0,7.31-1.09,13.07,13.07,0,0,0,4.86-6.12Z"/>
      <path class="cls-2" d="M768.91,400.77a1.76,1.76,0,0,1-2.24,1.07,2,2,0,0,1-.36-.18l-13-5.94a2,2,0,0,1-1.17-1.57l-2.3-13.5c-.3.58-.7,1.46-1.22,2.64s-.92,2-1.22,2.63c-1.42,2.79-2.82,3.91-4.18,3.41l-3.5-1.37a70.15,70.15,0,0,1-7.15-2.87c-2.52-1.28-3.46-2.61-2.8-3.94l23.06-45.61a2,2,0,0,1,2.17-1q2.88.35,11.19,4.58,14.08,7.19,16.62,17.29a19.31,19.31,0,0,1-1.57,13.93,20.59,20.59,0,0,1-15.07,11.28l3,17.88A2.16,2.16,0,0,1,768.91,400.77Zm-4.13-36.36q2.21-4.31-2.33-7.67l-5.63,10.66c3.84.87,6.57-.13,8-3Z"/>
      <path class="cls-2" d="M503,166.83l3.43,9.39a3.77,3.77,0,0,0,2.25,2.24l9.39,3.42a3.77,3.77,0,0,1,0,7.09l-9.39,3.43a3.71,3.71,0,0,0-2.25,2.25L503,204a3.77,3.77,0,0,1-7.08,0l-3.43-9.39a3.71,3.71,0,0,0-2.25-2.25L480.82,189a3.77,3.77,0,0,1,0-7.09l9.39-3.42a3.77,3.77,0,0,0,2.25-2.24l3.43-9.39a3.77,3.77,0,0,1,7.08,0Z"/>
      <path class="cls-3" d="M317.79,472.13a4.74,4.74,0,0,1-1.07,3.13l-20.09,23.47a4.32,4.32,0,0,1-3.44,1.68q-.29,0-11.37-6.45t-20.58-6.45q-5.4,0-5.4,2.74c0,1.13,2.6,2.68,7.83,4.7q27.46,10.79,34.64,15.38,18.38,11.91,18.38,30.49,0,21.39-16.79,31.45-13.48,8.12-36.36,8.13a67.71,67.71,0,0,1-27.29-6.1q-14.73-6.56-22.42-16.52a4.83,4.83,0,0,1-1.15-3.13,4.35,4.35,0,0,1,1.15-3.13L233.7,528.9a4.7,4.7,0,0,1,3.63-1.57q.45,0,11.85,6.42t18.9,6.4c4.36,0,6.54-1.11,6.54-3.37,0-1.41-2.58-3-7.82-4.69q-7.08-2.12-21-6.89-32-12.29-32-38.89,0-17.13,18.46-29.07a62.85,62.85,0,0,1,34.55-10.52,69,69,0,0,1,27.39,6Q309,459,316.72,469.16A5,5,0,0,1,317.79,472.13Z"/>
      <path class="cls-3" d="M433.14,495.38q0,22.78-17.21,37-15.65,12.92-39.24,14.32v.61c0,1.7.1,4.25.27,7.63s.27,5.92.27,7.56q0,11.65-5.21,12.52c-1.9.19-4.7.47-8.41.89q-15.64,1.92-19.35,1.94-10.26,0-10.34-5.21l-.52-126.28c0-3.13,1.57-4.69,4.77-4.69a309.61,309.61,0,0,1,41.62,2.39q26.34,3.53,38.69,14Q433.15,470.19,433.14,495.38Zm-38,3q0-15.12-17.59-16.27l-.34,30.93q17.93-2.55,17.93-14.66Z"/>
      <path class="cls-3" d="M563.52,516.85q0,26-15.47,44.89-16.6,20.34-41.88,20.34-29.52,0-46.4-18.29Q443.35,546,443.35,516.33q0-29.09,17.21-48.59,17.93-20.34,46.65-20.34,25.73,0,41.81,22.53Q563.53,490.15,563.52,516.85Zm-39.11,1a31,31,0,0,0-5.1-17.43q-5.91-8.75-15.12-8.75t-15.08,8.75a32.44,32.44,0,0,0,0,34.73q5.85,8.86,15,8.84t15.12-8.74a30.93,30.93,0,0,0,5.13-17.4Z"/>
      <path class="cls-3" d="M683.12,572.61a4.17,4.17,0,0,1-3.57,4.68,4.82,4.82,0,0,1-.93,0l-33.86,1.56a4.59,4.59,0,0,1-4.15-2l-19.35-25.9c0,1.57.09,3.82.26,6.86s.27,5.33.27,6.85q0,11.05-5.13,11.67l-8.83.88a168.89,168.89,0,0,1-18.11,1.59q-10.08,0-10.17-5.29L579,452.78a4.54,4.54,0,0,1,3.44-4.51q6.46-2.36,28.45-2.38,37.27,0,53.55,18.47a45.46,45.46,0,0,1,11.58,31q0,24.5-19.53,39.93l25.54,34.42A5.13,5.13,0,0,1,683.12,572.61Zm-47.81-72q0-11.4-13.16-13.61l-.36,28.46q13.51-3.51,13.52-14.9Z"/>
      <path class="cls-3" d="M783.54,483.37c0,3.13-1.66,4.69-4.95,4.69H756.14l.8,85.35a4.24,4.24,0,0,1-3.74,4.69,4.12,4.12,0,0,1-.86,0l-32,.71q-4.7.09-4.69-4.77V488H689.85q-4.7,0-4.69-4.69V459.82q0-4.69,4.69-4.69h88.81c3.28,0,4.94,1.56,4.94,4.69Z"/>
      <path class="cls-2" d="M495.84,790.83l-51.37,36a6.25,6.25,0,0,1-9.48-6.88l18.39-60a6.26,6.26,0,0,0-2.2-6.77L401,715.45a6.26,6.26,0,0,1,3.63-11.14l62.72-1a6.26,6.26,0,0,0,5.76-4.18l20.34-59.35a6.26,6.26,0,0,1,11.72,0l20.34,59.35a6.28,6.28,0,0,0,5.76,4.18l62.74,1a6.25,6.25,0,0,1,3.61,11.14l-50.14,37.72a6.25,6.25,0,0,0-2.19,6.77l18.38,60a6.26,6.26,0,0,1-9.48,6.88l-51.37-36A6.24,6.24,0,0,0,495.84,790.83Z"/>
    </g>
  </g>
</svg>
