<svg id="Layer_1" data-name="Layer 1" xmlns="http://www.w3.org/2000/svg" viewBox="0 0 1000 1000"><defs><style>.cls-1,.cls-2{fill:none;}.cls-2,.cls-4,.cls-5{stroke:#fff;stroke-linecap:round;stroke-linejoin:round;}.cls-2{stroke-width:4.59px;stroke-dasharray:27.54;}.cls-3{fill:#1d1d1b;stroke:#1d1d1b;stroke-miterlimit:10;stroke-width:4px;}.cls-4,.cls-5{fill:#fff;}.cls-4{stroke-width:5.82px;}.cls-5{stroke-width:12.03px;}</style></defs><circle class="cls-1" cx="500" cy="500" r="449.2"/><path class="cls-2" d="M326.32-19.59s-366.5,414.92-117.9,620.15S762.53,345,762.53,345,830,260.47,959.4,334.26c147.45,84.07,52,452.47-281.2,446.8s-345.32,445.69-345.32,445.69"/><path class="cls-3" d="M729.13,788.26l-391.41,26L318,568.05c1.45,12.16-40.71,252.12-40.71,252.12l-63.74-8.07s5.2-322.35,13.31-404.58S245.08,269.14,281,232.33s76.42-52.47,76.42-52.47l112,86.3L573.74,155.22l1.81.45s37.83,4.45,81.45,31.74,66.67,79.5,93.93,157.5S859.19,735,859.19,735l-60.05,22.87s-99.53-228.17-101-240.32Z"/><polygon class="cls-4" points="339.07 194.58 446.9 318.74 469.51 262.2 370.03 153.36 339.07 194.58"/><polygon class="cls-4" points="587 164.96 511.46 311.02 476.17 261.4 547.2 132.19 587 164.96"/><path class="cls-5" d="M556.86,359.62l45.51-6.81a13.77,13.77,0,0,1,15.75,14.81c-2.15,24.07-8.48,65-26.67,67.74s-36.19-34.52-45.29-56.92a13.76,13.76,0,0,1,7.55-17.95A13.27,13.27,0,0,1,556.86,359.62Z"/></svg>