<svg viewBox="0 0 856 1241" xmlns="http://www.w3.org/2000/svg" fill-rule="evenodd" clip-rule="evenodd" stroke-linecap="round" stroke-linejoin="round" stroke-miterlimit="10"><g transform="translate(3792.67 1729.24)"><path d="M-3735.4-986.4s-37.2 31.2-54.6 115.5c1.3 4.1 4.7 4.1 13.9 10s39 26 43.5 24.6c4.5-1.5 48.1-62.3 48-69.5-.2-7.3-35.4-85.7-50.8-80.6zM-3518.2-1057.3s48.4 3.3 112.2 61.1c1.3 4.1-1.4 6.1-5.3 16.3-3.9 10.2-16.2 44-20.6 45.5-4.4 1.5-75.6-22-79.7-27.9-4.1-5.9-22-90-6.6-95z" fill="#fff" fill-rule="nonzero" stroke="#fff" stroke-width="5.35"/><path d="M-3559.9-1068.4s-24.6-8.3-27-5.2c-2.4 3.1-19 39.9-39.3 46.5l-4.1 1.3c-20.3 6.6-55.4-13.4-59.2-14.4-3.7-1-18.7 20.1-18.7 20.1l-20.6 19 123.5 45 63.2-106.4-17.8-5.9z" fill="#fff" fill-rule="nonzero" stroke="#fff" stroke-width="2.67" stroke-linecap="butt" stroke-linejoin="miter"/><path d="M-3608.6-976.2c-45.3 15.9-93.1-27.3-102.8-36.3-9.7-9-31.5 17.2-24.1 26 7.4 8.8 31.1 43.7 35.4 56.9 4.3 13.2 21.2 65 27.3 118 6.1 53 29.4 262.2 33.7 275.3 4.3 13.2 2.5 35.1 21.1 33.6l290.6-94.8c15.9-9.7 1.5-26.3-2.8-39.5s-108.8-195.8-135.2-242.2c-26.4-46.4-43.3-98.2-47.6-111.4-4.3-13.2-5.7-55.4-5-66.9.7-11.5-32.3-19.8-34.8-6.8s-15.6 76-61.6 89.9" fill="#1d1d1b" fill-rule="nonzero" stroke="#1d1d1b" stroke-width="2.67" stroke-linecap="butt" stroke-linejoin="miter"/><path d="M-3628-1029.5c50.4 39.1 66.1-48.5 66.1-48.5s-24.6-8.3-27-5.2c-2.4 3-19 39.9-39.3 46.5l-4.1 1.3c-20.3 6.6-55.4-13.4-59.2-14.4-3.7-1-18.7 20.1-18.7 20.1s64.6 61.5 82.2.2z" fill="#fff" fill-rule="nonzero" stroke="#9ecee5" stroke-width="5.35" stroke-linecap="butt" stroke-linejoin="miter"/><circle cx="-3616.4" cy="-986.8" r="3.4" fill="#212b51"/><circle cx="-3620.2" cy="-998.3" r="3.4" fill="#212b51"/><path d="M-3487.2-925.2l-195 63.7-3-12.8L-3493-937l5.8 11.8z" fill="#9dcee4" fill-rule="nonzero" stroke="#9dcee4" stroke-width="2.67" stroke-linecap="butt" stroke-linejoin="miter"/><path d="M-3177.8-1036.9l87.9 19.9s26.7-72.1 70.2-170.4c-6.7 28.6-8.6 250.1-8.6 250.1s25.1-1 43.7.4c8.6-41.9 43.4-345.9 44.4-372.7 1-26.7-84.6-88.5-84.6-88.5l-44.8 42.3-18-5.8-20.6-62.2s-102.4 3.6-116.7 26.2c-14.3 22.6-157.1 293.3-173.7 332.7 16.1 9.4 36.3 24.4 36.3 24.4s123.3-183.9 134-211.3c-19.5 105.7-38.2 180.3-38.2 180.3l88.7 34.6" fill="#fff" fill-rule="nonzero" stroke="#fff" stroke-width="5.35"/><g stroke="#9ecee5" stroke-width="5.35"><path d="M-3117.8-1425.8l22.3-12.5 19.4 63.4-18.4 21.6-23.3-72.5zM-3005.4-1391l-11.4-23-51.8 41.5 3 28.2 60.2-46.7z" fill="#fff" fill-rule="nonzero"/><path d="M-3078.3-1358.7l-99.5 321.8" fill="none" stroke-linecap="butt" stroke-linejoin="miter"/></g><path d="M-3647.6-1699.2l49.6 57.1 10.3-26-45.7-50.1-14.2 19zM-3533.6-1712.8l-34.8 67.1-16.2-22.8 32.7-59.4 18.3 15.1z" fill="#fff" fill-rule="nonzero" stroke="#fff" stroke-width="2.67"/><path d="M-3516.6-1709l-63.1 107.4-81.5-91s-27.1 10.5-51.1 35.1-30.8 62.2-36.2 117.2c-5.4 55-8.9 270.6-8.9 270.6l42.6 5.4s38.3-231.8 37.3-239.9c-1-8.1 22.6 145 35.1 168.3 1.6 20.1.4 28.4 4.8 27.9 4.4-.5 84.3-10.1 84.3-10.1l17.8-2.1s79.8-9.5 84.3-10.1c4.5-.6 1.2-8.4-1.9-28.3 6.7-25.5-6.5-179.9-5.5-171.8 1 8.1 92.8 224.4 92.8 224.4l40.2-15.3s-54.2-208.7-72.4-260.9c-18.2-52.2-33.7-87.1-62.8-105.4-29.2-18.3-54.5-21.2-54.5-21.2l-1.3-.2z" fill="#1d1d1b" fill-rule="nonzero" stroke="#1d1d1b" stroke-width="2.67" stroke-linecap="butt" stroke-linejoin="miter"/><path d="M-3681.5-1691.6l105.7 122.3 84.1-149" fill="none" stroke="#9dcee4" stroke-width="5.35"/></g></svg>