<?xml version="1.0" encoding="UTF-8" standalone="no"?>
<!DOCTYPE svg PUBLIC "-//W3C//DTD SVG 1.1//EN" "http://www.w3.org/Graphics/SVG/1.1/DTD/svg11.dtd">
<svg width="100%" height="100%" viewBox="0 0 1393 1722" version="1.1" xmlns="http://www.w3.org/2000/svg" xmlns:xlink="http://www.w3.org/1999/xlink" xml:space="preserve" xmlns:serif="http://www.serif.com/" style="fill-rule:evenodd;clip-rule:evenodd;stroke-linecap:round;stroke-linejoin:round;stroke-miterlimit:10;">
    <g transform="matrix(1,0,0,1,-182.1,6025.03)">
        <path d="M719.2,-4865L816,-4843.1C816,-4843.1 845.4,-4922.5 893.3,-5030.7C886,-4999.2 883.8,-4755.4 883.8,-4755.4C883.8,-4755.4 911.5,-4756.5 931.9,-4755C941.3,-4801.1 979.7,-5135.9 980.7,-5165.3C981.7,-5194.7 887.5,-5262.7 887.5,-5262.7L838.2,-5216.1L818.4,-5222.5L795.8,-5291C795.8,-5291 683,-5287 667.3,-5262.1C651.6,-5237.2 494.3,-4939.2 476.1,-4895.8C493.8,-4885.5 516.1,-4869 516.1,-4869C516.1,-4869 651.9,-5071.5 663.6,-5101.6C642.1,-4985.2 621.5,-4903.1 621.5,-4903.1L719.2,-4865" style="fill:white;fill-rule:nonzero;stroke:white;stroke-width:6.26px;"/>
        <g>
            <path d="M785.2,-5293.1L809.9,-5306.9L831.2,-5237.1L811,-5213.3L785.2,-5293.1Z" style="fill:white;fill-rule:nonzero;stroke:rgb(158,206,229);stroke-width:6.26px;"/>
            <path d="M909,-5254.8L896.5,-5280.2L839.5,-5234.5L842.8,-5203.5L909,-5254.8Z" style="fill:white;fill-rule:nonzero;stroke:rgb(158,206,229);stroke-width:6.26px;"/>
            <path d="M828.7,-5219.3L719.2,-4865" style="fill:none;fill-rule:nonzero;stroke:rgb(158,206,229);stroke-width:6.26px;stroke-linecap:butt;stroke-linejoin:miter;"/>
        </g>
        <path d="M505,-4331.3C501.4,-4330.7 498.1,-4329 496.3,-4330C493.4,-4331.7 489.4,-4335.2 489.6,-4337.7C490.8,-4356.2 492.4,-4374.7 495.4,-4393C495.9,-4396.3 503.5,-4398.6 507.8,-4401.3C509.1,-4396.9 511.7,-4392.4 511.5,-4388.1C510.6,-4373.7 508.7,-4359.4 507,-4345.1C506.4,-4340.7 505.6,-4336.2 505,-4331.3Z" style="fill:white;fill-rule:nonzero;"/>
        <path d="M937.4,-4565.5C944.4,-4571.7 950.9,-4578.5 958.5,-4583.8C961.4,-4585.9 966.6,-4584.7 970.7,-4585C970.4,-4580.5 971.9,-4574.5 969.5,-4571.8C960.7,-4561.6 950.9,-4552.2 940.8,-4543.3C938.7,-4541.4 931.9,-4541.5 930.2,-4543.4C928.1,-4545.6 927.6,-4551.3 928.9,-4554.5C930.6,-4558.6 934.8,-4561.6 937.9,-4565.1C937.7,-4565.2 937.5,-4565.3 937.4,-4565.5Z" style="fill:white;fill-rule:nonzero;"/>
        <path d="M1098.9,-4943.7C1103.3,-4951.9 1107.2,-4960.5 1112.5,-4968.1C1114.5,-4971 1119.8,-4971.7 1123.6,-4973.4C1124.9,-4969.1 1128.3,-4963.9 1127,-4960.5C1122.2,-4947.9 1116.2,-4935.7 1109.7,-4923.9C1108.3,-4921.4 1102,-4919.2 1099.7,-4920.3C1096.9,-4921.7 1094.6,-4926.9 1094.7,-4930.3C1094.9,-4934.7 1097.8,-4939 1099.5,-4943.3C1099.3,-4943.5 1099.1,-4943.6 1098.9,-4943.7Z" style="fill:white;fill-rule:nonzero;"/>
        <path d="M1505.6,-4850C1511.3,-4842.6 1517.5,-4835.6 1522.3,-4827.6C1524.1,-4824.5 1522.6,-4819.5 1522.6,-4815.3C1518.1,-4815.9 1512,-4814.9 1509.5,-4817.5C1500,-4827.1 1491.3,-4837.5 1483.2,-4848.3C1481.5,-4850.6 1482.1,-4857.3 1484.1,-4858.9C1486.5,-4860.9 1492.2,-4860.9 1495.3,-4859.3C1499.2,-4857.3 1501.9,-4852.9 1505.2,-4849.6C1505.3,-4849.8 1505.5,-4849.9 1505.6,-4850Z" style="fill:white;fill-rule:nonzero;"/>
        <path d="M1043.9,-6001.4C1037.2,-5994.9 1031,-5987.8 1023.7,-5982.1C1020.9,-5979.9 1015.7,-5980.8 1011.5,-5980.3C1011.6,-5984.8 1009.8,-5990.8 1012.1,-5993.6C1020.4,-6004.2 1029.8,-6014.1 1039.5,-6023.4C1041.5,-6025.4 1048.3,-6025.6 1050.1,-6023.8C1052.3,-6021.7 1053.1,-6016 1051.9,-6012.8C1050.4,-6008.7 1046.4,-6005.4 1043.4,-6001.8C1043.6,-6001.7 1043.7,-6001.5 1043.9,-6001.4Z" style="fill:white;fill-rule:nonzero;"/>
        <path d="M435.1,-5941C442.1,-5947.2 448.6,-5954 456.2,-5959.3C459.1,-5961.4 464.3,-5960.2 468.4,-5960.5C468.1,-5956 469.6,-5950 467.2,-5947.3C458.4,-5937.1 448.6,-5927.7 438.5,-5918.8C436.4,-5916.9 429.6,-5917 427.9,-5918.9C425.8,-5921.1 425.3,-5926.8 426.6,-5930C428.3,-5934.1 432.5,-5937.1 435.6,-5940.6C435.4,-5940.7 435.3,-5940.9 435.1,-5941Z" style="fill:white;fill-rule:nonzero;"/>
        <path d="M1062.9,-5526.3C1058.5,-5534.5 1053.4,-5542.4 1049.9,-5551C1048.6,-5554.3 1050.9,-5559.1 1051.5,-5563.2C1055.8,-5561.9 1062,-5561.9 1064.1,-5559C1072,-5548.1 1078.9,-5536.4 1085.2,-5524.5C1086.5,-5522 1084.9,-5515.5 1082.7,-5514.2C1080,-5512.6 1074.4,-5513.5 1071.6,-5515.5C1068,-5518.1 1066,-5522.8 1063.4,-5526.7C1063.2,-5526.5 1063.1,-5526.4 1062.9,-5526.3Z" style="fill:white;fill-rule:nonzero;"/>
        <g transform="matrix(1,0,0,1,186.562,-698.156)">
            <path d="M47,-4320.5C54,-4326.7 60.5,-4333.5 68.1,-4338.8C71,-4340.9 76.2,-4339.7 80.3,-4340C80,-4335.5 81.5,-4329.5 79.1,-4326.8C70.3,-4316.6 60.5,-4307.2 50.4,-4298.3C48.3,-4296.4 41.5,-4296.5 39.8,-4298.4C37.7,-4300.6 37.2,-4306.3 38.5,-4309.5C40.2,-4313.6 44.4,-4316.6 47.5,-4320.1C47.3,-4320.2 47.2,-4320.3 47,-4320.5Z" style="fill:white;fill-rule:nonzero;"/>
        </g>
        <path d="M916,-5370.7C923,-5376.9 929.5,-5383.7 937.1,-5389C940,-5391.1 945.2,-5389.9 949.3,-5390.2C949,-5385.7 950.5,-5379.7 948.1,-5377C939.3,-5366.8 929.5,-5357.4 919.4,-5348.5C917.3,-5346.6 910.5,-5346.7 908.8,-5348.6C906.7,-5350.8 906.2,-5356.5 907.5,-5359.7C909.2,-5363.8 913.4,-5366.8 916.5,-5370.3C916.3,-5370.5 916.1,-5370.6 916,-5370.7Z" style="fill:white;fill-rule:nonzero;"/>
        <g transform="matrix(1,0,0,1,-197.312,194.687)">
            <path d="M1526.9,-5962.6C1533.9,-5968.8 1540.4,-5975.6 1548,-5980.9C1550.9,-5983 1556.1,-5981.8 1560.2,-5982.1C1559.9,-5977.6 1561.4,-5971.6 1559,-5968.9C1550.2,-5958.7 1540.4,-5949.3 1530.3,-5940.4C1528.2,-5938.5 1521.4,-5938.6 1519.7,-5940.5C1517.6,-5942.7 1517.1,-5948.4 1518.4,-5951.6C1520.1,-5955.7 1524.3,-5958.7 1527.4,-5962.2C1527.1,-5962.3 1527,-5962.5 1526.9,-5962.6Z" style="fill:white;fill-rule:nonzero;"/>
        </g>
        <g>
            <g>
                <g>
                    <path d="M668.7,-4399.4C665.9,-4398.3 662.6,-4398.3 659.7,-4399.7C653.8,-4402.4 651.1,-4409.4 653.8,-4415.3L673.7,-4459.2C676.4,-4465.1 683.4,-4467.8 689.3,-4465.1C695.2,-4462.4 697.9,-4455.4 695.2,-4449.5L675.3,-4405.6C674,-4402.6 671.6,-4400.5 668.7,-4399.4Z" style="fill:rgb(11,11,11);fill-rule:nonzero;stroke:rgb(11,11,11);stroke-width:6.26px;"/>
                </g>
                <g>
                    <path d="M812,-4453.4C809.2,-4452.3 805.9,-4452.3 803,-4453.7L759.1,-4473.6C753.2,-4476.3 750.5,-4483.3 753.2,-4489.2C755.9,-4495.1 762.9,-4497.8 768.8,-4495.1L812.7,-4475.2C818.6,-4472.5 821.3,-4465.5 818.6,-4459.6C817.3,-4456.6 814.9,-4454.5 812,-4453.4Z" style="fill:rgb(11,11,11);fill-rule:nonzero;stroke:rgb(11,11,11);stroke-width:6.26px;"/>
                </g>
            </g>
        </g>
        <path d="M790.5,-4570.7C809.5,-4520.2 784,-4463.8 733.5,-4444.8C683,-4425.8 626.6,-4451.3 607.6,-4501.8C588.6,-4552.3 614.1,-4608.7 664.6,-4627.7C715.1,-4646.7 771.4,-4621.2 790.5,-4570.7Z" style="fill:rgb(11,11,11);fill-rule:nonzero;stroke:rgb(11,11,11);stroke-width:6.26px;"/>
        <path d="M771.4,-4563.5C786.5,-4523.5 766.3,-4478.9 726.3,-4463.8C686.3,-4448.7 641.7,-4468.9 626.6,-4508.9C611.5,-4548.9 631.7,-4593.5 671.7,-4608.6C711.7,-4623.7 756.4,-4603.5 771.4,-4563.5Z" style="fill:white;fill-rule:nonzero;"/>
        <g>
            <g>
                <path d="M576.8,-4608.8C574.5,-4613.9 568.6,-4616.4 563.4,-4614.4C557.9,-4612.3 555.1,-4606.2 557.2,-4600.7C559.1,-4595.8 564.2,-4593 569.2,-4594C562,-4572.4 569.7,-4549.1 592.8,-4536.9L637.7,-4622.2C614.3,-4634.4 590.4,-4627.3 576.8,-4608.8Z" style="fill:rgb(11,11,11);fill-rule:nonzero;stroke:rgb(11,11,11);stroke-width:6.26px;"/>
                <path d="M743,-4671.4C741.4,-4676.7 744.1,-4682.5 749.4,-4684.5C754.9,-4686.6 761.1,-4683.8 763.1,-4678.3C765,-4673.4 762.9,-4667.9 758.5,-4665.4C778.2,-4654 787.7,-4631.3 778.4,-4606.9L688.4,-4641.4C697.9,-4665.9 720.5,-4676.3 743,-4671.4Z" style="fill:rgb(11,11,11);fill-rule:nonzero;stroke:rgb(11,11,11);stroke-width:6.26px;"/>
            </g>
        </g>
        <g>
            <path d="M676.8,-4505.1C675.3,-4504.5 673.6,-4504.7 672.2,-4505.7C670,-4507.3 669.5,-4510.3 671.1,-4512.5L689.3,-4537.4L647,-4572C644.9,-4573.7 644.6,-4576.8 646.3,-4578.9C648,-4581 651.1,-4581.3 653.2,-4579.6L699,-4542.2C701,-4540.6 701.4,-4537.6 699.9,-4535.5L679,-4506.8C678.4,-4506 677.6,-4505.5 676.8,-4505.1Z" style="fill:rgb(11,11,11);fill-rule:nonzero;stroke:rgb(11,11,11);stroke-width:6.26px;"/>
        </g>
        <path d="M715.2,-4542.4C718.6,-4533.5 714.1,-4523.5 705.1,-4520.1C696.2,-4516.7 686.2,-4521.2 682.8,-4530.2C679.4,-4539.1 683.9,-4549.1 692.9,-4552.5C701.9,-4555.8 711.8,-4551.3 715.2,-4542.4Z" style="fill:rgb(11,11,11);fill-rule:nonzero;stroke:rgb(11,11,11);stroke-width:6.26px;"/>
        <path d="M561.4,-4740.6C566.3,-4728.6 577.3,-4713.5 570.1,-4700.5C551,-4701.6 545.7,-4732 540.5,-4747.1C539.4,-4750.5 543.1,-4755.5 544.6,-4759.7C548.5,-4757.1 553.2,-4755.2 556.1,-4751.8C558.7,-4748.8 559.3,-4744.2 560.8,-4740.3C561.1,-4740.5 561.3,-4740.6 561.4,-4740.6Z" style="fill:white;fill-rule:nonzero;"/>
        <path d="M482.1,-5295.7C472.8,-5286.7 462.7,-5270.9 448,-5272.9C442,-5291.1 468.3,-5307.2 480.5,-5317.5C483.2,-5319.8 489.3,-5318.1 493.8,-5318.3C492.9,-5313.7 492.8,-5308.7 490.7,-5304.7C488.9,-5301.2 484.8,-5298.9 481.7,-5296.1C481.9,-5295.9 482,-5295.8 482.1,-5295.7Z" style="fill:white;fill-rule:nonzero;"/>
        <path d="M1241.8,-5548.7L1045.4,-5257.5L1151.6,-5214.9L1279.6,-5533.5L1241.8,-5548.7Z" style="fill-rule:nonzero;stroke:rgb(157,206,228);stroke-width:3.13px;stroke-linecap:butt;stroke-linejoin:miter;"/>
        <path d="M1267.9,-5538.2L1108.3,-5215.8L1191.9,-5182.2L1325.6,-5515L1267.9,-5538.2Z" style="fill-rule:nonzero;stroke:rgb(157,206,228);stroke-width:3.13px;stroke-linecap:butt;stroke-linejoin:miter;"/>
        <path d="M1463.8,-5459.5L1404.1,-5113.4L1297.9,-5156L1426,-5474.7L1463.8,-5459.5Z" style="fill-rule:nonzero;"/>
        <path d="M1438.1,-5469.8L1330.2,-5126.7L1246.6,-5160.3L1380.3,-5493L1438.1,-5469.8Z" style="fill-rule:nonzero;stroke:rgb(157,206,228);stroke-width:3.13px;stroke-linecap:butt;stroke-linejoin:miter;"/>
        <g transform="matrix(0.3729,-0.9279,0.9279,0.3729,5749.03,-2151.88)">
            <rect x="1093.9" y="-5376.3" width="377.4" height="94.8" style="stroke:rgb(157,206,228);stroke-width:3.13px;stroke-linecap:butt;stroke-linejoin:miter;"/>
        </g>
        <g transform="matrix(0.9279,0.3729,-0.3729,0.9279,-1958.19,-903.565)">
            <rect x="1237.3" y="-5525.3" width="239.2" height="22" style="fill:white;stroke:white;stroke-width:3.13px;"/>
        </g>
        <path d="M1556.3,-5048.1L1568,-5053.6C1573.5,-5056.2 1575.9,-5062.7 1573.3,-5068.2L1562.4,-5091.5C1556.5,-5104.1 1533.8,-5090.2 1547.8,-5096.8L1533.7,-5090.2L1556.3,-5048.1Z" style="fill:white;fill-rule:nonzero;"/>
        <g>
            <path d="M1286.1,-4935.5L1313.8,-4937.3L1329.7,-4952L1318.8,-4976.7L1293.8,-4974.2L1277.1,-4950.1C1279.1,-4948.8 1281.3,-4947 1283.1,-4944.7C1285.3,-4941.7 1286,-4938 1286.1,-4935.5Z" style="fill:white;fill-rule:nonzero;"/>
            <path d="M1286.1,-4935.5C1286,-4938.1 1285.3,-4941.7 1283,-4944.8C1281.3,-4947.1 1279,-4948.9 1277,-4950.2L1268,-4937.2C1267.2,-4936 1268.1,-4934.4 1269.6,-4934.4L1286.1,-4935.5Z" style="fill:rgb(11,11,11);fill-rule:nonzero;"/>
        </g>
        <path d="M1293.8,-4974.2L1309.4,-4969.5L1302.3,-4954.8L1320.2,-4950.7L1313.8,-4937.3L1542,-5043L1523.6,-5084.4L1293.8,-4974.2Z" style="fill:rgb(11,11,11);fill-rule:nonzero;"/>
        <path d="M1546.7,-5040L1553.7,-5043.1C1557.2,-5044.6 1558.7,-5048.7 1557,-5052.2L1539.6,-5088.3C1538,-5091.7 1533.9,-5093.1 1530.5,-5091.4L1523.8,-5088C1520.5,-5086.4 1519.2,-5082.4 1520.7,-5079.1L1537.8,-5043.3C1539.5,-5040 1543.4,-5038.6 1546.7,-5040Z" style="fill-rule:nonzero;"/>
        <path d="M223,-5441.1C210.2,-5439.6 192.6,-5433 182.1,-5443.4C188.3,-5461.5 219,-5458.5 234.9,-5459.4C238.4,-5459.6 242.3,-5454.6 246,-5452C242.5,-5448.9 239.4,-5444.9 235.3,-5443C231.8,-5441.3 227.1,-5441.9 222.9,-5441.5C223,-5441.4 223,-5441.3 223,-5441.1Z" style="fill:white;fill-rule:nonzero;"/>
        <path d="M1263.8,-4836.1L1265.2,-4836.1C1265.2,-4836.1 1293.1,-4839.5 1329,-4827.5L1372.1,-4659.9C1369,-4668.4 1423,-4506.6 1422.5,-4477.5C1431,-4457 1436.4,-4449.5 1431.8,-4447.7C1427.2,-4446 1344.2,-4415.1 1344.2,-4415.1L1325.7,-4408.2C1325.7,-4408.2 1242.7,-4377.3 1238.1,-4375.6C1233.5,-4373.9 1232.7,-4383.2 1225.7,-4404.2C1206.3,-4425.8 1141.4,-4583.6 1144.6,-4575.2L1067.7,-4730.2C1087.1,-4762.8 1113.3,-4781 1113.3,-4781L1265.2,-4836.1" style="fill:rgb(1,1,0);fill-rule:nonzero;stroke:rgb(1,1,0);stroke-width:6.26px;"/>
        <path d="M1328.9,-4827.4C1332.1,-4826.3 1335.2,-4825.1 1338.2,-4823.7C1369.4,-4809.4 1393.3,-4777.5 1423.4,-4730.9C1456.4,-4679.8 1568.4,-4470.4 1568.4,-4470.4L1529.4,-4443.6C1529.4,-4443.6 1405.1,-4610.9 1377.4,-4651.2C1374.2,-4655.8 1372.3,-4658.8 1372,-4659.6" style="fill:white;fill-rule:nonzero;"/>
        <path d="M1144.6,-4575.1C1145,-4574 1145.6,-4569.1 1146.5,-4561.2C1152.2,-4506.2 1166.8,-4308.7 1166.8,-4308.7L1119.8,-4303.4C1119.8,-4303.4 1067.7,-4535 1059.3,-4595.3C1051.6,-4650.1 1048.9,-4689.7 1063,-4720.9C1064.4,-4724 1066,-4727.1 1067.8,-4730.1" style="fill:white;fill-rule:nonzero;"/>
        <path d="M1126.1,-4791.7L1193.9,-4743.5L1198.3,-4774L1136.4,-4815.7L1126.1,-4791.7Z" style="fill:white;fill-rule:nonzero;stroke:white;stroke-width:6.26px;"/>
        <path d="M1244.5,-4835.8L1224.7,-4754.9L1201.5,-4775.1L1221,-4847.1L1244.5,-4835.8Z" style="fill:white;fill-rule:nonzero;stroke:white;stroke-width:6.26px;"/>
        <path d="M246.7,-4343.6C234.4,-4355.3 214.4,-4400.5 215.3,-4427.3C216,-4448.4 310.6,-4742 330.4,-4770.8C340.9,-4786.2 352.5,-4792.4 358.8,-4794.9C363.2,-4789.8 370.5,-4778.8 372.6,-4760.3C376.6,-4725.6 323,-4421.8 313.7,-4402.8C301.8,-4378.8 263.1,-4348.2 246.7,-4343.6Z" style="fill:rgb(11,11,11);"/>
        <path d="M369.3,-4837.6C385.5,-4833.1 400.3,-4823.7 403.1,-4814.5C410.3,-4790.3 367.8,-4778.3 350.1,-4760.3C342.9,-4784.5 311,-4814.9 328.6,-4833C335.4,-4839.8 352.9,-4841.2 369.3,-4837.6Z" style="fill:rgb(11,11,11);"/>
        <path d="M401.7,-4800.6L362,-4838.9C348,-4840.7 334.4,-4838.9 328.6,-4833C327.9,-4832.3 327.3,-4831.6 326.8,-4830.9L379,-4780.6C388.8,-4786.6 397.7,-4793 401.7,-4800.6Z" style="fill:rgb(157,206,228);"/>
        <path d="M396.6,-4793.8L349.2,-4839.5C343.1,-4839.3 337.6,-4838.2 333.5,-4836.2L386.3,-4785.3C390.1,-4788 393.7,-4790.8 396.6,-4793.8Z" style="fill:white;"/>
        <path d="M351.4,-4761.4L348.9,-4763.8C349.4,-4762.6 349.8,-4761.3 350.1,-4760.1C350.5,-4760.6 350.9,-4761 351.4,-4761.4Z" style="fill:rgb(0,158,226);"/>
        <path d="M372.9,-4740.7L334.5,-4777.7C332.9,-4775.8 331.3,-4773.7 329.7,-4771.3C327.2,-4767.6 323.7,-4760.3 319.4,-4750.3L368.7,-4702.8C370.6,-4717.7 372.1,-4730.6 372.9,-4740.7Z" style="fill:rgb(157,206,228);"/>
        <path d="M371.9,-4729.9L329.4,-4770.9C327.7,-4768.3 325.5,-4764.1 323.1,-4758.6L370.1,-4713.3C370.7,-4719.2 371.4,-4724.8 371.9,-4729.9Z" style="fill:white;"/>
        <path d="M363,-4662.6L306.4,-4717.1C302.8,-4707.5 299.1,-4697.1 295.1,-4686L357.2,-4626.1C359.3,-4638.6 361.2,-4650.9 363,-4662.6Z" style="fill:rgb(157,206,228);"/>
        <path d="M361.4,-4652.3L303.2,-4708.4C301.6,-4704 299.9,-4699.4 298.3,-4694.7L358.9,-4636.3C359.8,-4641.7 360.6,-4647.1 361.4,-4652.3Z" style="fill:white;"/>
        <path d="M350.8,-4586.7L283.3,-4651.7C279.8,-4641.4 276.2,-4630.7 272.6,-4620L344.5,-4550.7C346.7,-4562.6 348.7,-4574.7 350.8,-4586.7Z" style="fill:rgb(157,206,228);"/>
        <path d="M349.1,-4576.6L280.3,-4642.9C278.7,-4638.3 277.2,-4633.7 275.6,-4629L346.3,-4560.8C347.2,-4566 348.2,-4571.3 349.1,-4576.6Z" style="fill:white;"/>
        <path d="M337.5,-4511.8L261.2,-4585.3C257.7,-4574.5 254.2,-4563.8 250.9,-4553.3L330.8,-4476.3C333,-4487.4 335.2,-4499.4 337.5,-4511.8Z" style="fill:rgb(157,206,228);"/>
        <path d="M335.7,-4501.8L258.3,-4576.3C256.8,-4571.6 255.3,-4566.9 253.8,-4562.2L332.7,-4486.1C333.7,-4491.3 334.7,-4496.5 335.7,-4501.8Z" style="fill:white;"/>
        <path d="M323.1,-4438L239.9,-4518.2C236.3,-4506.7 233,-4495.8 230,-4485.8L314.9,-4404C316.6,-4408.7 319.5,-4420.9 323.1,-4438Z" style="fill:rgb(157,206,228);"/>
        <path d="M321,-4428.3L237.1,-4509.2C235.6,-4504.3 234.2,-4499.6 232.8,-4495L317.6,-4413.3C318.6,-4417.3 319.7,-4422.4 321,-4428.3Z" style="fill:white;"/>
        <path d="M295.2,-4377.3L219.7,-4450.1C216.4,-4438.1 214.5,-4430.1 214.4,-4427.4C214.3,-4422.7 214.7,-4417.5 215.7,-4412L272.3,-4357.4C280.1,-4363.1 288.1,-4370 295.2,-4377.3Z" style="fill:rgb(157,206,228);"/>
        <path d="M289.1,-4371.4L217.2,-4440.7C215.5,-4433.9 214.5,-4429.3 214.4,-4427.4L214.4,-4425L279.1,-4362.7C282.5,-4365.4 285.9,-4368.3 289.1,-4371.4Z" style="fill:white;"/>
        <path d="M669.7,-5914.7L711.4,-5903.7C711.4,-5903.7 739.2,-5899.8 770.9,-5879.1C802.6,-5858.3 818.8,-5819.5 837.6,-5761.7C856.5,-5703.8 911.3,-5472.8 911.3,-5472.8L866.7,-5456.9C866.7,-5456.9 770.6,-5697 769.8,-5706C768.9,-5715 779.9,-5544.7 771.9,-5516.8C774.9,-5494.9 778.2,-5486.1 773.3,-5485.6C768.4,-5485.1 680.3,-5476.5 680.3,-5476.5L660.6,-5474.6C660.6,-5474.6 572.5,-5465.9 567.6,-5465.5C562.7,-5465 564.3,-5474.2 562.9,-5496.3C549.7,-5522.2 527.3,-5691.3 528.2,-5682.3C529.1,-5673.3 481.6,-5419.1 481.6,-5419.1L434.8,-5426C434.8,-5426 443.6,-5663.3 450.9,-5723.7C458.1,-5784.1 466.5,-5825.3 493.5,-5851.9C520.5,-5878.4 583,-5904.1 583,-5904.1C583,-5904.1 634.4,-5853.9 669.7,-5914.7Z" style="fill:rgb(1,1,0);fill-rule:nonzero;stroke:rgb(1,1,0);stroke-width:9.39px;"/>
        <path d="M665.3,-5817.6L727.5,-5824C727.5,-5824 723.1,-5760.7 702.8,-5758.6C682.4,-5756.6 665.3,-5817.6 665.3,-5817.6Z" style="fill:white;fill-rule:nonzero;stroke:white;stroke-width:9.39px;"/>
        <path d="M1159.6,-5756.5C1164.3,-5767.2 1166.7,-5777.8 1166.1,-5786.9C1162.8,-5837.5 1100,-5841.4 1098.9,-5841.5C1098.3,-5842.4 1064.9,-5895.7 1018.9,-5874.4C972.5,-5852.9 932.6,-5727.9 1024.3,-5715.9C1061.9,-5664.3 1116.8,-5693.5 1146.1,-5733.4L1159.6,-5756.5Z" style="fill:rgb(1,1,0);fill-rule:nonzero;stroke:rgb(1,1,0);stroke-width:9.39px;"/>
        <g>
            <path d="M1104.1,-5840.4C1109.7,-5859.8 1127.3,-5873.3 1147.2,-5874.1C1154.8,-5874.4 1155,-5886.3 1147.3,-5886C1122,-5885 1099.7,-5868.2 1092.6,-5843.6C1090.5,-5836.2 1102,-5833 1104.1,-5840.4Z" style="fill:rgb(1,1,0);fill-rule:nonzero;stroke:rgb(1,1,0);stroke-width:9.39px;"/>
        </g>
        <g>
            <path d="M1084.8,-5846.4C1084.8,-5846.4 1114.4,-5898.2 1046.8,-5917.8C1046.8,-5917.8 1024.7,-5852 1084.8,-5846.4Z" style="fill:white;fill-rule:nonzero;"/>
            <g>
                <path d="M1089.9,-5843.3C1095.3,-5852.9 1097.9,-5864.9 1097,-5875.8C1094.8,-5902.2 1071.5,-5916.5 1048.4,-5923.5C1045.2,-5924.5 1042.1,-5922.3 1041.1,-5919.3C1037,-5907 1036,-5893.4 1037.8,-5880.6C1041.2,-5855.8 1061.3,-5842.8 1084.8,-5840.3C1092.4,-5839.5 1092.5,-5851.4 1084.9,-5852.2C1064.3,-5854.4 1050.5,-5866.4 1049,-5887.4C1048.3,-5896.9 1049.6,-5907.1 1052.6,-5916.2C1050.2,-5914.8 1047.7,-5913.4 1045.3,-5912C1064.1,-5906.3 1084.1,-5895.3 1085.3,-5873.5C1085.8,-5865.1 1083.3,-5855.6 1079.7,-5849.3C1075.9,-5842.7 1086.1,-5836.6 1089.9,-5843.3Z" style="fill:white;fill-rule:nonzero;"/>
            </g>
        </g>
    </g>
</svg>
