<svg xmlns="http://www.w3.org/2000/svg" width="297.42" height="337.558" viewBox="-5 -5 81.046 91.666">
  <path class="st38" d="M19.68 18.24s4.272-6.522 4.884-7.66c.61-1.137 1.439-3.267 3.894-3.894 2.453-.627 3.802-.093 6.504 1.211 2.704 1.305 6.26 1.956 7.12 1.86l.045 2.84-12.018-1.43-8.794 9.102s-1.826-1.495-1.636-2.029z"/>
  <path class="st39" d="M265.03 1639.14s-.27-12.08 9.43-10.93c9.7 1.15 6.88 12.74 5.31 14.41-1.57 1.67 4.04 13.42 4.04 13.42" opacity=".92" fill="none" stroke="#000" stroke-width="3.269" transform="matrix(.26458 0 0 .26458 -47.083 -430.774)"/>
  <path class="st40" d="M32.784 86.666L19.431 47.31l-1.786 3.516s-.238.92-1.675.42c-1.437-.502-13.623-3.11-15.327-3.158-1.704-.048.402-2.57 1.455-4.543C3.15 41.57 7.65 30.387 7.845 29.6c.193-.786 9.276-9.332 9.792-9.76.516-.429 1.791-2.657 2.373-2.91 0 0 6.189 8.363 14.417 4.812 8.229-3.55 6.229-12.414 6.229-12.414s.627-.35 1.61-.159c.988.193 3.17.497 4.496.564 1.326.066 6.79.513 8.496.439 1.706-.074 2.455.127 3.114.479.659.352 4.244 2.362 6.382 3.717s4.797 2.953 6.62 3.194c1.823.24 4.699 1.243 4.672 1.569-.024.325-4.842 6.07-5.162 6.903-.32.83-4.006 7.032-4.535 6.908-.526-.125-4.442-1.855-4.442-1.855s4.366 12.277 4.813 13.489c.447 1.211 8.305 21.484 8.366 22.52.06 1.035 1.333 3.266.746 4.118-.585.852-6.832 3.947-10.443 5.12-3.614 1.174-7.234.762-8.81 1.714-1.578.953-1.104 1.36-3.967 2.31s-4.916 1.124-8.551 2.94c-3.636 1.814-10.954 3.196-11.277 3.367z" fill="#fff"/>
</svg>
